<svg width="318" height="31" viewBox="0 0 318 31" fill="none" xmlns="http://www.w3.org/2000/svg">
<path d="M9 14.364C8.44772 14.364 8 14.8117 8 15.364C8 15.9163 8.44772 16.364 9 16.364V15.364V14.364ZM309.707 16.0711C310.098 15.6806 310.098 15.0474 309.707 14.6569L303.343 8.29295C302.953 7.90242 302.319 7.90242 301.929 8.29295C301.538 8.68347 301.538 9.31664 301.929 9.70716L307.586 15.364L301.929 21.0209C301.538 21.4114 301.538 22.0446 301.929 22.4351C302.319 22.8256 302.953 22.8256 303.343 22.4351L309.707 16.0711ZM9 15.364V16.364H309V15.364V14.364H9V15.364Z" fill="#F5BEFF"/>
<g filter="url(#filter0_f_24022_8357)">
<path d="M9 14.364C8.44772 14.364 8 14.8117 8 15.364C8 15.9163 8.44772 16.364 9 16.364V15.364V14.364ZM309.707 16.0711C310.098 15.6806 310.098 15.0474 309.707 14.6569L303.343 8.29295C302.953 7.90242 302.319 7.90242 301.929 8.29295C301.538 8.68347 301.538 9.31664 301.929 9.70716L307.586 15.364L301.929 21.0209C301.538 21.4114 301.538 22.0446 301.929 22.4351C302.319 22.8256 302.953 22.8256 303.343 22.4351L309.707 16.0711ZM9 15.364V16.364H309V15.364V14.364H9V15.364Z" fill="#F5BEFF"/>
</g>
<defs>
<filter id="filter0_f_24022_8357" x="0" y="0" width="318" height="30.728" filterUnits="userSpaceOnUse" color-interpolation-filters="sRGB">
<feFlood flood-opacity="0" result="BackgroundImageFix"/>
<feBlend mode="normal" in="SourceGraphic" in2="BackgroundImageFix" result="shape"/>
<feGaussianBlur stdDeviation="4" result="effect1_foregroundBlur_24022_8357"/>
</filter>
</defs>
</svg>
