<svg width="160" height="48" viewBox="0 0 160 48" fill="none" xmlns="http://www.w3.org/2000/svg">
<g clip-path="url(#clip0_24212_5451)">
<path d="M5.62036 25.2902L14.1509 25.2845C16.1634 25.2849 17.7615 25.5643 19.2689 27.083C20.0213 27.8378 20.5509 28.7853 20.7995 29.8212C21.1294 31.1542 21.0194 33.7808 21.0145 35.2496L21.0258 40.8728C21.0207 42.9319 20.8359 44.6346 19.2573 46.1915C18.478 46.946 17.5081 47.4747 16.4515 47.7207C15.3323 47.9816 13.1097 47.8953 11.8738 47.8954L4.89681 47.8831C4.87073 47.8822 4.84467 47.8813 4.81861 47.8802C3.57297 47.8288 2.30813 47.2031 1.46957 46.2861C0.874403 45.6313 0.452653 44.8382 0.242753 43.9788C0.109689 43.4357 0.0538796 42.7793 0.0781184 42.216C0.192892 39.5486 -0.504339 36.6865 1.75671 34.6647C3.1679 33.4029 4.47432 33.3576 6.2507 33.3525C7.46133 33.349 8.63457 33.3498 9.84223 33.3488C11.9745 33.3997 14.1929 33.2662 16.3191 33.386C16.2823 31.0289 16.2837 29.8878 13.5382 30.0185C13.0204 30.0432 12.3697 30.0224 11.8414 30.0229L5.63143 30.0275C5.63951 28.4484 5.63582 26.8693 5.62036 25.2902ZM5.4675 42.9534C7.06915 43.5115 11.6164 42.9395 13.4475 43.1532C13.7306 43.1863 14.9161 43.16 15.2261 43.118C16.0437 42.8215 16.4596 42.1696 16.3557 41.3194C16.1763 39.8498 16.9819 37.4702 14.6589 37.5451C11.8621 37.6353 8.69096 37.3486 5.93208 37.5581C4.19082 38.2051 4.97984 40.2332 4.83589 41.6824C4.82298 41.8125 4.84523 42.0685 4.85777 42.2042C5.06225 42.488 5.21183 42.7127 5.4675 42.9534Z" fill="white"/>
<path d="M85.145 25.3189C85.5128 25.2671 86.3156 25.2943 86.7389 25.2788C89.8783 25.1642 92.6194 25.789 94.9107 28.0784C98.2234 31.3874 97.8462 34.5282 97.8619 38.7907C96.1735 38.7472 94.3086 38.7854 92.6092 38.7851L80.8185 38.8106C81.0536 39.9109 81.4768 40.885 82.2882 41.6895C82.8997 42.3072 83.6651 42.7516 84.5046 42.9772C85.6268 43.2749 90.8302 43.1544 92.3468 43.1519C93.4526 43.1536 94.5585 43.1675 95.6619 43.1027C95.6729 44.718 95.6721 46.3333 95.6596 47.9486C94.6803 47.8172 93.3831 47.8508 92.3796 47.8516L87.6658 47.86C84.4718 47.8664 82.3031 47.7632 79.6736 45.599C77.6769 43.9551 76.4148 41.586 76.1648 39.0125C76.0797 38.1243 76.1799 37.214 76.1136 36.362C75.6758 30.7327 79.2933 25.8708 85.145 25.3189ZM80.7623 35.2091L88.7545 35.2142C90.1422 35.2147 91.833 35.2588 93.1973 35.1873C93.1059 33.6287 92.7849 32.359 91.5401 31.2285C89.7697 29.6207 87.594 29.9366 85.3972 29.984C85.3714 29.9845 85.3261 29.9933 85.3004 29.9977C82.4031 30.3927 80.956 32.3968 80.7623 35.2091Z" fill="white"/>
<path d="M26.0615 25.2884C28.0595 25.3555 30.174 25.2436 32.2078 25.3088C33.8319 27.3847 36.0764 30.4799 37.5637 32.6392C39.2071 30.3491 41.2172 27.4782 42.9381 25.3006C44.7841 25.2281 47.1974 25.2899 49.0616 25.3047C46.3468 28.9963 43.3919 33.2581 40.5795 36.8003C41.3553 37.6827 42.1733 38.9368 42.9028 39.8922C44.8344 42.4213 46.6969 45.2695 48.6626 47.7452L48.5641 47.8601C47.2486 47.9786 44.092 47.8967 42.6586 47.9122C41.2847 46.1436 40.0068 44.2777 38.6679 42.4812C38.2945 41.9801 37.909 41.4542 37.5743 40.9279C36.8693 42.0347 35.8796 43.3136 35.0868 44.3927C34.2824 45.4875 33.3285 46.8784 32.4688 47.9004C30.5741 47.8914 28.2527 47.8188 26.3906 47.9163C27.2048 46.6605 28.6099 44.8552 29.5391 43.5873C31.188 41.3089 32.8558 39.0441 34.5424 36.7934C33.7353 35.8121 32.7723 34.4196 32.0086 33.3733L28.1712 28.1416C27.5149 27.2393 26.7548 26.1294 26.0615 25.2884Z" fill="white"/>
<path d="M109.996 25.3204C112.749 25.2077 115.818 25.3147 118.625 25.2781C118.636 26.8978 118.636 28.5177 118.625 30.1374L111.533 30.1207C110.141 30.1195 108.249 30.282 107.9 32.1102C107.682 33.2501 107.801 34.9899 107.802 36.1995L107.808 43.9805C107.813 45.2505 107.837 46.5761 107.785 47.8392C106.308 47.7797 104.494 47.8312 102.992 47.8329C102.891 44.6259 103.02 41.1373 102.971 37.9025C102.95 36.4453 102.875 32.1648 103.115 30.9647C103.356 29.778 103.898 28.6731 104.69 27.7565C106.157 26.0742 107.85 25.4706 109.996 25.3204Z" fill="white"/>
<path d="M64.1003 17.654C65.4305 17.7396 67.5438 17.6622 68.9311 17.6548C68.8167 22.1676 68.9279 27.1866 68.9246 31.7401L68.9196 37.5726C68.9193 38.6627 68.8896 39.8419 68.9597 40.9218C69.0516 42.3372 70.1942 42.4907 70.8615 43.0565C71.1354 43.6467 71.0113 47.0871 71.008 47.9254C68.9828 47.5987 67.7452 47.2402 66.2301 45.7467C64.053 43.6005 64.0901 41.415 64.0907 38.5904L64.0941 34.173L64.1003 17.654Z" fill="white"/>
<path d="M130.094 19.2183C130.9 19.1458 132.486 19.1927 133.327 19.1939L139.332 19.1988L158.972 19.1895C159.39 20.0608 159.516 20.669 159.741 21.6031C153.238 21.4892 146.465 21.5778 139.941 21.5787L132.553 21.5799C131.017 21.5801 127.749 21.4441 126.464 21.8515C125.839 22.1943 125.365 22.997 124.635 23.1467C123.488 23.3817 122.158 23.3202 120.987 23.3186L116.373 23.312L98.0764 23.3382C98.0991 22.9359 98.1459 21.7473 98.3279 21.6921C98.9956 21.4889 102.609 21.5947 103.239 21.5951L119.403 21.5984L123.651 21.5991C124.261 21.5998 125.737 21.6586 126.266 21.5237C128.201 21.0298 127.902 19.67 130.094 19.2183Z" fill="white"/>
<path d="M132.157 15.7129C132.843 15.6275 134.325 15.6677 135.049 15.6691L140.326 15.6756C145.61 15.6753 151.161 15.5824 156.424 15.6849C157.262 16.2489 157.843 17.173 158.409 18.0044C156.487 18.0757 154.122 18.0151 152.166 18.0149L137.688 18.0146C135.143 18.0152 132.59 18.0033 130.043 18.0364C128.394 18.0579 128.289 19.3457 126.797 19.6192C126.337 19.7033 125.683 19.678 125.205 19.6741L107.946 19.6698C105.143 19.6702 101.503 19.5649 98.7529 19.7044C99.0442 19.0226 99.2465 18.6063 99.6221 17.9735L121.061 17.9742L125.793 17.9845C126.585 17.9873 128.247 18.0577 128.924 17.8919C130.528 17.4989 130.414 16.2321 132.157 15.7129Z" fill="white"/>
<path d="M54.166 25.2883C55.7512 25.3105 57.3844 25.2888 58.9734 25.2873C58.8946 30.5715 59.0257 35.9404 58.9659 41.2293C58.9416 43.3815 59.0379 45.7663 58.9457 47.8931C57.6558 47.8535 55.4607 47.8236 54.195 47.9039L54.1922 32.2602C54.1919 30.0115 54.2426 27.5226 54.166 25.2883Z" fill="white"/>
<path d="M122.738 29.9914C123.715 29.9045 125.593 29.9616 126.647 29.963L134.018 29.9703L157.763 29.9646C156.693 30.9313 156.546 31.4118 155.13 32.3521L142.815 32.3447L127.437 32.3517L122.845 32.3448C121.957 32.3408 121.074 32.3244 120.182 32.3555C118.884 32.4008 118.373 33.6886 117.291 33.9226C116.434 34.108 114.959 34.0453 114.044 34.0421C112.553 34.0291 111.061 34.0321 109.57 34.051C109.555 33.4734 109.562 32.8954 109.591 32.3182C112.374 32.243 116.518 32.515 119.309 32.2015C120.438 32.0746 120.794 30.2903 122.738 29.9914Z" fill="white"/>
<path d="M135.248 12.0503C136.822 11.9878 138.761 12.0417 140.358 12.0425L150.317 12.0338C150.365 12.2793 150.401 12.6474 150.434 12.9044C152.313 13.1087 153.262 13.5309 154.951 14.4342L139.752 14.4336L134.947 14.4318C134.083 14.4302 133.192 14.4222 132.326 14.4389C131.035 14.464 130.556 15.7688 129.548 15.9714C128.355 16.211 126.709 16.1322 125.452 16.1277L120.57 16.1229L107.705 16.1256C105.961 16.1261 102.644 16.0337 101.003 16.1864C101.513 15.5507 102.336 14.8848 103.02 14.4451C104.572 14.3142 107.414 14.4161 109.079 14.4169L123.674 14.4173L128.297 14.4209C128.937 14.4213 130.294 14.4573 130.86 14.3959C133.253 14.1364 132.579 12.3017 135.248 12.0503Z" fill="white"/>
<path d="M125.411 26.4064C126.306 26.3443 127.946 26.3947 128.908 26.3949L135.829 26.3977C143.696 26.4009 151.677 26.474 159.534 26.3873C159.206 27.2989 158.99 27.9938 158.43 28.7882C156.785 28.7289 154.922 28.7696 153.261 28.7686L132.895 28.7749C129.671 28.7756 126.442 28.7699 123.218 28.7685C121.699 28.7679 121.339 29.2318 120.341 30.2621L120.343 28.7162C123.702 28.9257 122.652 26.783 125.411 26.4064Z" fill="white"/>
<path d="M137.557 8.44846C138.713 8.38704 140.339 8.43691 141.524 8.4373L149.189 8.43839C149.563 9.18158 149.821 10.0558 150.059 10.8492C146.871 10.7429 143.492 10.8794 140.282 10.8292C138.476 10.801 136.517 10.8174 134.707 10.8551C133.563 10.8789 132.737 12.321 131.776 12.4313C130.662 12.5591 129.146 12.5072 127.991 12.5064L120.617 12.5006L112.531 12.4994C111.187 12.4994 109.279 12.447 107.98 12.5407C108.149 11.9344 108.298 11.3431 108.546 10.7636C114.166 10.8677 120.002 10.7881 125.638 10.7896L130.629 10.7966C131.18 10.798 133.225 10.83 133.685 10.7238C135.704 10.2569 135.084 8.86025 137.557 8.44846Z" fill="white"/>
<path d="M139.851 4.87549C141.818 4.73707 145.004 4.78397 146.986 4.87294C147.551 5.46738 148.177 6.49673 148.555 7.22155C145.94 7.28188 143.225 7.17954 140.601 7.22214C139.47 7.2405 138.137 7.16448 137.03 7.28481C135.822 7.41615 135.336 8.8452 134.001 8.89967C132.226 8.97202 130.417 8.93667 128.642 8.93604L118.333 8.93253L112.749 8.92566C111.742 8.92512 110.382 8.88641 109.406 8.97647C109.969 8.27482 110.243 7.8006 110.915 7.18237L128.922 7.18321L133.568 7.1959C134.079 7.19731 135.888 7.23025 136.292 7.11439C138.202 6.56658 137.628 5.39353 139.851 4.87549Z" fill="white"/>
<path d="M142.476 1.27106C143.459 1.31075 145.247 3.0589 146.014 3.70599C143.988 3.58715 141.922 3.67335 139.897 3.67C138.145 3.66711 137.814 5.29158 136.383 5.32722C134.155 5.38271 131.894 5.35565 129.663 5.35489L116.269 5.35156C115.275 5.34331 114.281 5.35421 113.289 5.38426C116.101 3.69942 119.446 3.60478 122.464 4.76582C122.69 4.5038 123.254 3.80992 123.549 3.74598C124.294 3.58464 125.546 3.65832 126.34 3.65953L134.457 3.6696C135.306 3.67075 137.732 3.7288 138.423 3.61432C140.4 3.28675 139.988 1.63919 142.476 1.27106Z" fill="white"/>
<path d="M55.8791 17.677C56.7201 17.4316 57.6282 17.6606 58.252 18.2755C58.8757 18.8904 59.1175 19.7947 58.8836 20.6385C58.6498 21.4824 57.9771 22.1335 57.1257 22.3401C55.8503 22.6495 54.5611 21.8846 54.2223 20.6174C53.8835 19.3502 54.6192 18.0445 55.8791 17.677Z" fill="white"/>
<path d="M98.2195 25.0585C100.465 25.0871 102.711 25.0864 104.957 25.0564C104.577 25.3399 104.201 25.6919 103.845 26.0102C103.567 26.3225 103.353 26.5136 103.038 26.791C101.788 26.8801 99.9009 26.8311 98.6107 26.8194C98.4452 26.1956 98.3374 25.6934 98.2195 25.0585Z" fill="white"/>
<path d="M99.5681 28.7303C100.351 28.7355 101.135 28.731 101.918 28.717L101.419 30.1879C101.333 30.4692 101.26 30.4966 100.986 30.4995C100.42 30.2445 99.8329 29.2781 99.5681 28.7303Z" fill="white"/>
<path d="M120.343 25.0434C121.399 25.0725 123.162 25.1752 124.141 24.9758C125.477 24.7037 126.017 22.8381 127.574 22.7485C128.805 22.6777 130.112 22.7103 131.342 22.7105L138.807 22.7139L152.488 22.7117C154.753 22.7116 157.022 22.7101 159.287 22.7148C159.535 22.7154 159.741 22.7104 159.938 22.8681V23.7104C159.862 24.0108 159.783 24.7863 159.74 25.1254L137.908 25.1176L129.66 25.1166C128.157 25.1167 126.65 25.1043 125.146 25.1374C123.691 25.1694 123.483 26.2026 122.252 26.6315C121.654 26.8399 120.975 26.834 120.341 26.8539L120.343 25.0434Z" fill="white"/>
<path d="M129.138 0H140.161C140.412 0.0307003 140.845 0.0924808 140.989 0.320167L140.933 0.486053C140.53 0.849046 139.802 1.57216 139.318 1.653C137.994 1.87384 136.066 1.78112 134.7 1.77954C131.725 1.76055 128.75 1.7662 125.775 1.79652C127.01 0.945147 127.777 0.625714 129.138 0Z" fill="white"/>
</g>
<defs>
<clipPath id="clip0_24212_5451">
<rect width="159.938" height="48" fill="white"/>
</clipPath>
</defs>
</svg>
