<svg width="32" height="32" viewBox="0 0 32 32" fill="none" xmlns="http://www.w3.org/2000/svg">
<path opacity="0.4" d="M29.3334 25.3335V21.3335C29.3334 19.1244 27.5426 17.3335 25.3334 17.3335H24.0001C23.1607 17.3335 22.3704 17.7287 21.8667 18.4002L20.2667 20.5335C19.2595 21.8765 17.6788 22.6668 16.0001 22.6668C14.3214 22.6668 12.7406 21.8765 11.7334 20.5335L10.1334 18.4002C9.6298 17.7287 8.83943 17.3335 8.00008 17.3335H6.66675C4.45761 17.3335 2.66675 19.1244 2.66675 21.3335L2.66675 25.3335C2.66675 27.5426 4.45761 29.3335 6.66675 29.3335L25.3334 29.3335C27.5426 29.3335 29.3334 27.5426 29.3334 25.3335Z" fill="white"/>
<path fill-rule="evenodd" clip-rule="evenodd" d="M21.333 2.66699C24.2785 2.66699 26.667 5.05448 26.667 8L26.667 17.5605C26.25 17.4131 25.8005 17.333 25.333 17.333H24C23.1606 17.333 22.3698 17.7289 21.8662 18.4004L20.2666 20.5332C19.2594 21.8762 17.6787 22.667 16 22.667C14.3213 22.667 12.7406 21.8762 11.7334 20.5332L10.1338 18.4004C9.63018 17.7289 8.83935 17.333 8 17.333H6.66699C6.19948 17.333 5.75005 17.4131 5.33301 17.5605L5.33301 8C5.33301 5.05448 7.72147 2.66699 10.667 2.66699L21.333 2.66699ZM16.667 7C14.2739 7 12.3332 8.93992 12.333 11.333C12.333 12.1673 12.569 12.9472 12.9775 13.6084L11.293 15.293C10.9024 15.6835 10.9024 16.3165 11.293 16.707C11.6835 17.0976 12.3165 17.0976 12.707 16.707L14.3916 15.0225C15.0528 15.431 15.8327 15.667 16.667 15.667C19.0601 15.6668 21 13.7261 21 11.333C20.9998 8.94003 19.06 7.00018 16.667 7ZM16.667 9C17.9554 9.00018 18.9998 10.0446 19 11.333C19 12.6216 17.9555 13.6668 16.667 13.667C15.3783 13.667 14.333 12.6217 14.333 11.333C14.3332 10.0445 15.3784 9 16.667 9Z" fill="white"/>
</svg>
