<svg width="32" height="32" viewBox="0 0 32 32" fill="none" xmlns="http://www.w3.org/2000/svg">
<path opacity="0.4" d="M25.7333 24.5333C27.2165 26.511 25.8054 29.3333 23.3333 29.3333L8.66658 29.3333C6.19445 29.3332 4.78331 26.511 6.26659 24.5333L11.3166 17.7999C12.1166 16.7333 12.1166 15.2666 11.3166 14.1999L6.26659 7.46659C4.78331 5.48888 6.19445 2.66658 8.66659 2.66659L23.3333 2.66659C25.8054 2.66659 27.2165 5.48888 25.7333 7.46659L20.6833 14.1999C19.8833 15.2666 19.8833 16.7333 20.6833 17.7999L25.7333 24.5333Z" fill="white"/>
<path d="M16.7808 12.3572C16.3805 12.8576 15.6194 12.8576 15.219 12.3572L11.9663 8.29128C11.4425 7.63652 11.9087 6.66659 12.7472 6.66659L19.2526 6.66659C20.0911 6.66659 20.5573 7.63652 20.0335 8.29128L16.7808 12.3572Z" fill="white"/>
</svg>
