<svg width="112" height="48" viewBox="0 0 112 48" fill="none" xmlns="http://www.w3.org/2000/svg">
<path d="M51.1929 19.1305C52.5929 19.0867 52.9718 19.5612 53.6575 20.658C54.8586 18.9959 58.3297 18.1556 58.8623 20.8401C59.1292 22.1868 58.4669 24.1916 58.2389 25.5573C58.1 26.3899 57.8818 27.3329 57.6646 28.1616C57.3283 28.2644 55.563 28.5674 55.3968 28.0392C55.0741 27.012 58.0234 19.7457 54.9543 21.4881C53.4684 22.3318 53.1425 24.4718 52.8808 25.9807C52.7622 26.7024 52.6203 27.42 52.4551 28.1324C52.0119 28.3757 50.0611 28.4806 50.1114 27.9881C50.3045 26.4988 50.656 24.9565 50.9308 23.4753C51.7941 18.8215 47.9345 22.2952 47.8937 24.7124C47.8859 25.1798 47.3306 27.6664 47.2175 28.1538C46.6487 28.335 45.3899 28.5084 44.9094 28.0894C44.9041 28.0256 44.9028 27.9615 44.9052 27.8975C44.9329 27.1844 45.3708 25.3095 45.5116 24.5282C45.8156 22.9921 46.0878 21.4491 46.3993 19.9147C46.456 19.6355 46.5567 19.4183 46.839 19.3054C47.2334 19.1477 47.8025 19.1341 48.2137 19.2205C48.3888 19.2572 48.4758 19.4962 48.5401 19.6415C48.4977 19.9816 48.4583 20.322 48.4221 20.6627C49.2884 19.6991 49.8693 19.2751 51.1929 19.1305Z" fill="white"/>
<path d="M79.6495 16.5995C79.7955 16.5875 79.942 16.5793 80.0886 16.5746C80.4517 16.5637 80.8187 16.5598 81.1824 16.5644C83.6723 16.5957 86.2065 16.6348 86.2705 19.7912C86.2962 20.9919 85.8488 22.1541 85.0258 23.0252C84.5834 23.4843 83.4606 24.1938 82.8465 24.3602C81.9802 24.595 80.6929 24.577 79.7818 24.594L79.6035 25.1846C79.4269 26.1713 79.2431 27.6718 78.8133 28.511C78.3468 28.6868 76.908 28.8301 76.4902 28.5437C76.3217 28.1852 78.3977 18.0156 78.7504 17.0127C79.0769 16.8043 79.2863 16.7193 79.6495 16.5995ZM80.1083 22.5334C81.0653 22.5328 81.668 22.632 82.5042 22.1607C83.4727 21.3838 83.6291 20.4524 83.4645 19.2797C82.759 18.5409 81.8698 18.7461 80.9352 18.7128C80.9111 19.0782 80.7793 19.3839 80.6995 19.7538C80.5075 20.6814 80.3106 21.608 80.1083 22.5334Z" fill="white"/>
<path d="M39.1964 19.1323C40.1669 19.0782 40.9607 19.3228 41.6906 19.9746C42.236 19.0435 42.9176 19.167 43.8679 19.1848C43.9292 19.3263 44.0091 19.4738 44.0804 19.612C43.6769 21.568 43.357 23.5979 42.9465 25.562C42.7434 26.534 42.683 27.1621 42.3793 28.1501C41.8273 28.3292 40.3049 28.6735 40.2896 27.8105C40.288 27.7181 40.3649 27.3585 40.3881 27.2483L40.357 27.1337C40.1551 27.1704 39.5904 27.7703 39.342 27.9053C37.4801 28.9171 35.1198 28.5202 34.9158 26.0404C34.7244 23.7133 35.4955 20.8078 37.6539 19.567C38.1736 19.2683 38.6098 19.1927 39.1964 19.1323ZM38.856 26.1591C39.8728 25.6086 40.4205 24.8399 40.7827 23.7434C41.2137 22.4383 41.0411 21.2331 39.3907 21.21C38.061 21.6769 37.6939 22.9911 37.4362 24.265C37.2306 25.2816 37.4571 26.7131 38.856 26.1591Z" fill="white"/>
<path d="M90.4476 19.5118C91.9395 19.3885 92.2288 19.5377 93.3854 20.3508C93.6009 19.9323 93.7787 19.8452 94.1565 19.56C94.8822 19.4863 95.2902 19.3071 95.6692 20.0092C95.4597 21.3297 94.4065 27.7852 93.882 28.507C93.6113 28.7054 93.2176 28.6804 92.8976 28.6868C92.1375 28.7022 91.9696 28.5905 92.0697 27.858C92.0516 27.7083 92.0697 27.6283 91.9849 27.534C91.0891 28.052 91.0804 28.4672 89.8597 28.7231C88.3143 29.0471 86.9378 28.3798 86.6704 26.7481C86.2159 23.977 87.3272 20.1185 90.4476 19.5118ZM90.5942 26.4702C90.7123 26.4134 91.1602 26.2011 91.2444 26.1215C91.7383 25.6548 92.1484 24.7722 92.3967 24.1538C92.6083 23.6278 92.6433 23.0687 92.7582 22.5598C92.3278 21.9045 91.7771 21.5274 90.9644 21.5831C90.207 21.9063 89.8078 22.4217 89.5223 23.1928C89.2396 23.9569 88.8797 25.3175 89.1931 26.1085C89.4654 26.7962 90.0544 26.7138 90.5942 26.4702Z" fill="white"/>
<path d="M29.1238 19.1323C29.1585 19.1306 29.1933 19.1291 29.2281 19.1279C30.1687 19.0944 30.9291 19.353 31.6182 19.9981C32.0753 19.0336 32.7882 19.1442 33.7164 19.2067C33.7801 19.3486 33.884 19.4955 33.9707 19.6275C33.2615 22.2215 32.9733 25.139 32.3421 27.7679C32.2936 28.1467 32.0046 28.2974 31.616 28.3067C30.3923 28.3359 30.0585 28.4979 30.3114 27.2377C30.2938 27.145 30.311 27.1891 30.2432 27.1083C30.1242 27.1961 30.01 27.305 29.8998 27.4057C28.1771 28.9819 25.0445 28.8808 24.835 26.0414C24.6227 23.1625 25.8011 19.4633 29.1238 19.1323ZM28.762 26.1681C29.8065 25.5935 30.3607 24.8265 30.7186 23.6875C31.1288 22.3819 30.9401 21.2658 29.3336 21.2082C28.4645 21.4894 28.3728 21.7799 27.9107 22.4938C27.3415 23.3733 26.6014 27.0208 28.762 26.1681Z" fill="white"/>
<path d="M64.2688 19.1311C65.3227 19.0813 66.0123 19.309 66.7981 20.016C66.9556 19.6292 67.1082 19.5195 67.4205 19.2633C67.8274 19.157 68.4492 19.1724 68.8763 19.1814L69.0956 19.6226C68.7248 21.2471 68.5049 22.9819 68.1467 24.6179C67.8881 25.7999 67.7634 26.9886 67.3839 28.1419C67.0552 28.2906 66.2097 28.4354 65.851 28.3479C65.2456 28.2004 65.3478 27.8354 65.4681 27.3672L65.4397 27.2197C65.3254 27.2087 64.5253 27.8323 64.2475 27.9811C63.8215 28.2083 63.3572 28.3557 62.8781 28.4161C61.2321 28.6142 60.1301 27.5322 60.0071 25.9231C59.8676 24.0941 60.3713 22.0939 61.5164 20.6405C62.2531 19.706 63.1144 19.2528 64.2688 19.1311ZM63.9878 26.1548C65.5119 25.3757 66.091 23.7303 66.1102 22.0976C65.706 21.4986 65.239 21.2038 64.4953 21.2074C63.7767 21.4527 63.3824 21.8233 63.0575 22.5176C62.6517 23.384 62.305 24.7182 62.5878 25.6652C62.8092 26.4069 63.3955 26.3789 63.9878 26.1548Z" fill="white"/>
<path d="M99.6093 19.859C99.6951 20.229 99.7531 20.9187 99.816 21.3293L100.343 24.6357C100.389 24.9144 100.371 25.2402 100.478 25.4801L100.553 25.4999C100.812 25.2329 100.964 24.7555 101.115 24.4164C101.482 23.5957 101.866 22.7754 102.187 21.9357C102.418 21.3338 102.586 20.6593 102.88 20.0881C103.008 19.8411 103.231 19.676 103.491 19.5902C103.796 19.4895 104.777 19.4052 105.05 19.5708C105.187 19.6534 105.273 19.8276 105.313 19.9769C105.6 21.0649 103.356 25.3083 102.697 26.4306C102.265 27.1657 101.745 27.8411 101.33 28.5836C101.013 29.1204 100.429 29.7383 100.094 30.3146C99.3112 31.6594 98.159 32.7057 97.1161 33.8596C97.0433 33.8679 96.9706 33.8749 96.8973 33.8807C96.4615 33.9153 95.0041 34.0015 94.6983 33.7384C94.5819 33.4014 95.1244 32.7758 95.3201 32.515C95.9009 31.74 96.1902 31.1569 97.0122 30.5921C97.4612 29.2242 98.0387 29.5403 98.4997 28.3399C98.3881 27.6629 98.1732 26.964 98.043 26.2684C97.6509 24.2047 97.3108 22.1312 97.0237 20.05C97.3458 19.6554 97.5208 19.5689 97.9911 19.5194C98.3865 19.5081 98.818 19.5194 99.2161 19.5222L99.6093 19.859Z" fill="white"/>
<path d="M12.436 13.0889C13.2111 13.2941 15.4901 17.2244 16.1713 17.7356C18.1502 19.2206 20.5594 20.5589 22.6072 21.9339L22.5723 22.0404C21.8195 22.1263 19.5913 21.9332 18.7438 21.8875C16.6983 21.7919 14.6518 21.7155 12.6048 21.6581C12.5623 21.3287 12.5611 20.8678 12.5727 20.5327C12.6189 19.2006 12.4703 17.8793 12.4453 16.5536C12.4233 15.392 12.5184 14.2557 12.436 13.0889Z" fill="white"/>
<path d="M11.6225 26.853C11.8266 26.8696 12.1541 27.012 12.2639 27.1849C12.6869 27.8391 13.0303 28.5537 13.442 29.2145C14.4826 30.885 15.5387 32.5753 16.4078 34.3456C14.6637 33.6036 13.2371 33.0628 11.5357 32.1784C10.0576 31.0581 7.30685 31.7878 5.57894 31.5606C5.32628 31.5274 4.9579 31.5859 4.90234 31.2934C5.25316 30.857 11.0179 27.0545 11.6225 26.853Z" fill="white"/>
<path d="M11.33 13.1152L11.4018 13.1632C11.599 13.9412 10.1208 20.3583 9.8185 21.5453C9.80675 21.5914 9.71542 21.8155 9.69475 21.8687C9.16701 21.6911 8.59006 21.6414 8.11515 21.4799C6.79888 21.0325 5.38801 20.3849 4.05685 20.0233C3.02218 19.5314 2.78368 19.563 1.77222 18.8681C2.3835 18.7752 6.66768 17.6827 7.01544 17.4589C7.69318 17.0228 9.00153 15.4811 9.56421 14.8103C10.0919 14.1813 10.5883 13.5037 11.33 13.1152Z" fill="white"/>
<path d="M1.88647 19.748C2.13765 19.826 2.43661 20.2434 2.69006 20.4016C4.51552 21.541 6.31813 22.7193 8.11587 23.9029C8.58077 24.209 9.04414 24.5204 9.46999 24.8801C8.59975 26.1506 7.44562 27.2894 6.41219 28.4209C5.80412 29.1096 4.5235 30.6795 3.8261 31.2177C3.81962 29.4929 4.38727 26.9089 4.12949 25.2945C3.95933 24.2287 1.89718 20.839 1.88647 19.748Z" fill="white"/>
<path d="M21.7415 22.9146C21.9246 22.925 21.8973 22.8955 22.0197 22.9933C21.9954 23.6803 19.0361 26.479 18.5248 27.4683C18.0475 28.3918 17.6403 32.9328 17.1544 33.2274C16.9076 33.0589 16.7237 31.9053 16.4521 31.4155L16.4387 31.3919C15.9521 29.444 15.0502 27.4247 14.5484 25.4658C14.4516 25.0876 14.3401 24.7182 14.2241 24.3455C15.0539 24.0491 15.4646 24.0676 16.2923 23.9075C18.1145 23.555 19.9204 23.2598 21.7415 22.9146Z" fill="white"/>
<path d="M75.7444 19.1292C76.0009 19.1219 76.4997 19.0968 76.7108 19.2319C76.9186 19.5921 76.6391 21.3603 76.4138 21.4403C75.8205 21.6511 75.1615 21.2466 74.5096 21.8006C72.9297 23.143 72.6945 26.2403 72.3855 28.1704C71.5789 28.3631 70.7509 28.4108 69.9497 28.1781C69.7704 27.7463 70.46 25.3411 70.5929 24.6701L71.1939 21.5243C71.5329 19.6986 71.2699 18.9496 73.4765 19.2473C73.8637 19.8367 73.4847 19.9428 73.6576 20.2786C74.4122 19.7333 74.5233 19.2753 75.7444 19.1292Z" fill="white"/>
<path d="M106.199 15.619C106.367 15.2119 106.445 14.6984 106.79 14.5503C107.059 14.5776 107.146 14.7836 107.153 15.0369C107.167 15.4982 107.355 16.627 106.981 16.93C106.66 16.8384 106.848 16.6702 106.574 16.6647C106.441 16.7693 106.31 16.9053 106.149 16.8938C105.933 16.7551 105.913 16.6122 105.829 16.3552C105.759 16.5616 105.715 16.7596 105.55 16.9003L105.438 16.9081C105.234 16.6314 105.327 15.3226 105.319 14.8886L105.337 14.7945C105.505 14.6611 105.538 14.6328 105.74 14.5679C106.125 14.6539 106.095 15.2568 106.199 15.619Z" fill="white"/>
<path d="M55.6326 30.9165C55.6955 30.9313 56.0624 31.2192 56.0865 31.2962C55.5249 32.0578 56.2528 34.2732 54.4414 34.4442L54.3681 34.3793L54.3826 34.215C54.9047 33.9671 54.9736 33.9216 55.3203 33.4674C55.089 33.4156 54.5788 33.3465 54.4455 33.1675C54.0988 32.7232 54.5779 31.6309 54.9676 31.3254C55.153 31.1805 55.3799 31.1599 55.6326 30.9165ZM54.8199 32.9618C55.0185 33.0193 55.0961 33.0779 55.2739 33.0261C55.4461 32.7217 55.6036 31.7331 55.5407 31.4106L55.5014 31.3553C54.9649 31.5473 54.5752 32.3886 54.7428 32.8986L54.8199 32.9618Z" fill="white"/>
<path d="M73.5755 29.9917C73.7636 30.0477 73.7171 30.005 73.8243 30.1476C73.8675 30.4008 73.7489 30.6009 73.7024 30.8975C73.774 31.053 73.8478 31.1081 74.0343 31.0894C74.9695 30.9951 74.6911 31.8353 74.4899 32.3962C74.363 32.7497 74.2246 32.8797 73.9446 33.1656C73.756 33.3217 73.5214 33.4084 73.2785 33.4275C72.7771 33.2308 72.9936 32.5296 73.0757 32.0991C73.2085 31.397 73.33 30.6629 73.5755 29.9917ZM73.6061 31.5783C73.5345 31.9232 73.2742 32.7259 73.4043 32.9911C73.4765 33.0347 73.5389 33.0759 73.6176 33.1068C74.0885 32.798 74.3668 31.9289 74.1678 31.412C74.1027 31.3466 74.0775 31.3052 73.9873 31.2956C73.8861 31.369 73.692 31.5018 73.6061 31.5783Z" fill="white"/>
<path d="M34.779 31.1135C34.9417 31.1364 35.0229 31.1023 35.1662 31.0879C36.1712 30.9871 35.3949 32.8434 35.0451 33.137C34.5692 33.5364 34.3932 33.3327 34.0975 33.9738C34.0278 34.2928 33.9613 34.5276 33.8642 34.8397C33.7327 34.1587 34.0498 31.8113 34.2678 31.229C34.3939 31.1142 34.6025 31.1251 34.779 31.1135ZM34.6378 31.5824C34.5377 31.9063 34.2735 32.7151 34.4057 33.023C34.475 33.0594 34.5268 33.0909 34.6029 33.1116C35.1838 32.7884 35.4335 31.3816 35.0148 31.253L34.6378 31.5824Z" fill="white"/>
<path d="M42.5816 30.8989C42.8526 31.2427 42.5128 31.5875 42.3585 31.9698C42.1768 32.4198 41.8887 33.3673 41.3281 33.3547C41.1424 33.0718 41.3139 32.4893 41.081 32.2989C40.7396 32.5471 40.8405 33.1364 40.659 33.3778C40.4756 33.4053 40.55 33.418 40.3795 33.3205C40.1411 32.967 40.215 32.0064 40.2292 31.5652C40.2106 31.3364 40.197 31.2561 40.2483 31.035L40.3139 31.0022C40.4847 31.0902 40.5316 31.1034 40.6246 31.2694C40.6759 31.6439 40.2187 31.7137 40.4513 32.2048L40.5541 32.2146C40.8976 31.9211 40.6049 31.9732 40.6588 31.7462L40.8815 31.7706C41.1565 31.6563 40.9707 31.2138 41.3688 31.0729C41.5568 31.1468 41.4918 31.0973 41.6133 31.2626C41.6727 31.5854 41.1927 32.3374 41.7094 32.3856C41.8882 32.2429 41.8567 32.0482 41.9778 31.8399C42.1915 31.4724 42.3689 31.2949 42.5816 30.8989Z" fill="white"/>
<path d="M38.0076 30.8564C38.1967 31.039 38.2663 31.0656 38.498 31.1876C38.8311 31.8495 38.4538 33.2228 37.6529 33.3679C37.4581 33.3785 37.356 33.3775 37.1615 33.3633C36.8049 33.0506 37.0865 31.6403 37.4189 31.3355C37.6293 31.1425 37.7978 31.1544 38.0076 30.8564ZM37.6115 33.1172C38.3058 32.8065 38.2579 31.7203 38.0364 31.1138L37.9561 31.0459C37.7417 31.6384 37.2054 32.1032 37.4483 32.9817C37.5033 33.0358 37.5426 33.0828 37.6115 33.1172Z" fill="white"/>
<path d="M32.0193 30.8788L32.0607 30.876C32.3171 31.159 32.3632 31.3388 32.311 31.7222C32.2705 32.0206 32.1862 33.1521 31.9973 33.3161C31.8517 33.3383 31.8124 33.3501 31.6653 33.307C31.5899 32.9685 32.0832 31.9834 31.8726 31.499C31.7307 31.3876 31.7891 31.4163 31.5893 31.4147C31.0524 31.67 31.2286 33.1064 30.9829 33.3711C30.811 33.4156 30.8717 33.4259 30.7421 33.3569C30.6638 33.1907 30.7367 32.9415 30.771 32.7507C30.7774 32.6993 30.9664 31.4505 30.9752 31.567C30.7817 31.4141 30.7315 31.3678 30.4972 31.4683C30.2122 31.7925 30.2602 32.6593 30.0263 33.2645C29.849 33.3759 29.921 33.3642 29.7246 33.3508C29.6743 33.2296 30.0125 31.3835 30.0402 31.0954C30.4429 31.1592 31.361 31.2013 31.7973 31.1456C31.9082 31.1315 31.9634 30.9802 32.0193 30.8788Z" fill="white"/>
<path d="M63.4769 30.9131C64.4804 31.4821 63.9614 33.0263 62.9464 33.3752L62.6932 33.383C62.1781 33.1131 62.5089 32.0803 62.6002 31.6087C62.8824 31.3085 63.1438 31.151 63.4769 30.9131ZM63.0727 33.0976C63.467 32.8584 63.7935 31.8813 63.5442 31.465C63.4862 31.4245 63.4435 31.3837 63.379 31.3697C63.2018 31.4469 63.0213 31.4814 62.9552 31.675C62.7889 32.1626 62.6205 32.7415 63.0727 33.0976Z" fill="white"/>
<path d="M87.824 30.8452L87.9098 30.875L87.9372 30.9717L87.8081 31.1741C87.9 31.2136 88.0881 31.1719 88.1975 31.1571C88.355 31.2428 88.2987 31.1963 88.4048 31.3645C88.4687 31.8126 87.8732 32.1779 87.5019 32.2944C87.3263 32.49 87.1376 32.6298 87.2093 32.9045C87.4116 33.0817 87.754 33.0729 88.0296 33.0943C88.0389 33.1544 88.0132 33.1891 87.9864 33.245C87.6588 33.4009 87.2612 33.3772 86.9036 33.3719C86.547 32.5997 86.6903 31.8623 87.3137 31.2912C87.5221 31.1003 87.6271 31.1121 87.824 30.8452ZM87.8628 31.8911C88.0312 31.7192 88.052 31.755 88.0766 31.5611C87.9842 31.4651 87.8502 31.4701 87.7195 31.4673C87.6025 31.4659 87.4849 31.4668 87.3679 31.4702C87.2733 31.6258 87.2219 31.684 87.2366 31.8652C87.4094 32.1023 87.6304 31.9895 87.8628 31.8911Z" fill="white"/>
<path d="M76.6033 30.8594C76.8385 31.5196 76.2397 32.674 76.5333 33.06L76.6925 33.0607C77.2951 32.7453 77.1354 31.4554 77.4832 30.9934L77.5762 31.0014C77.6757 31.1676 77.6632 31.2301 77.655 31.4269L77.3443 33.333C76.9112 33.3599 76.465 33.3758 76.0307 33.3968C75.9744 32.6333 76.1144 31.4747 76.6033 30.8594Z" fill="white"/>
<path d="M27.6854 30.9956C27.8669 31.0516 27.9621 31.064 28.0762 31.2151C28.1861 31.5203 28.0808 31.7512 27.986 32.0591L27.3536 32.3112C27.2223 32.4742 27.0859 32.5811 27.0282 32.7873C27.1367 33.1357 27.6886 32.9573 28.0355 33.1887C27.3448 33.4139 26.4664 33.5982 26.6147 32.5333C26.7312 31.6962 27.0765 31.4428 27.6854 30.9956ZM27.4144 31.9669C27.6618 31.9141 27.6337 31.9597 27.7808 31.8027C27.8393 31.5317 27.7112 31.3618 27.4386 31.3188C27.3306 31.4903 27.0947 31.8377 27.1524 32.036C27.3087 32.0457 27.2494 32.0501 27.4144 31.9669Z" fill="white"/>
<path d="M84.9246 31.0161C85.075 31.0676 85.2648 31.1115 85.3599 31.2314C85.3709 31.6131 85.1641 33.221 84.8973 33.4019L84.7934 33.3811C84.5751 33.0564 85.0318 31.9011 84.9164 31.4467C84.8048 31.3925 84.5358 31.4549 84.3963 31.4762C84.2076 31.6666 84.2476 32.8545 83.9435 33.2812C83.7701 33.3854 83.8456 33.3692 83.6586 33.3574C83.5766 33.1718 83.7603 32.8714 83.7937 32.6297C83.8648 32.1244 83.932 31.619 83.9993 31.1132C84.3143 31.1428 84.6681 31.211 84.9246 31.0161Z" fill="white"/>
<path d="M66.0473 30.9014C66.4334 31.2368 65.6431 32.6125 66.0128 33.0387C66.8041 33.1805 66.5471 31.3288 66.8594 31.0955L66.9824 31.1478C67.0929 31.3263 67.0705 31.2498 67.0524 31.4641C67.007 32.071 66.902 32.7208 66.7965 33.321C66.3535 33.3382 65.9669 33.3567 65.5234 33.4013C65.5217 32.484 65.4823 31.658 66.0473 30.9014Z" fill="white"/>
<path d="M44.9192 31.0923C45.1835 31.0641 45.253 31.1125 45.4096 31.3239C45.5689 31.9935 44.4281 32.2714 44.2651 32.7466C44.3838 33.1588 44.9327 32.9386 45.2461 33.2074C44.9012 33.3104 44.4751 33.4756 44.1563 33.2366C43.5227 32.7616 44.0846 31.5008 44.635 31.1782C44.6672 31.1593 44.8804 31.1025 44.9192 31.0923ZM44.642 31.9777C45.1439 31.8025 45.1199 31.4342 44.7039 31.3154C44.6232 31.483 44.44 31.8061 44.4487 31.9733C44.5666 32.018 44.5156 32.0153 44.642 31.9777Z" fill="white"/>
<path d="M59.6765 30.8901C60.1917 31.0995 59.758 32.1476 60.0725 32.3444C60.2797 32.2165 60.5368 31.3082 60.9097 30.9875L60.9808 31.0138C61.0803 31.3988 60.4793 32.4993 60.2901 32.9385C60.1299 33.2394 59.5786 34.2518 59.2418 34.3597C59.1411 33.9989 59.6787 33.5312 59.7421 33.2165C59.8789 32.541 59.3736 31.5729 59.6765 30.8901Z" fill="white"/>
<path d="M104.112 15.1817C103.992 15.0465 103.905 14.9695 103.861 14.7939C104.025 14.3719 105.01 14.6826 105.337 14.7944L105.319 14.8886C105.113 14.9159 104.85 15.0193 104.648 15.0896C104.637 15.4865 104.731 16.6023 104.462 16.937C104.439 16.9658 104.352 16.9459 104.305 16.942C104.139 16.7941 104.153 15.5411 104.112 15.1817Z" fill="white"/>
<path d="M93.4629 30.8535C93.545 30.8711 93.5215 30.8683 93.5898 30.9428C93.5537 31.162 93.551 31.2555 93.4236 31.4331C93.2229 31.4862 93.0851 31.5587 92.9002 31.6474C93.8097 32.3237 93.8868 33.5279 92.5617 33.3309C92.3998 33.2502 92.4086 33.2846 92.3276 33.1491C92.5163 32.9812 92.9183 33.1491 93.143 32.9237C93.1835 32.6218 92.7088 32.0089 92.5169 31.6445C92.892 31.1238 93.0254 31.2549 93.4629 30.8535Z" fill="white"/>
<path d="M90.8337 30.8516C90.9337 30.9512 90.9042 30.9027 90.9141 31.0926C90.7041 31.4886 90.6767 31.3064 90.3284 31.5991C90.2715 31.5919 90.3814 31.724 90.3973 31.7442C91.1005 32.6696 91.1924 33.5214 89.7011 33.2863L89.5966 33.2536L89.5742 33.176C89.753 33.0187 90.0691 33.1681 90.5001 32.909C90.6762 32.5211 89.8657 32.2265 89.8909 31.7442C89.9171 31.2422 90.4574 31.2201 90.8189 30.8665L90.8337 30.8516Z" fill="white"/>
<path d="M80.0276 30.854L80.1025 30.9138C80.1468 31.0829 80.1348 31.1082 80.079 31.2697C79.945 31.4409 79.6153 31.5574 79.4053 31.6489C80.4071 32.292 80.4629 33.5471 79.0345 33.3017C78.9333 33.225 78.9645 33.2648 78.9131 33.1504C79.105 32.9739 79.449 33.1816 79.7345 32.9232C79.8482 32.5607 79.1521 32.0271 79.1335 31.6384C79.2795 31.2484 79.6825 31.1988 80.0276 30.854Z" fill="white"/>
<path d="M69.0188 30.9087C69.3431 31.1874 69.4082 31.0268 69.639 31.2105C69.5761 31.4182 69.3573 31.4967 69.2485 31.653C68.9751 32.0443 68.9133 32.7071 68.8739 33.158C68.8673 33.2811 68.8356 33.3231 68.7804 33.4315L68.7093 33.4473C68.2887 33.0556 68.7492 31.3908 69.0188 30.9087Z" fill="white"/>
<path d="M47.3834 30.9487C47.7225 31.2849 47.7241 31.0797 48.1457 31.0933C47.9523 31.3445 47.9163 31.3654 47.6645 31.5587L47.3194 32.8822C47.2535 33.1584 47.2438 33.2445 47.0363 33.4374L46.9613 33.4038C46.8553 33.1049 47.254 31.2411 47.3834 30.9487Z" fill="white"/>
<path d="M51.7834 30.9424C51.9523 30.969 52.1638 31.1259 52.2069 31.2991C51.8693 31.7458 51.7267 32.7758 51.6865 33.3252C51.5882 33.3888 51.6146 33.369 51.4832 33.3777L51.3913 33.2676C51.2824 32.7681 51.5456 31.3714 51.7834 30.9424Z" fill="white"/>
<path d="M52.6179 30.832C53.1297 31.1924 52.8229 32.6748 52.6929 33.215C52.6738 33.2944 52.4414 33.3384 52.361 33.3625C52.2509 33.3184 52.2437 33.3189 52.1804 33.2232C52.2688 33.0531 52.4398 32.7285 52.4703 32.5504C52.5865 31.8729 52.2563 31.4316 52.6179 30.832Z" fill="white"/>
<path d="M49.9947 30.2822C50.1249 30.3736 50.0839 30.3212 50.1327 30.507C49.9115 31.2427 49.8977 32.1572 49.733 32.9092C49.6574 33.2543 49.6081 33.265 49.3605 33.419C49.3185 33.3538 49.3142 33.3253 49.2886 33.2528C49.562 32.5766 49.49 31.5368 49.878 30.824C49.8621 30.8531 49.9624 30.3716 49.9947 30.2822Z" fill="white"/>
<path d="M82.2793 30.9409L82.3603 30.9794C82.6129 31.2665 82.2099 33.1123 81.9867 33.4253L81.8167 33.3805C81.7057 33.1589 82.1437 31.205 82.2793 30.9409Z" fill="white"/>
</svg>
