<svg width="150" height="64" viewBox="0 0 150 64" fill="none" xmlns="http://www.w3.org/2000/svg">
<path d="M139.823 20.4436C143.646 20.359 146.814 23.386 146.905 27.2076C146.994 31.0293 143.97 34.2011 140.148 34.2957C136.319 34.3904 133.139 31.3608 133.049 27.5322C132.959 23.7035 135.994 20.5284 139.823 20.4436ZM140.432 32.134C142.145 31.9719 143.639 30.9026 144.345 29.3336C145.05 27.7646 144.858 25.9377 143.843 24.5491C142.827 23.1605 141.144 22.4242 139.435 22.6208C136.829 22.9205 134.95 25.2626 135.223 27.8711C135.497 30.4795 137.82 32.3812 140.432 32.134Z" fill="#FDFDFD"/>
<path d="M92.5951 20.4398C96.4124 20.2591 99.6556 23.2035 99.8424 27.0201C100.029 30.8365 97.0892 34.0834 93.2726 34.2762C89.4464 34.4695 86.19 31.5222 86.0025 27.697C85.8158 23.8718 88.7689 20.6208 92.5951 20.4398ZM88.161 26.9291C87.9742 27.2818 87.8343 28.8426 88.068 29.1283L88.1976 29.152L88.2042 29.1951C88.5323 31.1404 89.9576 31.9515 91.6825 32.5055L91.5624 32.5077C93.8343 33.218 96.0682 32.2194 97.1148 30.0831C97.1544 30.0012 97.1507 29.707 97.1493 29.6045C98.0582 27.8937 97.8451 25.8038 96.6095 24.3117C95.3739 22.8196 93.3597 22.2201 91.5089 22.7935C89.6581 23.3669 88.3368 25 88.161 26.9291Z" fill="#FDFDFD"/>
<path d="M97.1491 29.6045C97.1506 29.707 97.1542 30.0011 97.1147 30.0831C96.068 32.2193 93.8342 33.218 91.5622 32.5077L91.6823 32.5055C89.9575 31.9515 88.5322 31.1404 88.204 29.1951L88.1974 29.152L88.0678 29.1283C87.8342 28.8426 87.974 27.2817 88.1608 26.9291C87.955 29.1967 89.3774 31.2949 91.56 31.9447C93.7426 32.5944 96.0805 31.6154 97.1491 29.6045Z" fill="#FDFDFD"/>
<path d="M42.1985 20.9831C43.3194 20.9314 44.669 20.9925 45.8001 21.0197C46.6115 21.0392 47.131 21.1475 47.9925 21.1074C51.4507 22.1885 52.9023 26.2902 51.8803 29.5519C51.3667 31.1998 50.2078 32.5697 48.6675 33.3493C46.9205 34.2513 43.6021 34.2034 41.6519 34.0395C41.7419 33.7267 41.7135 32.1241 41.7141 31.6636L41.6925 24.7498C41.6877 23.6939 41.6551 22.5173 41.7225 21.4587C41.7344 21.2714 42.0288 21.1088 42.1985 20.9831ZM43.7771 31.9828C45.6538 32.1971 46.9607 32.0515 48.4695 30.8533C48.5095 30.8217 48.5489 30.7893 48.5877 30.7562C50.3818 28.8324 50.4672 25.8799 48.573 23.9345C47.3369 22.665 45.5741 22.7368 43.917 22.6468C43.6856 22.9859 43.7416 30.9545 43.7771 31.9828Z" fill="#FDFDFD"/>
<path d="M64.4618 20.7124C65.2803 20.6227 65.7921 20.6171 66.6062 20.711C66.7319 22.1585 66.6069 24.3925 66.6513 25.962C68.1454 24.9159 71.025 20.9126 71.9183 20.7315C72.1813 20.7387 72.4551 20.7388 72.7117 20.7999C72.932 20.8524 73.1132 20.9927 73.32 21.0138L73.5111 21.0707C73.5478 21.1932 73.5448 21.1437 73.4687 21.2895C73.5639 21.3094 73.6635 21.3332 73.7602 21.3432C73.6547 21.407 72.6272 22.5489 72.5442 22.6674C71.789 23.7461 69.2194 25.893 68.8715 26.9989C69.0551 27.6367 73.862 32.9105 74.7079 33.9864C74.1498 33.9957 72.5161 34.1522 72.1372 33.958C70.6329 33.1873 68.1005 28.9191 66.7168 28.3083C66.5344 30.1781 66.6966 32.1793 66.5601 34.1158C66.1249 34.0317 64.9665 34.048 64.4651 34.0498C64.3258 30.6283 64.4118 27.187 64.3892 23.762C64.3825 22.7521 64.385 21.7185 64.4618 20.7124Z" fill="#FDFDFD"/>
<path d="M76.0234 20.7079C76.5881 20.6617 77.3835 20.5597 77.9109 20.7C78.3372 21.0927 78.083 24.9811 78.198 26.0008C79.6614 25.0105 82.5112 20.9815 83.4172 20.7358C84.1848 20.7372 84.5715 20.8018 85.2849 21.1279L85.323 21.3533C84.7905 21.7899 84.3276 22.4392 83.8567 22.9526C82.8518 24.0479 81.7678 25.1182 80.8296 26.2679C80.6941 26.434 80.4399 26.7253 80.4158 26.9358C80.3667 27.3667 85.6233 33.1599 86.251 33.986C85.4775 34.0213 84.4053 34.2068 83.6641 33.9507C82.468 33.5377 79.8679 29.213 78.2676 28.2348C78.0376 30.0701 78.3152 32.5952 78.0266 34.1116C77.3916 34.0608 76.665 34.0378 76.0315 34.0322C76.0937 32.6414 76.0374 30.8642 76.0359 29.4249L76.0234 20.7079Z" fill="#FDFDFD"/>
<path d="M113.836 20.3897C115.649 20.2892 117.17 20.8388 118.305 22.2719C117.788 22.9609 117.559 23.0133 116.781 23.3556C115.537 22.6131 114.06 21.9046 112.714 23.1244C112.501 23.3167 112.119 24.0032 112.203 24.2917C112.82 26.4151 115.988 26.2762 117.417 27.6851C118.055 28.263 118.512 29.0783 118.521 29.9805C118.547 33.0511 116.701 34.167 114.028 34.3325L113.695 34.3126C111.666 34.1811 110.941 33.746 109.648 32.2728C109.879 32.022 110.893 31.192 111.216 31.3424C112.718 32.0424 114.666 33.0994 115.979 31.39C116.459 30.7651 116.341 29.8353 115.871 29.2402C114.168 27.657 110.489 27.7456 110.1 24.9007C109.718 22.1166 111.211 20.8173 113.836 20.3897Z" fill="#FDFDFD"/>
<path d="M128.733 26.2404L128.89 26.1557C129.043 25.2486 128.926 21.786 129.242 21.2426C129.528 21.0431 130.128 21.0083 130.424 21.2196C130.765 22.0423 130.592 31.7476 130.509 33.2751C130.361 33.4347 130.152 33.5234 129.957 33.6248L130.006 33.6231C130.214 33.6178 130.378 33.6481 130.493 33.8426C130.232 34.0455 130.148 33.9159 129.81 34.0458C129.598 34.0636 128.986 34.0193 128.745 34.0067C128.77 33.5053 128.729 32.7782 128.727 32.2513L128.728 28.2491C127.129 28.2585 124.348 28.3788 122.885 28.2562C122.903 29.7083 122.904 31.1606 122.888 32.6127C122.536 33.7129 122.415 33.6118 121.24 33.4609C121.011 33.0087 121 28.2542 120.88 27.3135C120.916 26.4965 120.945 25.5261 121.007 24.7232C121.063 24.0086 120.853 21.5734 121.264 21.1602C121.519 21.0449 122.125 21.1576 122.421 21.2078L122.562 21.4321C122.613 21.2959 122.613 21.2897 122.725 21.2011C122.691 22.0948 122.725 25.3647 122.804 26.1971C123.163 26.5121 123.475 26.466 123.951 26.4759C123.867 26.5006 123.437 26.5126 123.322 26.5179C123.597 26.6207 124.731 26.6506 125.03 26.6052C125.836 26.4829 128.265 26.9346 128.733 26.2404Z" fill="#FDFDFD"/>
<path d="M54.5362 34.0352C54.6919 33.5342 54.5423 32.7282 54.5961 32.3041C54.7684 30.948 54.3435 21.8752 54.6481 21.2569C55.8987 20.6612 58.5313 21.1411 59.971 20.9911C61.2155 20.8613 61.9292 21.6463 61.3194 22.3991C61.0825 22.6916 57.0966 22.2915 56.6388 22.7004C56.4616 23.3578 56.5347 25.4029 56.5461 26.2043C57.906 26.3841 59.2603 26.2768 60.6186 26.4537C60.9605 26.4982 61.3475 27.6338 60.9435 27.9197C60.3043 28.3718 56.7493 27.9429 56.5316 28.4451C56.536 29.5829 56.5091 30.8884 56.5542 32.0124C58.2335 32.1461 60.3197 32.0865 62.037 32.0808C62.0807 32.8632 62.0578 33.3217 62.0175 34.0965C61.5132 34.0315 60.973 34.0637 60.4627 34.0616C58.4866 34.0537 56.5107 34.1264 54.5362 34.0352Z" fill="#FDFDFD"/>
<path d="M6.52047 31.2708C6.57126 31.0241 6.62836 30.287 6.65932 30.0033C6.72238 30.3055 6.74898 30.7903 6.81131 31.1511C6.9179 32.0509 6.90504 32.9502 6.99772 33.8391C7.06323 34.4673 7.45528 34.6057 7.3764 35.3492C7.34073 35.6852 8.16478 37.0932 7.96754 37.424L7.8305 37.4531L7.7985 37.399C7.59342 37.0571 7.34806 36.9365 7.24007 36.6978C7.12235 36.4376 7.03577 35.8612 6.95172 35.5793C6.45624 33.9174 6.47395 32.977 6.52047 31.2708Z" fill="#FDFDFD"/>
<path d="M6.52075 31.2708C6.50088 31.0262 6.49433 30.7807 6.50114 30.5353C6.50532 30.318 6.56274 28.9875 6.69682 28.8584C6.91103 29.3932 6.83411 30.5474 6.81159 31.1511C6.74926 30.7903 6.72267 30.3055 6.65961 30.0033C6.62864 30.287 6.57155 31.0241 6.52075 31.2708Z" fill="#FDFDFD"/>
<path d="M105.511 20.7045C106.049 20.6658 107.072 20.5361 107.516 20.7817C107.693 21.091 107.679 31.8461 107.601 32.981C107.291 33.3154 107.688 33.4702 106.787 33.505C106.489 33.5176 106.192 33.4903 105.901 33.4237L105.823 33.5136L105.894 33.876L105.741 33.8042L105.73 33.7699C105.678 33.6008 105.64 33.4868 105.525 33.352C105.446 32.7368 105.488 29.5784 105.498 28.8032C105.535 26.164 105.424 23.3201 105.511 20.7045Z" fill="#FDFDFD"/>
<path d="M29.9863 18.9303C30.6363 18.8846 30.5233 19.238 30.9582 19.0998C32.0828 19.6348 33.961 22.2661 34.6518 23.3077C35.9452 25.4576 36.5928 27.2912 37.1065 29.746C37.2141 30.2599 37.3935 30.7949 37.4904 31.3129C37.9275 33.6361 37.869 36.0254 37.3187 38.3245C37.2533 38.5977 37.1693 38.8661 37.0671 39.1278L37.0016 39.3078C36.7776 39.5383 36.7347 39.6259 36.5783 39.9108C36.5173 39.6047 36.4708 39.2729 36.1245 39.3184C35.9589 39.4523 35.9123 39.538 35.7937 39.7129C35.9356 39.3132 36.1283 38.532 35.9949 38.1242C36.0077 37.7564 36.5052 35.7716 36.6112 35.2005C36.7014 33.6251 36.7516 31.6597 36.5053 30.0972C35.8084 25.8374 33.4707 22.0198 29.9928 19.4623C30.0153 19.286 29.9974 19.1078 29.9863 18.9303Z" fill="#FDFDFD"/>
<path d="M36.6109 35.2006C36.622 36.369 37.2086 37.6755 37.0668 39.1279L37.0014 39.3079C36.7773 39.5384 36.7345 39.626 36.578 39.9109C36.517 39.6048 36.4705 39.273 36.1243 39.3185C35.9586 39.4524 35.912 39.5381 35.7935 39.713C35.9353 39.3133 36.128 38.5321 35.9947 38.1243C36.0075 37.7565 36.505 35.7717 36.6109 35.2006Z" fill="#FDFDFD"/>
<path d="M11.8324 21.823C12.0812 21.6664 12.166 21.5755 12.4423 21.6873L11.9808 22.4426L11.8814 22.6143C10.4626 24.3758 10.0593 25.4351 9.26311 27.5422L9.18166 27.9927L9.03035 28.5439C8.42427 31.5542 8.17905 32.7038 8.94246 35.738C9.07576 37.3246 9.16306 37.1869 9.6644 38.6586C10.4064 40.8369 11.4607 42.3551 12.9548 44.0709C13.2254 44.3816 13.89 45.243 14.1681 45.4733C14.225 45.5204 14.2839 45.5651 14.3444 45.6074C13.7811 45.4233 13.2834 45.0721 12.8028 44.7305C12.6053 44.5206 12.3946 44.3146 12.1971 44.1024C11.3634 43.2064 10.5556 42.1533 9.94734 41.0928C9.81155 40.856 9.7457 40.2175 9.62866 39.9245C9.50906 39.6251 9.06836 39.0507 8.9894 38.7958C8.77458 38.1029 8.66816 37.2923 8.56489 36.5697C8.49531 36.083 8.27851 35.5898 8.20666 35.1547C8.06135 34.2746 8.04531 33.2482 8.05 32.3557C8.06194 30.1129 8.62546 27.5372 9.56875 25.5026C9.82839 24.9426 10.3743 24.1067 10.695 23.5526C10.8954 23.2063 11.5747 22.0716 11.8324 21.823Z" fill="#FDFDFD"/>
<path d="M27.3579 16.5538C27.9743 16.6412 28.5311 16.4964 29.0668 16.5869C33.3052 17.3021 37.2867 19.6397 38.2571 24.1292C38.599 25.7112 39.0603 28.3726 38.7385 29.9276C38.5766 30.7101 38.4477 33.0779 38.1594 33.5923L38.0419 33.6571C37.1463 32.3743 40.5724 23.9979 34.4439 19.2946C33.0424 18.2191 31.894 17.8454 30.2374 17.3692C29.8484 17.2574 29.4344 17.0762 29.0387 17.0104C28.8313 16.9759 28.676 17.0116 28.492 17.1078C28.0351 17.0149 27.724 16.8168 27.3579 16.5538Z" fill="#FDFDFD"/>
<path d="M30.0333 46.1517C32.0757 44.8458 33.7172 43.0007 34.7764 40.8204C35.1266 40.0811 35.6486 38.7514 35.9946 38.1243C36.1279 38.5321 35.9352 39.3133 35.7934 39.713C35.9119 39.5381 35.9585 39.4524 36.1242 39.3185C36.4704 39.273 36.5169 39.6048 36.5779 39.9108C35.5243 42.0174 33.662 45.2199 31.3921 46.153L31.3432 46.2194C31.4839 46.3362 31.5093 46.3676 31.6887 46.3839C31.4528 46.3877 30.4468 47.0823 29.8466 47.3147C29.6447 47.1135 29.4416 46.9134 29.2373 46.7145C29.5067 46.5092 29.7537 46.3401 30.0333 46.1517Z" fill="#FDFDFD"/>
<path d="M35.7937 39.7129C35.9123 39.538 35.9589 39.4523 36.1246 39.3184C36.4708 39.2729 36.5173 39.6047 36.5783 39.9108C35.5246 42.0173 33.6624 45.2198 31.3925 46.1529C31.3427 45.6593 32.1021 45.0983 32.4591 44.7927C34.2054 43.298 34.98 41.8354 35.7937 39.7129Z" fill="#FDFDFD"/>
<path d="M30.0333 46.1517C30.5201 46.3735 30.8278 46.3762 31.3432 46.2194C31.4839 46.3362 31.5093 46.3676 31.6887 46.3839C31.4528 46.3877 30.4468 47.0823 29.8466 47.3147C29.6447 47.1135 29.4416 46.9134 29.2373 46.7146C29.5067 46.5092 29.7537 46.3401 30.0333 46.1517Z" fill="#FDFDFD"/>
<path d="M28.8771 46.9078L29.2373 46.7145C29.4415 46.9134 29.6446 47.1134 29.8466 47.3146L28.8604 47.7903C27.5469 48.5495 25.095 49.2154 23.5794 49.1296C20.9963 49.1908 19.8954 49.3726 17.3551 48.5227C17.3511 48.2386 17.3515 48.1982 17.1934 47.965C16.6035 47.7824 16.436 47.6312 15.9507 47.2651C16.5383 47.1883 17.8765 47.5821 18.5722 47.6478C19.2899 47.8305 19.8011 47.9544 20.552 48.0094C20.2746 48.0282 20.1705 47.9915 19.9592 48.1271C19.9902 48.3491 19.9611 48.2638 20.1198 48.4634C21.1537 48.5107 22.1886 48.5272 23.2235 48.5128C23.6349 48.5042 25.1878 48.4601 25.4448 48.1518L25.3652 48.051L25.5149 48.0377C25.8897 47.9344 25.9731 47.9754 26.0732 47.6081C27.3067 47.8385 27.7529 47.4248 28.8771 46.9078Z" fill="#FDFDFD"/>
<path d="M28.8772 46.9078L29.2373 46.7145C29.4416 46.9134 29.6447 47.1134 29.8466 47.3146L28.8604 47.7903C27.547 48.5495 25.095 49.2154 23.5795 49.1296L23.6157 49.0274C23.3986 48.8714 22.7711 49.0134 22.426 48.9283L22.9322 48.7759L22.9042 48.7409C22.2123 48.7344 21.5205 48.7336 20.8286 48.7384C21.3724 48.4796 23.1974 48.8786 23.5039 48.6379C23.4368 48.5302 23.3818 48.5501 23.2236 48.5128C23.635 48.5042 25.1879 48.4601 25.4448 48.1518L25.3653 48.051L25.5149 48.0377C25.8898 47.9344 25.9732 47.9754 26.0733 47.6081C27.3067 47.8385 27.7529 47.4248 28.8772 46.9078Z" fill="#FDFDFD"/>
<path d="M28.8774 46.9078L29.2375 46.7145C29.4418 46.9134 29.6449 47.1134 29.8468 47.3146L28.8606 47.7903C28.514 47.8362 28.3592 47.8001 28.0231 47.7843C27.2177 47.7466 26.3001 48.0338 25.5151 48.0377C25.89 47.9344 25.9734 47.9754 26.0735 47.6081C27.3069 47.8385 27.7531 47.4248 28.8774 46.9078Z" fill="#FDFDFD"/>
<path d="M15.9507 47.2652C16.5383 47.1883 17.8765 47.5821 18.5722 47.6478C19.2899 47.8305 19.8011 47.9544 20.552 48.0094C20.2746 48.0282 20.1705 47.9916 19.9592 48.1271C19.9902 48.3491 19.9611 48.2638 20.1198 48.4634C19.7303 48.7367 17.6739 48.1762 17.1934 47.9651C16.6035 47.7824 16.436 47.6312 15.9507 47.2652Z" fill="#FDFDFD"/>
<path d="M7.99463 39.4114C9.01292 39.9818 9.12117 40.7932 9.76387 41.7602C10.2374 42.4727 12.0188 44.5393 12.8025 44.7305C13.2832 45.0721 13.7808 45.4233 14.3441 45.6074C15.1231 45.9054 15.8355 46.545 16.5421 46.958C16.818 47.1193 17.7216 47.0517 17.9991 47.1924C18.5995 47.2764 18.6006 47.4164 19.065 47.603L18.5723 47.6479C17.8765 47.5821 16.5383 47.1883 15.9507 47.2652C15.312 47.0181 14.5968 46.9996 13.9206 46.7544C11.7331 45.4352 10.837 43.8942 9.13801 42.0913C8.80249 41.7353 8.51003 41.1844 8.14756 40.7702C8.2594 40.11 8.24695 40.0178 7.99463 39.4114Z" fill="#FDFDFD"/>
<path d="M120.75 33.9801C120.616 32.7191 120.578 21.2589 120.789 20.8469C121.218 20.4992 122.318 20.6637 122.884 20.7132C122.908 22.5256 122.916 24.3382 122.909 26.1507C123.634 26.2083 128.173 26.3116 128.691 26.1672L128.733 26.2404C128.265 26.9346 125.836 26.4828 125.03 26.6051C124.732 26.6506 123.597 26.6207 123.322 26.5179C123.437 26.5126 123.867 26.5006 123.951 26.4759C123.475 26.466 123.163 26.512 122.804 26.1971C122.725 25.3647 122.691 22.0948 122.725 21.2011C122.613 21.2897 122.613 21.2958 122.562 21.432L122.421 21.2078C122.126 21.1576 121.519 21.0449 121.264 21.1601C120.853 21.5734 121.063 24.0086 121.007 24.7232C120.945 25.5261 120.916 26.4965 120.88 27.3135C121 28.2542 121.011 33.0086 121.24 33.4609C122.415 33.6117 122.536 33.7129 122.888 32.6127C122.912 34.5442 122.496 34.1801 120.75 33.9801Z" fill="#FDFDFD"/>
<path d="M53.5362 37.7317C53.7722 37.8165 54.1171 37.953 54.3534 38.0016C54.2291 38.3533 54.3136 38.2404 54.0233 38.4714C52.4688 39.656 52.7654 42.0353 54.7602 42.2512C55.3024 42.3112 55.8459 42.151 56.2688 41.8065C56.6729 41.4751 56.9259 40.9945 56.9703 40.4739C57.0207 39.9344 56.8813 39.6324 56.7209 39.1507C57.2551 39.4119 56.8895 39.2506 57.1924 39.5575C57.2827 39.4809 57.4044 39.3684 57.502 39.3107L57.5124 39.3656C57.4938 39.6496 57.4352 39.9291 57.5787 40.1602C57.5406 40.4223 57.5053 40.558 57.5667 40.814L57.6673 41.1773C57.4273 42.787 55.8273 43.3309 54.4226 43.042C53.5938 42.8716 53.296 42.6535 52.7181 42.0456C52.6578 41.8179 52.5388 41.6071 52.526 41.3663C52.4895 40.6789 52.5639 39.9857 52.4637 39.3023C52.3806 39.1557 52.4419 39.0867 52.4924 38.8764C52.6442 38.374 53.0771 37.9649 53.5362 37.7317Z" fill="#FDFDFD"/>
<path d="M14.8666 19.5137C15.0816 19.3844 15.2721 19.3059 15.5018 19.2057L15.5162 19.3267C14.7725 19.8405 15.4548 20.6302 13.7255 21.3115C13.5094 22.7668 12.2877 22.1808 12.0436 23.9498C11.0888 24.893 10.6276 25.437 10.596 26.8312C8.56359 29.1742 9.2498 32.8831 8.9424 35.738C8.179 32.7038 8.42421 31.5542 9.03029 28.5439C9.08962 28.6125 9.15839 28.6482 9.23507 28.6969L9.32011 28.6033C9.33534 28.241 9.32326 28.3349 9.18161 27.9927L9.26305 27.5422L9.48827 27.6469C10.2118 27.1278 10.3621 25.4619 10.7097 24.8766C11.1998 24.0509 12.002 24.0123 11.8814 22.6143L11.9807 22.4426C12.7708 22.5828 13.6534 21.7458 13.2814 20.8802C13.0154 20.8458 13.0654 20.8726 12.7844 20.9937L12.6115 20.924C13.0373 20.5558 14.3631 19.8023 14.8666 19.5137Z" fill="#FDFDFD"/>
<path d="M21.3032 16.1494C22.2609 15.9916 22.7568 15.9897 23.7275 16.0576C24.358 16.2051 25.3155 16.3976 25.8114 16.8384C25.5101 17.0743 24.6273 16.9704 24.2204 16.9533C23.8415 17.0086 23.9844 17.198 23.5326 17.2683C21.4341 17.2199 19.4026 17.5817 17.4509 18.3223C17.3285 18.3687 17.1147 18.4581 16.9932 18.4879C16.4327 18.3671 16.3056 18.8098 15.5752 18.3982C16.7335 17.9298 17.8885 17.3908 19.0866 17.0559C19.3113 16.9479 19.509 16.6851 19.6753 16.6257C20.145 16.4582 20.7093 16.4479 21.2524 16.337C21.3246 16.2293 21.304 16.2888 21.3032 16.1494Z" fill="#FDFDFD"/>
<path d="M21.3029 16.1494C22.2606 15.9916 22.7566 15.9897 23.7272 16.0576C24.3578 16.2051 25.3152 16.3976 25.8111 16.8384C25.5099 17.0743 24.6271 16.9704 24.2202 16.9533C23.9603 16.924 23.5636 17.188 23.2857 17.1638C22.2346 17.0725 22.0025 16.8849 20.9282 16.9971C21.1677 16.8209 21.2697 16.8036 21.5594 16.7215C21.3999 16.5639 21.3708 16.5206 21.2522 16.337C21.3243 16.2293 21.3037 16.2888 21.3029 16.1494Z" fill="#FDFDFD"/>
<path d="M21.2522 16.337C21.3709 16.5206 21.3999 16.5639 21.5594 16.7215C21.2697 16.8036 21.1677 16.8209 20.9282 16.9971C20.3144 17.0199 19.7005 17.0396 19.0864 17.0559C19.3111 16.9479 19.5087 16.6851 19.6751 16.6257C20.1448 16.4582 20.7091 16.4479 21.2522 16.337Z" fill="#FDFDFD"/>
<path d="M5.73285 27.5742C5.89104 27.8769 5.89998 27.9544 6.27211 28.037C4.07395 33.3284 5.70604 34.517 7.75144 39.0084C7.64985 39.3034 7.54658 39.3436 7.27434 39.5128C5.86827 37.5934 4.84546 34.7544 4.64608 32.3498C4.54034 31.0746 5.197 28.7626 5.73285 27.5742Z" fill="#FDFDFD"/>
<path d="M128.691 26.1673C128.766 25.0936 128.612 21.4594 128.854 20.825C129.284 20.5481 130.468 20.63 130.975 20.7019C131.049 22.5107 131.019 24.4711 131.018 26.2885L131.007 33.6068L130.661 33.5177C130.503 33.6237 130.55 33.6042 130.493 33.8426C130.378 33.6481 130.214 33.6179 130.006 33.6231L129.957 33.6248C130.152 33.5234 130.361 33.4347 130.509 33.2751C130.592 31.7477 130.765 22.0424 130.424 21.2197C130.128 21.0083 129.528 21.0431 129.242 21.2427C128.926 21.7861 129.043 25.2487 128.89 26.1557L128.733 26.2404L128.691 26.1673Z" fill="#FDFDFD"/>
<path d="M48.0479 42.993C48.148 42.193 47.9477 38.3081 48.1827 38.0286C48.3069 38.0655 48.3145 38.0644 48.4465 38.0585L48.4791 38.0568C48.8244 38.089 48.901 38.0942 49.2163 38.2298L49.0477 38.5121C48.8906 38.5567 48.8411 38.5719 48.6785 38.5801L48.557 38.7173L48.583 38.811C48.7289 38.8288 48.7605 38.8317 48.9059 38.8116C48.9999 38.9503 48.984 39.0048 48.9741 39.1754L48.8882 39.243L48.5748 39.0716C48.5117 39.2518 48.559 39.2791 48.6169 39.4939C48.7699 39.4735 48.722 39.4808 48.8596 39.377C49.1901 39.6702 48.8551 39.9608 49.2328 39.9299C50.0705 39.8614 50.8352 39.3822 50.4739 38.436C50.2503 38.2869 50.2739 38.4717 50.0365 38.2315C50.4035 38.2663 50.6212 38.1987 50.9562 38.3401L51.0296 38.4431C50.8483 38.9286 50.8124 39.3724 51.1926 39.7794C50.9892 40.1059 50.7797 40.4551 50.5695 40.7749C50.9113 41.3432 50.9358 41.4058 51.1817 42.0119C51.0843 42.2138 51.0522 42.2786 50.9947 42.4994L51.0372 42.591C51.3256 42.6187 51.3147 42.5054 51.5013 42.4313C51.5309 42.6422 51.5554 42.7252 51.4963 42.9311C51.2609 43.104 50.9758 43.0048 50.6403 42.9618C50.5136 42.4298 50.1577 41.7056 49.9376 41.1636C49.9839 40.9819 50.0397 40.8292 49.9951 40.6459C49.7707 40.5256 49.7525 40.5815 49.4441 40.6206C49.289 40.5273 49.2143 40.5373 49.0383 40.5327C48.745 40.538 48.7268 40.4866 48.5488 40.6349C48.5485 40.7332 48.5434 40.8476 48.5585 40.9422C48.5446 41.5011 48.4921 42.471 48.5696 42.9922C48.286 43.0969 48.3089 43.1185 48.0479 42.993Z" fill="#FDFDFD"/>
<path d="M59.0187 37.4973C59.2814 37.4304 59.203 37.4093 59.4164 37.5065C59.7704 38.0531 59.3447 40.7537 59.6118 41.4853C59.8906 42.2489 61.4697 42.6888 61.7954 41.7563L62.0207 41.3582C62.1597 40.6542 62.0304 38.6725 62.1436 37.6932L62.2821 37.6737L62.23 37.8181C62.304 38.0167 62.2566 37.9446 62.4614 38.0868L62.4926 38.301C62.4356 38.9555 62.4222 39.4631 62.4158 40.1146C62.4377 41.1516 62.739 41.2347 62.6781 41.9144C62.3024 43.7632 59.3445 43.3331 59.0035 42.0587C58.9205 41.1804 59.0162 38.5203 59.0187 37.4973Z" fill="#FDFDFD"/>
<path d="M41.5107 39.1659C41.7387 38.566 42.073 38.1688 42.5682 37.783C42.8468 37.997 43.1213 38.1405 43.4758 37.9886L43.5833 38.0161L43.5715 38.1435C43.7999 38.3026 44.3707 38.2809 44.657 38.2768C44.7986 38.3286 44.9236 38.3609 45.0392 38.4555C43.2148 38.5578 42.5693 38.2128 42.1397 40.3859C42.7322 41.4012 42.3978 41.7097 43.6888 42.2129C43.8053 42.3089 43.8915 42.3993 44.0344 42.4398C44.4524 42.5182 45.1956 42.4596 45.4083 42.5657C45.2527 42.6646 44.7556 42.6064 44.51 42.6682C44.6328 42.6295 44.5955 42.6574 44.6976 42.6743C45.2452 42.7649 45.4183 42.5074 45.794 42.9521C45.6913 42.9785 45.5872 42.9993 45.4823 43.0145C43.8789 43.2528 41.7604 43.0418 41.4913 41.0561C41.4611 40.3595 41.4782 39.8572 41.5107 39.1659Z" fill="#FDFDFD"/>
<path d="M11.8649 20.1271C11.3921 19.1184 17.2638 16.0074 18.3956 15.824C19.7809 15.5995 21.2111 15.5697 22.5864 15.6024C22.9997 15.7415 23.3552 15.9534 23.7274 16.0577C22.7568 15.9898 22.2608 15.9917 21.3031 16.1494C18.7755 16.2117 16.3201 17.0058 14.2349 18.4354C13.4432 18.9046 12.4247 19.8864 11.8649 20.1271Z" fill="#FDFDFD"/>
<path d="M54.464 20.711C55.4641 20.594 60.9559 20.4494 61.6707 20.766C61.8162 21.0578 61.7221 22.2552 61.7026 22.6492C60.5886 22.6374 59.4745 22.6451 58.3607 22.6725C57.8341 22.6844 57.1377 22.7482 56.6388 22.7003C57.0965 22.2914 61.0825 22.6915 61.3194 22.399C61.9291 21.6462 61.2154 20.8612 59.971 20.991C58.5313 21.141 55.8986 20.6611 54.648 21.2568C54.3434 21.8751 54.7684 30.9479 54.5961 32.304C54.5423 32.7281 54.6918 33.534 54.5361 34.0351C54.3868 33.7716 54.4199 22.1412 54.464 20.711Z" fill="#FDFDFD"/>
<path d="M36.578 39.9108C36.7345 39.626 36.7773 39.5383 37.0014 39.3079C36.5954 40.3191 36.382 41.4656 35.927 42.4106C35.1179 44.0911 33.5944 45.9886 31.6888 46.3839C31.5094 46.3676 31.484 46.3361 31.3433 46.2193L31.3922 46.1529C33.6621 45.2199 35.5244 42.0173 36.578 39.9108Z" fill="#FDFDFD"/>
<path d="M14.1975 19.0892L14.3156 19.1608C14.6441 19.0703 14.6827 19.244 14.8664 19.5137C14.3629 19.8023 13.0371 20.5558 12.6113 20.924C12.4754 21.0338 11.8655 21.5223 11.7709 21.6257C11.4069 21.9451 10.1389 23.2557 9.74717 23.7652C9.72512 23.7938 9.46006 23.7389 9.37012 23.754C9.42959 22.8842 9.98359 22.6632 10.0196 22.2066C10.6691 21.5843 11.2979 21.025 12.0243 20.491C12.6006 20.1719 13.6593 19.2927 14.1975 19.0892Z" fill="#FDFDFD"/>
<path d="M41.5649 20.668C43.6799 20.5913 45.989 20.3681 47.9922 21.1074C47.1306 21.1475 46.6112 21.0391 45.7997 21.0196C44.6687 20.9925 43.319 20.9314 42.1982 20.9831C42.0285 21.1088 41.7341 21.2713 41.7221 21.4586C41.6547 22.5173 41.6874 23.6939 41.6922 24.7497L41.7138 31.6636C41.7132 32.1241 41.7415 33.7266 41.6515 34.0395C41.5384 33.8072 41.5725 21.7905 41.5649 20.668Z" fill="#FDFDFD"/>
<path d="M64.5323 38C64.652 38.0124 64.8262 38.0433 64.935 38.0107L65.1666 38.2042L64.9962 38.4908C64.9901 38.9986 64.991 39.3923 65.0285 39.8978L65.1856 39.9819C65.5814 40.0027 65.821 40.061 66.1288 39.8617C66.5408 39.7637 66.9733 40.0383 67.1031 40.4289C66.8293 40.5392 66.7201 40.5404 66.4229 40.5673C66.0162 40.5372 65.4582 40.4721 65.0722 40.5446C64.9606 40.6713 64.9853 40.6096 64.9655 40.7727L65.0865 40.9028C64.7953 41.2816 65.2655 42.5616 64.8511 43.0728C64.6905 43.0784 64.6486 43.0342 64.5087 42.9472L64.5265 42.7867C64.5425 42.7573 64.5552 38.5485 64.522 38.3529C64.4743 38.2556 64.5146 38.1139 64.5323 38Z" fill="#FDFDFD"/>
<path d="M19.065 47.6029C20.1134 47.4184 24.9183 47.487 26.0732 47.608C25.9732 47.9753 25.8897 47.9344 25.5149 48.0377L25.3653 48.051C24.3029 48.1124 21.6265 48.0593 20.552 48.0094C19.8011 47.9543 19.29 47.8305 18.5723 47.6478L19.065 47.6029Z" fill="#FDFDFD"/>
<path d="M25.8803 16.8303C25.8068 16.5771 25.7611 16.4518 25.7539 16.1888L25.9002 16.1479C26.493 16.2707 26.8014 16.3306 27.3578 16.5538C27.7239 16.8167 28.035 17.0149 28.4919 17.1077C28.9298 17.3346 29.1638 17.4788 29.5706 17.7588L29.5025 17.9518C29.6848 18.1649 29.7482 18.2268 29.8509 18.4843L29.8022 18.5401C29.5809 18.4447 29.3516 18.3157 29.1189 18.3554L29.0535 18.354C28.613 18.0738 28.1053 17.7824 27.6093 17.6221C27.3802 17.4677 26.292 17.0584 25.8803 16.8303Z" fill="#FDFDFD"/>
<path d="M64.6249 37.4841C65.9973 37.4807 68.0225 37.3845 67.5822 39.4421C67.4966 39.8424 67.3226 40.0931 67.1031 40.429C66.9732 40.0384 66.5407 39.7638 66.1287 39.8618L65.8917 39.6114C66.2304 39.6004 66.3356 39.6488 66.6067 39.4874L66.7213 39.3997L66.9293 39.5036C67.0799 39.3657 67.0354 39.4372 67.0814 39.215C66.9843 39.0632 67.0161 39.1106 66.8349 39.0181L66.6003 39.1121C66.6442 38.835 66.6555 38.7681 66.6217 38.4922C66.6465 38.3879 66.6612 38.2556 66.6764 38.1476L66.5814 38.0512L66.3749 38.0912C66.2101 38.0532 66.0097 38.0344 65.8395 38.013C65.6103 37.9974 65.1231 37.9358 64.935 38.0108C64.8262 38.0434 64.652 38.0125 64.5323 38.0001C64.5625 37.8691 64.5258 37.7506 64.5005 37.6156L64.6249 37.4841Z" fill="#FDFDFD"/>
<path d="M53.5361 37.7317C54.9285 36.9379 56.5829 37.4137 57.4831 38.7174C57.5538 39.0536 57.6073 39.0408 57.502 39.3107C57.4043 39.3684 57.2827 39.4809 57.1923 39.5575C56.8895 39.2506 57.2551 39.4119 56.7209 39.1507C56.3453 38.6274 56.267 38.5993 55.6635 38.4065L55.5854 38.2542C55.2288 37.9545 54.8916 38.0082 54.4294 38.0084L54.3534 38.0016C54.1171 37.953 53.7721 37.8165 53.5361 37.7317Z" fill="#FDFDFD"/>
<path d="M47.9627 37.4299C48.9975 37.5688 50.4531 37.1818 51.1355 38.0724C51.576 38.6473 51.6403 39.1887 51.1922 39.7795C50.812 39.3725 50.848 38.9287 51.0293 38.4432L50.9559 38.3401C50.6209 38.1987 50.4032 38.2664 50.0362 38.2316C50.0095 38.132 49.9793 38.1153 49.9057 38.045C49.5764 37.9848 48.7465 37.8767 48.4788 38.0568L48.4462 38.0586C48.3141 38.0644 48.3066 38.0655 48.1823 38.0286C47.9474 38.3082 48.1476 42.193 48.0475 42.9931L47.9956 42.9671C48.0452 42.2859 47.9921 41.1904 47.965 40.5026C48.0083 39.4994 47.8785 38.3641 47.9627 37.4299Z" fill="#FDFDFD"/>
<path d="M10.0196 22.2067C9.98362 22.6632 9.42961 22.8842 9.37014 23.754C8.73433 24.5425 7.36689 26.1023 6.85303 26.8685C7.07861 26.1455 7.13551 25.9179 7.27772 25.1782C7.43223 25.0238 7.83293 24.3098 8.16758 23.9516C8.78735 23.2881 9.37476 22.8254 10.0196 22.2067Z" fill="#FDFDFD"/>
<path d="M44.9287 40.0324C45.404 40.0351 46.069 40.0318 46.5218 39.9366C46.6776 40.1995 46.4688 41.2302 46.5887 41.9141L46.5037 42.4411C46.1357 42.4487 45.782 42.4038 45.4162 42.3664L45.0247 42.3227L44.8153 42.0981C45.0344 42.0908 45.2943 42.1022 45.4868 42.0073C45.5228 41.7177 45.539 41.6821 45.6828 41.4271L45.7653 41.4256C45.7996 41.651 45.8128 41.7645 45.8907 41.981L45.9665 41.9447C45.9815 41.6562 46.0219 41.2899 45.9508 41.0178C45.7137 41.0646 45.6663 41.0705 45.4416 40.9767L45.3907 40.9549C45.5164 40.8824 45.7145 40.7917 45.85 40.725L45.9316 40.8004L46.0084 40.766L45.9913 40.6137C45.6579 40.3925 44.3345 40.6112 44.0669 40.2804C44.2456 40.07 44.3051 40.1243 44.6287 40.0393L44.9287 40.0324Z" fill="#FDFDFD"/>
<path d="M25.811 16.8384L25.8801 16.8304C26.2918 17.0585 27.38 17.4678 27.6091 17.6222C27.6525 17.7778 27.6913 17.8449 27.7943 17.9689C27.7276 18.1091 27.7068 18.136 27.6071 18.2553C26.1081 17.6357 25.126 17.527 23.5322 17.2684C23.9841 17.1981 23.8412 17.0087 24.22 16.9534C24.627 16.9705 25.5098 17.0744 25.811 16.8384Z" fill="#FDFDFD"/>
<path d="M56.5458 26.2042C57.4649 26.13 60.6647 26.1893 61.5167 26.3177C61.5269 26.8009 61.6291 27.81 61.3542 28.1457C60.3729 28.5232 57.0541 28.0938 56.5312 28.445C56.7489 27.9428 60.3039 28.3718 60.9431 27.9196C61.3471 27.6338 60.9601 26.4982 60.6182 26.4536C59.2599 26.2768 57.9056 26.3841 56.5458 26.2042Z" fill="#FDFDFD"/>
<path d="M61.9817 37.6925C62.1584 37.3217 62.5244 37.4641 62.9114 37.4959C62.9504 38.7592 63.1316 40.8221 62.6778 41.9144C62.7387 41.2347 62.4374 41.1516 62.4155 40.1146L62.5138 40.0859C62.7298 39.7678 62.6895 38.6182 62.4922 38.301L62.461 38.0869C62.2562 37.9446 62.3037 38.0167 62.2297 37.8181L62.2817 37.6737L62.1432 37.6933C62.0301 38.6725 62.1593 40.6542 62.0203 41.3582C61.9533 40.9116 61.994 38.3199 61.9817 37.6925Z" fill="#FDFDFD"/>
<path d="M64.5087 42.9473C64.3474 43.0209 64.3107 43.0392 64.1362 43.0668C63.9473 42.741 64.0075 38.1328 64.0774 37.6224C64.2649 37.4574 64.3158 37.5087 64.625 37.4841L64.5005 37.6156C64.5259 37.7506 64.5625 37.8691 64.5323 38.0001C64.5146 38.114 64.4743 38.2557 64.522 38.353C64.1681 38.9093 64.4124 41.8123 64.3416 42.6533C64.3385 42.6908 64.3856 42.7588 64.4056 42.7897L64.5265 42.7868L64.5087 42.9473Z" fill="#FDFDFD"/>
<path d="M13.9209 46.7544C14.5971 46.9996 15.3123 47.0181 15.951 47.2652C16.4363 47.6313 16.6038 47.7825 17.1937 47.9651C17.3519 48.1983 17.3514 48.2387 17.3554 48.5227C16.3265 48.3146 14.7722 47.379 13.9209 46.7544Z" fill="#FDFDFD"/>
<path d="M5.73291 27.5742C6.22853 26.5469 6.55037 26.044 7.27773 25.1781C7.13551 25.9178 7.07861 26.1454 6.85303 26.8684C6.69791 27.2768 6.48033 27.6524 6.27217 28.037C5.90004 27.9544 5.8911 27.8769 5.73291 27.5742Z" fill="#FDFDFD"/>
<path d="M42.5679 37.7829C42.6658 37.7351 42.7648 37.6894 42.8649 37.6459C43.774 37.2538 44.7921 37.3173 45.6996 37.6805C45.5751 37.8556 45.0482 37.9773 44.8321 38.0075L43.583 38.016L43.4755 37.9885C43.1209 38.1404 42.8465 37.9969 42.5679 37.7829Z" fill="#FDFDFD"/>
<path d="M29.5708 17.7588C29.8147 17.9287 29.7929 17.8601 29.8834 18.1006C30.2212 18.464 30.6036 18.7317 30.9582 19.0998C30.5233 19.238 30.6363 18.8846 29.9864 18.9303C29.9974 19.1078 30.0154 19.286 29.9928 19.4623C29.5774 19.24 29.1595 19.0224 28.7393 18.8095C28.8627 18.6757 28.9563 18.5095 29.0537 18.354L29.1191 18.3554C29.3517 18.3158 29.581 18.4447 29.8024 18.5401L29.8511 18.4843C29.7484 18.2268 29.685 18.1649 29.5027 17.9518L29.5708 17.7588Z" fill="#FDFDFD"/>
<path d="M29.0537 18.354L29.1191 18.3554C29.3742 18.5445 29.702 18.8108 29.9864 18.9303C29.9974 19.1079 30.0154 19.286 29.9928 19.4624C29.5774 19.24 29.1595 19.0224 28.7393 18.8095C28.8627 18.6757 28.9563 18.5095 29.0537 18.354Z" fill="#FDFDFD"/>
<path d="M14.2347 18.4354L14.4485 18.5102L14.4483 18.6582L14.2045 18.8596C14.2222 18.8914 14.2353 18.929 14.2592 18.9428L14.1977 19.0893C13.6595 19.2928 12.6008 20.1719 12.0246 20.491C11.9121 20.3581 11.9085 20.2937 11.8647 20.1272C12.4245 19.8864 13.443 18.9047 14.2347 18.4354Z" fill="#FDFDFD"/>
<path d="M47.5867 43.0311C47.3773 42.5042 47.5596 39.7095 47.5766 38.9544C47.5851 38.5829 47.7876 38.003 47.7766 37.5911L47.9628 37.4299C47.8786 38.3641 48.0085 39.4994 47.9651 40.5026C47.7475 40.7915 47.8028 42.5645 47.8346 42.9882L47.7645 42.9759C47.7195 41.9014 47.8581 40.1723 47.6964 39.1731C47.5539 39.5607 47.6059 42.3694 47.5867 43.0311Z" fill="#FDFDFD"/>
<path d="M14.2592 18.9428C14.6793 18.7956 15.1637 18.5783 15.575 18.3982C16.3054 18.8098 16.4325 18.3671 16.993 18.488C16.7788 18.5861 15.6121 19.1072 15.5018 19.2057C15.2721 19.3059 15.0816 19.3843 14.8666 19.5137C14.6829 19.244 14.6444 19.0703 14.3159 19.1608L14.1978 19.0892L14.2592 18.9428Z" fill="#FDFDFD"/>
<path d="M61.591 38.9536C61.5097 38.5934 61.5487 38.2739 61.7086 37.9451L61.7074 38.0139C61.7834 37.9298 61.8283 37.7461 61.8687 37.6271L61.9818 37.6925C61.9941 38.3199 61.9534 40.9116 62.0204 41.3582L61.7952 41.7563C61.8229 41.5431 61.8362 41.4386 61.8327 41.2209C61.5004 40.8244 61.5324 41.0671 61.5915 40.4552C61.8285 40.168 61.7751 39.3988 61.7174 39.0414L61.591 38.9536Z" fill="#FDFDFD"/>
<path d="M58.7114 37.4946L59.0187 37.4973C59.0163 38.5202 58.9206 41.1803 59.0036 42.0587L58.7133 42.1144C58.8926 41.5413 58.8018 38.1882 58.7114 37.4946Z" fill="#FDFDFD"/>
<path d="M58.711 37.4946C58.8014 38.1882 58.8921 41.5413 58.7129 42.1144C58.4327 41.7457 58.5167 37.9757 58.711 37.4946Z" fill="#FDFDFD"/>
<path d="M105.524 33.352C105.639 33.4868 105.678 33.6007 105.73 33.7699L105.74 33.8042L105.893 33.876L105.822 33.5136L105.901 33.4237C106.191 33.4902 106.489 33.5176 106.786 33.505C107.688 33.4702 107.291 33.3154 107.601 32.981C107.605 33.0993 107.623 33.3195 107.598 33.4257C107.422 33.6888 107.511 33.7019 107.374 33.804L107.324 33.5701L107.212 33.5283C106.952 33.7257 106.978 33.742 107.043 34.0634C106.591 34.0699 106.013 34.1436 105.63 33.9682C105.455 33.7289 105.517 33.7017 105.524 33.352Z" fill="#FDFDFD"/>
<path d="M22.5864 15.6024C22.842 15.603 23.2833 15.6736 23.5097 15.7886C23.9414 16.0076 25.658 15.976 25.9004 16.148L25.7541 16.1889C25.7613 16.4518 25.807 16.5771 25.8805 16.8304L25.8114 16.8384C25.3154 16.3977 24.358 16.2051 23.7275 16.0577C23.3552 15.9534 22.9997 15.7415 22.5864 15.6024Z" fill="#FDFDFD"/>
<path d="M45.6996 37.6805C45.9914 37.8399 46.2219 37.9538 46.337 38.2511C46.1134 38.6102 45.3339 38.6046 45.039 38.4554C44.9233 38.3609 44.7984 38.3285 44.6567 38.2768C44.84 38.2281 44.8684 38.2561 44.9564 38.1273L44.8322 38.0076C45.0483 37.9773 45.5752 37.8556 45.6996 37.6805Z" fill="#FDFDFD"/>
<path d="M7.75151 39.0084C7.8605 39.1403 7.98516 39.2515 7.99468 39.4113C8.247 40.0178 8.25945 40.1099 8.14761 40.7702C7.87595 40.5167 7.45774 39.8453 7.27441 39.5128C7.54666 39.3436 7.64993 39.3035 7.75151 39.0084Z" fill="#FDFDFD"/>
<path d="M64.5263 42.7868L64.4054 42.7896C64.3854 42.7587 64.3383 42.6907 64.3414 42.6533C64.4122 41.8122 64.1679 38.9093 64.5218 38.3529C64.5551 38.5486 64.5423 42.7573 64.5263 42.7868Z" fill="#FDFDFD"/>
<path d="M27.6094 17.6222C28.1055 17.7824 28.6131 18.0739 29.0537 18.354C28.9563 18.5096 28.8627 18.6757 28.7392 18.8096C28.3924 18.6208 27.9685 18.4288 27.6074 18.2552C27.7071 18.136 27.7279 18.109 27.7946 17.9688C27.6916 17.8448 27.6528 17.7777 27.6094 17.6222Z" fill="#FDFDFD"/>
<path d="M46.6915 39.5819L46.8349 39.599C46.915 39.7235 46.9776 40.0273 46.9636 40.1625L46.8107 40.1194C46.6767 40.3099 46.7035 41.4557 46.8646 41.6757L46.96 41.6316C46.9486 41.8919 46.9867 41.8043 46.8391 41.9816C46.673 41.9715 46.6998 41.9984 46.5888 41.9141C46.4689 41.2302 46.6778 40.1995 46.522 39.9367L46.4971 39.8436L46.6915 39.5819Z" fill="#FDFDFD"/>
<path d="M83.417 20.7359C83.8975 20.5945 85.032 20.4267 85.4868 20.6686C85.6523 20.9513 85.4927 21.0803 85.3227 21.3533L85.2847 21.1279C84.5713 20.8019 84.1846 20.7372 83.417 20.7359Z" fill="#FDFDFD"/>
<path d="M48.5581 40.9422C48.543 40.8476 48.5482 40.7332 48.5484 40.6349C48.7264 40.4865 48.7446 40.538 49.0379 40.5327C49.0398 40.8859 48.9907 42.8792 48.8006 43.0766C48.741 42.4152 48.7998 41.6792 48.7017 41.0426C48.6946 40.9964 48.6152 40.972 48.5581 40.9422Z" fill="#FDFDFD"/>
<path d="M44.5473 39.8362C44.3694 39.6801 44.2748 39.8559 44.0913 39.6865L44.1679 39.6012C45.0114 39.5769 45.8504 39.529 46.6914 39.5818L46.4969 39.8436C46.056 39.7995 45.3552 39.8239 44.893 39.8269L44.5473 39.8362Z" fill="#FDFDFD"/>
<path d="M47.5869 43.0311C47.6062 42.3694 47.5542 39.5608 47.6966 39.1731C47.8584 40.1723 47.7197 41.9014 47.7647 42.9759L47.5869 43.0311Z" fill="#FDFDFD"/>
<path d="M12.6114 20.924L12.7842 20.9936C13.0653 20.8726 13.0152 20.8458 13.2813 20.8801C13.1357 21.0446 12.6134 21.6319 12.4421 21.6873C12.1658 21.5755 12.081 21.6664 11.8322 21.823L11.771 21.6257C11.8656 21.5223 12.4755 21.0338 12.6114 20.924Z" fill="#FDFDFD"/>
<path d="M57.9325 39.2406C58.0306 39.8678 58.1739 40.6968 57.6674 41.1773L57.5668 40.814C57.6553 40.7986 57.6848 40.7625 57.7536 40.7055C57.7827 40.4687 57.699 40.3683 57.5789 40.1602C57.4353 39.9291 57.494 39.6496 57.5125 39.3656C57.5795 39.6274 57.5104 39.664 57.644 39.9828C57.7116 39.6706 57.7327 39.5033 57.9325 39.2406Z" fill="#FDFDFD"/>
<path d="M41.4909 41.0561C41.2584 41.0327 41.2775 41.0686 41.1093 40.9467C40.9246 40.4551 41.3341 39.7558 41.5103 39.1659C41.4778 39.8572 41.4607 40.3595 41.4909 41.0561Z" fill="#FDFDFD"/>
<path d="M66.3748 38.0912L66.5813 38.0511L66.6763 38.1476C66.6611 38.2555 66.6464 38.3879 66.6216 38.4921L64.9961 38.4908L65.1665 38.2043C65.3689 38.2106 65.5727 38.2104 65.772 38.2452C66.0572 38.2552 66.1432 38.2447 66.3748 38.0912Z" fill="#FDFDFD"/>
<path d="M71.918 20.7316C72.3704 20.6036 73.6112 20.4599 74.0396 20.6643L74.1085 20.791L74.0433 20.9491C73.8192 20.8916 73.5101 20.7778 73.3094 20.8587L73.3197 21.0139C73.1129 20.9927 72.9317 20.8524 72.7114 20.7999C72.4548 20.7388 72.181 20.7387 71.918 20.7316Z" fill="#FDFDFD"/>
<path d="M48.5581 40.9423C48.6152 40.9721 48.6946 40.9965 48.7017 41.0427C48.7998 41.6793 48.741 42.4153 48.8006 43.0767L48.5692 42.9923C48.4918 42.4711 48.5442 41.5012 48.5581 40.9423Z" fill="#FDFDFD"/>
<path d="M52.464 39.3022C52.5642 39.9857 52.4898 40.6788 52.5264 41.3662C52.5392 41.6071 52.6581 41.8178 52.7185 42.0455C52.6549 41.9958 52.3077 41.3923 52.1514 41.192C52.2913 40.9494 52.2862 40.8071 52.3118 40.5257C52.4296 40.0235 52.4418 39.8211 52.464 39.3022Z" fill="#FDFDFD"/>
<path d="M45.4163 42.3665C45.7821 42.4038 46.1357 42.4487 46.5038 42.4411C46.2832 42.6043 46.0221 42.8087 45.7938 42.952C45.4181 42.5073 45.245 42.7649 44.6974 42.6742C44.5952 42.6573 44.6325 42.6295 44.5098 42.6681C44.7553 42.6063 45.2525 42.6646 45.4081 42.5656L45.4163 42.3665Z" fill="#FDFDFD"/>
<path d="M47.9653 40.5026C47.9924 41.1904 48.0455 42.2859 47.9959 42.9671L47.8347 42.9882C47.8029 42.5645 47.7477 40.7915 47.9653 40.5026Z" fill="#FDFDFD"/>
<path d="M54.3535 38.0016L54.4296 38.0084L54.4529 38.1715C54.6795 38.2818 55.3437 38.3435 55.5855 38.2542L55.6636 38.4065C55.0399 38.4975 54.6589 38.5259 54.0234 38.4714C54.3137 38.2404 54.2292 38.3533 54.3535 38.0016Z" fill="#FDFDFD"/>
<path d="M64.9653 40.7727C64.9851 40.6096 64.9604 40.6713 65.072 40.5447C65.458 40.4721 66.016 40.5373 66.4227 40.5673L66.4845 40.8996C66.1669 40.7189 65.339 40.735 64.9653 40.7727Z" fill="#FDFDFD"/>
<path d="M65.1855 39.9819C65.2057 39.8314 65.2188 39.7637 65.2613 39.6179C65.4601 39.5059 65.6275 39.5776 65.8916 39.6114L66.1287 39.8618C65.8209 40.0611 65.5813 40.0028 65.1855 39.9819Z" fill="#FDFDFD"/>
<path d="M130.493 33.8426C130.55 33.6042 130.503 33.6237 130.661 33.5177L131.007 33.6068C130.992 33.9084 131.043 33.8553 130.872 34.0263C130.552 34.1298 130.153 34.0709 129.81 34.0458C130.148 33.9159 130.232 34.0455 130.493 33.8426Z" fill="#FDFDFD"/>
<path d="M62.4923 38.301C62.6895 38.6182 62.7299 39.7678 62.5138 40.0859L62.4155 40.1146C62.422 39.4631 62.4353 38.9555 62.4923 38.301Z" fill="#FDFDFD"/>
<path d="M52.1321 39.4255C52.2788 39.7308 52.2934 40.1801 52.3115 40.5258C52.2858 40.8071 52.291 40.9495 52.151 41.1921C52.0166 40.7706 52.0271 39.8657 52.1321 39.4255Z" fill="#FDFDFD"/>
<path d="M43.5831 38.0161L44.8322 38.0076L44.9564 38.1273C44.8684 38.2561 44.84 38.2281 44.6567 38.2767C44.3704 38.2808 43.7997 38.3025 43.5713 38.1435L43.5831 38.0161Z" fill="#FDFDFD"/>
<path d="M43.6885 42.2128C44.1479 42.1242 44.3432 42.0685 44.8152 42.0981L45.0246 42.3226C44.6915 42.3305 44.3599 42.3696 44.0341 42.4397C43.8912 42.3992 43.805 42.3088 43.6885 42.2128Z" fill="#FDFDFD"/>
<path d="M46.9602 41.6316L46.8647 41.6757C46.7037 41.4557 46.6769 40.3098 46.8108 40.1194L46.9637 40.1625L46.9602 41.6316Z" fill="#FDFDFD"/>
<path d="M49.216 38.2299L50.0362 38.2316C50.2736 38.4718 50.25 38.287 50.4735 38.4361C50.0854 38.537 49.5195 38.457 49.0474 38.5121L49.216 38.2299Z" fill="#FDFDFD"/>
<path d="M43.5576 43.3138C43.9431 43.2413 44.7424 43.1457 45.0012 43.4613C44.6343 43.4982 43.9815 43.5273 43.6312 43.4445L43.5576 43.3138Z" fill="#FDFDFD"/>
<path d="M57.4834 38.7174C57.6506 38.9295 57.6792 38.9528 57.9103 39.0933L57.9327 39.2406C57.7328 39.5033 57.7117 39.6706 57.6442 39.9828C57.5105 39.664 57.5796 39.6274 57.5126 39.3656L57.5023 39.3108C57.6076 39.0408 57.5542 39.0536 57.4834 38.7174Z" fill="#FDFDFD"/>
<path d="M107.043 34.0634C106.978 33.742 106.952 33.7258 107.212 33.5283L107.325 33.5701L107.374 33.804C107.511 33.702 107.422 33.6889 107.599 33.4258C107.583 33.7227 107.628 33.8507 107.468 34.0577C107.273 34.091 107.24 34.0889 107.043 34.0634Z" fill="#FDFDFD"/>
<path d="M48.479 38.0568C48.7468 37.8766 49.5766 37.9847 49.9059 38.0449C49.9795 38.1152 50.0098 38.132 50.0364 38.2316L49.2162 38.2298C48.9009 38.0943 48.8243 38.089 48.479 38.0568Z" fill="#FDFDFD"/>
<path d="M84.9521 34.4583L84.7734 34.4248L84.7163 34.3196C84.9917 34.1213 85.3359 34.043 85.6699 34.1024C85.76 34.1178 85.8479 34.15 85.9321 34.1841L86.0164 34.4065C85.6201 34.2382 85.3169 34.2501 84.9521 34.4583Z" fill="#FDFDFD"/>
<path d="M49.4438 40.6207C49.7523 40.5815 49.7705 40.5257 49.9949 40.646C50.0395 40.8293 49.9837 40.9819 49.9374 41.1637C49.5207 41.0293 49.4608 41.0477 49.4438 40.6207Z" fill="#FDFDFD"/>
<path d="M52.4926 38.8765C52.4421 39.0868 52.3808 39.1557 52.4639 39.3023C52.4417 39.8212 52.4295 40.0236 52.3117 40.5258C52.2936 40.1802 52.279 39.7309 52.1323 39.4256C52.1563 39.3428 52.4256 38.9726 52.4926 38.8765Z" fill="#FDFDFD"/>
<path d="M64.9653 40.7727C65.339 40.735 66.1669 40.7189 66.4845 40.8996C66.1541 40.974 65.3867 41.0622 65.0863 40.9028L64.9653 40.7727Z" fill="#FDFDFD"/>
<path d="M54.4297 38.0084C54.8918 38.0082 55.2291 37.9545 55.5857 38.2542C55.3438 38.3435 54.6797 38.2817 54.453 38.1715L54.4297 38.0084Z" fill="#FDFDFD"/>
<path d="M44.8931 39.8269C45.3553 39.8239 46.0561 39.7995 46.497 39.8436L46.5219 39.9367C46.0691 40.0318 45.4041 40.0351 44.9287 40.0324L45.4778 39.9364L44.8931 39.8269Z" fill="#FDFDFD"/>
<path d="M54.5408 43.2645C54.8495 43.2528 55.1811 43.2209 55.4748 43.3074L55.5161 43.3994L55.3623 43.4853C55.1347 43.4915 54.5655 43.5281 54.4038 43.3904L54.5408 43.2645Z" fill="#FDFDFD"/>
<path d="M61.591 38.9535L61.7174 39.0413C61.775 39.3987 61.8284 40.168 61.5915 40.4551C61.5632 39.9721 61.5826 39.4411 61.591 38.9535Z" fill="#FDFDFD"/>
<path d="M45.3907 40.9548C45.1795 40.9817 44.874 40.9731 44.6526 40.9734L44.6725 40.9617L44.3843 40.9376L44.3965 40.9127C44.8157 40.7781 45.3771 40.7771 45.8501 40.725C45.7145 40.7917 45.5164 40.8824 45.3907 40.9548Z" fill="#FDFDFD"/>
<path d="M73.3198 21.0138L73.3096 20.8586C73.5103 20.7778 73.8193 20.8916 74.0435 20.9491C73.9189 21.082 73.8186 21.1683 73.76 21.3432C73.6633 21.3332 73.5637 21.3093 73.4685 21.2895C73.5447 21.1436 73.5476 21.1931 73.511 21.0707L73.3198 21.0138Z" fill="#FDFDFD"/>
<path d="M51.1817 42.0118C51.3771 42.1684 51.3918 42.2063 51.5012 42.4313C51.3146 42.5054 51.3255 42.6187 51.0372 42.591L50.9946 42.4994C51.0522 42.2785 51.0843 42.2137 51.1817 42.0118Z" fill="#FDFDFD"/>
<path d="M44.0342 42.4397C44.36 42.3696 44.6916 42.3305 45.0247 42.3226L45.4163 42.3664L45.4081 42.5656C45.1954 42.4595 44.4521 42.5181 44.0342 42.4397Z" fill="#FDFDFD"/>
<path d="M73.509 34.2836C73.7258 34.2716 74.3118 34.2768 74.4832 34.3895L74.4092 34.4859C74.136 34.4901 73.657 34.5415 73.4395 34.4278L73.509 34.2836Z" fill="#FDFDFD"/>
<path d="M66.6001 39.112L66.8348 39.0181C67.016 39.1106 66.9841 39.0631 67.0812 39.215C67.0352 39.4371 67.0797 39.3656 66.9292 39.5036L66.7212 39.3996L66.6065 39.4874L66.6001 39.112Z" fill="#FDFDFD"/>
<path d="M64.9351 38.0108C65.1232 37.9358 65.6103 37.9974 65.8396 38.013L65.7722 38.2452C65.5729 38.2105 65.3691 38.2106 65.1666 38.2043L64.9351 38.0108Z" fill="#FDFDFD"/>
<path d="M84.9521 34.4583C85.3169 34.25 85.6201 34.2382 86.0164 34.4064C85.7241 34.5361 85.2722 34.4816 84.9521 34.4583Z" fill="#FDFDFD"/>
<path d="M45.7719 38.7455C45.9242 38.7676 45.9277 38.7732 46.0457 38.8789L45.9702 38.9789L45.6684 39.0166C45.533 38.9863 45.3978 38.9551 45.2627 38.9231L45.7719 38.7455Z" fill="#FDFDFD"/>
<path d="M44.5474 39.8363L44.8931 39.8269L45.4778 39.9364L44.9287 40.0324L44.6288 40.0393L44.5474 39.8363Z" fill="#FDFDFD"/>
<path d="M65.8394 38.0129C66.0096 38.0343 66.21 38.0531 66.3748 38.0911C66.1432 38.2446 66.0572 38.2551 65.772 38.2451L65.8394 38.0129Z" fill="#FDFDFD"/>
<path d="M57.579 40.1602C57.6992 40.3682 57.7828 40.4686 57.7537 40.7054C57.6849 40.7624 57.6554 40.7985 57.567 40.8139C57.5056 40.5579 57.5409 40.4222 57.579 40.1602Z" fill="#FDFDFD"/>
</svg>
