<svg width="150" height="64" viewBox="0 0 150 64" fill="none" xmlns="http://www.w3.org/2000/svg">
<path d="M74.844 7.07946C81.8313 6.89474 87.6482 12.4026 87.843 19.3882C88.0386 26.3738 82.5381 32.1977 75.5515 32.4032C68.5497 32.6092 62.7096 27.0959 62.5141 20.0955C62.3185 13.0952 67.8416 7.26457 74.844 7.07946ZM81.2534 27.4088C81.2417 25.2657 81.1487 22.289 81.3003 20.2277C80.0266 20.2106 77.9773 20.2005 76.7242 20.3035C76.7593 20.63 76.741 21.1902 76.8677 21.39C77.0384 21.5167 77.2508 21.4724 77.472 21.4598C77.8169 21.4597 78.2051 21.4677 78.5464 21.4566C78.553 22.3421 78.6131 23.3552 78.4475 24.2241C78.2798 25.1002 77.6265 25.6105 77.0362 26.2245C76.2049 26.4317 75.3084 26.5949 74.4815 26.3253C70.2339 24.9368 70.1502 17.8947 71.9885 14.6301C72.3917 13.9138 73.1614 13.2349 73.9761 13.0955C76.9842 12.5811 78.0198 13.3771 79.0137 15.9945L80.1263 16.0743C80.1263 15.3121 80.1643 12.7355 80.0164 12.1508C79.8179 11.9583 79.9138 12.0046 79.6575 11.9588C79.1096 12.1508 78.9903 12.7585 78.6717 12.8947C78.3655 12.7212 78.5047 12.5808 78.3011 12.4936C76.8721 11.8805 75.3238 11.6503 73.8055 11.807C68.9531 12.7875 66.9505 16.8755 67.94 21.4748C68.7298 25.1456 72.4121 28.3179 76.2591 27.51C77.814 27.1832 78.2373 26.4447 79.4348 25.9899C79.7146 26.19 80.0757 26.8721 80.3723 27.2266L81.2534 27.4088Z" fill="white"/>
<path d="M81.074 37.7406C82.4473 37.578 85.5234 38.4082 86.2456 39.4912C88.3367 42.6256 85.8267 46.5668 82.459 47.4002C80.8352 47.8019 80.2375 47.727 78.7441 47.5957C77.4111 50.7203 77.6587 50.654 74.2397 50.9212C74.4961 50.1121 74.9275 49.454 75.2856 48.6907L78.0549 42.8964C78.4988 41.9771 78.8855 40.7303 79.5557 39.9453C80.5576 39.4054 81.7024 40.1297 82.5381 39.232L82.6406 39.2835C82.27 40.8203 79.9966 45.2224 79.2056 46.821C80.5774 46.6414 80.8813 46.6746 81.9558 45.6322C83.2793 44.3539 84.0637 42.7175 84.1677 40.8867C84.364 37.7064 80.0603 38.0627 78.5193 39.7076C77.1907 41.1256 76.8801 42.1302 76.8816 44.0356C76.7512 44.0581 76.6201 44.0774 76.489 44.0937C74.031 44.39 74.1409 41.3391 75.5222 39.9475C77.2405 38.2167 78.7778 37.9395 81.074 37.7406Z" fill="white"/>
<path d="M26.7772 37.8901C27.9319 37.7829 29.4199 37.9226 29.9581 39.0997C30.6354 40.7266 29.7811 43.0005 28.2292 43.8545C27.735 44.1265 25.2705 44.4672 25.5783 43.2482C25.8312 42.8484 26.3521 42.3048 26.6962 41.9989C27.4236 41.3519 28.2936 39.5276 27.9036 38.5556C27.1383 38.0516 25.479 39.6134 25.033 40.1222C22.9107 42.5423 21.3924 45.6869 21.5235 48.9624C23.2876 51.0129 23.8473 48.2338 24.5675 46.8162C24.6512 46.7095 25.0112 45.7506 25.0929 45.5427C25.814 45.5444 27.6123 45.4636 28.2518 45.2274C27.9953 45.6721 27.4227 47.2666 27.1473 47.8837C26.7362 48.8047 25.2261 51.4512 25.0449 52.2153C24.6758 52.2532 22.0086 52.4439 21.8513 52.3735C22.1192 51.8577 22.4644 50.9751 22.7756 50.5916C22.6424 50.6058 22.5089 50.6175 22.3752 50.6269C20.3854 50.7634 19.0088 49.651 18.8817 47.634C18.7087 44.8895 19.9799 42.4588 21.6852 40.4085C22.8475 39.0109 24.9907 37.9978 26.7772 37.8901Z" fill="white"/>
<path d="M69.3027 38.6268L69.5406 38.6288L69.5627 38.722C69.2822 39.1482 69.0972 39.6675 68.8681 40.1271C67.5966 42.6768 66.2536 45.1971 65.0325 47.7705C64.7664 48.3313 64.612 48.8863 64.5059 49.4955C64.629 49.4609 64.7513 49.4237 64.8728 49.3839C65.7786 49.0844 66.518 48.0673 66.8681 47.2383C66.9605 47.0195 66.9893 47.027 67.1578 46.9757C67.4113 47.0837 67.3284 47.023 67.4827 47.2605C67.5156 47.5048 67.5008 47.5346 67.3873 47.7525C66.9238 48.0231 66.6448 48.6349 66.2868 49.0267C65.2801 50.1282 64.1212 50.9089 62.571 50.6132C62.1361 50.5302 62.0251 50.4601 61.792 50.1252C61.5898 49.6397 61.7331 49.6783 61.6883 49.184C61.5115 49.2204 60.9832 49.847 60.7532 50.0468C59.9132 50.7763 59.3774 50.6557 58.3847 50.595C57.289 49.7529 57.043 48.6204 57.5325 47.3226C58.2502 45.4198 59.8639 43.3 61.9582 42.8467C62.7735 42.6702 63.5789 42.7534 64.3598 43.0379C64.9878 41.9774 65.5911 40.4254 66.164 39.2531L66.6218 38.9538C67.179 38.903 68.903 38.8022 69.3027 38.6268ZM60.0763 49.6115C60.7525 49.52 60.8295 49.2855 61.2589 48.7926C61.7685 48.2075 63.9707 44.0775 64.0043 43.6052C63.9265 43.5225 63.9562 43.5241 63.8707 43.4994C62.2051 43.8857 59.1387 48.1887 60.0763 49.6115Z" fill="white"/>
<path d="M60.2532 16.8632C60.3554 16.856 61.1781 16.7801 61.1896 16.9205C61.3021 18.2985 61.1537 19.7601 61.2531 21.1392C61.766 28.2509 67.921 33.6797 74.9955 33.6923C82.7409 33.8374 88.3629 28.316 89.1452 20.7716C89.2763 19.5023 89.2235 18.1543 89.2623 16.8772L90.1984 16.8738L90.2328 17.9222C90.2723 20.3087 90.2614 21.6635 89.6249 23.9705C88.6918 27.3571 86.912 30.1469 83.994 32.1527C77.444 36.6554 67.8357 35.2243 62.9858 28.913C60.9355 26.2044 60.0326 22.2361 60.1404 18.8995C60.1605 18.2774 60.1464 17.482 60.2532 16.8632Z" fill="white"/>
<path d="M91.6356 42.7903C92.8478 42.6401 93.4894 43.1663 94.5961 43.3944C95.1022 43.4987 95.8551 43.4022 96.3663 43.3395C95.9525 44.6741 95.2626 45.8338 94.6459 47.0766C94.3449 47.6843 93.7552 48.6104 93.8571 49.2963C94.5411 50.1694 96.1166 46.9267 96.6271 46.975C96.975 47.9236 95.442 49.1376 94.7946 49.7531C93.734 50.6123 91.9542 51.2984 90.868 49.9357C90.8637 49.9301 90.8461 49.5114 90.7611 49.3525C90.3956 49.4696 89.924 50.4807 88.9894 50.6448C88.3375 50.7592 87.6095 50.6149 87.0507 50.2583L87.0346 50.2258C85.5477 47.1866 88.6393 43.0909 91.6356 42.7903ZM89.3424 49.6064C90.181 49.3486 90.2938 49.0722 90.7758 48.3511C91.068 47.9144 91.3588 47.4653 91.6129 47.0037C92.1747 45.9198 92.6361 44.7781 93.2821 43.7367C93.2821 43.7367 93.2675 43.6004 93.2653 43.583L93.1561 43.5099C92.7782 43.5974 92.5709 43.66 92.2421 43.8952C91.172 44.6611 88.3588 48.2959 89.3424 49.6064Z" fill="white"/>
<path d="M41.9434 42.7904C43.0999 42.6665 43.4136 43.0543 44.454 43.3538C44.8878 43.4785 45.5938 43.4418 46.0438 43.4243C46.3457 43.4127 46.2529 43.3617 46.4875 43.0846C46.9791 43.677 43.8006 48.4133 43.914 49.2293C44.2475 49.6521 44.7981 49.2522 45.0455 48.9291C45.3827 48.489 46.0146 48.0539 46.1816 47.5366C46.2622 47.287 46.1724 47.2438 46.4152 47.0862C46.6311 47.0978 46.943 47.0893 47.1167 47.1919C47.0486 47.6601 45.4624 49.2884 45.0464 49.6607C43.6358 50.699 42.7974 51.0432 41.1011 50.2496C41.0998 49.9137 41.1302 49.5022 41.147 49.1599C40.6038 49.799 39.8645 50.5505 38.9916 50.624C37.8022 50.7275 36.8912 50.376 36.7816 49.0546C36.552 46.2863 39.1764 43.0248 41.9434 42.7904ZM39.7043 49.5913C41.2185 48.7054 42.1024 46.2405 42.9681 44.7504C43.1087 44.5082 43.3967 43.8767 43.4105 43.6106C43.2455 43.55 43.1955 43.5583 43.0185 43.5627C41.4562 44.2943 40.1056 46.4702 39.5067 48.0408C39.3593 48.4274 38.9714 49.6001 39.7043 49.5913Z" fill="white"/>
<path d="M107.713 42.785C108.73 42.5746 109.414 43.0747 110.323 43.3586C110.555 43.4311 111.82 43.5457 112.064 43.3705C112.109 43.3377 112.072 43.1275 112.246 43.0219L112.349 43.1425C112.251 44.5692 110.451 47.1031 109.929 48.5798C109.821 48.8844 109.58 49.0676 109.802 49.3777C110.953 49.7129 111.965 47.0635 112.69 46.9889C113.027 47.4676 111.553 49.1957 111.14 49.5102C110.163 50.2137 108.675 51.2245 107.388 50.4011C106.962 50.1283 106.95 49.6229 106.884 49.1517C106.444 49.796 106.108 49.95 105.568 50.4896C104.628 50.7257 104.28 50.7136 103.349 50.501C102.014 48.5764 102.771 46.7593 104.018 45.0393C104.901 43.8274 106.231 43.0164 107.713 42.785ZM105.675 49.5898C107.444 48.2168 108.127 45.6373 109.215 43.8173C109.232 43.79 109.367 43.663 109.399 43.6308C109.272 43.5188 109.053 43.5675 108.845 43.5734C107.249 44.2181 106.154 46.2985 105.429 47.786C105.17 48.3151 104.87 49.1112 105.398 49.5425L105.675 49.5898Z" fill="white"/>
<path d="M48.766 50.6088C47.8495 50.6234 46.9328 50.6241 46.0163 50.611C45.948 50.4985 45.924 50.4689 45.9374 50.3314C45.9599 50.0994 49.2399 43.2501 49.2949 43.2126C50.0778 42.6771 51.5933 43.1875 52.1247 42.7277C52.2164 42.6483 52.2883 42.6267 52.4055 42.5964L52.6518 42.9486C52.4589 42.975 52.2845 42.9577 52.1849 43.1095C51.9307 43.4968 51.7065 43.8443 51.4178 44.2072C52.3237 43.4923 52.7225 43.0609 53.8517 42.7896C54.853 42.5209 55.1945 42.5844 56.0691 43.078C56.155 43.3028 56.3423 43.8083 56.3338 44.0366C56.2774 45.5462 55.1066 46.9333 54.4784 48.2418C54.286 48.6426 54.1565 49.2366 54.0563 49.6622C54.8805 49.1539 55.4217 48.7025 56.0419 47.9507C56.2405 47.7098 56.6014 47.0679 56.8309 46.9774L56.9526 47.0534C57.0218 47.2632 57.011 47.6318 56.8782 47.8071C55.5911 49.5072 53.9671 51.4618 51.6471 50.3237C51.4102 49.827 51.2969 49.5899 51.2741 49.0307C51.2318 47.9951 53.7763 44.6936 53.6163 43.9829L53.4851 43.9045C53.1704 43.9122 52.3207 44.2423 52.1469 44.4973C50.8614 46.3831 49.6064 48.4777 48.766 50.6088Z" fill="white"/>
<path d="M128.13 42.7201C130.589 42.203 131.531 44.4649 130.102 46.3339C128.654 48.2272 127.267 48.2228 125.073 48.5392L124.916 49.3615C126.488 51.0764 129.498 49.1411 130.581 47.6914C130.717 47.5093 131.065 47.0892 131.241 46.9709C131.432 47.0765 131.402 47.1463 131.501 47.4113C130.179 49.0688 129.143 50.0556 126.908 50.5703C125.81 50.8203 123.992 50.6436 123.092 49.8896C121.927 48.9144 122.473 46.3672 123.322 45.3255C124.157 44.3015 124.652 44.1368 125.609 43.4732C126.608 42.7799 126.976 42.8683 128.13 42.7201ZM125.495 47.8969C127.365 46.7051 127.903 45.6601 128.71 43.635C128.647 43.5253 128.46 43.1745 128.38 43.1141C128.09 43.5944 127.521 43.9024 127.2 44.2948C126.54 45.0989 125.419 46.8296 125.272 47.857L125.312 47.9551C125.379 47.9394 125.441 47.9332 125.495 47.8969Z" fill="white"/>
<path d="M103.969 38.6338C104.044 38.5932 104.062 38.6115 104.163 38.6172C104.35 39.1298 103.178 40.8168 103.029 41.3365C102.693 42.5023 99.2277 48.7276 99.3442 49.3804C100.108 49.6798 101.585 47.8499 101.803 47.124C102.072 46.9908 101.968 47.021 102.273 47.0406C102.493 47.1794 102.445 47.1068 102.53 47.3293C102.515 47.4476 101.332 48.8672 101.138 49.1477C99.7924 50.2958 98.7824 51.0691 96.9646 50.471C96.2702 49.3101 96.7177 48.0045 97.2883 46.8683C98.6206 44.2156 99.8862 41.3936 101.346 38.8159C102.047 38.7865 103.35 38.8609 103.969 38.6338Z" fill="white"/>
<path d="M118.836 42.7119C119.56 42.5494 120.394 42.8248 121.061 43.0505C123.048 46.467 118.6 47.9779 117.762 47.0313C117.771 46.4364 119.84 44.1984 119.271 43.0999L119.158 43.1057C118.876 43.5813 118.744 43.541 118.424 43.8811C116.932 45.4738 115.854 47.1668 115.801 49.362C116.693 50.5121 117.891 49.9676 119.036 49.4834C119.219 49.3712 119.555 49.2485 119.732 49.1172C120.251 48.7313 120.718 48.2145 121.167 47.758C121.502 47.4169 121.492 47.0809 121.703 46.9541L121.853 46.9943C121.903 47.0958 121.981 47.2841 121.939 47.3921C121.468 48.5697 120.21 49.5377 119.079 50.0515C117.008 50.9919 114.587 51.0761 113.196 49.0259C113.078 45.2237 115.134 43.2679 118.836 42.7119Z" fill="white"/>
<path d="M33.1448 42.5727C33.873 42.5091 34.8056 42.6792 35.2435 43.2904C36.5502 45.114 33.6831 47.5357 33.443 49.2505C33.5062 49.4688 33.453 49.4013 33.6344 49.5109C34.3094 49.509 35.734 47.9413 35.8779 47.3004C35.9682 46.8982 36.4403 47.0105 36.6899 47.1982L36.6806 47.4074C36.5113 47.7643 35.6843 48.1653 35.4866 48.8812C35.3944 49.2153 34.2449 50.0311 33.9096 50.2441C33.1118 50.751 32.0239 50.7065 31.1163 50.4685C30.9862 50.086 30.9286 50.0298 30.6117 49.7984L30.5816 49.7766C29.7723 47.7326 33.1728 44.8001 32.5386 43.6552C32.396 43.5302 32.3087 43.5056 32.1242 43.4919C31.724 43.4621 30.4483 46.9459 29.7761 47.5212C29.5282 47.5914 29.6229 47.5993 29.408 47.5172C29.2668 47.0891 31.2822 44.12 31.2055 43.6221C31.1796 43.4537 31.0377 43.2036 30.9825 43.0273C31.0372 42.766 30.985 42.8531 31.1655 42.6844C31.6211 42.9373 32.5467 42.6695 33.1448 42.5727Z" fill="white"/>
<path d="M69.1273 56.6795C69.3798 56.6135 69.7749 56.569 70.0429 56.5305C69.8279 57.5123 68.9497 58.733 68.6015 59.7084C68.4453 60.146 68.2092 60.2992 68.3066 60.824C68.3389 60.9981 68.2659 61.0629 68.1488 61.1714C67.3201 61.3788 67.7232 60.9062 67.0362 60.737C66.7607 60.7771 66.5657 60.9577 66.3429 61.1263C65.1213 61.1693 64.9697 61.425 64.2712 60.3598C63.8444 60.7966 62.9445 61.5691 62.3758 60.987C62.0197 60.2553 62.8765 59.2793 63.1566 58.5891C63.3009 58.2336 63.3729 58.0274 63.4811 57.6561C63.7672 57.3921 64.69 56.608 64.9635 57.2584C64.8625 57.9212 63.5184 60.2521 63.1119 61.0505C63.6629 60.6333 63.9503 60.2821 64.3976 59.7684C64.5054 58.7786 65.5266 58.1483 66.4904 58.4344C67.0199 58.0688 67.4395 58.6797 67.274 59.2353C67.1126 59.7769 66.3698 60.2852 65.8653 60.342L65.3606 60.4126C65.1692 60.5643 65.2 60.4949 65.1758 60.6758C65.4971 60.9979 65.8979 60.8889 66.3168 60.8485C67.535 59.8632 67.676 59.498 68.2581 58.0182C68.4082 57.6365 68.8733 57.0156 69.1273 56.6795Z" fill="white"/>
<path d="M66.4903 58.4344C67.0198 58.0688 67.4394 58.6797 67.2739 59.2353C67.1125 59.7769 66.3697 60.2852 65.8652 60.342C65.7351 60.1571 65.6076 60.1359 65.3923 60.0624C65.3139 59.8965 65.3227 59.9699 65.3643 59.7849L65.6769 59.6868C65.8377 59.4498 65.712 59.3759 65.7465 58.9888C65.9432 58.9276 66.0004 58.9016 66.1816 58.8098C66.3016 58.6314 66.3387 58.5871 66.4903 58.4344Z" fill="white"/>
<path d="M80.1943 56.7426C80.1305 56.6562 80.1027 56.6145 79.9826 56.5921C78.353 56.2877 78.0343 58.4195 77.4286 58.7995L77.299 58.7486C76.2128 56.8919 79.5739 55.7919 80.277 56.5634C80.5224 56.5547 80.7883 56.5145 80.9867 56.6492C82.6728 58.9266 80.2983 58.6634 80.1584 58.9834C80.2961 59.0633 80.5231 59.1189 80.5773 59.2173C80.6689 59.383 80.715 61.1884 80.7026 61.2164C80.4601 61.4015 79.8632 61.3274 79.6325 61.0965C79.2516 60.4039 79.9306 59.5906 79.527 59.1264C79.4098 59.0969 79.2092 59.0283 79.1052 59.0594C78.8656 59.5791 78.454 61.0306 77.9018 61.2248C77.7472 61.2791 77.4052 61.2616 77.2609 61.1861C77.2236 61.1662 77.1759 61.1337 77.1664 61.0902C77.1239 60.8815 78.706 57.535 78.9382 57.0406C79.3564 57.0587 79.8566 57.0681 80.2624 57.1285C79.7812 57.6561 79.412 58.4296 79.2912 59.1244C79.6567 58.8162 81.0768 57.6999 80.5956 57.1102C80.4447 56.9255 80.3393 57.0224 80.1943 56.7426Z" fill="white"/>
<path d="M59.6947 56.4692C59.747 56.4877 59.8642 56.5579 59.9187 56.5884C60.1352 57.1836 58.9487 59.2149 58.6437 59.8864C58.4416 60.3246 58.2752 60.7785 58.1463 61.2437L57.2188 61.3012C57.2091 60.3142 57.2678 60.4853 57.6911 59.6214L57.6417 59.5324C57.3178 59.4958 57.0047 59.5374 56.6805 59.5672C56.1584 60.07 55.9254 60.5516 55.6642 61.2131L54.499 61.242C54.7639 60.6805 55.0372 60.3185 55.3159 59.7817C55.2723 59.5133 55.0825 59.7368 54.7916 59.4712C54.7734 59.2478 54.7804 59.3105 54.8961 59.0878L55.6006 59.1331C55.8867 58.644 55.8862 58.4666 56.1128 57.9672C56.224 57.7224 56.4495 57.4946 56.5957 57.1918C56.3616 57.1066 55.7973 57.6072 55.4264 57.4968C54.819 56.2194 57.4092 56.4523 57.7891 56.8745C57.5991 57.1863 56.7444 58.8019 56.7566 59.1077L57.8484 59.2352C58.3508 58.2811 58.5514 56.7072 59.6947 56.4692Z" fill="white"/>
<path d="M30.6633 53.6752C31.9566 53.6688 41.039 53.505 41.7605 54.0055L41.5812 54.0602L41.6992 54.0438L41.705 53.9719L41.6634 53.9585L41.5887 54.0651C39.4033 54.2454 19.0491 54.2941 18.6427 54.0586C18.6176 53.9291 18.6114 53.9334 18.6647 53.8168C18.982 53.9531 22.1353 53.7698 22.7138 53.7568C25.3635 53.7127 28.0134 53.6855 30.6633 53.6752Z" fill="white"/>
<path d="M117.567 53.6726C121.619 53.8065 126.022 53.7755 130.128 53.8369C130.541 53.8273 131.549 53.856 131.926 53.9656L131.918 54.0474C131.41 54.185 126.865 54.1807 126.17 54.1873C122.195 54.2558 118.219 54.2657 114.245 54.2172C113.135 54.2045 109.665 54.2986 108.841 53.9641L108.85 53.8899C109.633 53.6884 111.652 53.6908 112.496 53.6831C114.174 53.6676 115.887 53.7286 117.567 53.6726Z" fill="white"/>
<path d="M75.3926 1.18701L75.5141 1.24356C75.635 1.39993 75.958 2.6588 76.0942 3.04017C76.6626 3.12325 77.9436 2.94374 78.2116 3.07383C78.0476 3.32619 77.8315 3.27015 77.595 3.45648C77.1723 3.78961 76.9204 4.05823 76.445 4.32368C76.5315 4.78012 76.9761 5.87295 76.7615 6.23305L76.623 6.23884C76.1711 5.96154 75.7529 5.41614 75.4394 4.9962C74.636 5.50374 74.195 5.86959 73.4839 6.50259C73.6216 5.95994 74.0595 4.86605 74.2632 4.28848C73.9182 3.93136 72.798 3.40147 72.7322 3.00797C72.9587 2.76193 73.8948 2.96844 74.6242 2.81281C75.1032 2.22766 75.1157 1.88023 75.3926 1.18701Z" fill="white"/>
<path d="M94.6992 57.0629C94.9937 57.0582 95.6221 56.9845 95.7993 57.2262C95.3284 57.6525 95.6836 57.9979 95.5789 58.1082C95.1914 58.5162 94.1221 59.908 94.3132 60.4476C94.5388 60.4294 94.6567 60.0879 94.9556 60.0323L95.0354 60.2676C95.294 60.4369 95.335 60.4881 95.5312 60.7308C95.7737 60.8173 95.6792 60.8202 95.8945 60.7457C96.0754 60.4206 95.6558 59.4134 95.5334 58.9772L95.8857 58.3857C95.9085 58.3739 95.9319 58.3625 95.9561 58.3513C96.2542 58.2096 97.1104 57.8905 97.4209 57.9994L97.4656 58.1416C97.4011 58.3086 97.3799 58.3938 97.2517 58.5254L97.0811 58.2891C96.8357 58.2832 96.9236 58.2638 96.7075 58.4405C96.8921 59.3998 96.9067 59.8116 97.4158 60.6511C96.2197 61.5436 95.6602 61.4892 94.7131 60.3709C94.5886 60.4114 94.0034 61.2171 93.8767 61.3826C93.572 61.2309 93.2783 61.0582 92.9985 60.8659C92.7664 60.7063 92.7129 60.6504 92.6675 60.4087C92.7583 60.2439 92.8557 60.2246 93.0205 60.1432C93.3106 60 94.218 57.5819 94.6992 57.0629Z" fill="white"/>
<path d="M81.1216 3.4021C81.5112 3.59453 81.6672 4.51315 81.7485 4.90689C82.1272 4.91273 82.7505 4.89015 83.0793 5.01781L83.113 5.13121C82.9065 5.42921 82.4604 5.75228 82.1506 6.04907C82.2429 6.5599 82.3682 6.94821 82.5732 7.42074C82.0649 7.12423 81.6833 7.08794 81.1765 6.73672C80.7744 6.68629 80.2961 7.13977 79.9292 7.01248C79.8889 6.92955 79.9768 5.76484 79.9746 5.53263C79.5344 4.99346 79.4077 5.0884 79.1309 4.78534C79.459 4.59643 80.3474 4.87912 80.707 4.74692C80.9282 4.42705 80.9385 3.88378 81.1025 3.45052L81.1216 3.4021Z" fill="white"/>
<path d="M69.4501 3.40759C69.8536 3.58697 70.0135 4.31933 70.1319 4.71153C70.4693 4.65682 71.4144 4.41829 71.5886 4.72748C71.4249 5.22408 70.2207 5.16006 70.692 6.1947C70.7426 6.30583 70.8593 6.84027 70.8912 6.98219C70.4462 7.28191 69.9597 6.43194 69.5384 6.43041C69.2606 6.70141 68.6445 7.28642 68.2867 7.40329C68.217 7.2344 68.3576 6.89868 68.42 6.70132C68.8088 5.47034 68.016 5.85457 67.4888 4.91809C67.9812 4.93372 68.431 4.91754 68.9235 4.90021C69.0402 4.49272 69.2217 3.72266 69.4501 3.40759Z" fill="white"/>
<path d="M87.2402 59.0389C87.6292 58.7637 88.4436 58.1407 88.9534 58.3581L88.9893 58.467C88.8354 58.7913 88.6311 58.6641 88.4678 58.8739C88.2297 59.1798 87.8093 60.3776 87.8166 60.7299L88.0137 60.8968C88.9548 60.0743 89.168 59.2197 89.3079 58.0723C89.3972 58.1672 90.085 58.8994 90.0989 58.9559C90.3904 60.1632 88.8801 61.173 87.8767 61.234C87.0916 60.9216 87.23 61.0599 86.7188 60.2153C86.8967 59.8517 87.0557 59.4255 87.2402 59.0389Z" fill="white"/>
<path d="M61.576 58.252L61.8553 58.3327C62.0649 58.5348 62.1625 58.8876 62.2667 59.1689C61.982 60.8326 61.0932 61.179 59.5281 61.1617C59.3564 60.8694 59.224 60.5612 59.0835 60.2527C59.1809 59.6534 59.2336 59.1021 59.7983 58.751C60.1012 58.5703 60.8745 58.1486 61.1973 58.3224C61.2137 58.3604 61.2324 58.4042 61.2537 58.4538C60.7022 59.0631 60.1268 59.5757 59.9088 60.4126C59.8637 60.5857 59.9522 60.7127 60.0512 60.8377L60.206 60.8428C61.07 60.3709 61.2458 59.0081 61.576 58.252Z" fill="white"/>
<path d="M86.1841 57.9888L86.3094 58.0197C86.3445 58.1821 86.0032 58.6317 85.8662 58.8821C85.9937 59.4614 86.2764 60.1329 86.3445 60.6734C86.3994 61.1073 85.4261 61.4645 85.0423 61.4068C85.0144 61.3589 85.0342 59.9417 85.0122 59.6785L84.9053 59.5904C84.2849 60.0384 83.9033 60.6508 83.4954 60.9211C83.4888 60.4992 84.7171 59.3906 84.8496 58.8903C84.8562 58.8659 85.0774 58.5182 85.1118 58.4627C85.544 58.3199 85.8098 58.253 86.1841 57.9888Z" fill="white"/>
<path d="M72.7202 58.6183L72.7987 58.9986C72.1904 59.3962 71.5515 60.5578 72.3296 61.0116C72.5906 61.0209 72.7496 60.8602 72.9553 60.7427C73.725 60.3034 72.9912 59.4233 73.4569 59.0919C73.7425 59.0733 73.7587 59.0265 73.9762 59.1401C74.171 59.6261 74.3329 59.9875 74.264 60.522C74.0209 61.0758 72.2624 61.354 71.7244 61.0182C70.1239 60.0194 71.5353 59.0292 72.7202 58.6183Z" fill="white"/>
<path d="M91.7094 58.2062C92.7942 57.412 93.914 59.46 92.1298 60.5786C92.365 60.8079 92.3708 60.7415 92.414 61.0103C92.0017 61.4731 90.7705 61.0374 91.5703 59.8421C91.705 59.3967 92.1599 58.5738 92.05 58.2652L91.8523 58.2452L91.7094 58.2062Z" fill="white"/>
<path d="M91.5703 59.8422C91.6135 60.1671 91.593 60.299 91.7944 60.5328C91.9035 60.5609 92.0251 60.6064 92.1298 60.5786C92.365 60.8079 92.3708 60.7415 92.414 61.0103C92.0017 61.4731 90.7705 61.0374 91.5703 59.8422Z" fill="white"/>
<path d="M80.937 60.2417C80.9692 60.1347 81.0022 60.028 81.0366 59.9217C81.2754 59.1912 82.1975 58.0349 83.0522 58.3406C83.0522 58.7789 82.1455 59.4968 82.3022 59.9887L82.4604 60.0361L82.6201 60.2988C82.3704 60.2975 82.2832 60.3068 82.0371 60.349C81.8467 60.5099 81.8994 60.4272 81.8298 60.658L81.9448 60.7734C82.3389 60.8991 82.9043 60.7532 83.1079 60.9709C82.8552 61.097 82.6582 60.9918 82.4399 61.0338C81.4226 61.2299 81.3904 61.1517 80.937 60.2417Z" fill="white"/>
<path d="M85.7329 7.35889C86.2178 7.54993 85.8142 7.75087 86.0808 8.17229C86.3057 8.24332 86.688 8.12806 86.9348 8.07519C87.0176 8.29355 86.5225 8.8076 86.4675 9.00861C86.3936 9.28174 86.6821 9.4435 86.5847 9.78466C86.3621 9.77368 85.8655 9.37525 85.6377 9.21782C85.3916 9.40176 85.2524 9.5975 84.9646 9.80853L84.8569 9.78561C84.8064 9.5042 84.9214 9.21994 85.0041 8.94204C84.7983 8.76154 84.4299 8.39182 84.3479 8.13121L84.408 8.03184C84.939 7.99596 84.5845 8.14527 85.0144 8.15156C85.2949 7.97589 85.5264 7.62821 85.7329 7.35889Z" fill="white"/>
<path d="M64.9341 7.2771C65.3356 7.47214 65.288 8.07274 65.8597 8.05685C66.0591 8.05136 66.2165 7.98992 66.4195 7.98787C66.3495 8.50273 66.0823 8.6245 65.7384 8.8901C65.7788 9.27952 65.9739 9.14134 66.0168 9.46668L65.5439 9.54811C65.0863 9.2965 65.1702 9.34615 64.571 9.50601C64.372 9.2514 64.6294 9.14148 64.4657 8.77989C64.2491 8.64032 63.9172 8.41412 63.8813 8.13989C64.1614 7.97052 64.44 8.15307 64.7335 8.04448C64.8003 8.0198 64.867 7.49176 64.9341 7.2771Z" fill="white"/>
<path d="M91.7094 58.2063L91.8523 58.2453C91.7761 58.4432 91.6977 58.6402 91.6172 58.8363C91.4355 59.2753 90.6423 60.905 90.2358 61.0742L90.1274 61.0052C89.8813 60.1505 90.9741 58.6219 91.7094 58.2063Z" fill="white"/>
<path d="M82.4604 60.0361C82.979 59.4294 83.3027 58.8104 83.688 58.1149L84.2014 58.9289C83.7319 60.1036 83.6104 59.8417 82.6201 60.2989L82.4604 60.0361Z" fill="white"/>
<path d="M72.7202 58.6183C72.6381 58.5269 72.4336 58.3078 72.4411 58.1891C72.4603 57.9028 72.5976 57.6373 72.8202 57.4562C73.0321 57.282 73.2657 57.1928 73.5359 57.168L73.8611 57.3619C73.4041 57.4711 73.2205 57.8886 73.2796 58.3438L73.3895 58.5337C73.2373 58.8113 73.0112 58.8198 72.7987 58.9986L72.7202 58.6183Z" fill="white"/>
<path d="M52.4054 42.5964C52.9501 41.8912 53.2646 42.538 53.7786 42.691L53.8516 42.7896C52.7224 43.0609 52.3236 43.4923 51.4177 44.2072C51.7064 43.8443 51.9306 43.4968 52.1849 43.1095C52.2845 42.9577 52.4589 42.975 52.6517 42.9486L52.4054 42.5964Z" fill="white" fill-opacity="0.0235294"/>
<path d="M74.3759 57.073C74.9157 57.1719 75.6137 57.8105 74.9625 58.3217C74.808 58.4313 74.7443 58.491 74.5531 58.5272C74.2177 58.2866 74.2169 57.3731 74.3759 57.073Z" fill="white"/>
</svg>
