<svg width="150" height="64" viewBox="0 0 150 64" fill="none" xmlns="http://www.w3.org/2000/svg">
<path d="M98.335 36.7879C101.911 36.32 104.002 39.9822 104.66 42.9744C105.496 46.7748 105.792 50.642 105.678 54.5255C105.651 55.4256 105.806 57.0399 105.324 57.7873C104.452 59.1419 101.764 59.5788 101.256 57.6828C101.205 57.4527 101.205 57.1789 101.197 56.9526C101.101 54.2903 101.571 42.0088 99.3164 40.5543C98.8411 40.4416 98.5013 40.8098 98.2354 41.1736C96.3047 43.8167 96.0931 48.1621 95.9517 51.3352C95.877 53.0242 96.679 55.0871 96.1809 56.5306C95.4807 57.2042 95.1036 57.3497 94.1287 57.3601C91.0591 57.3927 91.4444 54.5386 91.4671 52.4109C91.4429 49.3534 91.9248 45.9377 91.2869 42.9592C91.1551 42.342 90.7757 41.6646 90.4651 41.1103C89.7942 41.854 89.521 42.3762 89.001 43.2321C88.6099 43.875 87.9676 44.7473 87.6805 45.4309C86.6741 47.8243 86.4536 50.4988 86.4969 53.0694C86.5166 54.2493 86.784 55.4416 86.5811 56.5915C86.491 57.1061 86.1614 57.4756 85.8479 57.8732C83.7635 58.5444 82.3711 57.2136 82.0921 55.2104C81.8987 53.8164 81.9456 52.4493 81.9038 51.047C81.8423 49.0536 81.8123 47.0594 81.8138 45.0652C81.8108 42.7885 81.6665 40.8341 82.6092 38.7099C83.7056 36.2385 85.2701 37.3423 86.3745 38.9967C87.7808 38.0855 89.42 36.8009 91.1814 37.5732C92.4302 38.1203 93.2901 39.3185 94.0972 40.3666C94.6985 39.5238 95.3577 38.6004 95.989 37.7799C96.5347 37.0693 97.4722 36.8498 98.335 36.7879Z" fill="white"/>
<path d="M50.7055 45.9454C48.8833 46.1921 47.2205 45.5286 47.2335 43.3348C47.2116 37.876 54.2439 36.1664 58.1758 38.7722C61.0066 40.6484 61.6868 43.5211 62.3279 46.5957C62.6589 48.7084 62.8122 54.7834 62.443 56.8172C62.3238 57.5137 62.1501 59.0758 61.6707 59.5917C61.0233 60.2885 59.3239 60.2976 58.6448 59.5958C58.0437 58.9746 58.0101 58.5378 57.9853 57.7282C56.1595 58.2076 54.9245 58.4516 52.954 58.488C49.7071 58.548 45.8469 57.0673 45.7099 53.2995C45.65 51.6521 47.9895 49.6988 49.2378 48.8415C50.0342 48.2789 51.0113 48.0708 51.8522 47.7836C53.107 47.3551 56.9961 47.8671 57.8324 47.0838C58.1858 46.4539 58.0613 45.108 57.9483 44.4076C57.6095 42.3059 55.761 41.3569 53.796 41.6926C51.1469 42.1451 51.8057 44.3141 50.7055 45.9454ZM53.3874 54.7979C54.5814 54.6788 56.1905 54.2417 56.9679 53.2567C57.4016 52.7071 58.1077 51.6357 57.399 51.0761C56.9305 50.7063 55.797 50.6351 55.2217 50.7048C53.7152 50.8024 52.2355 51.0898 51.1584 52.2344C50.5792 52.8499 50.4454 53.7813 51.1587 54.3407C51.8181 54.8578 52.6039 54.8139 53.3874 54.7979Z" fill="white"/>
<path d="M30.4409 26.1548C32.4351 25.2682 33.442 27.0735 34.8167 27.0674C37.2592 27.0564 50.352 23.6645 48.6057 29.1698C48.121 29.9804 47.0566 30.1312 46.1932 30.0669C44.3168 29.9269 42.7008 29.9259 40.8373 30.2202C39.5381 30.4394 36.108 31.1465 35.0957 31.8683C34.6524 34.9635 33.586 39.2381 34.3799 42.3505C36.6524 42.3741 47.1838 41.3383 44.7061 46.0861C44.5856 46.317 43.8654 46.38 43.6148 46.4032C42.0606 46.0403 35.3863 45.9271 34.0351 46.589C33.3745 46.8159 33.3572 47.8824 33.3615 48.4511C33.3759 50.3659 33.2874 52.3319 33.5506 54.2318C33.6851 55.2026 34.2411 56.2027 34.2454 57.1977C34.3396 58.4326 32.9353 59.1534 31.8595 59.1469C30.6971 59.14 29.6516 57.5231 29.365 56.5279C29.1789 55.8797 29.29 55.1703 29.203 54.5109C28.3753 48.2377 30.0761 42.1026 30.0498 35.8429C30.0455 34.8336 29.9415 33.8851 29.9921 32.8605C29.1289 32.0486 26.6204 30.3579 27.8999 29.0801C28.2796 28.7009 29.3843 28.1962 29.9135 27.8678C30.1172 27.3964 30.2982 26.6667 30.4409 26.1548Z" fill="white"/>
<path d="M114.888 37.5136C118.003 37.3691 120.568 39.4806 122.665 41.5849C124.676 43.6016 123.795 47.6028 121.77 49.3444C119.323 51.4504 116.246 51.3561 113.194 51.1526C113.299 52.2772 113.513 53.9517 114.641 54.4372C117.669 55.7406 120.84 52.0967 123.741 52.5614C124.334 52.7948 124.438 53.1576 124.637 53.7045C124.482 54.6797 124.342 54.9855 123.824 55.8181C122.963 57.2025 119.955 57.9313 118.359 58.1484C116.18 58.4446 112.924 58.6298 111.07 57.1933C109.052 55.6302 109.202 53.7069 108.799 51.3757C108.42 49.1814 108.988 46.0387 109.476 43.8667C109.659 43.0516 110.883 40.5715 111.407 39.8787C112.119 38.9373 113.665 37.6891 114.888 37.5136ZM116.853 47.5472C117.749 47.2638 118.584 46.9217 119.022 46.034C119.85 44.3499 118.312 41.6363 116.418 41.5948C115.263 42.192 114.481 42.5796 114.051 43.9095C113.613 45.2662 113.941 46.962 115.464 47.4362C115.908 47.5743 116.392 47.5541 116.853 47.5472Z" fill="white"/>
<path d="M25.4202 3.98188C26.1758 3.90925 27.3604 3.90798 28.1246 4.01896C29.0726 4.15662 35.2367 4.92779 35.0729 6.07497C34.8708 6.37668 34.2601 6.56323 33.9332 6.81778C33.0223 7.52723 32.2994 8.58624 31.5742 9.48626C31.273 9.86638 31.0169 10.6175 30.7234 10.9713C29.5132 12.4305 28.7121 14.3353 27.3619 15.6559C26.1448 16.8463 23.9043 17.2912 22.2614 17.3719C21.1274 17.4276 18.2366 17.1492 17.2643 16.6272C16.6751 17.2667 15.9508 18.1729 15.4808 18.8984C14.6951 20.1114 13.305 22.0124 12.5435 19.4974C13.5095 17.2344 14.3254 16.7569 16.0303 15.2047C18.7272 12.5846 21.5251 10.969 24.8236 9.23744C25.3334 8.9698 27.4477 8.20993 27.6338 7.89205C27.3809 7.73381 25.8615 8.1107 25.5012 8.13282C20.7256 8.42536 17.8803 11.1777 14.1259 13.5816C14.115 13.5085 14.1059 13.4352 14.0987 13.3617C13.4331 6.6098 19.9885 4.48677 25.4202 3.98188Z" fill="white"/>
<path d="M10.6112 40.1011C10.6508 36.5316 10.4043 32.6744 10.6435 29.0954C10.7425 27.6128 12.3371 26.5038 13.7233 26.2165C15.3417 25.8811 17.11 26.9325 16.7084 28.83C16.459 30.1119 15.8779 31.4637 15.7949 32.767C15.4377 38.3756 15.1269 43.972 15.1804 49.597C15.241 51.1769 15.0027 52.7501 15.7199 54.2191C16.0443 54.8837 16.6832 55.9608 16.7907 56.6149C17.1204 58.6212 13.0685 58.2319 12.2982 57.0542C11.0514 55.1481 10.9309 52.6495 10.8223 50.4565C10.8588 49.9149 10.7402 48.0182 10.7229 47.3791C10.641 44.9539 10.6038 42.5275 10.6112 40.1011Z" fill="white"/>
<path d="M133.981 37.297C134.038 37.2891 134.095 37.2824 134.152 37.2769C135.785 37.1221 136.19 37.4016 137.494 38.378C139.622 39.9707 140.817 43.5961 137.134 44.1646C135.605 44.3637 135.642 41.6117 134.92 41.0935C133.529 40.1276 132.472 44.1524 132.334 44.9805C131.786 48.2666 131.517 51.514 131.952 54.8294C132.147 56.1514 132.363 57.3427 130.688 57.8581C129.661 58.1743 128.637 57.8034 127.73 57.2985C127.513 56.8477 127.355 56.4592 127.329 55.9537C127.269 54.7732 127.472 53.5614 127.428 52.3828C127.284 48.6227 127.102 44.8606 127.058 41.0977C127.05 40.388 127.003 39.5306 127.146 38.8443C128.782 37.3338 129.556 37.3748 131.439 38.3037C132.359 38.0459 132.78 37.5636 133.981 37.297Z" fill="white"/>
<path d="M73.8963 37.3706C75.4264 37.1672 76.9461 38.0696 77.9452 39.1783C78.753 40.0008 79.5916 42.6065 78.4307 43.3812C76.9835 44.3465 75.4586 44.0523 74.7452 42.3978C74.5738 42.0004 74.0787 41.2934 73.8289 40.9707C70.8009 44.1458 70.5134 50.7621 71.4426 54.8638C71.551 55.4138 71.7592 56.3488 71.6417 56.8854C71.3877 58.0455 69.3635 58.0983 68.4392 57.8973C67.3825 57.6675 67.0763 56.9382 67.0585 55.9468C67.0425 55.0527 67.1339 54.1701 67.1775 53.2761C67.2234 52.2124 67.2229 51.1473 67.1764 50.0837C67.0664 46.9655 66.2015 41.7673 66.9008 38.8365C68.4649 37.8452 69.5821 38.094 71.2573 38.5906C72.1661 38.0461 72.8624 37.6372 73.8963 37.3706Z" fill="white"/>
</svg>
