<svg width="150" height="64" viewBox="0 0 150 64" fill="none" xmlns="http://www.w3.org/2000/svg">
<path d="M13.0017 17.8268C14.6819 17.7306 17.4535 17.7892 19.1331 17.8745C22.2721 18.0487 25.2507 18.1111 27.4817 20.6872C28.4399 21.7936 28.9188 23.2961 29.0812 24.7302C29.5044 28.4673 29.4626 32.1496 29.2288 35.8929C28.1097 35.8404 26.7321 35.8831 25.5855 35.8839L18.8191 35.8751C18.5563 35.71 18.2823 35.5238 18.1211 35.2527C18.0691 35.1654 18.0061 35.0058 18.0366 34.9061C18.4123 33.6752 22.5247 34.5804 23.8679 33.8191C24.1273 33.6721 24.206 33.4349 24.281 33.1583C24.5932 32.0074 24.555 25.4681 24.3288 24.1807C24.2774 23.8881 24.127 23.6331 23.9804 23.3788C22.7573 22.698 22.014 22.7328 20.6405 22.7361C19.6378 22.7384 18.6232 22.734 17.6188 22.7407L10.3665 22.7393C8.22868 22.7442 6.59247 22.6089 6.67314 25.2747C6.82862 30.4134 6.55815 35.6447 6.73799 40.7736C8.15053 40.8648 10.3099 40.7932 11.75 40.7759C11.721 38.6294 11.621 36.4819 11.6646 34.3352C11.7043 32.3782 11.7268 30.4244 11.7192 28.4668C11.7512 26.762 12.425 26.0859 14.2058 26.1057C15.5663 26.121 17.9564 25.8309 19.0197 26.6167C19.4499 26.9346 19.5669 30.0354 18.9214 30.3966C18.0415 31.1711 16.4979 30.8988 15.3639 30.9487C14.2873 30.996 13.0791 31.2875 12.9771 32.6145C12.896 33.6718 12.8787 34.9064 12.9483 35.9846C13.0344 37.3191 12.5766 39.1976 13.5917 40.2209C14.5487 41.1141 16.9231 40.7931 18.2369 40.7832C21.6958 40.7574 25.2737 40.8992 28.7165 40.7733C27.3874 45.306 22.7226 45.5663 18.6681 45.8671C15.9551 46.0683 13.11 45.8223 10.4061 45.6391C8.02785 45.4781 5.89043 45.2412 4.00924 43.5908C1.60993 41.4857 1.69093 37.9561 1.56063 35.0169C1.44899 32.3637 1.48005 29.7065 1.65368 27.0566C1.67149 26.7448 1.70992 26.3693 1.71225 26.0687C1.64705 23.0516 3.23288 19.5779 6.28996 18.5813C7.93314 18.0457 11.1937 17.9043 13.0017 17.8268Z" fill="white"/>
<path d="M68.503 26.3445C69.4652 26.2749 70.4267 26.3806 71.342 26.3042C71.2049 29.5041 71.3371 32.8106 71.3064 36.016C71.2992 36.7574 71.3716 39.2877 71.2799 39.8605C71.037 40.0038 70.9868 39.9524 70.6712 39.9476C69.9307 39.9595 69.19 39.9442 68.4506 39.9018L64.0911 34.1924C63.3274 33.207 62.403 32.3045 61.8158 31.1894C61.5415 30.6684 61.3426 30.1454 61.0062 29.6553C61.2758 30.9575 61.1897 32.9879 61.1835 34.3815L61.1802 39.9795C60.3351 39.9051 59.2999 39.9697 58.3774 39.9137C58.4307 36.7594 58.4494 33.6046 58.4338 30.4499C58.4347 29.4079 58.3337 27.4054 58.4276 26.4732C58.6335 26.3133 58.7806 26.3489 59.0705 26.3212C59.6924 26.2782 60.835 26.3149 61.4467 26.3667C62.7245 27.6042 63.4689 28.9374 64.5504 30.3392C65.5865 31.6822 66.728 33.0701 67.6979 34.4632C68.0432 34.9592 68.4987 36.0944 68.7361 36.6868C68.3464 33.7162 68.4908 29.4488 68.503 26.3445Z" fill="white"/>
<path d="M36.0669 26.3309C38.0261 26.2551 42.2067 26.1144 43.7193 27.1552C44.4537 27.6504 44.9542 28.4237 45.1052 29.2964C45.5012 31.5495 44.3079 33.3269 42.0403 33.7204C42.7779 34.6125 43.2727 35.8397 43.9086 36.7817C44.6329 37.8548 45.2208 38.8546 45.8754 39.9662C45.0791 39.9948 43.0135 40.0223 42.3418 39.8409C41.0624 38.0177 40.1105 35.1802 38.6804 33.4371C39.0038 35.2041 38.8884 38.0632 38.8819 39.9231C37.9686 39.9691 36.9293 39.8888 36.0316 39.9969C35.9776 38.7814 35.8883 26.747 36.0669 26.3309ZM38.8842 32.0832C39.7766 32.0605 41.0167 32.0843 41.7865 31.6048C42.2655 30.9602 42.2993 29.4521 41.5641 28.9891C40.8361 28.5306 39.706 28.6064 38.8653 28.4819C38.8904 29.684 38.8553 30.8967 38.8842 32.0832Z" fill="white"/>
<path d="M100.042 26.3147C101.001 26.3135 102.189 26.2744 103.119 26.3713C104.927 29.83 105.868 33.7746 107.495 37.3184C107.916 38.2358 108.183 38.9713 108.443 39.9464C107.523 40.0116 105.961 39.9454 105.02 39.9213C104.606 38.8999 104.376 38.1038 104.06 37.0424C103.718 37.0022 103.344 37.0002 102.997 36.9902C101.608 37.0014 100.207 36.9649 98.8186 36.9997C98.4224 37.7132 98.0862 39.0774 97.8643 39.9046C96.8044 39.9752 95.626 39.9405 94.5654 39.9193C94.7332 39.2187 95.2759 38.4282 95.522 37.6703C96.3035 35.3948 97.1509 33.1714 97.9836 30.9081C98.4854 29.5426 99.2507 28.133 99.6448 26.6838C99.7129 26.4326 99.822 26.402 100.042 26.3147ZM99.562 34.7445C100.883 34.8349 101.98 34.6698 103.34 34.7968L102.13 31.192C101.999 30.8064 101.611 29.8054 101.555 29.4562C101.54 29.2174 101.533 29.1221 101.478 28.8892L101.386 28.849C101.233 29.0496 101.239 29.337 101.217 29.5943C101.031 30.6208 100.886 31.1654 100.491 32.1576C100.195 32.903 99.7004 33.9844 99.562 34.7445Z" fill="white"/>
<path d="M101.217 29.5944C101.238 29.3371 101.233 29.0496 101.385 28.849L101.478 28.8892C101.532 29.1221 101.539 29.2175 101.554 29.4562L101.487 29.4656L101.408 29.613L101.217 29.5944Z" fill="white"/>
<path d="M78.3118 26.3236C79.316 26.2982 80.3209 26.3059 81.3243 26.3466C81.7198 27.1185 82.0487 28.3698 82.409 29.2168C82.6917 29.8797 83.0836 30.685 83.3282 31.3398C84.0914 33.386 84.8736 35.4268 85.6221 37.4782C85.9136 38.2775 86.2938 39.0428 86.5728 39.8299L86.4893 39.9117C86.0733 39.9831 83.8189 40.0069 83.46 39.8884C82.9239 39.711 82.3541 37.6694 82.1292 37.0165L81.2862 36.9898C80.1304 37.0111 78.9747 36.9724 77.8204 36.9775C77.1312 36.9805 76.7891 36.9484 76.6104 37.6733C76.4757 38.18 76.338 39.3716 75.9263 39.7037C75.4041 40.1241 73.4112 39.9366 72.7417 39.9187C73.3028 38.3775 73.7642 37.0467 74.4329 35.5289C75.1068 33.9986 75.5396 32.2562 76.2303 30.6954C76.8206 29.3604 77.1114 27.8258 77.909 26.5471C78.0262 26.345 78.0694 26.3822 78.3118 26.3236ZM77.6966 34.8074C78.3594 34.7918 79.023 34.7868 79.6866 34.7922L81.5352 34.7757C81.2752 33.7202 80.4886 32.6523 80.2235 31.5012C80.1385 31.1306 79.6295 28.7639 79.5643 28.6909C79.4625 28.9652 79.3944 29.2414 79.3226 29.5243C78.8729 31.3007 78.1859 33.0524 77.6966 34.8074Z" fill="white"/>
<path d="M116.186 26.3179C119.95 26.2706 124.837 25.7378 124.276 31.121C124.012 33.6613 122.43 34.387 120.069 34.6174C119.777 34.646 118.924 34.6432 118.699 34.738L118.709 34.8746C118.644 36.5499 118.742 38.2544 118.692 39.9392C117.711 39.957 116.731 39.963 115.75 39.957C115.639 39.0358 115.665 37.4162 115.662 36.4591L115.671 30.6988C115.677 29.8538 115.605 27.0942 115.678 26.4625C115.864 26.3157 115.913 26.3543 116.186 26.3179ZM118.736 32.426C119.545 32.3366 120.13 32.3479 120.821 31.9045C121.536 31.0857 121.694 29.7692 120.784 29.0134C120.135 28.474 119.456 28.4749 118.664 28.4414C118.71 29.763 118.675 31.1179 118.736 32.426Z" fill="white"/>
<path d="M47.7438 26.3157C50.29 26.3217 53.1332 26.2551 55.6503 26.3502C55.6316 27.0939 55.623 27.9781 55.6618 28.7135C53.8852 28.7848 52.207 28.744 50.4442 28.7621C50.4396 29.6972 50.4481 30.6325 50.4698 31.5674C52.1514 31.5696 54.0133 31.4832 55.6668 31.5565C55.6537 32.3568 55.6288 33.18 55.6526 33.9784C53.9451 34.032 52.1326 33.9244 50.4342 34.0167L50.4412 34.9108L50.4447 37.4248C52.1665 37.4524 53.9094 37.3813 55.648 37.4067C55.6595 38.2549 55.6327 39.1021 55.6442 39.9511C52.9494 39.9238 50.2543 39.9226 47.5594 39.9476C47.4572 39.2094 47.4079 26.6642 47.5225 26.3975L47.7438 26.3157Z" fill="white"/>
<path d="M141.695 26.0926C141.814 26.0628 142.31 26.0622 142.467 26.0544C144.035 25.9762 145.473 26.3095 146.924 26.9045C146.925 27.2501 146.92 29.5116 146.791 29.6712C146.014 29.422 145.39 28.7667 144.524 28.5682C143.256 28.2742 141.522 28.2901 140.394 29.0029C138.129 30.4335 137.489 33.5723 138.956 35.8052C139.607 36.7968 140.221 37.3643 141.396 37.6242C143.004 37.9795 144.615 37.6851 146.003 36.8315C146.254 36.6592 146.528 36.4689 146.83 36.5042C146.89 36.8614 146.709 38.9063 146.64 39.292C144.516 40.744 140.036 40.5632 138.026 38.9116C136.52 37.6747 135.574 36.5112 135.325 34.5542C134.724 29.8295 136.951 26.7305 141.695 26.0926Z" fill="white"/>
<path d="M85.8137 26.3162C88.906 26.2758 92.3198 26.3054 95.4135 26.3357C95.4333 27.1101 95.4055 27.9232 95.4018 28.7026C94.2878 28.7437 93.1716 28.7521 92.0569 28.7278C92.0173 31.4587 92.0495 34.2569 92.04 36.9977L92.0708 39.9658C91.1106 39.9427 90.1028 39.9576 89.1389 39.9576C89.0481 36.9548 89.1521 33.9422 89.1001 30.9368C89.0884 30.244 89.0759 29.4813 89.1206 28.7937C88.2285 28.7237 86.7146 28.8035 85.7881 28.8261C85.747 28.3048 85.6679 26.7718 85.8137 26.3162Z" fill="white"/>
<path d="M126.825 26.325C127.593 26.2933 128.566 26.3262 129.338 26.3488C129.348 26.6417 129.331 26.9086 129.317 27.2004C129.179 30.0395 129.267 32.8903 129.243 35.7323C129.239 36.2326 129.227 36.8701 129.344 37.3505C129.646 37.5295 133.255 37.3783 133.945 37.3921C133.963 37.8782 134.076 39.6382 133.837 39.932L133.649 39.9456C131.25 39.9261 128.851 39.9266 126.453 39.9471C126.353 36.455 126.457 32.875 126.412 29.3739C126.401 28.4652 126.354 27.362 126.425 26.4668C126.565 26.3047 126.547 26.3548 126.825 26.325Z" fill="white"/>
<path d="M18.7466 36.8808C19.195 37.1696 20.4859 38.9077 20.8867 38.9096C21.0889 38.431 20.5442 37.3735 21.0748 36.9152L21.2007 36.9505C21.5603 37.5926 21.0241 39.2501 21.5099 39.6615C21.8394 39.5184 22.6984 37.2795 22.9013 36.814C23.1676 37.37 23.5338 38.5845 23.8882 38.9506C24.0777 39.1248 24.4823 39.6715 24.2764 39.9227C23.8286 39.8704 23.638 39.4905 23.3935 39.149C23.04 39.149 22.645 39.1288 22.2883 39.1183C22.1843 39.3633 22.0873 39.6393 21.9128 39.8359C21.6952 39.9842 21.4015 39.9021 21.131 39.8644C20.1782 38.9036 19.8481 38.6336 18.9796 37.5355C18.9978 38.0684 19.1118 39.5898 18.9101 40.0211L18.8423 40.0103C18.6737 39.7309 18.6917 37.2907 18.7466 36.8808ZM23.0392 38.8357L23.1953 38.9353L23.2822 38.8522C23.2757 38.5026 23.1419 38.0507 22.9782 37.7442L22.8684 37.6632C22.7466 37.9421 22.5085 38.3999 22.5189 38.6827L22.6029 38.8411C22.794 38.8586 22.8536 38.8535 23.0392 38.8357Z" fill="white"/>
<path d="M14.5298 37.0082C15.2153 36.9551 16.2745 36.9409 16.0997 38.0028C16.0709 38.1776 16.0067 38.3831 15.8595 38.4739L15.5658 38.3547L15.473 38.4101C15.5105 38.8843 16.2444 39.5307 16.0484 39.964C16.0171 39.9227 15.9548 39.9275 15.8862 39.9157L15.7219 39.6572C15.4222 39.2214 15.1972 38.7745 14.9515 38.3081C14.9272 38.8416 14.9071 39.4662 14.8294 39.9934C14.4111 39.7078 14.3558 37.8479 14.3842 37.3927C14.4007 37.127 14.3497 37.194 14.5298 37.0082ZM15.6272 38.074C15.7527 37.9543 15.7661 37.9378 15.8212 37.7737C15.6674 37.2961 15.3408 37.2431 14.8896 37.2563C14.9108 37.5526 14.9117 38.0218 15.0479 38.2656C15.329 38.43 15.4025 38.2857 15.6272 38.074Z" fill="white"/>
<path d="M26.7879 39.1388C26.6742 39.412 26.5822 39.7076 26.3603 39.8974L26.2769 39.8467C26.2744 39.2408 26.9771 37.2747 27.5727 37.0596C27.9339 37.289 28.1549 38.2767 28.2983 38.7373C28.0758 38.7934 27.9291 38.7732 27.893 39.0406C27.5994 39.1817 27.1289 39.1411 26.7879 39.1388Z" fill="white"/>
<path d="M17.4928 36.933C17.9008 36.9253 18.4149 37.0266 18.8278 37.0941C18.24 37.2098 17.474 37.165 16.9685 37.5173L16.9743 37.7286C17.3313 38.0488 18.1342 38.1113 18.6226 38.2015C17.9681 38.3754 17.6868 38.379 17.0205 38.3953C17.0443 38.7518 17.1142 39.101 17.1763 39.4529L17.1912 39.494C17.3444 39.6311 18.5135 39.7537 18.8331 39.8071C17.9058 40.0158 17.5298 39.9925 16.5811 39.9457C16.6218 39.1289 16.5736 37.9149 16.5669 37.0681L17.4928 36.933Z" fill="white"/>
<path d="M25.3344 36.9386C25.5772 36.9367 25.9411 36.8926 26.0974 37.0898C25.9627 37.2564 25.6824 37.2838 25.4626 37.3314C25.4712 37.9617 25.6428 39.5466 25.3108 39.9805L24.974 40.0181C24.7795 39.6687 24.9087 37.9308 24.9795 37.4625C24.8133 37.2583 24.5875 37.2515 24.2917 37.1565L24.2852 37.0636C24.5181 36.9419 25.0483 36.9514 25.3344 36.9386Z" fill="white"/>
<path d="M27.8931 39.0405C27.9292 38.7732 28.076 38.7934 28.2985 38.7373C28.5708 39.1353 28.8728 39.5061 28.8603 40.0054L28.7862 40.0694C28.0081 39.6328 28.2773 39.3522 27.8931 39.0405Z" fill="white"/>
</svg>
