<svg width="150" height="64" viewBox="0 0 150 64" fill="none" xmlns="http://www.w3.org/2000/svg">
<g clip-path="url(#clip0_24280_2882)">
<path d="M61.2012 43.9611C61.73 43.8992 64.1815 43.998 64.4449 44.3159L64.4267 44.4749C64.2672 44.7208 64.0027 44.7914 63.7293 44.9006C63.0481 47.9668 61.1123 46.4316 60.8848 47.6212C61.3468 48.2543 64.2629 47.7743 63.2146 49.749C62.3254 51.0382 60.7617 50.8623 59.4888 50.4199C58.7853 49.6358 58.9694 48.9862 59.8328 48.4485C59.9297 48.1144 60.4728 46.9988 60.4585 46.9684C60.0832 46.1717 59.8035 45.9579 60.0401 44.8433C60.4566 44.36 60.6401 44.2208 61.2012 43.9611ZM62.0125 50.1003C62.354 49.9953 62.6653 49.7237 62.6314 49.3458C62.3212 48.8657 60.8408 48.525 60.2827 48.5084C59.4043 49.8676 59.9268 50.0771 61.3358 50.4063L62.0125 50.1003ZM61.764 46.6413C62.6604 46.1401 63.3543 44.1951 61.6171 44.3109C60.8376 45.0574 60.1274 46.6408 61.764 46.6413Z" fill="white"/>
<path d="M136.72 41.5285C137.236 41.4468 137.522 41.5877 138.011 41.7571C138.418 42.3814 138.698 42.8267 138.727 43.5968C138.81 45.8067 136.615 48.4236 134.397 48.5282L134.321 48.4177C134.404 48.2349 134.5 48.2243 134.693 48.1406C135.62 47.7367 136.169 46.988 136.812 46.2208C136.045 46.3 135.041 46.1477 134.831 45.2896C134.415 43.5915 135.044 42.0918 136.72 41.5285ZM136.74 45.8531C137.566 45.0746 137.867 43.9457 137.903 42.8389C137.677 42.3531 137.582 42.1345 137.142 41.7997L136.956 41.7654C136.045 42.597 135.337 44.0654 135.864 45.34C135.899 45.4251 136.598 45.7508 136.74 45.8531Z" fill="white"/>
<path d="M103.965 41.3127L104.223 41.357C104.284 41.4442 104.348 41.5034 104.316 41.6201C103.81 43.5207 103.305 45.423 102.742 47.3092C102.693 47.4734 102.726 47.5858 102.798 47.725C102.935 47.7125 103.21 47.4507 103.337 47.3465L103.437 47.3996L103.447 47.5666C103.243 47.9988 102.335 48.9468 101.854 48.4507C101.752 48.2031 101.812 47.8965 101.84 47.6241L101.749 47.5541C101.497 47.7281 101.352 47.8907 101.143 48.1085C100.815 48.3522 100.033 48.818 99.6004 48.3974C99.2745 48.0811 99.1089 47.5231 99.1551 47.0696C99.2518 46.1193 99.7183 45.1899 100.462 44.5762C101.429 43.7668 101.472 43.9412 102.617 44.0329C102.917 43.6638 103.175 42.8036 103.192 42.3221C103.207 41.9344 103.123 41.8781 102.901 41.6333L102.933 41.4897C103.276 41.4276 103.621 41.3685 103.965 41.3127ZM100.772 47.8243C101.497 47.224 102.747 45.5301 102.367 44.5362C102.161 44.3353 102.058 44.3418 101.732 44.2956C100.849 44.502 99.5513 47.0243 100.329 47.7645C100.476 47.7967 100.627 47.8436 100.772 47.8243Z" fill="white"/>
<path d="M89.9475 43.9514C90.1372 43.9411 90.3386 43.9347 90.5232 43.9258C92.1565 43.8475 92.5571 45.4105 91.9595 46.6763C91.5479 47.548 91.011 48.1378 90.1123 48.4928C89.7285 48.54 89.207 48.636 88.8372 48.5143C87.6807 48.1341 87.6382 46.834 87.9941 45.8546C88.3523 44.8717 89.0232 44.3808 89.9475 43.9514ZM88.6892 47.3005C88.8965 48.049 88.9419 48.1016 89.7285 48.226C90.7737 47.5726 92.2839 44.4255 90.3826 44.295C89.2158 44.7793 88.9097 46.2026 88.6892 47.3005Z" fill="white"/>
<path d="M45.4687 43.9461C47.4553 43.7858 48.0069 44.9615 47.2805 46.7797C46.9672 47.564 46.1833 48.2271 45.3879 48.5168C45.0387 48.5466 44.5602 48.6163 44.2525 48.5096C42.322 47.8395 43.2902 45.2466 44.5439 44.3847C44.7959 44.2114 45.2022 44.0581 45.4687 43.9461ZM44.3165 48.0767L45.1427 48.2047C46.1826 47.3703 46.3965 46.6061 46.7024 45.3213C46.5903 44.9564 46.5354 44.5804 46.2535 44.3543C46.0042 44.2826 45.9581 44.2865 45.6972 44.2984C44.3886 44.7774 44.0684 46.8662 44.3165 48.0767Z" fill="white"/>
<path d="M37.8048 43.9566C38.29 43.9226 38.6904 43.9569 39.1755 43.9888C39.3575 44.1354 39.5673 44.3299 39.7465 44.4869C40.2217 46.3581 39.6198 47.8739 37.7199 48.5203C37.2354 48.5895 36.7203 48.5263 36.2394 48.4669C35.1666 47.2913 35.5457 45.7051 36.6099 44.6704C36.9636 44.3265 37.3592 44.1551 37.8048 43.9566ZM36.475 47.2769C36.6804 47.773 36.7423 48.1235 37.3326 48.2297C38.4967 47.7662 39.244 46.0035 38.9447 44.7971C38.8464 44.401 38.4803 44.3626 38.1377 44.3201C36.9827 44.6401 36.7013 46.3082 36.475 47.2769Z" fill="white"/>
<path d="M74.0641 47.1631C73.6869 47.6883 73.0458 48.7584 72.3293 48.6023C71.58 47.828 73.2745 45.344 72.5996 44.7096C71.5214 44.8413 70.636 48.4133 69.8689 48.4607C69.241 47.7383 71.2378 43.0836 71.1837 41.9319C71.1789 41.8317 70.9213 41.7074 70.805 41.6337L70.7904 41.5324C71.0244 41.4469 72.2506 41.1699 72.1956 41.6402C72.1034 42.4274 71.8142 43.2393 71.585 44.0035C71.4677 44.3557 71.323 44.6864 71.3614 45.0525L71.4459 45.1878C71.5976 45.1267 71.9665 44.5943 72.0105 44.5017C72.2864 44.2423 72.8707 43.8894 73.243 43.9351C74.6793 44.1118 72.7205 47.3937 73.0928 47.7765C73.3214 47.7148 73.8004 47.3256 74.0641 47.1631Z" fill="white"/>
<path d="M35.5169 41.4637C35.6914 41.6287 35.7229 41.6794 35.6681 41.9319C35.5706 42.3811 35.5192 43.08 35.2495 43.4606L35.1187 43.4798C34.9492 43.2825 34.926 42.8901 34.8841 42.618C33.9338 41.4594 32.7743 41.788 31.8263 42.7656C30.9838 43.6343 30.6224 44.9777 30.6115 46.1642C30.6012 47.2853 31.4618 48.2052 32.609 48.1576C33.4151 48.1172 34.1556 47.4108 34.6695 46.827L34.8065 46.8922L34.8309 47.0328C33.9185 48.3968 33.0127 48.8106 31.3759 48.5132C29.5195 48.1759 29.2506 46.2245 29.6158 44.6814C30.0305 42.8875 31.5838 41.5853 33.4229 41.4895C34.3483 41.4433 34.6654 41.9918 35.5169 41.4637Z" fill="white"/>
<path d="M76.9744 43.9517C77.6995 43.9044 78.5294 43.8706 78.4056 44.7898C78.1712 46.519 76.3863 46.1622 75.5228 46.7392C75.4774 46.8946 75.5316 46.9894 75.5755 47.1369C76.0516 48.7211 77.0931 47.6027 77.8907 47.3423L78.0731 47.4397C78.0284 47.5746 78.0006 47.6161 77.9054 47.7093C77.0045 48.587 76.3643 48.6152 75.1822 48.5887C74.991 48.3539 74.7933 48.0225 74.7017 47.7335C74.4747 47.0129 74.5391 46.232 74.8827 45.5589C75.3368 44.6797 76.0684 44.2386 76.9744 43.9517ZM76.0611 44.9978C75.9256 45.2942 75.6209 45.8188 75.6334 46.0826C75.8136 46.2522 75.9608 46.2104 76.2091 46.1645C76.743 45.9121 77.9281 45.1888 77.616 44.4714C77.4703 44.3564 77.285 44.3794 77.0968 44.3786C76.6243 44.5536 76.4647 44.6925 76.0611 44.9978Z" fill="white"/>
<path d="M124.666 43.9548C125.137 43.9309 125.454 43.9595 125.925 43.9984C126.105 44.2102 126.217 44.3166 126.312 44.5767C126.323 44.9651 126.084 45.2856 125.893 45.6584C125.23 46.1145 124.263 46.6303 123.456 46.6742L123.417 46.6759L123.352 46.7823C123.699 48.6302 124.822 47.8402 125.929 47.2709C125.963 47.4126 125.956 47.4265 125.934 47.5735C125.439 48.1613 123.937 48.8367 123.284 48.5357C121.68 47.7971 122.546 45.135 123.779 44.4045C124.094 44.2177 124.367 44.0922 124.666 43.9548ZM124.005 46.1781C124.599 45.9396 125.798 45.1884 125.505 44.4277C125.322 44.354 125.289 44.3634 125.092 44.3903C124.431 44.6248 123.363 45.3631 123.493 46.149C123.734 46.2539 123.706 46.2128 124.005 46.1781Z" fill="white"/>
<path d="M81.8411 43.9752C82.0916 43.9474 82.3999 43.8866 82.5867 44.0591C83.0745 44.5089 82.9719 46.3057 83.0342 47.0512C83.3264 46.5105 84.5671 44.1106 85.0754 44.1894C85.4981 44.6528 85.5039 46.7665 85.5522 47.5074C85.9163 47.0488 86.9109 45.6352 87.0149 45.0521C87.0581 44.8112 86.6846 44.4956 86.875 44.0489L87.0083 44.0037C87.2456 44.0894 87.4294 44.3739 87.5935 44.58L87.3438 45.1996C87.2771 45.4229 87.1431 45.9454 87.0046 46.1037C86.6187 46.5441 85.5354 48.3747 85.0842 48.4789L84.9458 48.3791C84.5942 47.7164 84.7378 45.7911 84.5034 45.5819C83.864 45.9589 83.2554 48.1665 82.6423 48.3467C82.29 48.0842 82.3047 45.6261 82.0747 45.059C81.915 44.6646 81.7693 44.4998 81.5635 44.1469L81.6104 44.0305L81.8411 43.9752Z" fill="white"/>
<path d="M57.0803 44.4752C57.5269 44.1939 58.0661 43.7606 58.6017 44.0391C59.2815 44.7803 58.0543 46.8496 58.1296 47.651L58.2308 47.7087C58.4508 47.6023 58.5733 47.5158 58.775 47.3773C58.9559 47.7719 58.0157 48.7919 57.3008 48.5266C56.9145 47.9545 57.7803 45.6295 57.9378 44.5989C55.8883 45.3888 55.7715 48.7306 54.7397 48.4862C54.4949 47.8905 55.6532 45.1539 55.4775 44.3911C55.2686 44.3232 55.152 44.29 54.9581 44.1829L55.0031 44.0948C55.3338 43.9889 56.3688 43.9025 56.6925 44.0092C56.5385 44.3716 56.3765 44.6739 56.3816 45.0674L56.4563 45.164C56.672 45.0674 56.9117 44.6818 57.0803 44.4752Z" fill="white"/>
<path d="M116.906 48.0664C116.629 48.3979 116.271 48.7152 115.818 48.4923C115.214 47.8385 116.529 45.5048 116.326 44.7167L116.207 44.6952C114.806 45.2913 114.378 47.5503 113.698 48.3661C113.437 48.4838 113.512 48.4956 113.265 48.4492C112.931 47.9677 114.021 45.3906 113.988 44.6955C113.975 44.4317 113.834 44.3173 113.645 44.1382L113.676 44.0746C114.009 43.9649 114.877 43.882 115.202 44.0225C115.051 44.3477 114.755 44.8462 114.933 45.1923C115.146 45.1055 115.335 44.7302 115.508 44.5012C115.826 44.26 116.383 43.8526 116.792 43.9174C116.922 43.9382 117.038 44.0102 117.113 44.1173C117.574 44.7735 116.802 46.7224 116.528 47.4032C116.39 47.5998 116.42 47.5071 116.423 47.7568C116.598 47.9593 116.654 47.9708 116.906 48.0664Z" fill="white"/>
<path d="M146.84 41.5364C147.125 41.5278 147.427 41.6629 147.7 41.7611C147.848 42.105 148.02 42.4459 148.184 42.7832C147.775 43.7803 147.733 43.7939 146.903 44.5027C148.546 45.8629 147.347 48.0104 145.675 48.5554C145.179 48.7171 143.954 48.6868 144.017 47.8786C144.285 47.4401 144.571 47.5853 144.985 47.7497C145.254 47.8006 145.515 47.9159 145.77 48.0175C146.816 47.2824 146.753 46.8707 146.546 45.708C146.066 45.0962 145.675 44.9216 145.026 44.5134C146.229 44.3035 146.674 44.1864 147.171 42.9899C146.581 41.6557 146.138 42.174 145.187 42.8778C145.363 42.5462 145.536 42.2132 145.706 41.8787C146.169 41.6945 146.352 41.6386 146.84 41.5364Z" fill="white"/>
<path d="M141.667 41.7672C141.967 41.775 142.307 41.7592 142.578 41.8736C142.718 42.1189 142.733 42.0539 142.689 42.2772C142.252 42.613 141.404 42.2503 141.05 42.8575C141.098 43.342 141.236 43.2084 141.656 43.4172C142.794 43.9842 142.978 45.127 142.709 46.2644C142.471 47.2639 141.158 48.8776 140.043 48.5486C139.505 48.5583 139.283 48.4534 139.024 47.9508C139.028 47.7536 138.998 47.8219 139.124 47.6894C139.679 47.4844 140.033 47.7046 140.607 47.9119C141.127 47.6983 141.373 47.6085 141.757 47.2129C142.281 45.1367 141.851 44.8569 140.134 43.8738C140.357 43.3752 140.729 42.6633 140.975 42.1549C141.108 41.8787 141.374 41.8351 141.667 41.7672Z" fill="white"/>
<path d="M132.688 41.5249L132.839 41.5219L132.932 41.6267C132.976 42.3878 131.755 46.3533 131.479 47.3428C131.307 47.9574 131.806 47.9952 132.011 48.3463L131.911 48.4543C131.563 48.5777 131.132 48.5458 130.755 48.5444C130.494 48.5548 130.109 48.6141 129.931 48.407C129.987 48.3223 130.585 47.4187 130.607 47.3201C130.965 45.788 131.456 44.2192 131.843 42.7053C131.865 42.6189 131.602 42.006 131.56 41.9053C131.593 41.8437 132.501 41.5974 132.688 41.5249Z" fill="white"/>
<path d="M42.9341 41.3311L43.058 41.3763C43.3324 41.7884 42.5929 43.6072 42.4848 44.1468C42.232 45.4084 41.6574 46.7336 41.4156 47.9768C41.6299 47.8019 41.9382 47.49 42.1999 47.4851L42.2379 47.5843C42.1213 47.9437 41.8376 48.2149 41.5846 48.5018C41.572 48.5059 41.5595 48.5101 41.5468 48.5138C41.3234 48.5793 40.9703 48.6229 40.764 48.4993C40.0991 48.1011 42.1221 43.0595 42.1311 42.2218C42.1353 41.8346 41.88 41.8515 41.7942 41.5486C42.0487 41.4014 42.6161 41.3679 42.9341 41.3311Z" fill="white"/>
<path d="M98.2712 41.4182C98.5524 41.3863 99.0248 41.3005 99.2394 41.4544C99.1508 42.0755 98.9274 42.6132 98.7934 43.1987C98.4264 44.8064 97.7819 46.4658 97.4238 48.0488C97.7651 47.7459 97.8998 47.5812 98.3554 47.5106C98.3986 47.8073 98.2917 47.8209 98.0947 48.055C97.8522 48.2806 97.5021 48.5884 97.144 48.5669C97.0041 48.5585 96.9382 48.5221 96.8488 48.419C96.249 47.7261 98.047 43.2887 98.1327 42.2202C98.1576 41.9115 98.0903 41.8109 97.9013 41.5877L97.9533 41.4947L98.2712 41.4182Z" fill="white"/>
<path d="M120.513 43.9464C121.085 43.9764 122.007 43.9518 121.883 44.8065C121.839 45.1092 121.596 45.3787 121.272 45.3166L121.172 45.14C121.143 44.8362 121.291 44.5852 121.42 44.3065C119.47 44.4417 119.397 45.1848 118.861 46.8284C118.967 47.141 119.096 47.4728 119.209 47.7849C119.823 48.0156 119.954 48.0832 120.535 47.8224C120.826 47.5998 121.032 47.3774 121.384 47.4141L121.415 47.553C120.969 48.5513 119.597 48.6051 118.701 48.5552C117.093 47.0416 118.476 44.3986 120.513 43.9464Z" fill="white"/>
<path d="M108.243 43.9602C108.703 43.9391 109.62 43.9151 109.786 44.4192C109.857 44.6267 109.844 44.8534 109.752 45.0521C109.463 45.0403 109.377 44.4377 108.976 44.4132C108.645 44.393 108.321 44.2843 108.068 44.4522C107.902 45.032 108.728 45.859 108.999 46.3644C109.129 46.6074 109.236 46.8804 109.338 47.1366C108.954 48.256 108.818 48.6513 107.574 48.5295C107.118 48.4646 106.729 48.5759 106.447 48.206C106.393 47.9472 106.619 47.0799 106.681 46.7276C106.863 47.2979 106.835 48.0625 107.558 48.1389C107.846 48.1694 108.097 48.259 108.359 48.0825C108.817 46.9218 105.812 44.8415 108.243 43.9602Z" fill="white"/>
<path d="M94.4112 45.3424C94.8346 44.8399 95.567 43.8104 96.2906 43.9765C96.4847 44.2098 96.432 44.6233 96.3111 44.8819C96.0841 45.3715 95.69 44.7985 95.3524 44.943C94.8397 45.1628 94.4742 46.0436 94.2237 46.5245C93.9212 47.0353 93.5323 48.6685 92.7977 48.4359C92.6512 48.108 93.558 45.201 93.6481 44.4812C93.421 44.2174 93.3302 44.4452 93.0694 44.1988L93.1156 44.0614C93.3668 43.9434 93.8941 43.9771 94.1944 43.9769L94.4127 43.9481L94.5409 44.0536C94.5885 44.3065 94.4515 45.0277 94.4112 45.3424Z" fill="white"/>
<path d="M50.5764 44.4579C50.8345 44.2022 51.3565 43.8157 51.7206 44.0403C51.7762 44.3146 51.7684 44.7362 51.6003 44.9683C51.3244 45.0673 51.2343 44.9333 50.9477 44.9095C49.6528 44.8017 49.3305 48.7593 48.1635 48.5189C47.9197 48.0176 49.1064 45.252 48.9724 44.5154C48.9613 44.4545 48.5952 44.2429 48.492 44.1685L48.5157 44.0607C48.7336 43.9604 49.7431 43.9845 50.0425 43.9861C50.0364 44.3201 49.7075 45.0944 49.6289 45.5456C49.8839 45.2678 50.3662 44.6623 50.5764 44.4579Z" fill="white"/>
<path d="M67.9268 44.4414C67.7163 44.3858 67.4451 44.342 67.3033 44.1885C67.48 43.9226 67.8841 44.0255 68.1526 43.65C68.3619 43.357 68.6748 42.8777 69.0491 42.8633C69.1582 43.0819 69.0355 43.3595 69.0491 43.7425C69.2086 44.0367 69.169 43.9523 69.5059 44.148L69.509 44.2448C69.3076 44.3264 69.189 44.3679 68.9796 44.4256C68.4813 44.9443 68.3076 46.6133 67.8634 47.5239C67.7938 47.694 67.7715 47.7315 67.7742 47.9138L67.9975 48.1239L67.9823 48.2539C67.8933 48.3209 67.7303 48.4353 67.6554 48.5066C67.5724 48.5194 67.3985 48.4887 67.3085 48.4768C66.677 47.9144 67.6226 45.2007 67.9268 44.4414Z" fill="white"/>
<path d="M112.373 43.9044L112.485 43.9325C112.551 44.2139 111.46 47.5641 111.283 48.0075C111.624 47.7966 111.795 47.6033 112.178 47.5482L112.247 47.6268C112.124 47.8983 111.776 48.2011 111.554 48.421C111.356 48.5011 111.226 48.5121 111.015 48.5426C110.005 48.189 111.297 45.6261 111.354 44.855C111.361 44.7584 111.432 44.536 111.458 44.4295C111.114 44.2912 110.935 44.1988 110.615 44.0225C111.341 44.0203 111.651 44.0329 112.373 43.9044Z" fill="white"/>
<path d="M53.7882 43.9712C53.8947 43.9517 53.8382 43.9475 53.9555 44.0263C54.0278 44.4311 53.0211 47.3475 52.7804 47.9554L54.0588 47.3652C53.6571 47.8276 53.3248 48.2783 52.7538 48.5086C52.5544 48.563 52.4319 48.5354 52.2663 48.4594C51.8063 47.7882 52.8912 45.4517 52.9221 44.475C52.6986 44.1914 52.4515 44.4335 52.1664 44.2075C52.3747 43.9646 53.4498 43.9854 53.7882 43.9712Z" fill="white"/>
<path d="M50.0425 43.9862L50.2127 44.0348L50.3022 44.357C50.4034 44.4065 50.4633 44.4448 50.5764 44.458C50.3662 44.6624 49.8839 45.2678 49.6289 45.5457C49.7075 45.0945 50.0364 44.3201 50.0425 43.9862Z" fill="#FDFDFD" fill-opacity="0.0156863"/>
<path d="M67.6553 48.5066C67.7302 48.4353 67.8932 48.3209 67.9822 48.2539L67.9974 48.1239L67.7741 47.9138C67.7714 47.7315 67.7936 47.694 67.8633 47.5239L67.9338 47.8201L68.0655 47.8703C68.2875 47.7054 68.4867 47.5127 68.7571 47.5296L68.808 47.5776C68.6605 47.9489 68.0713 48.4326 67.6553 48.5066Z" fill="#FDFDFD" fill-opacity="0.811765"/>
<path d="M72.0104 44.5017C71.9664 44.5943 71.5975 45.1266 71.4458 45.1878L71.3613 45.0525C71.3229 44.6863 71.4676 44.3556 71.5849 44.0034C71.6822 44.3711 71.6349 44.3097 72.0104 44.5017Z" fill="#FDFDFD" fill-opacity="0.0156863"/>
<path d="M115.202 44.0226C115.232 44.306 115.182 44.3442 115.344 44.4829L115.507 44.5013C115.335 44.7302 115.146 45.1055 114.933 45.1924C114.754 44.8463 115.051 44.3478 115.202 44.0226Z" fill="#FDFDFD" fill-opacity="0.0156863"/>
<path d="M56.6924 44.0093L56.7434 44.3913C56.9117 44.5082 56.8352 44.4766 57.0802 44.4752C56.9116 44.6818 56.6719 45.0674 56.4562 45.164L56.3815 45.0675C56.3764 44.6739 56.5384 44.3716 56.6924 44.0093Z" fill="#FDFDFD" fill-opacity="0.0117647"/>
<path d="M116.905 48.0664C116.654 47.9709 116.598 47.9594 116.423 47.7568C116.42 47.5071 116.39 47.5998 116.527 47.4032L116.588 47.6374C116.931 47.7845 117.264 47.362 117.609 47.1703C117.399 47.4661 117.168 47.823 116.905 48.0664Z" fill="#FDFDFD" fill-opacity="0.839216"/>
<path opacity="0.5" d="M150 38.6955C149.008 38.8469 147.194 38.798 146.152 38.7966L139.891 38.7845L119.045 38.7922L42.7757 38.7961L11.1331 38.7933C9.66823 38.7931 1.06746 38.9499 0.226168 38.6829C0.146216 38.5575 0.207474 34.2124 0.20772 33.6335L0.213488 18.6673C0.213859 16.5229 0.196983 14.379 0.194828 12.2349C0.194572 11.9798 0.191068 11.183 0.491916 11.1336C1.46184 10.9745 2.49266 11.0452 3.47842 11.046L8.67543 11.0468L30.5254 11.0474L123.942 11.041L141.526 11.0443L146.683 11.0384C147.567 11.0325 148.477 11.0137 149.363 11.0199C149.558 11.0212 149.834 11.1956 150 11.2978V38.6955Z" fill="#EFEFEF"/>
<path d="M144.598 21.7642C144.781 21.9004 144.943 21.9989 144.989 22.233C145.152 23.0643 144.805 24.2427 145.275 24.9811C145.757 25.7378 145.325 26.9752 144.862 27.6782L144.129 29.2198C144.068 28.8521 143.859 28.72 143.508 28.7245L143.576 28.462L143.504 28.4251C143.373 28.5796 143.272 28.7025 143.153 28.8668L142.955 29.3615L142.739 29.9631C142.632 30.2138 142.437 30.5474 142.459 30.7814L142.46 30.8467C141.991 31.0102 141.783 30.483 141.384 30.3309C141.192 30.3678 141.174 30.3964 141.044 30.5442L140.756 31.0439C140.759 30.8545 140.587 30.6226 140.393 30.6217C137.193 30.6071 133.975 30.489 130.771 30.4417C130.162 30.4326 128.286 30.6685 127.884 30.4877L127.695 30.635L127.978 29.6794L128.068 29.3509L128.149 29.0432L128.323 28.5485L128.68 27.4327C129.326 25.7849 130.362 23.4585 131.295 21.9701C131.322 22.1346 131.267 22.2455 131.213 22.4065C131.589 23.4923 134.5 23.0956 135.406 23.1075C138.493 23.1481 141.38 22.9217 144.449 23.3592C144.911 23.1618 144.703 22.1624 144.598 21.7642Z" fill="#9F9F9F"/>
<path d="M128.68 27.4326C129.778 27.762 131.297 27.7174 132.457 27.7054C136.221 27.6664 139.995 27.7714 143.757 27.6119C144.075 27.5983 144.564 27.5682 144.862 27.6781L144.129 29.2197C144.068 28.852 143.859 28.7199 143.508 28.7244L143.576 28.462L143.504 28.4251C143.373 28.5795 143.272 28.7024 143.153 28.8668L142.955 29.3614L142.739 29.963C142.632 30.2137 142.437 30.5473 142.459 30.7813L142.46 30.8467C141.991 31.0101 141.783 30.4829 141.384 30.3308C141.192 30.3677 141.174 30.3963 141.044 30.5441L140.756 31.0438C140.759 30.8544 140.587 30.6225 140.393 30.6216C137.193 30.6071 133.975 30.4889 130.771 30.4416C130.162 30.4326 128.286 30.6684 127.884 30.4876L127.695 30.635L127.978 29.6793L128.068 29.3509L128.149 29.0431L128.323 28.5484L128.68 27.4326Z" fill="#F0F0F0"/>
<path d="M128.068 29.3509C128.489 29.3198 129.042 29.3856 129.514 29.3835L133.695 29.3643C134.811 29.3584 141.705 29.1011 142.262 29.4038C142.479 29.2611 142.39 29.2754 142.601 29.316C142.75 29.505 142.68 29.7134 142.739 29.9631C142.632 30.2137 142.437 30.5473 142.459 30.7813L142.46 30.8467C141.991 31.0101 141.783 30.4829 141.384 30.3308C141.192 30.3677 141.174 30.3963 141.044 30.5441L140.756 31.0438C140.759 30.8544 140.587 30.6225 140.393 30.6217C137.193 30.6071 133.975 30.4889 130.771 30.4416C130.162 30.4326 128.286 30.6685 127.884 30.4877L127.695 30.635L127.978 29.6793L128.068 29.3509Z" fill="#FAFFEF"/>
<path d="M128.069 29.3509C128.49 29.3198 129.042 29.3856 129.514 29.3835L133.696 29.3643C134.811 29.3584 141.706 29.1011 142.263 29.4038C141.875 29.4815 141.101 29.5648 140.71 29.5469L140.91 29.6939C140.597 29.9178 139.587 29.7918 139.254 29.8882C138.451 29.8907 135.55 29.7874 134.885 29.6107C133.103 29.6323 129.626 29.9407 127.979 29.6793L128.069 29.3509Z" fill="#C1C1C1"/>
<path d="M128.323 28.5484C128.681 28.6064 129.179 28.6071 129.548 28.59C133.518 28.406 137.488 28.6793 141.46 28.5557C141.795 28.5453 142.188 28.5487 142.521 28.5835C142.271 28.6407 141.779 28.7255 141.591 28.8624C141.575 28.8614 143.205 28.835 143.122 28.8517L143.153 28.8668L142.956 29.3614L142.739 29.963C142.68 29.7133 142.75 29.505 142.601 29.316C142.39 29.2754 142.479 29.2611 142.263 29.4038C141.705 29.1011 134.811 29.3584 133.696 29.3643L129.514 29.3834C129.042 29.3856 128.49 29.3197 128.068 29.3509L128.15 29.0431L128.323 28.5484Z" fill="#FAFFEF"/>
<path d="M141.044 30.5441C141.174 30.3964 141.193 30.3677 141.384 30.3308C141.784 30.4829 141.991 31.0101 142.46 30.8467C142.852 30.7725 142.946 30.8215 143.301 31.0164L142.852 32.0191C142.414 33.1043 141.905 34.3028 141.566 35.4123L141.449 35.7718L141.24 36.4127C141.118 36.836 140.964 37.2682 140.982 37.7066C139.77 37.7996 137.338 37.7389 136.035 37.7371C133.35 37.7334 130.544 37.7813 127.876 37.7112C127.912 36.9632 127.943 36.4355 128.041 35.6878C128.111 35.2859 128.185 34.8765 128.09 34.4794C127.961 34.6157 127.592 35.792 127.224 36.3702C127.089 35.0687 127.424 33.2702 127.904 32.0514C127.642 31.952 127.678 32.091 127.425 31.8968C127.372 31.635 127.609 30.9932 127.696 30.635L127.884 30.4877C128.286 30.6685 130.162 30.4326 130.772 30.4416C133.975 30.4889 137.194 30.6071 140.394 30.6217C140.587 30.6225 140.759 30.8545 140.756 31.0438L141.044 30.5441Z" fill="#F2F2F2"/>
<path d="M128.091 34.4794C128.104 34.4904 128.118 34.5011 128.131 34.5122C128.296 34.6504 128.321 34.9464 128.405 35.0152C128.736 35.2879 137.171 35.1663 138.194 35.0881C138.206 35.0871 138.219 35.0858 138.231 35.0847C139.029 34.9354 140.792 35.1506 141.566 35.4123L141.449 35.7717L141.24 36.4127C141.118 36.8359 140.964 37.2682 140.983 37.7065C139.77 37.7995 137.338 37.7389 136.035 37.7371C133.35 37.7334 130.544 37.7813 127.876 37.7111C127.912 36.9632 127.943 36.4355 128.041 35.6878C128.111 35.2859 128.185 34.8765 128.091 34.4794Z" fill="#F4F4F4"/>
<path d="M128.09 34.4794C128.104 34.4904 128.117 34.5011 128.131 34.5122C128.296 34.6504 128.321 34.9464 128.405 35.0152C128.736 35.2879 137.171 35.1663 138.193 35.0881C138.206 35.0871 138.218 35.0858 138.231 35.0847C139.029 34.9354 140.792 35.1506 141.566 35.4123L141.449 35.7717L141.24 36.4127C140.991 36.3425 140.783 36.3112 140.528 36.2695C140.61 36.1475 140.596 36.2115 140.589 36.076C140.153 36.3649 139.375 36.1556 138.814 36.1459C138.352 35.7908 134.457 35.9413 133.687 35.9142C132.565 35.8747 131.084 35.812 129.962 35.8688L130.049 35.7578C132.088 35.5709 134.24 35.688 136.292 35.6675C137.101 35.6594 138.118 35.7334 138.909 35.6569C136.553 35.5272 133.862 35.6722 131.478 35.6355C130.374 35.6186 129.15 35.7772 128.041 35.6878C128.111 35.2859 128.185 34.8765 128.09 34.4794Z" fill="#FFF8F4"/>
<path d="M138.231 35.0847C139.029 34.9354 140.792 35.1507 141.566 35.4123L141.449 35.7718C140.532 35.8033 140.169 35.4439 139.419 35.3799C137.503 35.2165 135.428 35.3817 133.502 35.3263C132.745 35.3046 131.69 35.3949 131.001 35.2552C132.5 35.1566 137.149 35.4366 138.231 35.0847Z" fill="#FFF9F5"/>
<path d="M129.962 35.8688C131.084 35.812 132.565 35.8747 133.687 35.9142C134.457 35.9414 138.352 35.7908 138.814 36.146C138.647 36.2384 137.563 36.2007 137.309 36.2001L132.63 36.1744C131.913 36.1763 130.967 36.1979 130.233 36.1775C130.101 36.1739 130.044 36.0074 129.962 35.8688Z" fill="#F2F2F2"/>
<path d="M127.695 30.6349L127.884 30.4876C128.286 30.6684 130.162 30.4325 130.772 30.4415C133.975 30.4888 137.194 30.607 140.393 30.6216C140.587 30.6225 140.759 30.8544 140.756 31.0438C140.645 31.2918 140.421 31.761 140.335 32.0018C140.301 32.1026 140.252 32.3209 140.164 32.3261C136.356 32.5485 132.235 32.5746 128.424 32.4469C128.212 32.4398 128.301 32.1846 127.904 32.0513C127.642 31.952 127.678 32.0909 127.425 31.8968C127.372 31.635 127.609 30.9932 127.695 30.6349Z" fill="#F8F8F8"/>
<path d="M135.901 30.8649C136.686 30.8657 138.635 30.7929 139.309 30.8795L139.304 30.9701L138.883 31.163L138.993 31.1984C138.901 31.2333 138.377 31.2297 138.245 31.2318C137.23 31.2377 135.5 31.3063 134.57 30.9911L134.58 30.9417C135.005 30.9375 135.458 30.9478 135.875 30.87L135.901 30.8649Z" fill="#9E9E9E"/>
<path d="M141.044 30.5441C141.174 30.3964 141.193 30.3677 141.384 30.3308C141.784 30.4829 141.991 31.0101 142.46 30.8467C142.852 30.7725 142.946 30.8215 143.301 31.0164L142.852 32.0191C142.812 31.7275 142.682 31.2606 142.44 31.0735C142.113 31.0946 142.026 31.3695 141.738 31.4446C141.321 31.553 141.278 31.3887 140.797 31.5572C140.645 31.8068 140.635 31.9515 140.335 32.0019C140.421 31.7611 140.646 31.2919 140.756 31.0438L141.044 30.5441Z" fill="#9E9E9E"/>
<path d="M141.044 30.5441C141.174 30.3964 141.193 30.3677 141.384 30.3308C141.146 30.7681 140.963 31.0893 140.797 31.5572C140.645 31.8068 140.635 31.9515 140.335 32.0019C140.421 31.7611 140.646 31.2919 140.756 31.0438L141.044 30.5441Z" fill="#EFEFEF"/>
<path d="M136.963 33.135C137.43 32.9536 139.292 33.2354 139.857 33.2956L139.896 33.3529C139.011 33.6081 137.033 33.4414 136.048 33.4271C135.331 33.4304 133.568 33.4842 132.971 33.3497C133.365 33.3294 133.759 33.2991 134.15 33.2412C135.082 33.1035 136.025 33.1295 136.963 33.135Z" fill="#FFFBF4"/>
<path d="M137.238 18.3214C137.394 18.2378 137.419 18.2395 137.597 18.2429C137.367 18.428 137.381 18.3604 137.309 18.6035L137.362 18.7207C137.587 18.6141 137.993 18.6805 138.282 18.6636L138.372 18.5776L138.399 18.5953C138.214 18.5424 137.897 18.494 137.815 18.3629C138.734 18.1423 140.242 18.2771 141.212 18.2156C142.059 18.1619 143.703 18.1018 144.415 18.538C144.438 18.5517 144.46 18.5657 144.481 18.5801C144.13 19.3763 143.922 19.9281 143.618 20.742C143.641 21.2659 144.177 21.4843 144.598 21.7641C144.703 22.1623 144.911 23.1618 144.45 23.3591C141.38 22.9217 138.494 23.1481 135.406 23.1074C134.5 23.0955 131.589 23.4923 131.213 22.4064C131.267 22.2454 131.323 22.1346 131.295 21.9701C131.459 21.5786 132.738 19.3714 133.042 19.3618L132.976 19.6754L133.051 19.7274L133.294 19.5807C133.8 19.1714 134.057 18.8761 134.415 18.3413C134.939 18.3671 136.154 18.4297 136.544 18.7472C136.666 18.547 136.898 18.2331 137.132 18.1826L137.238 18.3214Z" fill="#BFBFBF"/>
<path d="M137.238 18.3214C137.394 18.2378 137.419 18.2395 137.597 18.2429C137.367 18.428 137.381 18.3604 137.308 18.6035L137.362 18.7207C137.587 18.6141 137.992 18.6805 138.282 18.6636L138.372 18.5776L138.399 18.5953C138.214 18.5424 137.896 18.494 137.814 18.3629C138.734 18.1423 140.242 18.2771 141.211 18.2156C142.059 18.1619 143.702 18.1018 144.415 18.538C144.438 18.5517 144.46 18.5657 144.481 18.5801C144.129 19.3763 143.922 19.9281 143.618 20.742C143.448 20.0987 143.962 19.7123 144.006 19.0614C143.954 19.033 143.9 19.0065 143.844 18.989C143.271 18.812 138.025 18.8121 137.515 19.0807C136.97 19.3682 136.546 19.8105 136.099 20.2291C136.039 20.3029 136 20.3255 135.926 20.3842C135.637 20.1218 135.909 19.8117 135.542 19.4071C135.001 19.1887 133.938 19.4831 133.294 19.5807C133.8 19.1714 134.057 18.8761 134.415 18.3413C134.939 18.3671 136.153 18.4297 136.544 18.7472C136.665 18.547 136.898 18.2331 137.132 18.1826L137.238 18.3214Z" fill="#EDEDED"/>
<path d="M136.544 18.7473C136.665 18.5471 136.898 18.2331 137.132 18.1826L137.238 18.3214C136.913 18.7624 136.518 19.5289 136.062 20.1564L135.94 20.1919L135.88 20.1107C135.869 19.6132 136.377 19.2482 136.544 18.7473Z" fill="#D8D8D8"/>
<path d="M134.415 18.3412C135.479 16.9372 137.51 14.8012 138.997 13.9268C139.227 14.411 139.464 14.8917 139.708 15.3686C140.069 15.0678 140.497 14.5464 140.912 14.9401C141.009 15.2363 141.072 15.7302 141.24 15.8771C141.611 15.9548 141.856 15.6375 142.097 15.3984C142.565 15.7336 143.028 16.1806 143.455 16.5727C144.836 16.6969 145.045 17.3746 144.481 18.58C144.46 18.5657 144.438 18.5516 144.416 18.5379C143.703 18.1017 142.059 18.1618 141.212 18.2156C140.242 18.2771 138.734 18.1423 137.815 18.3628C137.897 18.4939 138.214 18.5424 138.399 18.5952L138.372 18.5775L138.282 18.6636C137.993 18.6804 137.587 18.6141 137.362 18.7206L137.309 18.6034C137.381 18.3603 137.367 18.4279 137.597 18.2429C137.419 18.2394 137.395 18.2378 137.239 18.3213L137.132 18.1825C136.899 18.2331 136.666 18.547 136.544 18.7472C136.154 18.4297 134.939 18.3671 134.415 18.3412Z" fill="#DBDBDB"/>
<path d="M143.153 28.8668C143.272 28.7024 143.373 28.5795 143.504 28.425L143.576 28.462L143.508 28.7244C143.859 28.7199 144.068 28.852 144.129 29.2197C144.05 29.3927 143.691 30.2174 143.614 30.3261L143.301 31.0164C142.946 30.8215 142.851 30.7725 142.46 30.8467L142.459 30.7813C142.437 30.5473 142.632 30.2137 142.739 29.963L142.955 29.3614L143.153 28.8668Z" fill="#FAFFEF"/>
<path d="M143.019 29.8893C143.274 29.985 143.548 30.034 143.615 30.3261L143.301 31.0164C142.946 30.8215 142.852 30.7725 142.46 30.8466L142.459 30.7813C142.756 30.5907 142.899 30.2036 143.019 29.8893Z" fill="#C1C1C1"/>
<path d="M143.153 28.8668C143.272 28.7024 143.373 28.5795 143.504 28.425L143.576 28.462L143.508 28.7244C143.317 29.1316 143.18 29.4689 143.019 29.8893C142.899 30.2036 142.755 30.5907 142.459 30.7813C142.437 30.5473 142.632 30.2137 142.739 29.963L142.955 29.3614L143.153 28.8668Z" fill="#D0D0D0"/>
<path d="M88.1345 18.5304L89.8293 18.548C91.6384 20.3514 93.5595 22.1017 95.3005 23.9508L95.3071 18.5476C96.4922 18.546 97.6765 18.5508 98.8615 18.562C98.7773 19.4304 98.8535 21.2811 98.852 22.2018C98.8469 24.943 98.8755 27.6954 98.8586 30.4376C98.8571 30.702 98.8872 30.9669 98.7275 31.1194C98.236 31.122 97.7256 31.1083 97.2326 31.102C95.3884 29.4189 93.375 27.2759 91.5666 25.4909C91.6801 27.0338 91.6032 29.5021 91.5966 31.1191C90.446 31.1036 89.2763 31.1156 88.1242 31.1166C88.0847 26.9865 88.0832 22.6574 88.1345 18.5304Z" fill="#DEDEDE"/>
<path d="M76.9062 18.5571C77.1663 19.2501 78.0242 20.9088 78.3691 21.6255L81.1221 27.3442C81.7014 28.5467 82.3823 29.8789 82.8701 31.106L78.8418 31.1274C78.5364 30.356 77.9326 29.3258 77.4961 28.6118L76.6289 28.6245L73.127 28.6235C72.9139 29.1834 72.1887 30.5557 71.8838 31.1177C70.5298 31.1072 69.1752 31.1065 67.8213 31.1157C68.1183 30.2334 73.8518 18.6932 74.0371 18.5649C74.9247 18.5179 76.0033 18.5508 76.9062 18.5571ZM75.3594 24.1343C74.8584 25.0346 74.5671 25.9239 74.127 26.8003L75.4531 26.7515C75.8778 26.7365 76.3224 26.7281 76.7441 26.7046C76.5539 26.318 75.5753 24.2362 75.3594 24.1343Z" fill="#DEDEDE"/>
<path fill-rule="evenodd" clip-rule="evenodd" d="M64.4238 18.5375C65.2405 18.5453 66.5511 18.4793 67.3105 18.6567C67.8517 18.7852 68.3522 19.048 68.7656 19.4203C70.9318 21.3562 70.2994 26.8214 67.2109 27.6352C66.971 27.6982 66.6198 27.7056 66.3671 27.7152C65.3049 27.7342 64.1825 27.7139 63.1132 27.7172L63.0859 31.1176L59.79 31.1078C59.7153 26.9925 59.7746 22.6821 59.7861 18.5502C61.3226 18.5687 62.8874 18.5227 64.4238 18.5375ZM63.1132 21.4447L63.0869 24.7524C64.0241 24.762 65.6778 24.95 66.3515 24.4135C67.0006 23.298 67.0104 22.3415 66.0068 21.4672C65.0425 21.4401 64.0778 21.4324 63.1132 21.4447Z" fill="#DEDEDE"/>
<path d="M115.294 18.5589C117.058 18.5006 119.205 18.5339 120.982 18.57L120.944 21.2393C119.752 21.2586 118.265 21.141 117.112 21.2635C114.539 21.5371 117.968 23.3596 118.535 23.7434C118.93 24.0071 119.306 24.2983 119.661 24.6147C121.326 26.1176 121.844 28.1371 120.289 30.0988C119.654 30.8993 118.437 31.0643 117.459 31.1075L111.91 31.1101C111.886 30.1933 111.901 29.2157 111.899 28.2942C112.789 28.3604 116.079 28.3153 116.936 28.2638C117.077 28.1253 117.295 27.8289 117.425 27.6631C116.26 25.6934 112.322 25.4577 112.138 22.5183C112 20.3058 112.956 18.723 115.294 18.5589Z" fill="#DEDEDE"/>
<path d="M99.3309 18.5491C103.201 18.5461 107.388 18.4742 111.237 18.5728L111.181 21.7257C109.958 21.6666 108.245 21.7126 107.002 21.7183L106.996 26.984L106.994 31.1101L103.524 31.1219C103.439 28.0942 103.502 24.7493 103.499 21.7006L99.3024 21.7142C99.3009 20.6591 99.3104 19.604 99.3309 18.5491Z" fill="#DEDEDE"/>
<path d="M83.3973 18.5471L86.9378 18.5503L86.9327 31.1164L83.4112 31.1127C83.324 27.0246 83.398 22.6575 83.3973 18.5471Z" fill="#DEDEDE"/>
<path opacity="0.61" d="M1.74868 12.6587C5.84584 12.5659 10.3381 12.6669 14.4801 12.6671L40.6956 12.6676L51.3515 12.6639C52.1335 12.6621 55.5203 12.6044 56.0788 12.7141C56.0057 13.039 56.0612 14.6617 56.0658 15.0794C56.0757 16.4045 56.0788 17.7296 56.075 19.0546L56.0747 30.6637C56.075 32.8162 56.036 35.1155 56.0998 37.2585C54.0428 37.3019 51.8347 37.2632 49.7679 37.2633L37.469 37.2634L1.61768 37.2578C1.78796 35.9885 1.76374 34.5911 1.76625 33.3068L1.76417 28.2239L1.74868 12.6587Z" fill="#D9D9D9"/>
<path fill-rule="evenodd" clip-rule="evenodd" d="M21.6886 18.2422C25.3011 17.8443 28.5532 20.4465 28.9562 24.0576C29.359 27.669 26.7601 30.9245 23.1486 31.332C19.5302 31.7403 16.267 29.1357 15.8634 25.5176C15.46 21.8995 18.0693 18.6409 21.6886 18.2422ZM24.6954 22.7715C23.9753 21.9505 22.8698 21.5789 21.7999 21.7988C20.1685 22.1344 19.1117 23.7211 19.4308 25.3555C19.7499 26.9898 21.3253 28.0621 22.963 27.7598C24.0374 27.5614 24.923 26.8014 25.2814 25.7695C25.6396 24.7378 25.4155 23.5928 24.6954 22.7715Z" fill="white"/>
<path d="M8.86523 18.5706C9.72146 18.5677 10.6143 18.5346 11.4688 18.6272C14.1237 18.9154 15.7825 21.9718 14.6885 24.3684C14.2299 25.373 13.4211 26.0466 12.5498 26.6985C13.1092 27.4264 14.4507 28.6672 15.165 29.4036C14.5256 29.8986 13.8946 30.4045 13.2725 30.9212C13.0047 31.1366 12.7511 31.3661 12.4941 31.594C11.3285 30.5297 9.16699 28.1256 7.94238 27.6087C7.84455 28.6291 7.8791 30.0428 7.88086 31.094C7.10001 31.0119 5.27736 31.0853 4.42188 31.1018C4.50596 27.0559 4.4158 22.6402 4.41309 18.5637C5.89699 18.5821 7.38126 18.5843 8.86523 18.5706ZM7.87891 21.5061C7.88352 22.6231 7.873 23.7752 7.89453 24.8889C8.68545 24.8012 10.7176 24.8694 11.1455 24.4739C11.9674 23.0059 11.7518 21.5175 9.75684 21.5042C9.13618 21.5001 8.50132 21.5023 7.87891 21.5061Z" fill="white"/>
<path d="M37.6131 18.5332C38.0416 18.6088 41.0981 18.5891 41.7908 18.5936C40.3673 20.5106 39.0907 22.4994 37.602 24.4291C39.0286 26.6217 40.9021 28.8087 42.3397 31.056C40.8844 31.0708 39.429 31.0702 37.9736 31.0544C37.3558 30.2538 35.8417 28.3555 35.4318 27.5658C34.6896 28.3707 33.8171 29.5963 33.1206 30.4962C33.0174 30.6178 32.8184 30.9129 32.7162 31.0544L28.4302 31.08C28.9604 30.2095 29.6973 29.2604 30.3126 28.4295L33.1393 24.6259C32.8692 23.9868 31.5551 22.2295 31.0921 21.5956C30.4094 20.6609 29.619 19.4669 28.9135 18.5733C30.3723 18.5518 31.8963 18.5777 33.36 18.583C33.8608 19.3622 34.8242 20.7104 35.4375 21.373C35.9377 20.5674 37.0037 19.3537 37.6131 18.5332Z" fill="white"/>
<path d="M51.9523 18.004C52.7141 18.6475 53.9713 19.5121 54.824 20.1834C53.9769 21.5297 50.3436 26.229 50.1303 27.1897C49.8786 28.3232 50.0571 29.8892 50.0751 31.0665L46.577 31.0684C46.5767 29.8479 46.7188 28.2483 46.451 27.0611C46.3473 26.6012 45.7856 25.8601 45.4957 25.4479C44.3218 23.8581 43.0613 21.8445 41.9111 20.1835C42.8624 19.4749 43.8176 18.7716 44.7768 18.0737C45.8517 19.7759 47.1783 21.472 48.27 23.189C49.3436 21.871 50.9234 19.4713 51.9523 18.004Z" fill="white"/>
</g>
<defs>
<clipPath id="clip0_24280_2882">
<rect width="150" height="64" fill="white"/>
</clipPath>
</defs>
</svg>
