<svg width="150" height="64" viewBox="0 0 150 64" fill="none" xmlns="http://www.w3.org/2000/svg">
<g clip-path="url(#clip0_24280_2793)">
<path d="M149.999 52.4359C149.979 52.415 149.954 52.374 149.939 52.3775C149.107 52.5788 148.606 52.177 148.094 51.546C145.922 48.8666 143.696 46.2291 141.492 43.5794C141.405 43.4731 141.343 43.3327 141.187 43.2778C141.1 43.4286 141.142 43.589 141.142 43.7398C141.142 46.4418 141.134 49.1438 141.142 51.8397C141.142 52.1796 141.055 52.2956 140.708 52.2825C140.013 52.2555 139.318 52.2633 138.623 52.2825C138.335 52.2895 138.215 52.2206 138.216 51.9016C138.224 46.9369 138.224 41.9724 138.216 37.0083C138.216 36.705 138.312 36.6213 138.611 36.6056C139.109 36.5786 139.452 36.7137 139.787 37.1286C142.071 39.9613 144.391 42.7662 146.696 45.5833C146.779 45.6835 146.87 45.7794 146.968 45.8953C147.095 45.7445 147.039 45.5815 147.039 45.4377C147.044 42.7235 147.044 40.009 147.039 37.2942C147.039 36.7442 147.039 36.7425 147.607 36.7442C148.402 36.7442 149.197 36.7529 149.992 36.7573L149.999 52.4359Z" fill="#FEFEFE"/>
<path d="M149.999 26.5577C149.775 26.612 149.545 26.6386 149.315 26.637C148.417 26.6309 147.52 26.637 146.621 26.637C146.031 26.637 146.028 26.6318 146.025 26.0208C146.025 25.7009 146.025 25.3819 146.025 25.062V19.0051C146.025 18.7733 146.025 18.5406 146.016 18.3078C146.002 17.7657 145.911 17.2392 145.371 16.9725C144.813 16.6962 144.242 16.8113 143.773 17.173C143.029 17.7465 142.511 18.4534 142.525 19.4802C142.553 21.6862 142.525 23.894 142.542 26.1044C142.542 26.528 142.408 26.657 141.995 26.6457C141.039 26.6204 140.083 26.63 139.128 26.6457C138.815 26.6457 138.693 26.5437 138.693 26.2186C138.7 22.1825 138.7 18.1463 138.693 14.1101C138.693 13.7859 138.814 13.6743 139.128 13.6804C139.692 13.6952 140.257 13.6961 140.821 13.6804C141.108 13.6726 141.231 13.8016 141.302 14.0639C141.497 14.7778 141.709 15.4864 141.92 16.1959C141.963 16.3441 141.967 16.5123 142.105 16.6317C142.283 16.5681 142.299 16.3903 142.374 16.2595C143.059 15.0776 143.895 14.0509 145.263 13.6447C147.318 13.0346 149.176 14.1441 149.648 16.2465C149.764 16.6966 149.828 17.1587 149.838 17.6236C149.838 17.7718 149.8 17.9548 149.998 18.0341L149.999 26.5577Z" fill="#FEFEFE"/>
<path d="M27.1864 14.8231C27.6973 14.2234 28.2454 13.6769 29.0108 13.3954C30.5815 12.814 32.2251 13.3213 33.272 14.7464C34.1989 16.0085 35.1041 17.2863 36.0181 18.558C43.912 29.5438 51.8062 40.5294 59.7007 51.5146C60.7945 53.0365 60.8388 54.7065 59.8024 56.0697C59.1352 56.9483 58.2334 57.419 57.1301 57.4878C56.9998 57.4965 56.8695 57.4974 56.7392 57.4974C39.1073 57.4974 21.4754 57.4974 3.84342 57.4974C2.33703 57.4974 1.16684 56.9038 0.45534 55.5633C-0.188396 54.3579 -0.135408 53.1297 0.580433 51.9609C0.905341 51.4301 1.28759 50.935 1.65073 50.4277C3.01986 48.5189 4.38899 46.6104 5.75813 44.7021C5.91276 44.4859 6.01354 44.4014 6.3037 44.5452C7.62505 45.2033 8.79697 44.7483 9.89679 43.9699C11.2399 43.0199 11.835 41.7543 11.4675 40.0982C11.4136 39.8542 11.4067 39.6162 11.6742 39.4576C11.7896 39.3726 11.8933 39.2726 11.9826 39.1604C12.0817 39.0584 12.1764 38.952 12.3102 38.8065C12.5325 39.4855 13.0121 39.821 13.6419 39.9579C13.7801 39.9884 13.8157 40.045 13.8496 40.1758C13.9686 40.6988 14.1154 41.2104 14.2379 41.7299C14.3691 42.2877 14.6896 42.6555 15.2448 42.8089C15.3759 42.8447 15.5054 42.8255 15.5054 43.0547C15.561 44.7003 16.1769 46.1115 17.3219 47.2908C17.3513 47.3218 17.3826 47.3509 17.4157 47.378C18.2193 48.0073 18.6815 48.7882 18.8387 49.8403C19.0307 51.1276 20.0193 51.8903 21.0662 52.5179C21.9538 53.064 22.9396 53.43 23.9678 53.5952C24.9017 53.7373 25.5237 53.3337 25.7991 52.4298C26.0345 51.6593 26.3707 50.9176 26.3533 50.0843C26.3575 49.5346 26.2007 48.9957 25.9024 48.5346C25.0285 47.2089 24.2762 45.8143 23.7367 44.3142C23.6307 44.0179 23.6003 43.6928 23.4848 43.4008C23.3206 42.9902 23.4509 42.8063 23.8626 42.7122C24.8756 42.4821 25.8781 42.2319 26.9111 42.6425C27.2634 42.7782 27.5689 43.0138 27.7902 43.3206C28.5191 44.3404 29.1593 45.3959 29.0256 46.7452C28.978 47.2812 28.9934 47.8209 29.0716 48.3533C29.1541 48.9634 29.4069 49.4663 29.9621 49.7557C31.4554 50.5332 33.0027 50.7773 34.5516 49.9728C35.8591 49.2946 36.3569 47.8111 35.8087 46.4445C35.5406 45.7551 35.1326 45.1291 34.6107 44.6062C34.5024 44.5033 34.4158 44.3796 34.3561 44.2424C34.2964 44.1053 34.2648 43.9575 34.2632 43.8078C34.2024 42.7863 34.0842 41.7621 33.7793 40.7833C33.3032 39.2536 32.2069 38.1833 30.9994 37.2219C30.5242 36.8453 30.0437 36.4732 29.4886 36.2143C29.195 36.0766 29.3653 35.9066 29.4348 35.7619C29.7492 35.1021 29.797 34.4379 29.5216 33.752C29.428 33.5233 29.2894 33.3158 29.1142 33.1418C28.3662 32.3713 28.0343 31.4256 27.9257 30.3762C27.904 30.167 27.9492 30.1252 28.1516 30.0825C28.6381 29.9788 29.1316 30.0284 29.6189 29.9718C30.148 29.9108 30.6831 29.8899 31.1983 29.7539C31.5223 29.6667 31.7378 29.7539 32.0088 29.9517C33.2624 30.8791 34.6533 31.0683 36.1067 30.5209C36.8468 30.242 37.3229 29.6493 37.5427 28.8866C37.944 27.4999 37.461 25.9118 36.4133 25.123C35.9607 24.7831 35.4291 24.668 34.8826 24.5817C33.9251 24.4268 32.9457 24.4785 32.0097 24.7334C31.8438 24.7787 31.65 24.8205 31.5319 24.9277C31.1505 25.2851 30.8021 25.218 30.353 25.0201C29.2532 24.5468 28.2107 23.9594 27.1117 23.48C26.9119 23.3928 26.8172 23.2847 26.8946 23.0137C27.2066 21.8875 27.3094 20.7134 27.1977 19.5499C27.1032 18.4269 26.8356 17.3255 26.4046 16.2848C26.329 16.1009 26.4046 15.9911 26.4915 15.849C26.607 15.6581 26.839 15.5256 26.8068 15.2554C26.9267 15.1081 27.1109 15.014 27.1864 14.8231Z" fill="#FEFEFE"/>
<path d="M10.4162 13.832C10.8732 13.1347 11.5716 12.712 12.2475 12.2718C13.9685 11.1518 15.8684 10.5835 17.8995 10.8772C20.9809 11.3235 23.3969 12.8479 24.9076 15.6711C25.7477 17.24 26.2342 18.9065 26.2976 20.6759C26.3249 21.5586 26.1326 22.4342 25.7382 23.2237C25.4061 23.9403 24.9532 24.594 24.3994 25.156C24.1892 25.3635 23.985 25.6075 23.6514 25.6337C23.621 25.5029 23.6853 25.4105 23.8982 25.2545C24.515 24.803 24.9076 24.1833 25.2473 23.5008C25.1813 23.4886 25.1518 23.4738 25.1292 23.4808C25.0319 23.5095 24.9354 23.5409 24.8425 23.5784C22.8648 24.3969 20.7692 24.8922 18.6353 25.0453C17.4825 25.1238 16.2984 25.2197 15.1951 24.8562C12.6706 24.0203 12.1806 21.6086 12.9738 19.2953C13.3291 19.5681 13.5489 19.9438 13.7895 20.3037C13.8807 20.4406 13.9546 20.6524 14.1804 20.5243C14.4063 20.3961 14.2673 20.2052 14.2065 20.0632C14.0397 19.6936 13.7226 19.4391 13.3942 19.243C13.0659 19.0469 13.0467 18.8264 13.1571 18.4978C13.3916 17.8005 13.6279 17.0936 13.6097 16.3431C13.5993 15.9422 13.502 15.5264 13.098 15.3617C12.694 15.1969 12.3344 15.4192 12.0442 15.7025C11.7415 15.9946 11.4846 16.3311 11.2823 16.7005C11.2215 16.812 11.1737 16.9489 11.0321 16.9838C10.6542 17.0761 9.94882 16.4991 9.94621 16.1121C9.93926 15.3137 10.1478 14.5659 10.4162 13.832ZM13.9885 16.8713C14.217 16.7455 14.3867 16.534 14.4602 16.283C14.4984 16.1496 14.3733 16.1165 14.2656 16.1348C13.9502 16.188 13.8425 16.4451 13.7617 16.704C13.7209 16.8321 13.8416 16.8635 13.9885 16.8704V16.8713Z" fill="#FEFEFE"/>
<path d="M64.384 26.854C62.5909 26.8374 60.9143 26.4295 59.4322 25.3661C58.3671 24.6 57.62 23.5898 57.1031 22.3896C56.9615 22.061 56.9858 21.8779 57.3324 21.7062C58.1143 21.3201 58.8649 20.8869 59.632 20.4772C60.3027 20.1199 60.1854 20.1591 60.4243 20.7631C60.9091 21.9921 61.6857 22.9422 62.9636 23.3998C63.7959 23.6953 64.6568 23.799 65.5264 23.5968C66.1163 23.459 66.5585 23.1078 66.6784 22.4854C66.8008 21.8466 66.4777 21.4073 65.9564 21.0743C65.5106 20.8017 65.0274 20.5961 64.5221 20.4642C63.0896 20.058 61.6327 19.7294 60.2801 19.0696C57.6539 17.7892 56.6209 14.6653 58.0214 12.1341C58.8414 10.6524 60.1932 9.89757 61.7995 9.62475C63.9713 9.2578 66.078 9.42341 67.9675 10.7178C69.1328 11.5023 69.9948 12.664 70.4096 14.009C70.5034 14.3036 70.4652 14.4797 70.1637 14.6313C69.3358 15.0479 68.5192 15.4881 67.7113 15.9387C67.3785 16.1253 67.2535 16.0773 67.1622 15.6912C66.7418 13.9079 65.4682 12.8079 63.6638 12.631C63.2011 12.5738 62.7316 12.6478 62.3086 12.8445C61.3382 13.3143 61.1549 14.4875 61.9359 15.2362C62.4215 15.7025 63.0253 15.944 63.663 16.1078C65.0683 16.4549 66.4471 16.9026 67.7886 17.4475C69.6703 18.232 70.6163 19.651 70.6702 21.6583C70.7241 23.7101 69.7485 25.1753 67.9563 26.1079C66.8425 26.698 65.628 26.8636 64.384 26.854Z" fill="#FEFEFE"/>
<path d="M76.475 19.3903C76.6566 19.338 76.7009 19.169 76.7834 19.0417C77.8728 17.397 78.964 15.7531 80.0369 14.0979C80.2315 13.7972 80.4425 13.6621 80.8074 13.6621C82.0089 13.6821 83.2103 13.6682 84.4118 13.6725C84.536 13.6725 84.7063 13.6176 84.7689 13.7553C84.8314 13.8931 84.6707 13.9811 84.589 14.0726C83.3242 15.509 82.0645 16.9489 80.7822 18.3706C80.5216 18.6573 80.4999 18.8682 80.6953 19.2003C82.0714 21.5049 83.4284 23.8199 84.7897 26.134C85.0608 26.5934 85.0425 26.6265 84.5161 26.6282C83.2998 26.6282 82.0836 26.6143 80.8674 26.637C80.486 26.6448 80.3044 26.4958 80.1498 26.1628C79.5147 24.7944 78.8519 23.4381 78.1977 22.0784C77.9692 21.6034 77.9988 21.6426 77.5896 21.9912C76.6479 22.808 76.1849 23.7772 76.3925 25.0419C76.4568 25.4385 76.3925 25.8542 76.402 26.2622C76.4073 26.5237 76.2908 26.6248 76.0354 26.623C74.9779 26.6166 73.9212 26.6166 72.8654 26.623C72.6256 26.623 72.5179 26.5141 72.5266 26.2796C72.5266 26.1776 72.5266 26.0765 72.5266 25.9745V10.3456C72.5266 9.68228 72.5266 9.68141 73.2059 9.68054H75.7253C76.4038 9.68054 76.4047 9.68054 76.4047 10.3456C76.4047 13.1929 76.4047 16.0401 76.4047 18.8874C76.4125 19.0504 76.3604 19.2282 76.475 19.3903Z" fill="#FEFEFE"/>
<path d="M96.1285 47.1278C96.1285 48.0134 96.119 48.8998 96.1346 49.7854C96.1397 49.9066 96.1191 50.0276 96.0742 50.1403C96.0293 50.253 95.961 50.3548 95.874 50.4391C92.915 53.5525 87.7009 53.4897 85.0642 49.238C83.1287 46.1185 83.4553 41.5678 85.8131 38.7542C87.5419 36.6928 90.4999 35.85 92.8838 36.7416C93.0723 36.8122 93.2556 36.9003 93.4371 36.9892C94.2876 37.4023 94.8688 37.948 94.6933 39.0357C94.5978 39.6293 94.6786 40.256 94.6734 40.8661C94.6734 40.976 94.7316 41.1276 94.6151 41.1869C94.4701 41.2627 94.3919 41.0997 94.2946 41.0256C94.0296 40.8252 93.7733 40.6125 93.5075 40.4155C91.4295 38.8466 88.3368 39.4079 87.1848 42.3592C86.4777 44.1722 86.6106 45.9537 87.6739 47.6063C88.6295 49.0933 90.3331 49.7427 91.9803 49.3077C92.1623 49.2617 92.3396 49.1989 92.5102 49.1203C93.0957 48.8466 93.5396 48.4884 93.405 47.7257C93.3555 47.4451 93.3876 47.1452 93.4146 46.8541C93.4441 46.5264 93.3537 46.3704 92.9923 46.4061C92.6918 46.4358 92.3842 46.4061 92.081 46.4148C91.8734 46.4218 91.7518 46.3695 91.7553 46.1289C91.7622 45.4898 91.7622 44.8506 91.7553 44.2114C91.7553 43.9944 91.8621 43.9499 92.0524 43.9499C93.312 43.9499 94.5717 43.9569 95.8305 43.9499C96.0972 43.9499 96.1346 44.0815 96.1328 44.3029C96.1242 45.239 96.1285 46.183 96.1285 47.1278Z" fill="#FEFEFE"/>
<path d="M112.409 44.4763C112.409 42.0523 112.415 39.6275 112.401 37.2027C112.401 36.854 112.481 36.7285 112.854 36.7302C115.735 36.7459 118.615 36.7459 121.496 36.7302C121.818 36.7302 121.96 36.7921 121.945 37.1565C121.914 37.8381 121.919 38.5223 121.945 39.203C121.957 39.5429 121.862 39.651 121.51 39.6484C119.599 39.6319 117.688 39.6484 115.777 39.6319C115.416 39.6319 115.305 39.7251 115.317 40.0903C115.344 40.9027 115.346 41.7168 115.317 42.5308C115.303 42.9091 115.436 42.9858 115.785 42.9815C117.42 42.9649 119.056 42.9867 120.692 42.9658C121.081 42.9606 121.186 43.0791 121.167 43.4574C121.136 44.0945 121.145 44.7352 121.167 45.3749C121.177 45.6695 121.07 45.7401 120.794 45.7384C119.114 45.7271 117.435 45.7384 115.755 45.7244C115.415 45.7244 115.311 45.8116 115.321 46.1603C115.344 47.0737 115.345 47.9906 115.321 48.9032C115.312 49.244 115.429 49.3085 115.741 49.3059C117.637 49.292 119.533 49.3138 121.429 49.2885C121.863 49.2824 121.966 49.4166 121.946 49.8263C121.913 50.5236 121.929 51.2209 121.94 51.9182C121.945 52.1657 121.894 52.2842 121.61 52.2834C118.657 52.2752 115.703 52.2752 112.749 52.2834C112.386 52.2834 112.402 52.0864 112.402 51.8406C112.408 49.3849 112.41 46.9302 112.409 44.4763Z" fill="#FEFEFE"/>
<path d="M125.325 44.5007C125.325 42.0602 125.333 39.6196 125.316 37.1852C125.316 36.8165 125.422 36.7294 125.777 36.7311C128.642 36.7451 131.509 36.7451 134.377 36.7311C134.725 36.7311 134.861 36.813 134.846 37.1861C134.817 37.8668 134.822 38.5502 134.846 39.2318C134.856 39.556 134.759 39.6519 134.429 39.6501C132.518 39.6353 130.607 39.6501 128.696 39.6336C128.309 39.6292 128.199 39.7356 128.213 40.1199C128.242 40.9166 128.239 41.7167 128.213 42.5143C128.201 42.8734 128.307 42.9867 128.671 42.9832C130.322 42.9649 131.973 42.9832 133.623 42.9675C133.988 42.9675 134.099 43.0782 134.085 43.4373C134.059 44.0475 134.052 44.6576 134.085 45.2677C134.107 45.6669 133.96 45.7471 133.59 45.7427C131.955 45.7236 130.319 45.7427 128.685 45.7271C128.337 45.7271 128.201 45.7924 128.214 46.1742C128.241 47.0876 128.234 48.0046 128.214 48.9172C128.208 49.2248 128.307 49.3068 128.607 49.305C130.531 49.2928 132.457 49.305 134.381 49.2911C134.743 49.2911 134.855 49.3887 134.841 49.7522C134.815 50.4765 134.826 51.2034 134.841 51.9312C134.846 52.1927 134.766 52.2851 134.494 52.2842C131.556 52.2761 128.618 52.2761 125.68 52.2842C125.333 52.2842 125.322 52.1273 125.322 51.8632C125.331 49.4076 125.332 46.9534 125.325 44.5007Z" fill="#FEFEFE"/>
<path d="M20.1999 45.5283C20.1912 45.4011 20.2442 45.2242 20.1035 45.1797C19.9627 45.1352 19.901 45.3061 19.8185 45.3967C19.3146 45.945 18.975 46.5987 18.6683 47.3064C17.3739 46.1672 16.6163 44.811 16.4964 43.1227C16.4782 42.8612 16.5243 42.6651 16.7519 42.4829C16.9638 42.3179 17.1362 42.1075 17.2565 41.8669C17.3768 41.6263 17.4418 41.3618 17.4469 41.0927C17.4529 40.9253 17.5077 40.8565 17.684 40.8024C18.4372 40.5706 19.2165 40.4215 19.9427 40.099C20.1026 40.0284 20.312 40.0712 20.4987 40.0659C20.6099 40.0659 20.7168 40.0363 20.7107 39.9082C20.7046 39.78 20.583 39.8254 20.5083 39.821C20.4077 39.8048 20.3049 39.8089 20.206 39.8332C19.3868 40.1365 18.4937 40.0136 17.6719 40.2899C17.4885 40.3518 17.3991 40.3091 17.3617 40.1252C17.208 39.3713 16.8179 38.7306 16.3974 38.1048C16.1151 37.6838 15.8518 37.2497 15.5643 36.8322C15.447 36.6579 15.4774 36.5751 15.6625 36.5237C16.486 36.2962 17.1298 35.8063 17.7118 35.0262C17.8352 35.5841 17.7944 36.0338 17.7657 36.481C17.7275 37.0745 17.6206 37.6777 17.7952 38.2556C18.101 39.2693 18.4737 39.5377 19.4093 39.0243C20.5952 38.3741 21.8244 37.8128 23.045 37.2349C24.3593 36.6075 25.7686 36.2042 27.215 36.0417C27.5972 35.9998 27.9621 35.8996 28.3565 36.0234C28.5102 36.0722 28.5763 36.0652 28.5528 36.2456C28.5042 36.6222 28.7127 36.8636 29.0063 37.0606C29.9185 37.6707 30.8515 38.2565 31.5708 39.1124C31.8966 39.4994 31.9183 39.5186 31.4492 39.7382C30.5501 40.1592 29.7334 40.6926 29.0584 41.4248C28.8048 41.7002 28.6241 42.1979 28.3478 42.2554C28.0715 42.313 27.8439 41.7621 27.4964 41.6174C27.1489 41.4727 27.1055 41.2496 27.1307 40.9009C27.2176 39.706 27.4139 38.5258 27.5607 37.3325C27.2132 37.8145 27.0699 38.3785 26.9318 38.9442C26.7415 39.7155 26.5591 40.4913 26.5565 41.2975C26.5565 41.5276 26.4227 41.5747 26.222 41.5913C25.216 41.6784 24.2169 41.7978 23.2735 42.2938C23.0493 41.3629 22.8782 40.4346 21.9878 39.9073C21.735 39.7574 21.5047 39.5586 21.1312 39.5586C21.4048 39.9439 21.7445 40.1897 22.0521 40.466C22.1466 40.5416 22.2202 40.6403 22.2658 40.7526C22.3115 40.8649 22.3276 40.9871 22.3127 41.1075C22.2319 42.1927 22.5333 43.2186 22.8834 44.2253C23.1614 45.0228 23.3534 45.8604 23.8764 46.5542C23.8973 46.5804 23.8842 46.6362 23.8764 46.6771C23.6861 48.1972 21.4066 49.224 20.1182 48.3698C20.3398 47.9671 20.338 47.5026 20.4805 47.079C20.6343 46.6187 20.6968 46.1071 21.1685 45.8212C20.8653 45.66 20.53 45.6033 20.1999 45.5283Z" fill="#FEFEFE"/>
<path d="M10.4162 13.832C10.1477 14.5668 9.93925 15.3138 9.94447 16.1069C9.94447 16.4983 10.6525 17.0753 11.0304 16.9829C11.172 16.9481 11.2198 16.8086 11.2806 16.6996C11.4829 16.3303 11.7397 15.9938 12.0425 15.7016C12.3326 15.4184 12.6932 15.1961 13.0963 15.3608C13.4993 15.5256 13.5975 15.9413 13.6079 16.3423C13.6262 17.0927 13.3899 17.7988 13.1553 18.4969C13.045 18.8255 13.0528 19.0399 13.3925 19.2422C13.7322 19.4444 14.038 19.6928 14.2048 20.0623C14.2682 20.2044 14.3941 20.3997 14.1787 20.5234C13.9633 20.6472 13.879 20.4363 13.7878 20.3029C13.5471 19.9429 13.3273 19.5673 12.972 19.2944C12.1789 21.6077 12.6688 24.0195 15.1934 24.8554C16.2967 25.2206 17.4808 25.1229 18.6336 25.0445C20.7675 24.8913 22.8631 24.3961 24.8407 23.5776C24.9337 23.5401 25.0301 23.5087 25.1274 23.4799C25.15 23.473 25.1796 23.4878 25.2456 23.5C24.9059 24.1825 24.5132 24.8022 23.8964 25.2537C23.6836 25.4097 23.6193 25.5021 23.6497 25.6328C22.9758 26.1163 22.2541 26.529 21.4961 26.8644C20.3155 27.3944 19.0871 27.8372 17.7996 28.0533C17.0655 28.1771 16.3349 28.3967 15.5765 28.239C15.6035 28.2047 15.6168 28.1615 15.6135 28.1179C15.6103 28.0743 15.5909 28.0335 15.5591 28.0036C15.1752 27.655 14.7859 27.3168 14.2187 27.3246C13.6835 27.3325 13.5879 27.4319 13.6062 28.0019C12.4768 27.7674 11.6012 27.078 10.7567 26.3458C10.0261 25.7095 9.51183 24.9416 9.33548 23.9733C9.2069 23.269 9.28944 22.5587 9.299 21.8509C9.299 21.6129 9.49184 21.5894 9.67428 21.5894C9.9776 21.5972 10.2809 21.5738 10.5795 21.5197C10.7168 21.4892 10.8314 21.4264 10.8488 21.2774C10.8645 21.1423 10.755 21.0699 10.6516 21.0159C10.1799 20.7762 9.67515 20.7544 9.17475 20.859C8.88373 20.9191 8.78643 21.1981 8.74908 21.4613C8.67002 22.0191 8.61442 22.5796 8.54753 23.1618C8.31383 23.0354 8.33642 22.6458 8.00195 22.6659C7.76566 20.9096 7.95157 19.1794 8.37117 17.4736C8.60312 16.5288 9.07834 15.6799 9.44842 14.7891L9.53529 14.6958L9.53007 14.7028L9.60912 14.5372C9.77679 14.1894 10.0843 13.9959 10.4162 13.832ZM12.8339 26.0094C12.8165 25.8534 12.7105 25.7897 12.6297 25.7113C12.039 25.136 11.5004 24.5137 10.96 23.8914C10.8558 23.7711 10.768 23.5479 10.5552 23.7292C10.3814 23.8792 10.4779 24.0474 10.5839 24.1903C10.9174 24.6445 11.287 25.0709 11.6889 25.4655C11.9035 25.679 12.13 25.8801 12.3674 26.0678C12.5281 26.1915 12.7079 26.1924 12.8339 26.0094Z" fill="#FEFEFE"/>
<path d="M102.759 18.1439C102.759 20.7849 102.75 23.4259 102.767 26.0669C102.767 26.4949 102.658 26.6587 102.208 26.6439C101.268 26.6125 100.327 26.6221 99.3874 26.6439C99.026 26.6509 98.9165 26.5201 98.9165 26.1645C98.9252 20.825 98.9252 15.4855 98.9165 10.146C98.9165 9.77117 99.0607 9.67442 99.403 9.67965C100.359 9.69447 101.314 9.69796 102.27 9.67965C102.647 9.67181 102.772 9.80168 102.769 10.1826C102.749 12.8332 102.758 15.4881 102.759 18.1439Z" fill="#FEFEFE"/>
<path d="M96.3988 18.1797C96.3988 20.8068 96.3988 23.4341 96.3988 26.0617C96.3988 26.6318 96.3988 26.6335 95.8141 26.6344C94.8881 26.6344 93.9611 26.6239 93.0342 26.6396C92.6815 26.6457 92.5494 26.5246 92.5503 26.1628C92.5572 20.8355 92.5572 15.5082 92.5503 10.1809C92.5503 9.7965 92.6919 9.67099 93.0594 9.67709C93.9999 9.6922 94.9408 9.6922 95.8819 9.67709C96.2711 9.67099 96.4075 9.8087 96.4031 10.2105C96.3918 12.8672 96.3988 15.523 96.3988 18.1797Z" fill="#FEFEFE"/>
<path d="M132.366 20.2428C132.366 18.2102 132.379 16.1785 132.357 14.1467C132.352 13.6961 132.498 13.5715 132.928 13.5845C133.824 13.6115 134.722 13.6028 135.621 13.5845C135.958 13.5793 136.113 13.6665 136.112 14.0456C136.102 18.1678 136.102 22.2899 136.112 26.4121C136.112 26.7791 135.98 26.8897 135.631 26.8836C134.691 26.868 133.75 26.868 132.809 26.8836C132.468 26.8889 132.361 26.7599 132.363 26.4226C132.372 24.3647 132.366 22.3033 132.366 20.2428Z" fill="#FEFEFE"/>
<path d="M86.1554 20.1407C86.1554 18.1665 86.1649 16.1914 86.1476 14.2138C86.1432 13.7997 86.2631 13.6524 86.6862 13.6646C87.6262 13.6908 88.5679 13.6821 89.5079 13.6646C89.8493 13.6594 90.003 13.757 90.0022 14.1309C89.9923 18.1404 89.9923 22.1475 90.0022 26.1523C90.0022 26.5096 89.8788 26.6386 89.5218 26.6325C88.5523 26.616 87.5827 26.6142 86.6132 26.6325C86.2414 26.6404 86.1476 26.4905 86.1502 26.1436C86.1641 24.1484 86.1554 22.1446 86.1554 20.1407Z" fill="#FEFEFE"/>
<path d="M26.9882 31.023C27.1037 31.7202 27.327 32.3182 27.8256 32.7888C28.0385 32.9893 28.1097 33.1785 27.6901 33.2125C26.2829 33.3331 24.9042 33.6804 23.607 34.241C22.502 34.7064 21.4699 35.3174 20.3997 35.8508C19.7446 36.1768 19.0583 36.4392 18.4337 36.8793C18.3251 36.5473 18.4693 36.2771 18.5067 36.0025C18.7369 34.2933 18.1592 32.8751 16.9899 31.6618C16.7709 31.4344 16.3817 31.1798 16.4738 30.9192C16.5607 30.6743 17.0176 30.8251 17.3061 30.8408C19.0166 30.934 20.5812 30.4337 22.0902 29.6911C22.7505 29.3669 23.4324 29.0731 23.9146 28.4848C24.0623 28.3053 24.1665 28.3776 24.3081 28.4848C25.0587 29.081 25.5035 29.8907 25.8536 30.751C26.1029 31.3611 26.0213 31.4893 26.7936 31.0936C26.8457 31.0752 26.9004 31.0578 26.9882 31.023ZM19.7047 32.9658C19.5049 33.0172 19.4058 33.1401 19.4614 33.3476C19.5544 33.6962 19.6308 34.0448 19.802 34.3691C19.9627 34.6707 20.1998 34.852 20.5691 34.838C20.5691 34.6637 20.4935 34.4894 20.6142 34.336C20.7141 34.3299 20.8288 34.3534 20.9131 34.3133C22.1389 33.7345 23.4003 33.2421 24.6487 32.7165C24.865 32.6293 24.9458 32.455 24.8928 32.2223C24.8511 32.0401 24.8128 31.8562 24.7546 31.6793C24.4871 30.8756 24.2855 30.7815 23.5228 31.1275C22.3969 31.6372 21.2748 32.1558 20.1564 32.6834C20 32.7575 19.7733 32.7461 19.7047 32.9658Z" fill="#FEFEFE"/>
<path d="M10.7803 40.4607C10.8445 42.19 9.52841 43.4042 8.12887 43.7772C7.29488 43.9995 6.49215 43.6029 6.00826 42.794C5.41665 41.8091 5.4601 40.751 5.67381 39.6841C5.79905 39.0144 6.06564 38.3793 6.45567 37.8215C6.6914 37.4922 7.03084 37.2522 7.41922 37.1402C7.8076 37.0282 8.22224 37.0508 8.59624 37.2044C10.0447 37.793 10.7727 38.8785 10.7803 40.4607Z" fill="#FEFEFE"/>
<path d="M32.1695 26.8871C31.8924 27.3657 31.7985 27.8459 32.1304 28.3297C32.1743 28.3857 32.2064 28.4502 32.2245 28.5192C32.2427 28.5882 32.2466 28.6601 32.236 28.7307C32.2255 28.8012 32.2006 28.8688 32.163 28.9294C32.1254 28.9899 32.0759 29.0421 32.0175 29.0827C31.7968 29.2571 31.4302 29.0278 31.2799 28.6966C30.9107 27.886 30.8169 27.0667 31.1739 26.2247C31.3294 25.8578 31.5674 25.5945 31.9792 25.5196C33.0747 25.3191 34.1598 25.4324 35.2439 25.6207C36.2786 25.8037 36.5992 26.4505 36.5618 27.3857C36.5271 28.2451 36.2786 29.0209 35.535 29.5804C34.5081 30.3536 33.2815 29.8803 32.5648 29.3791C32.3641 29.2379 32.4588 29.0662 32.5274 28.9154C32.5974 28.7726 32.6291 28.6141 32.6195 28.4553C32.6099 28.2965 32.5593 28.143 32.4727 28.0098C32.2763 27.669 32.1434 27.3003 32.1695 26.8871Z" fill="#FEFEFE"/>
<path d="M88.0979 12.3616C87.9398 12.3468 87.7365 12.3415 87.5376 12.3084C86.2405 12.0905 85.5977 11.2912 85.6524 9.9716C85.7089 8.60317 86.4125 7.86752 87.7773 7.75421C87.9207 7.74201 88.0666 7.73939 88.2117 7.74027C90.1351 7.76118 91.1142 9.13485 90.513 10.9818C90.215 11.8979 89.4914 12.2239 88.62 12.3319C88.4619 12.3502 88.3012 12.3502 88.0979 12.3616Z" fill="#FEFEFE"/>
<path d="M134.503 11.3043C133.721 11.3043 132.939 11.3043 132.157 11.3043C131.835 11.3043 131.549 11.2485 131.392 10.9243C131.236 10.6 131.387 10.3682 131.566 10.125C132.336 9.05553 133.1 7.98083 133.874 6.91397C134.279 6.35352 134.708 6.3605 135.12 6.92966C135.892 7.99739 136.658 9.07035 137.428 10.1398C137.601 10.3856 137.738 10.6349 137.578 10.9417C137.418 11.2485 137.15 11.3043 136.845 11.3043C136.064 11.3043 135.283 11.3043 134.503 11.3043Z" fill="#FEFEFE"/>
<path d="M12.1963 37.8974C12.014 37.1235 11.6002 36.424 11.0105 35.8927C10.418 35.3531 9.75428 35.0376 8.86035 35.2023C9.46326 34.3516 10.0132 33.5811 10.5579 32.8063C10.7473 32.5361 10.9314 32.2606 11.1061 31.98C11.2007 31.8283 11.3006 31.7525 11.4935 31.8004C13.0703 32.1935 14.4637 33.9542 14.5089 35.6146C14.5089 35.734 14.5315 35.8561 14.422 35.9336C13.6619 36.4897 13.032 37.187 12.3449 37.8268C12.2984 37.8564 12.2485 37.8801 12.1963 37.8974Z" fill="#FEFEFE"/>
<path d="M31.4163 48.5328C32.2077 49.1116 33.0452 48.9329 33.894 48.6976C34.1928 48.6148 34.4569 48.4091 34.8166 48.4187C34.7583 48.6028 34.6304 48.7567 34.4604 48.8475C33.576 49.4175 32.636 49.7548 31.5744 49.4175C31.3685 49.3522 31.1627 49.2868 30.955 49.2266C29.9577 48.9416 29.9551 48.9425 29.8674 47.9305C29.8274 47.4695 29.8248 47.0031 29.7623 46.5447C29.7258 46.2762 29.8248 46.2117 30.055 46.1333C30.803 45.8718 31.538 45.5789 32.279 45.3009C32.5348 45.2013 32.7782 45.0723 33.0044 44.9165C33.5326 44.5618 33.5335 44.5618 33.9904 45.015C34.2829 45.2959 34.5161 45.6329 34.6761 46.0061C34.8361 46.3792 34.9196 46.7808 34.9217 47.1871C34.9269 47.486 34.8287 47.6856 34.5516 47.8033C34.0095 48.0357 33.4698 48.2708 32.9323 48.5084C32.4345 48.7307 31.9463 48.6043 31.4554 48.4875C31.4111 48.4309 31.3633 48.4003 31.2982 48.4587L31.4163 48.5328Z" fill="#FEFEFE"/>
<path d="M19.7152 49.0349C21.8288 49.8002 23.5984 48.7621 24.2587 47.1644C24.5514 47.6316 24.7226 48.1232 24.9207 48.6087C25.0796 48.9948 25.1769 49.4088 25.4419 49.7418C25.6052 49.9458 25.4549 50.1628 25.4289 50.3519C25.3128 51.1068 25.1412 51.8521 24.9155 52.5815C24.8364 52.857 24.6461 52.843 24.4385 52.823C23.2101 52.7262 22.1746 52.1849 21.2589 51.397C20.6656 50.8862 20.1296 50.3171 19.8325 49.5666C19.7725 49.4141 19.6969 49.2589 19.7152 49.0349Z" fill="#FEFEFE"/>
<path d="M12.6794 28.4595C14.1293 28.7393 15.5801 29.1097 17.0674 28.9677C19.5676 28.7289 21.928 28.0673 23.8974 26.3851C24.2006 26.1236 24.5298 25.8961 24.853 25.6625C24.9303 25.6067 24.9929 25.4455 25.1345 25.5753C25.257 25.6843 25.1597 25.7924 25.1188 25.8883C24.6636 26.9542 23.9721 27.8546 23.0165 28.4874C21.4814 29.5046 19.7744 30.0772 17.9431 30.3344C17.169 30.4424 16.3793 30.2664 15.6235 30.5383C15.5906 30.5478 15.5557 30.5473 15.5231 30.5369C15.4905 30.5265 15.4616 30.5067 15.4402 30.4799C14.5889 29.7391 13.5142 29.4645 12.4952 29.074C12.4756 28.9643 12.4821 28.8514 12.5141 28.7447C12.5461 28.6379 12.6027 28.5402 12.6794 28.4595Z" fill="#FEFEFE"/>
<path d="M20.6387 36.2813C21.7898 35.3731 23.1433 34.8597 24.4838 34.3272C25.4505 33.9437 26.4678 33.7035 27.5035 33.6142C28.533 33.527 28.9656 33.9855 28.8779 35.0375C28.8675 35.1677 28.8466 35.2969 28.8153 35.4237C28.7832 35.55 28.7588 35.6538 28.5547 35.598C27.6712 35.3522 26.8085 35.5788 25.9485 35.7723C23.7905 36.2508 21.8072 37.1782 19.8517 38.1771C19.7648 38.2224 19.6684 38.259 19.5771 38.3C19.6345 38.1379 19.6883 37.9749 19.7509 37.8145C19.9438 37.302 20.3121 36.8888 20.5458 36.399L20.6248 36.3005H20.6422L20.6387 36.2813Z" fill="#FEFEFE"/>
<path d="M13.1944 29.9866C15.7606 30.262 16.976 32.1552 17.5693 34.1276C17.5878 34.1816 17.5899 34.2398 17.5755 34.295C17.5612 34.3502 17.5309 34.3999 17.4886 34.4379C17.2688 34.6828 17.0672 34.9487 16.7779 35.1213C16.4895 35.0446 16.1959 35.4333 15.983 35.2276C15.7867 35.0376 15.7598 34.6767 15.6355 34.4004C15.0457 33.0642 14.1343 31.9895 12.9598 31.1362C12.5419 30.8338 12.535 30.8486 12.8894 30.4485C13.0137 30.3108 13.1631 30.187 13.1944 29.9866Z" fill="#FEFEFE"/>
<path d="M29.1548 29.2195C28.8942 29.1672 28.5901 29.2195 28.2939 29.1132C27.8195 28.9389 27.5989 28.5763 27.7726 28.11C27.9846 27.5373 28.0819 26.9411 28.1992 26.3484C28.2431 26.1364 28.3065 25.929 28.3886 25.7287C28.6023 25.2057 28.611 25.2293 29.1105 25.4411C29.5718 25.6372 30.0661 25.7644 30.5439 25.9091C30.6725 25.9484 30.8167 25.9266 30.7177 26.1366C30.3024 27.017 30.5039 27.8938 30.7715 28.7576C30.8584 29.0443 30.8037 29.0888 30.5248 29.1141C30.0783 29.1542 29.643 29.2771 29.1548 29.2195Z" fill="#FEFEFE"/>
<path d="M4.25427 23.0119C4.16218 25.4071 4.77551 27.6594 5.61558 29.868C6.11684 31.1798 6.58596 32.5029 7.06985 33.8217C7.09327 33.8744 7.10907 33.9301 7.11676 33.9873C7.12371 34.1268 7.17672 34.2967 7.0021 34.3682C6.82749 34.4397 6.73453 34.3142 6.65461 34.186C6.59862 34.1015 6.54951 34.0126 6.50777 33.9202C5.44183 31.2931 4.30813 28.6844 3.77994 25.8795C3.50889 24.4414 3.41593 22.9753 3.70522 21.5162C3.74431 21.3175 3.80252 21.1231 3.85725 20.9288C3.892 20.8024 3.9337 20.6516 4.09789 20.6673C4.26208 20.683 4.27946 20.8416 4.29945 20.968C4.38632 21.5188 4.28294 22.068 4.28034 22.6179C4.2812 22.7513 4.26383 22.882 4.25427 23.0119Z" fill="#FEFEFE"/>
<path d="M33.3361 43.1078C33.4299 43.8226 33.0876 44.2898 32.4543 44.6523C31.7897 45.0324 31.1277 45.3287 30.3415 45.2895C30.1382 45.279 30.0123 45.2511 29.9654 45.0411C29.943 44.9575 29.9139 44.8759 29.8785 44.797C29.7716 44.5355 29.511 44.2069 29.5883 44.0178C29.7519 43.6623 30.009 43.3582 30.332 43.1383C31.0501 42.6438 31.8627 42.3043 32.7184 42.1412C33.2744 42.0288 33.3326 42.1238 33.3378 42.6895C33.3361 42.8202 33.3361 42.9501 33.3361 43.1078Z" fill="#FEFEFE"/>
<path d="M8.41546 27.3229C8.42589 27.3325 8.44153 27.3412 8.44588 27.3534C8.54057 27.5974 8.95062 27.7282 8.81683 28.0184C8.64308 28.3906 8.3981 28.7523 7.97242 28.9066C7.80996 28.9659 7.64056 29.006 7.47463 29.0548C7.3087 29.1036 7.181 29.0757 7.08283 28.897C6.24971 27.3821 5.6494 25.8037 5.73107 24.0351C5.74149 23.819 5.78059 23.6046 5.80318 23.3893C5.83358 23.1034 5.99864 22.9718 6.27403 22.9186C6.54942 22.8654 6.68407 22.9343 6.68494 23.235C6.68494 23.4503 6.72403 23.6656 6.74575 23.8817C6.52769 24.3637 6.73619 24.8144 6.8526 25.2693C6.92905 25.5631 7.07327 25.8655 6.94991 26.1575C6.75966 26.6108 6.94991 26.9646 7.14972 27.3377C7.28264 27.5896 7.45639 27.6602 7.71788 27.5399C7.94028 27.4371 8.16266 27.3281 8.41546 27.3229Z" fill="#FEFEFE"/>
<path d="M16.758 40.7711C16.7223 41.0866 16.6772 41.3812 16.4895 41.6427C16.0343 42.2633 15.3454 42.2232 15.0187 41.5311C14.7058 40.8799 14.5005 40.1819 14.4106 39.4645C14.3576 39.0061 14.6912 38.735 14.9892 38.457C15.4488 38.0307 15.4462 38.0281 15.7919 38.5363C16.2593 39.2205 16.6398 39.9439 16.758 40.7711Z" fill="#FEFEFE"/>
<path d="M29.4268 41.6296C29.9098 40.9245 30.6143 40.4965 31.358 40.1418C32.5594 39.563 32.6376 39.6075 32.9938 40.8887C33.0581 41.1215 33.1172 41.3551 33.1797 41.5913C31.9895 41.6854 31.0165 42.2807 30.0305 42.842C29.9566 42.3858 29.746 41.9629 29.4268 41.6296Z" fill="#FEFEFE"/>
<path d="M27.1724 29.9657C27.1446 30.0973 27.2975 30.2646 27.1281 30.364C26.9444 30.4771 26.7474 30.5669 26.5417 30.6316C26.4296 30.6639 26.4001 30.5113 26.368 30.4207C26.0468 29.4726 25.4569 28.6393 24.6704 28.0229C24.5132 27.8991 24.4307 27.7683 24.634 27.5722C24.9815 27.2401 25.2143 26.8165 25.454 26.4069C25.5974 26.1628 25.6747 26.2265 25.8215 26.3755C26.5904 27.16 26.9743 28.1187 27.0881 29.1969C27.1159 29.4532 27.2185 29.7007 27.1724 29.9657Z" fill="#FEFEFE"/>
<path d="M11.3118 39.2144C10.9904 38.7943 10.7836 38.3428 10.47 37.9741C9.83322 37.2184 9.09739 36.6466 8.0688 36.5795C7.78038 36.5612 7.763 36.4435 7.89505 36.223C8.06185 35.9528 8.14785 35.5824 8.61089 35.782C8.77769 35.8543 8.90193 35.6896 9.03746 35.6164C9.54828 35.3366 9.81324 35.3549 10.2537 35.7201C10.9131 36.2657 11.4352 36.8977 11.5881 37.7823C11.6819 38.2844 11.5507 38.7219 11.3118 39.2144Z" fill="#FEFEFE"/>
<path d="M13.1944 29.9866C13.1631 30.187 13.0137 30.3108 12.8912 30.4485C12.5367 30.8486 12.5437 30.8338 12.9616 31.1362C14.1361 31.9895 15.0465 33.0642 15.6373 34.4004C15.7598 34.6767 15.7867 35.0376 15.9848 35.2276C16.1976 35.4333 16.4912 35.0446 16.7797 35.1213C16.6928 35.7663 15.7858 36.2474 15.229 35.9449C15.0665 35.8578 15.116 35.6965 15.0926 35.5606C14.8163 33.9298 14.1778 32.5143 12.7426 31.5694C12.5266 31.4234 12.2884 31.3136 12.0372 31.2443C11.6897 31.1571 11.6367 30.9593 11.7974 30.6647C11.8461 30.5775 11.8843 30.4816 11.9295 30.391C12.3057 29.6153 12.383 29.59 13.1944 29.9866Z" fill="#FEFEFE"/>
<path d="M26.6052 23.9846C27.1386 24.3028 27.6702 24.6183 28.2002 24.9382C28.287 24.9905 28.453 25.0157 28.3435 25.1805C27.8718 25.8865 27.7354 26.7232 27.4444 27.6053C27.1455 27.1015 26.9431 26.6064 26.5478 26.3205C25.9093 25.8577 25.9328 25.3321 26.2186 24.7159C26.3333 24.4658 26.4175 24.2043 26.6052 23.9846Z" fill="#FEFEFE"/>
<path d="M9.4457 14.7908C9.07562 15.6816 8.60043 16.534 8.36847 17.4753C7.94887 19.1846 7.76035 20.9113 7.99926 22.6676C8.04162 23.2749 8.15833 23.8748 8.34675 24.4535L7.80638 24.2661L7.80031 24.2286C7.85852 24.1214 7.80464 24.0543 7.72124 23.9916C6.91592 20.838 7.5475 17.9181 9.15466 15.1577C9.23198 15.0217 9.29975 14.8718 9.4457 14.7908Z" fill="#FEFEFE"/>
<path d="M7.80469 24.2644L8.34504 24.4518L8.33548 24.464L8.41367 24.5913C8.66561 24.9878 8.90625 25.3905 9.17034 25.7784C9.9722 26.9733 11.1342 27.8792 12.4863 28.3636C12.5515 28.3919 12.615 28.4239 12.6766 28.4595C12.6002 28.5396 12.5436 28.6364 12.5111 28.7424C12.4787 28.8483 12.4714 28.9604 12.4898 29.0696C10.1894 28.1945 8.4823 26.7319 7.80469 24.2644Z" fill="#FEFEFE"/>
<path d="M10.4979 31.3577C10.2721 31.7994 9.98746 32.2081 9.6517 32.5727C9.1461 31.4396 8.71954 30.2725 8.12793 29.1786L8.68478 28.7236C9.0123 28.9319 9.05921 29.3207 9.25207 29.6153C9.64301 30.2185 9.90103 30.907 10.4979 31.3577Z" fill="#FEFEFE"/>
<path d="M21.1739 45.8107C20.7022 46.0966 20.6396 46.6083 20.4859 47.0685C20.3434 47.4921 20.3451 47.9566 20.1236 48.3593C19.0455 48.0316 18.9204 47.805 19.3417 46.7974C19.5407 46.325 19.7587 45.8482 20.194 45.5283C20.5249 45.6033 20.8603 45.6599 21.1696 45.8099L21.1739 45.8107Z" fill="#FEFEFE"/>
<path d="M8.12795 29.1786C8.71957 30.2725 9.14612 31.4448 9.65173 32.5727C9.55616 32.8237 9.36068 32.9954 9.17999 33.1828C9.0184 33.1357 9.01493 32.9876 8.97237 32.876C8.59409 31.8757 8.15245 30.9007 7.65015 29.9569C7.30352 29.3058 7.34001 29.2535 8.12795 29.1786Z" fill="#FEFEFE"/>
<path d="M20.5456 36.3955C20.3119 36.8854 19.9436 37.2985 19.7507 37.811C19.6899 37.9714 19.6361 38.1344 19.577 38.2965C19.5197 38.3386 19.4596 38.3768 19.3972 38.4107C18.5979 38.7811 18.3677 38.6399 18.3078 37.75C18.2973 37.5966 18.3217 37.4633 18.4737 37.3848C19.1235 37.0466 19.7725 36.7067 20.4232 36.372C20.4536 36.3572 20.5048 36.3868 20.5456 36.3955Z" fill="#FEFEFE"/>
<path d="M14.5645 37.0074C14.8747 36.9717 15.0728 37.1582 15.2239 37.4328C15.3855 37.7248 15.1301 37.8546 14.998 38.0211C14.8306 38.2405 14.6245 38.4272 14.3899 38.572C14.1832 38.694 13.9799 38.8779 13.7262 38.6591C13.4725 38.4404 13.3118 38.1745 13.39 37.8215C13.496 37.3456 13.9825 37.0039 14.5645 37.0074Z" fill="#FEFEFE"/>
<path d="M8.41548 27.3229C8.16268 27.3281 7.94028 27.437 7.72049 27.5399C7.45987 27.6602 7.28614 27.5896 7.15235 27.3377C6.95602 26.9646 6.76228 26.6107 6.95254 26.1575C7.0759 25.8655 6.93168 25.5631 6.85523 25.2693C6.73882 24.8143 6.53032 24.3637 6.74838 23.8817C7.09825 25.1181 7.66258 26.283 8.41548 27.3229Z" fill="#FEFEFE"/>
<path d="M29.4269 41.6296C29.7478 41.9623 29.9599 42.3853 30.035 42.8421L29.3826 43.3973C29.3296 43.4426 29.2827 43.501 29.1984 43.4775C28.9031 43.3981 28.5964 42.5448 28.8005 42.3208C29.0047 42.0968 29.1237 41.7778 29.4269 41.6296Z" fill="#FEFEFE"/>
<path d="M13.6063 28.001C13.5881 27.431 13.6836 27.3316 14.2188 27.3237C14.786 27.3159 15.1744 27.6541 15.5592 28.0027C15.591 28.0326 15.6104 28.0734 15.6136 28.117C15.6169 28.1606 15.6036 28.2038 15.5766 28.2381C15.5116 28.3154 15.4246 28.3709 15.3272 28.397C15.2298 28.4232 15.1267 28.4188 15.0319 28.3845C14.5584 28.2468 14.0633 28.1945 13.6063 28.001Z" fill="#FEFEFE"/>
<path d="M10.4979 31.3576C9.90106 30.907 9.64304 30.2141 9.2521 29.6144C9.05924 29.3198 9.01233 28.931 8.68481 28.7227C8.75866 28.6556 8.83337 28.5894 8.90722 28.5214C9.15307 28.2921 9.26862 28.3662 9.3885 28.6687C9.7221 29.515 10.0392 30.3727 10.5613 31.1284C10.636 31.2373 10.6351 31.314 10.4979 31.3576Z" fill="#FEFEFE"/>
<path d="M10.3042 28.7576C10.3547 28.7628 10.4047 28.7721 10.4536 28.7855C11.6151 29.2805 11.6299 29.3171 11.1391 30.5418C10.7612 29.9839 10.4093 29.461 10.3042 28.7576Z" fill="#FEFEFE"/>
<path d="M21.749 9.92628C21.6378 10.1451 21.3563 9.94284 21.173 9.85742C19.5042 9.06991 17.6604 8.72996 15.8216 8.87075C13.886 9.01196 12.1946 9.76067 10.6639 10.9208C9.38784 11.8817 8.34532 13.1202 7.61459 14.5432C7.54263 14.6507 7.45838 14.7492 7.36354 14.837C7.40524 15.0113 7.29925 15.1438 7.23236 15.2824C6.87453 16.0554 6.60495 16.8665 6.42877 17.7002C6.39909 17.7953 6.3622 17.888 6.31844 17.9774C6.30801 18.0323 6.29845 18.0864 6.28803 18.1413C6.31119 18.2439 6.31296 18.3502 6.29322 18.4536C6.27349 18.5569 6.23269 18.655 6.17337 18.7418C6.16294 18.863 6.15164 18.9832 6.14121 19.1044C6.16206 19.2491 6.18901 19.3946 6.08823 19.5236C6.07868 19.6178 6.06998 19.711 6.06043 19.8052C6.08388 20.0091 6.10473 20.214 5.99266 20.4031C5.99266 20.6408 5.99005 20.8796 5.98484 21.1196C6.14208 21.5371 6.06563 21.9738 6.07171 22.4026C6.07171 22.5717 5.48271 22.8768 5.3385 22.7931C5.25163 22.7434 5.2577 22.6501 5.355 22.5891C5.26291 22.4915 5.31157 22.3686 5.29593 22.2579C5.26205 22.0156 5.25772 21.7768 5.37065 21.5502C5.37065 21.259 5.37065 20.9679 5.37065 20.6785C5.34198 20.4406 5.30202 20.2009 5.45753 19.9812C5.49401 19.5454 5.50704 19.0983 5.63127 18.6738C5.60521 18.5213 5.60346 18.3731 5.70771 18.2441C5.78764 17.6157 6.00482 17.0239 6.15684 16.4137C6.1674 16.175 6.25148 15.9454 6.39749 15.7565V15.7495C6.50695 15.1394 6.81188 14.6103 7.10117 14.0813C8.57108 11.3976 10.7638 9.55672 13.6454 8.5683C15.0065 8.10916 16.4586 7.9895 17.8762 8.21966C19.1059 8.39966 20.2874 8.82463 21.3511 9.46955C21.5309 9.56892 21.8828 9.66305 21.749 9.92628Z" fill="#FEFEFE"/>
<path d="M7.71952 23.9899C7.80639 24.05 7.85679 24.1197 7.79859 24.2269C7.76884 24.1957 7.74633 24.1582 7.73267 24.1173C7.719 24.0763 7.7145 24.0328 7.71952 23.9899Z" fill="#FEFEFE"/>
<path d="M9.60652 14.5398L9.52745 14.7054C9.48228 14.6165 9.55005 14.5808 9.60652 14.5398Z" fill="#FEFEFE"/>
<path d="M9.53267 14.6985L9.4458 14.7909C9.4458 14.736 9.45623 14.6845 9.53267 14.6985Z" fill="#FEFEFE"/>
<path d="M8.41365 24.5912L8.33545 24.464C8.40321 24.4788 8.41365 24.5328 8.41365 24.5912Z" fill="#FEFEFE"/>
<path d="M20.6387 36.2814L20.6421 36.2997L20.6248 36.2971L20.6387 36.2814Z" fill="#FEFEFE"/>
<path d="M13.9884 16.8704C13.8416 16.8635 13.7209 16.8321 13.7617 16.7031C13.8425 16.4416 13.9502 16.1871 14.2656 16.1339C14.3716 16.1156 14.4984 16.1487 14.4602 16.2821C14.3866 16.5331 14.217 16.7446 13.9884 16.8704Z" fill="#FEFEFE"/>
<path d="M125.944 20.1948C125.944 20.0431 125.938 19.8897 125.934 19.7372C125.934 19.8897 125.944 20.0431 125.944 20.1948Z" fill="#FEFEFE"/>
<path d="M129.779 10.1399C129.779 9.76249 129.624 9.67185 129.286 9.67708C128.345 9.69015 127.403 9.69451 126.463 9.67708C126.069 9.66923 125.935 9.8052 125.942 10.2061C125.96 11.8622 125.951 13.5183 125.947 15.1744C125.947 15.3269 125.991 15.4899 125.868 15.679C125.655 15.4071 125.481 15.1561 125.28 14.9329C123.57 13.0101 120.16 12.6223 118.66 15.8324C118.173 16.8784 117.965 17.9827 117.902 19.1219C117.799 20.9523 117.859 22.76 118.653 24.4553C119.243 25.7148 120.13 26.6614 121.595 26.8191C123.458 27.0205 125.166 26.0434 126.011 24.3577C126.08 24.2191 126.105 24.0509 126.271 23.9498C126.389 24.05 126.41 24.1991 126.458 24.3307C126.693 24.9713 126.934 25.6093 127.153 26.2561C127.246 26.535 127.396 26.6501 127.69 26.6422C128.24 26.6257 128.791 26.623 129.34 26.6422C129.688 26.6553 129.784 26.5028 129.784 26.1759C129.772 20.83 129.77 15.4847 129.779 10.1399ZM125.957 18.9816C125.931 19.2335 125.924 19.487 125.938 19.7399C125.938 19.8924 125.947 20.0458 125.947 20.1975C125.947 20.6333 125.947 21.0691 125.947 21.5049C125.947 22.7844 124.359 23.9515 123.131 23.5706C122.907 23.5018 122.702 23.3814 122.533 23.219C122.364 23.0566 122.235 22.8567 122.157 22.6354C121.517 20.9863 121.495 19.3119 122.174 17.6811C122.632 16.5838 123.803 16.3537 124.82 17.0771C125.004 17.2172 125.179 17.3686 125.345 17.5303C125.77 17.9208 126.031 18.3645 125.956 18.9816H125.957Z" fill="#FEFEFE"/>
<path d="M110.146 51.8633C108.72 50.1445 107.292 48.4274 105.862 46.712C105.538 46.3224 105.539 46.3311 106.005 46.2187C106.654 46.0656 107.265 45.7799 107.799 45.3793C110.098 43.6518 109.766 40.1645 108.439 38.5598C107.359 37.2524 105.929 36.753 104.291 36.7416C102.67 36.7303 101.049 36.7521 99.4264 36.7294C99.0398 36.7242 98.9408 36.8358 98.9417 37.2167C98.9564 40.5131 98.9504 43.8096 98.9504 47.1051C98.9504 48.688 98.9573 50.2709 98.9451 51.8537C98.9451 52.1631 99.0112 52.2895 99.3526 52.2817C100.075 52.2564 100.8 52.2651 101.524 52.2817C101.785 52.2869 101.881 52.1997 101.872 51.933C101.856 51.3386 101.872 50.7424 101.872 50.1471V46.1498C102.046 46.3634 102.14 46.4723 102.228 46.5857C103.618 48.3681 105.017 50.148 106.398 51.9383C106.583 52.1771 106.77 52.2869 107.082 52.2869C108.037 52.2651 108.993 52.2808 109.949 52.2764C110.086 52.2764 110.28 52.347 110.347 52.2146C110.421 52.0638 110.232 51.9679 110.146 51.8633ZM102.047 43.664C101.873 43.6152 101.868 43.5089 101.868 43.372C101.868 42.2999 101.874 41.227 101.868 40.154C101.868 39.9448 101.941 39.8751 102.146 39.8812C102.535 39.8925 102.927 39.8812 103.316 39.8812C103.831 39.8873 104.349 39.8542 104.854 39.9588C104.972 39.9834 105.088 40.016 105.202 40.0564C106.051 40.3588 106.48 40.9454 106.505 41.8528C106.53 42.7601 106.11 43.4365 105.279 43.7538C104.19 44.1722 103.116 43.9734 102.047 43.664Z" fill="#FEFEFE"/>
<path d="M116.284 19.2099C116.157 17.8633 115.858 16.5646 114.993 15.4794C113.764 13.934 112.118 13.3631 110.191 13.4747C108.093 13.595 106.484 14.5424 105.58 16.4469C104.476 18.7811 104.499 21.2086 105.446 23.5942C106.054 25.1204 107.215 26.1349 108.799 26.5838C110.421 27.0423 112.043 26.9848 113.596 26.297C114.839 25.7462 115.733 24.8362 116.196 23.5236C116.324 23.1566 116.271 22.9797 115.868 22.8725C115.071 22.6615 114.283 22.4149 113.503 22.1499C113.122 22.0209 112.927 22.027 112.788 22.4881C112.502 23.4381 111.65 23.9698 110.609 23.9428C109.664 23.9193 109.088 23.453 108.774 22.4471C108.713 22.2536 108.687 22.0488 108.629 21.8553C108.512 21.4761 108.629 21.3323 109.035 21.3393C110.165 21.3585 111.294 21.3463 112.424 21.3463C113.566 21.3463 114.71 21.3297 115.852 21.3541C116.263 21.3628 116.392 21.2077 116.365 20.8216C116.325 20.282 116.335 19.7434 116.284 19.2099ZM111.636 18.8491C110.743 19.0156 109.846 19.1664 108.955 19.3433C108.635 19.4061 108.515 19.3119 108.572 18.9885C108.653 18.4028 108.77 17.8241 109.084 17.3037C109.491 16.6265 110.103 16.338 110.868 16.3815C111.615 16.4234 112.074 16.8618 112.344 17.5382C112.745 18.5449 112.692 18.6521 111.636 18.8491Z" fill="#FEFEFE"/>
<path d="M103.313 39.8847C102.923 39.8847 102.531 39.8925 102.143 39.8847C102.532 39.8934 102.922 39.8847 103.313 39.8847Z" fill="#FEFEFE"/>
<path d="M12.8339 26.0094C12.708 26.1925 12.5281 26.1916 12.3674 26.0678C12.13 25.8802 11.9035 25.6791 11.689 25.4655C11.287 25.071 10.9175 24.6445 10.5839 24.1904C10.4779 24.0474 10.378 23.8792 10.5552 23.7293C10.7681 23.548 10.8558 23.7711 10.9601 23.8914C11.4996 24.5137 12.039 25.1361 12.6298 25.7113C12.7106 25.7898 12.8166 25.8534 12.8339 26.0094Z" fill="#FEFEFE"/>
<path d="M19.7048 32.9657C19.7735 32.7426 20.0002 32.7574 20.1566 32.6833C21.2744 32.1551 22.3965 31.6365 23.5229 31.1275C24.2857 30.7789 24.4872 30.8756 24.7548 31.6792C24.813 31.8536 24.8512 32.0401 24.8929 32.2222C24.9459 32.4524 24.8651 32.6258 24.6488 32.7165C23.4004 33.2394 22.139 33.7345 20.9132 34.3133C20.8264 34.3533 20.7143 34.3298 20.6144 34.3359C20.1036 34.0178 19.9316 33.473 19.7048 32.9657ZM20.2417 33.1183C20.352 33.3048 20.4589 33.4748 20.5553 33.65C20.6717 33.86 20.7708 33.8957 21.0244 33.7729C21.9801 33.3126 22.9556 32.8969 23.9304 32.4802C24.4594 32.2545 24.4516 32.2737 24.2118 31.7368C24.1093 31.5084 24.0381 31.3759 23.7488 31.5093C22.5899 32.0532 21.4223 32.5779 20.2417 33.1183Z" fill="#FEFEFE"/>
<path d="M19.7049 32.9657C19.9316 33.473 20.1036 34.0177 20.6144 34.3359C20.4937 34.4884 20.5727 34.6636 20.5693 34.8379C20.2 34.8519 19.9611 34.6706 19.8021 34.369C19.6284 34.0482 19.5546 33.6944 19.4616 33.3475C19.406 33.1383 19.5051 33.0171 19.7049 32.9657Z" fill="#FEFEFE"/>
<path d="M31.4162 48.5328L31.2981 48.4587C31.3633 48.3968 31.411 48.4308 31.4553 48.4875L31.4162 48.5328Z" fill="#FEFEFE"/>
<path d="M20.2417 33.1183C21.4223 32.5779 22.5873 32.0532 23.7488 31.5093C24.0337 31.3759 24.1093 31.5093 24.2118 31.7368C24.4533 32.2737 24.4594 32.2545 23.9304 32.4803C22.9556 32.8969 21.9792 33.3126 21.0244 33.7729C20.7708 33.8958 20.6717 33.86 20.5553 33.65C20.4589 33.4748 20.352 33.3048 20.2417 33.1183Z" fill="#FEFEFE"/>
</g>
<defs>
<clipPath id="clip0_24280_2793">
<rect width="150" height="51" fill="white" transform="translate(0 6.5)"/>
</clipPath>
</defs>
</svg>
