<svg width="25" height="24" viewBox="0 0 25 24" fill="none" xmlns="http://www.w3.org/2000/svg">
<path d="M12.0732 0C18.7413 0 24.1474 5.40536 24.1475 12.0732C24.1475 18.0994 19.7319 23.0943 13.96 24V15.5635H16.7734L17.3086 12.0732H13.96V9.80859C13.96 8.85381 14.4279 7.92285 15.9277 7.92285H17.4502V4.95215C17.4502 4.95215 16.068 4.71582 14.7471 4.71582C14.3864 4.71582 14.0419 4.74529 13.7158 4.80176C13.4964 4.83977 13.2853 4.89009 13.083 4.95312C12.7238 5.065 12.3921 5.21542 12.0918 5.4043C11.7315 5.631 11.4156 5.91235 11.1504 6.24609C10.5313 7.02488 10.1865 8.09018 10.1865 9.41406V12.0732H7.12109V15.5635H10.1865V23.999C4.41492 23.093 0 18.0992 0 12.0732C8.3497e-05 5.40548 5.40539 0.000201513 12.0732 0Z" fill="#B4B6B8"/>
</svg>
