<svg width="96" height="96" viewBox="0 0 96 96" fill="none" xmlns="http://www.w3.org/2000/svg">
<path d="M65.6632 21.5498C65.7977 22.0661 66.064 22.6047 66.2218 23.123C67.5324 27.4326 69.029 31.7024 70.3624 36.001C70.8397 37.5401 71.4856 39.1443 71.8057 40.7041C72.7898 45.4986 72.3695 50.5935 70.3858 55.0859C67.8069 61.3571 63.7252 64.4199 58.3702 68.1387C55.0913 70.5495 51.463 73.3143 48.1192 75.5947C46.8316 74.3988 44.9091 73.3457 43.5216 72.2314C37.9818 67.7832 31.3293 64.6292 27.5655 58.3467C24.0524 52.575 22.9707 45.4548 24.9903 38.959C26.4089 34.3964 27.9896 29.7923 29.4298 25.2266C29.8047 24.0381 30.3312 22.7372 30.6114 21.54L65.6632 21.5498ZM48.0186 23.1152C47.887 23.9472 47.4776 25.03 47.2012 25.8525L46.0489 29.376C45.6293 30.6823 45.2087 32.0085 44.7735 33.3105C44.2635 34.8366 43.6492 37.2571 42.96 38.6533L32.2637 38.6387C30.6026 38.6395 28.2447 38.7069 26.6358 38.5977C30.0633 41.2135 33.6356 43.6807 37.1104 46.2363C38.067 46.9399 39.0195 47.6426 39.9962 48.3184C39.606 48.86 39.2399 50.4143 39.0118 51.1143L36.8116 57.874L35.5841 61.7061C35.3947 62.2817 35.031 63.1649 34.9171 63.7236C35.2528 63.7853 36.357 62.8214 36.6964 62.5811C39.3689 60.6859 42.0225 58.7641 44.6563 56.8154C45.6263 56.1063 47.1913 54.8804 48.168 54.2549C48.9454 54.7641 49.7175 55.3841 50.4718 55.9414L54.8321 59.1445L58.6007 61.8604C59.4297 62.4492 60.717 63.3285 61.4659 64C60.7586 61.4528 59.7718 58.6962 58.9678 56.1543C58.3755 54.2259 57.7539 52.3061 57.1036 50.3965C56.8996 49.7866 56.6201 48.8137 56.4005 48.2529L65.7618 41.502C66.9158 40.6734 68.6095 39.3196 69.7813 38.582C68.545 38.6871 66.9524 38.6427 65.6827 38.6416L57.6075 38.6367C56.394 38.6371 54.5027 38.5823 53.3292 38.6641C52.82 37.0227 52.1618 35.3462 51.6368 33.6738C50.9387 31.3727 50.205 29.0823 49.4366 26.8037C49.2353 26.1968 48.4266 23.3673 48.0186 23.1152Z" fill="white"/>
</svg>
