<svg width="96" height="96" viewBox="0 0 96 96" fill="none" xmlns="http://www.w3.org/2000/svg">
<path d="M66.9607 34.1924C67.5535 34.2815 69.7047 36.2428 70.1529 36.7326C71.4751 38.1776 72.8443 40.8508 72.7402 42.8462C74.9673 42.0661 78.5656 42.2799 80.7873 43.1127C81.4662 43.3672 82.2098 43.8574 82.8247 44.2559C81.8855 46.1599 81.2054 47.6059 79.458 48.9156C77.4799 50.3983 73.7277 51.1968 71.338 50.7895C71.2047 51.1849 71.0198 51.607 70.8559 51.9959C67.3539 60.3051 61.8098 68.0619 53.2928 71.728C48.1815 73.928 42.9861 74.5761 37.4781 73.985C35.9313 73.819 34.2463 73.5659 32.7749 73.0944C21.4714 69.7691 16.9374 60.285 16.8247 49.2165C17.9342 49.3641 21.3728 49.286 22.662 49.2855L34.2839 49.2849L50.7548 49.2856C54.1565 49.2857 57.7089 49.4043 61.0757 49.0924C63.075 48.9071 64.435 48.377 66.2207 47.572C63.374 43.2099 64.0934 38.33 66.9607 34.1924Z" fill="white"/>
<path d="M44.8247 31.1979C46.7318 31.2878 49.933 31.2862 51.8247 31.1924C51.7504 31.9636 51.7779 33.1659 51.7777 33.9643C51.7715 35.3502 51.7776 36.736 51.7961 38.1217C51.6834 38.1817 45.7651 38.0387 44.8452 38.1924C44.852 35.9093 44.8831 33.471 44.8247 31.1979Z" fill="white"/>
<path d="M25.8247 31.1924C27.4533 31.3235 31.1504 31.2601 32.8247 31.1978C32.7563 31.9102 32.7868 33.1917 32.7869 33.924C32.7796 35.3468 32.7866 36.7697 32.808 38.1924C32.1076 38.0281 26.6076 38.0639 25.8422 38.1721C25.8365 35.8499 25.8553 33.5129 25.8247 31.1924Z" fill="white"/>
<path d="M34.8247 31.1924C36.7512 31.3197 40.8558 31.2652 42.8247 31.1985C42.7481 31.9239 42.7832 33.1894 42.7832 33.9324C42.7749 35.3524 42.783 36.7725 42.8075 38.1924C42.0564 38.0376 35.6977 38.0475 34.8413 38.1724L34.8247 31.1924Z" fill="white"/>
<path d="M44.9642 40.1927C45.553 40.3218 51.1329 40.2921 51.8247 40.1924C51.7046 41.9325 51.7733 45.3775 51.8055 47.1924C51.1143 47.0258 45.649 47.0391 44.8708 47.1646C44.8654 46.1855 44.7243 40.5984 44.9642 40.1927Z" fill="white"/>
<path d="M25.9636 40.1924C26.5494 40.3225 32.1309 40.2944 32.8247 40.1939C32.7098 41.973 32.7745 45.3459 32.8079 47.1924C32.1162 47.0258 26.6513 47.0392 25.8725 47.1645C25.8668 46.1788 25.723 40.6089 25.9636 40.1924Z" fill="white"/>
<path d="M23.7315 40.2039C23.7626 40.2368 23.7936 40.2699 23.8247 40.3029C23.7959 41.8181 23.8105 45.9148 23.8137 47.1924C23.1214 47.0679 21.8123 47.0982 21.0651 47.0982C19.7149 47.0867 18.3646 47.099 17.0149 47.1352L16.9202 47.1523C16.7816 46.9637 16.835 40.9771 16.8339 40.1924C17.8386 40.2909 19.3092 40.2564 20.3555 40.2539C21.3748 40.2514 22.7341 40.2753 23.7315 40.2039Z" fill="white"/>
<path d="M34.9848 40.1925C35.6565 40.3213 42.0369 40.2924 42.8247 40.1924C42.6925 41.9631 42.7674 45.3528 42.8052 47.1924C42.0136 47.0269 35.7674 47.0399 34.8781 47.1652C34.8717 46.1831 34.7091 40.6006 34.9848 40.1925Z" fill="white"/>
<path d="M60.7311 40.1936L60.8081 40.2499C60.8459 40.5185 60.8033 41.8091 60.8066 42.1787C60.8212 43.8453 60.7822 45.5257 60.8247 47.1924C60.1311 47.0684 58.8131 47.0983 58.0688 47.0988C56.7206 47.0904 55.3724 47.1022 54.0245 47.1343L53.9161 47.1506C53.7832 46.972 53.8339 41.0245 53.8354 40.1924C54.2486 40.2212 54.6958 40.2445 55.1091 40.2362C56.9472 40.1986 58.9056 40.3224 60.7311 40.1936Z" fill="white"/>
<path d="M44.8247 22.1956L51.7936 22.1924C51.7142 23.4338 51.7576 24.9159 51.7475 26.1739C51.7412 26.9688 51.7081 28.4731 51.8247 29.1924C50.7751 28.995 46.0096 29.0745 44.8407 29.1893C44.9131 27.3302 44.8992 24.0511 44.8247 22.1956Z" fill="white"/>
</svg>
