<svg width="96" height="96" viewBox="0 0 96 96" fill="none" xmlns="http://www.w3.org/2000/svg">
<path d="M32.9934 64.7823C33.1365 63.7489 33.193 62.7074 33.3503 61.6267C34.7721 51.8585 38.8429 42.8455 43.6896 34.3722C46.1948 29.9715 48.9459 25.7192 51.9298 21.6363C54.2173 18.5094 56.8276 15.1624 59.8004 12.6754C61.5997 11.1701 63.5786 12.4222 64.7338 14.0734C66.1334 16.0735 66.1675 18.7629 65.8066 21.0985C65.6101 22.3005 65.2992 23.4803 64.8781 24.6216C63.924 27.2305 61.1836 32.7051 59.2686 34.6127C58.7386 35.1405 58.1121 35.5845 57.4679 35.9569C57.0946 36.1728 56.6942 36.3642 56.3471 36.6209C57.7072 36.3377 58.9695 35.9582 60.1449 35.1989C59.8113 36.4715 59.529 37.3239 59.0099 38.5375C58.2375 40.3434 57.4072 41.8787 55.7882 43.0545C55.0565 43.5859 54.3919 43.8503 53.6238 44.2774C54.9939 44.0542 56.2958 43.5179 57.4308 42.7091C56.2123 45.2571 54.6119 46.9698 52.0641 48.1163C53.0044 48.0654 54.2092 47.5952 55.0547 47.1895C53.9067 50.3039 53.1866 52.6903 51.489 55.699C49.1687 59.8109 46.2898 62.6235 41.8938 64.4078C41.2377 64.6741 40.4728 64.8437 39.7861 65.0308C40.2649 65.1135 40.7484 65.1646 41.2337 65.1846C44.2866 65.301 46.235 64.1823 48.3918 62.1483C47.1034 64.5833 45.9403 66.2671 43.5087 67.6499C42.9107 67.99 42.328 68.2508 41.7304 68.5687C43.6622 68.5504 44.3483 68.4251 45.7024 67.0657C43.6447 71.2675 39.7865 72.0341 35.5282 71.9604C36.4471 72.857 36.898 73.9169 37.0384 75.1834C36.3017 74.1184 36.0261 73.2418 34.8039 72.583C35.0067 72.1483 35.2292 71.449 35.3856 70.985C35.6746 70.1173 35.968 69.2514 36.2658 68.3871C37.3405 65.347 38.4452 62.3179 39.5796 59.3004C43.044 50.015 47.0466 40.9444 51.5665 32.1368C53.8554 27.7677 56.3572 23.3782 59.216 19.3636L59.2038 19.169C53.5784 26.4485 48.8595 35.7243 45.0729 44.1389C41.899 51.241 38.979 58.457 36.3186 65.7727C35.14 69.0204 33.9929 72.28 32.8774 75.5507L31.6447 79.2621C31.5764 79.4645 31.2197 80.578 31.1564 80.7054C30.8378 81.7546 30.4867 82.9743 30.1021 84C29.743 83.5709 29.6708 83.7588 29.411 83.573C29.6919 82.5507 30.0734 81.4478 30.4069 80.4412C30.5166 79.9912 30.816 79.1419 30.9671 78.6672C31.4531 77.1454 31.9572 75.6296 32.4793 74.1197C32.6401 73.6403 33.108 72.3555 33.1707 71.9591C31.0781 71.7819 29.95 72.1956 28 72.9934C28.9152 72.2336 30.9309 70.8239 32.1477 70.7945L32.2092 70.7352C32.1833 70.6521 31.7247 70.503 31.5783 70.4339C30.6694 70.0031 29.9669 69.4163 29.2015 68.7792C30.4423 69.2245 31.5826 69.6324 32.9243 69.4743C32.8208 66.9259 31.1089 63.8197 29.6263 61.8291C30.6444 62.3746 32.4439 63.7353 32.9934 64.7823Z" fill="white"/>
</svg>
