<svg width="96" height="96" viewBox="0 0 96 96" fill="none" xmlns="http://www.w3.org/2000/svg">
<path d="M49.2505 16.9844C50.7038 16.9377 51.8057 20.0732 52.4016 21.2706L55.7096 27.9075L65.8748 48.2888L71.8077 60.1676C72.541 61.6335 74.3185 64.9746 74.835 66.4232C74.2538 67.6888 73.6023 67.9848 72.2013 67.9722C70.9543 67.961 69.701 67.9388 68.4537 67.9343C66.6252 67.9339 56.3109 68.1227 55.3649 67.7662C54.9597 67.6135 54.6476 67.1161 54.4291 66.7587C53.3387 64.9754 52.266 62.5 51.2989 60.5715C49.5342 57.0521 47.6921 53.5494 46.0282 49.9819C42.2575 42.0583 41.8073 32.9472 44.7784 24.6876C45.4572 22.8054 47.452 17.8313 49.2505 16.9844Z" fill="white"/>
<path d="M37.467 39.9849C38.063 39.9616 38.7039 40.3491 39.0916 40.7755C45.0561 47.3359 47.6679 57.7503 44.4373 66.1329C44.2156 66.7078 43.7529 67.693 43.0818 67.8181C41.796 68.0578 40.3764 67.9579 39.0599 67.9564L32.2115 67.9511C29.9365 67.9464 27.2302 68.0857 25.0194 67.8233C22.0788 67.4742 25.4533 62.5278 26.1551 61.1543L30.7045 52.2124L34.4607 44.7168C35.1073 43.4271 35.7496 42.0888 36.4699 40.8401C36.7368 40.3774 36.9995 40.2184 37.467 39.9849Z" fill="white"/>
<path d="M74.8881 71.9839L75.835 72.0288C75.7632 73.8184 75.8104 75.6112 75.8018 77.4018C75.7994 77.9015 75.8202 78.4021 75.7511 78.8981C75.4229 78.9779 74.3982 78.9586 74.0085 78.9606C73.1595 77.4553 72.1103 75.4852 71.5089 73.8685C71.3452 74.7904 71.4138 77.6122 71.4218 78.7071L71.4347 78.8279L71.3334 78.941C70.8554 78.9608 70.3773 78.9751 69.899 78.9839C69.9618 78.0878 69.9152 76.6021 69.9166 75.6708C69.9182 74.6638 69.9594 72.9786 69.835 72.0424C70.6169 72.0283 71.3777 72.0051 72.1595 72.0563C73.0058 73.0531 73.8669 75.1395 74.3991 76.3992C74.3462 75.6319 74.1783 72.7981 74.3061 72.1636C74.5153 71.9885 74.5802 72.0316 74.8881 71.9839Z" fill="white"/>
<path d="M64.2815 72.0401C66.6977 71.9318 66.2415 71.7514 67.1017 73.9732C67.6574 75.4083 68.1679 77.646 68.835 78.9374C68.3719 78.9555 67.4019 79.027 66.9952 78.9261C66.739 78.7081 66.7123 78.3083 66.5112 77.9382L66.3714 77.9386C65.643 77.9887 64.512 77.7835 64.1533 77.9857C63.9524 78.2069 63.9377 78.6204 63.8944 78.9375C63.2078 78.9491 62.5214 78.9645 61.835 78.9839C62.1825 78.3817 62.3132 77.7219 62.5468 77.1126C63.0369 75.8344 63.7161 73.1617 64.2815 72.0401ZM64.4411 76.4906L65.4405 76.395L66.1845 76.4993C66.0487 75.9776 65.5963 74.0324 65.396 73.746C65.0054 74.6582 64.8224 75.6757 64.4411 76.4906Z" fill="white"/>
<path d="M24.1094 72C24.5957 71.9905 25.2369 71.8814 25.4966 72.3934C26.463 74.2989 26.8415 77.0591 27.8167 78.9071L27.835 78.9411L25.8954 78.9839C25.7487 78.6831 25.6046 78.2133 25.493 77.8846C25.1624 77.9455 24.8584 77.9525 24.5251 77.9677C24.1059 77.9791 23.3723 77.836 23.1331 77.9457C22.9216 78.1582 22.9103 78.6107 22.8674 78.9333C22.2078 78.9585 21.4988 78.9525 20.835 78.9595C21.5329 77.3777 22.6237 73.82 23.2233 72.0473L24.1094 72ZM23.4244 76.4881L24.2388 76.3989C24.5518 76.429 24.8266 76.4577 25.1369 76.5086C24.9133 75.6537 24.6413 74.4769 24.3608 73.6618C24.085 74.5026 23.7339 75.6966 23.4244 76.4881Z" fill="white"/>
<path d="M40.5139 71.9945C41.1951 71.9808 41.7005 71.9691 42.3752 72.0351C43.1423 73.6685 44.2294 77.185 44.835 78.9757C44.1969 78.9356 43.5772 78.9266 42.9382 78.9161C42.6132 78.2006 42.8346 77.8558 42.0335 77.939C41.3029 77.9456 40.7179 77.947 39.9869 77.8902C39.93 77.9949 39.9913 78.319 39.836 78.6249C39.4327 79.0238 38.4084 78.9645 37.835 78.9839C38.2154 77.8785 39.8713 72.3055 40.5139 71.9945ZM41.4962 76.4051C41.7839 76.3939 41.9015 76.3998 42.1876 76.4343C42.0129 75.929 41.479 73.7893 41.2948 73.6252C41.1703 74.0447 40.5592 76.0672 40.5649 76.3857C40.911 76.4118 41.1486 76.4138 41.4962 76.4051Z" fill="white"/>
<path d="M54.2749 71.9957C55.4776 71.9333 56.3641 72.1243 57.5021 72.4131C57.4884 73.0537 57.4905 73.5264 57.5412 74.1641C56.7177 73.7984 54.4104 72.9556 53.9118 73.9791C54.1899 74.7128 56.4737 74.9518 57.4883 75.6751C57.9458 76.2934 57.8549 77.0384 57.749 77.7202C57.0545 78.6386 56.4974 78.7883 55.3249 78.9056C54.4791 79.1741 52.7114 78.6826 51.8818 78.4705C51.8155 77.8932 51.8383 77.1869 51.8405 76.5961C53.1247 77.3515 53.7914 77.3962 55.3836 77.3208C55.6683 77.3073 55.7856 77.2015 55.9266 77.0296C55.9228 76.9275 55.8582 76.561 55.7573 76.5202C54.5548 76.0303 52.1633 75.9327 51.8987 74.4559C51.6307 72.9606 52.8149 72.2099 54.2749 71.9957Z" fill="white"/>
<path d="M47.8745 71.996C48.8107 71.9319 49.6174 72.1313 50.5095 72.3903L50.5051 74.124C49.945 73.7996 47.4374 72.8618 47.4712 74.1546C48.2081 75.1646 51.8195 74.4138 50.5771 78.1064C49.8559 78.6919 49.3465 78.8282 48.4848 78.9778C47.6116 79.0279 46.7893 78.7621 45.9626 78.5019C45.8689 77.998 45.8574 77.2071 45.835 76.6715C46.3998 76.9613 46.8837 77.2076 47.513 77.2996C48.0002 77.3708 49.2442 77.4948 49.3368 76.7532C48.9822 76.17 45.9811 76.0142 45.8742 74.4362C45.7714 72.9187 46.5861 72.244 47.8745 71.996Z" fill="white"/>
<path d="M26.854 72.0277C27.6357 71.9919 32.1736 71.9328 32.7162 72.0704C32.8697 72.4074 32.8276 73.1683 32.8347 73.59C32.0898 73.5716 31.4774 73.5541 30.7388 73.4761C30.8016 74.6304 30.7828 75.9054 30.7871 77.0713C30.7824 77.6876 30.7314 78.3107 30.8781 78.9077C30.2232 78.9155 29.5002 78.9582 28.8403 78.9839C28.9091 77.2781 28.8429 75.2242 28.866 73.4735L26.8735 73.5488C26.8555 73.0981 26.809 72.4623 26.854 72.0277Z" fill="white"/>
<path d="M33.9231 71.9928C34.4766 71.9789 35.0305 71.9812 35.5838 71.9997C35.5069 73.628 35.6668 75.9781 35.5061 77.439C36.2716 77.3247 37.0601 77.3559 37.835 77.3629C37.6514 77.8203 37.5375 78.0881 37.4312 78.5746L37.3758 78.7826C37.0604 79.0093 34.5513 78.9198 33.8494 78.9839C33.883 78.1493 33.7571 72.3171 33.9231 71.9928Z" fill="white"/>
<path d="M59.7703 71.9839L60.835 72.036C60.7702 74.3088 60.7645 76.5828 60.8179 78.8559C60.5717 79.0229 60.5716 78.9616 60.1899 78.9473L58.851 78.9839C58.8963 78.0108 58.7561 72.4805 58.9073 72.1257C59.1149 71.9737 59.4902 71.9945 59.7703 71.9839Z" fill="white"/>
</svg>
