<svg width="96" height="96" viewBox="0 0 96 96" fill="none" xmlns="http://www.w3.org/2000/svg">
<g clip-path="url(#clip0_24306_8297)">
<path d="M24.0024 18.1445C28.8538 23.8899 31.914 26.8823 38.6195 30.4686C41.8197 32.1569 45.1414 33.5868 48.5547 34.7453C54.8148 36.8882 61.387 38.2875 67.3125 41.4159C69.4375 42.5378 71.739 43.9242 71.803 46.7456C71.8357 48.1824 70.0252 50.8793 70.7686 52.207C73.6129 54.1514 77.6072 53.9746 80.2741 56.3927C81.0748 57.1186 81.1523 58.3691 81.7995 59.1523C83.4078 61.0984 84.3354 62.4904 83.8916 65.1445C82.8881 63.9826 82.1106 63.0672 80.9288 62.1046L80.5688 62.157L80.4925 62.269C79.8916 61.7167 78.3524 60.7506 77.5963 60.2973C73.0391 57.5647 70.7417 57.5028 65.8319 57.6928L65.8837 57.5064C66.2166 57.432 66.2846 57.4335 66.6237 57.476L66.7094 57.4872C66.4955 57.3135 64.9059 57.2381 64.4795 57.198C59.1494 57.2515 56.1511 57.1126 52.065 52.9873C49.8551 50.7563 47.598 46.7941 46.0522 43.9897C44.5331 41.2337 44.1981 40.0059 42.045 37.4565C37.2254 31.7498 29.967 28.7675 25.9616 22.4335C25.0816 21.042 24.547 19.6894 24.0024 18.1445Z" fill="white"/>
<path d="M65.0024 56.336C70.4698 55.5828 76.0084 57.0709 80.3793 60.4677C80.5804 60.6245 80.8251 60.8099 81.0024 60.9887L80.6522 61.0383L80.578 61.1445C79.9935 60.6207 78.4964 59.7047 77.761 59.2749C73.3282 56.6837 71.0936 56.625 66.318 56.8051L66.3684 56.6284C66.6922 56.5578 66.7583 56.5592 67.0881 56.5996L67.1714 56.6102C66.9634 56.4455 65.4173 56.3739 65.0024 56.336Z" fill="white"/>
<path d="M78.0024 56.1479C78.5866 56.1097 79.7874 56.3997 80.2531 56.7604C80.9046 57.2652 80.9062 57.4027 81.0024 58.1445C80.8179 58.0987 78.4437 56.4398 78.0024 56.1479Z" fill="white"/>
<path d="M48.1671 54.1445C54.7661 58.2284 57.581 58.5515 65.5506 57.3336C65.6014 57.3235 65.6523 57.3134 65.703 57.3033C70.8267 57.1287 73.2242 57.1856 77.98 59.6973C78.7691 60.114 80.3753 61.0019 81.0024 61.5096C80.1711 61.7169 77.5732 61.3825 76.0093 61.7779C71.9098 62.8143 70.8535 64.4992 66.3955 64.344C69.5858 68.6187 77.3489 64.0146 74.2977 70.6103C74.2762 69.5882 74.2877 68.8459 73.2433 68.0633C71.744 66.9399 67.7656 67.8634 68.0388 69.9629C68.1549 70.8548 69.5346 71.63 70.3798 72.1445C67.4566 72.0661 65.8803 70.7723 65.1151 68.249C62.4105 69.3019 60.7457 68.7453 58.5238 67.2275C59.0465 67.3623 60.4255 67.7848 60.867 67.5846C60.6793 67.4019 60.3856 67.2739 60.1463 67.1505C57.5528 65.8124 55.4779 63.8899 53.6598 61.7532C55.5539 62.9197 56.2189 63.338 58.3602 64.0368C57.2054 62.5493 54.8717 60.4246 53.4716 59.1458C51.7538 57.5768 49.8429 55.8272 48.0024 54.4043L48.1671 54.1445Z" fill="white"/>
<path d="M12.0024 16.1445C12.3108 16.2779 13.0478 17.1202 13.3026 17.3893C15.6135 19.8572 18.0794 22.1748 20.685 24.328C22.7602 26.0428 24.9306 27.6386 27.1858 29.1076C32.5955 32.6913 41.0618 37.4794 43.0024 44.1445C42.7 43.9468 41.4479 42.3366 41.0764 41.9333C38.1118 38.7151 34.4754 36.8544 30.7375 34.679C29.0844 33.7014 27.4668 32.665 25.8878 31.5716C21.1617 28.3242 15.7982 24.0261 13.0634 18.8591C12.6655 18.1073 12.1581 16.9794 12.0024 16.1445Z" fill="white"/>
<path d="M14.0024 27.1445C14.2796 27.2587 14.5953 27.5783 14.8202 27.7868C16.8657 29.6832 19.0341 31.5108 21.3466 33.1135C23.5604 34.6479 25.9525 35.9779 28.3226 37.2807C33.6261 40.1959 41.4382 43.5115 44.0024 49.1445C43.7549 49.0426 43.4352 48.6878 43.2308 48.4881C41.8647 47.1537 40.5287 46.0907 38.8887 45.0568C36.3532 43.4584 33.4038 42.3981 30.7779 41.0996C25.0954 38.2899 16.0682 33.1831 14.0024 27.1445Z" fill="white"/>
<path d="M29.1565 49.1445C32.0244 50.8297 35.0567 52.4409 38.5783 52.832C39.1515 52.8956 40.0519 53.0755 40.5859 52.867C40.9142 52.1701 37.5256 50.6314 36.9101 50.3361C42.8001 51.5597 48.9813 55.2844 53.0024 59.1445C48.7725 57.4459 45.4568 56.6599 40.953 55.6479C36.6603 54.6832 32.0038 52.2091 29.0024 49.4405L29.1565 49.1445Z" fill="white"/>
<path d="M46.0024 53.1445C46.731 53.2995 48.4465 53.6819 49.0024 53.9107L48.6796 54.1445C47.5868 53.8047 46.9718 53.5453 46.0024 53.1445Z" fill="white"/>
<path d="M28.0024 47.1445C28.3881 47.608 28.6738 47.9135 29.0024 48.5491L28.8713 49.1445C28.5266 48.4543 28.3059 47.9008 28.0024 47.1445Z" fill="white"/>
</g>
<defs>
<clipPath id="clip0_24306_8297">
<rect width="72" height="72" fill="white" transform="translate(12 12)"/>
</clipPath>
</defs>
</svg>
