<svg width="96" height="96" viewBox="0 0 96 96" fill="none" xmlns="http://www.w3.org/2000/svg">
<path d="M17.2228 54.2202C17.9345 54.306 23.6376 57.1971 24.8483 57.6584C37.5459 62.4971 50.6704 63.3862 63.8943 60.04C65.05 59.7536 66.196 59.4332 67.3309 59.0794C67.9942 58.8685 71.8443 57.4286 72.2188 57.4347C74.2744 58.1889 71.7707 59.5467 70.9978 60.0046C66.894 62.5249 62.8664 63.9005 58.1399 65.0073C44.6984 68.1548 29.9046 65.0981 19.1697 56.751C18.4462 56.1885 17.5453 55.6692 17.0647 54.8906C16.9181 54.6529 17.1071 54.4261 17.2228 54.2202Z" fill="white"/>
<path d="M58.5717 30.3539C59.9011 30.1935 60.6776 30.1594 62.0112 30.3519C61.7788 31.3732 61.5411 32.1168 61.2129 33.1042C59.9579 36.6916 58.9524 40.4957 57.636 44.0825C57.1656 45.364 56.7113 46.9361 56.1129 48.1477C54.775 48.2683 53.8539 48.2216 52.5136 48.1306C51.1883 43.7129 50.0447 38.4734 48.8881 33.945C48.7057 35.1564 47.8758 38.0724 47.4878 39.3666C46.8708 41.4245 45.9858 46.4177 45.146 48.1438C43.9819 48.1759 42.7946 48.1527 41.6284 48.1418C41.5945 48.0771 41.5624 48.0116 41.5318 47.9453C40.6489 46.0452 39.8476 42.6156 39.1077 40.541C38.6054 39.1325 35.7724 30.9961 36.0274 30.3828L36.3712 30.2488C37.3882 30.1999 38.4968 30.2072 39.5055 30.3352C39.9686 31.4365 40.4101 33.3323 40.7219 34.5279L42.4687 41.2376C42.6254 41.8362 43.1363 43.9551 43.3776 44.406C43.8346 44.0253 46.5793 32.0071 47.0338 30.3512C48.5123 30.1906 49.2645 30.1781 50.7422 30.3435C51.3181 32.1115 51.6161 33.8955 52.1185 35.6568C52.9976 38.7384 53.6876 41.8595 54.5211 44.9449C55.0548 42.5714 55.7061 40.2617 56.3307 37.909C57.0089 35.3539 57.6616 32.8505 58.5717 30.3539Z" fill="white"/>
<path d="M26.2456 29.8012C27.6362 29.6604 29.4308 29.7968 30.7583 30.27C36.2539 32.2285 33.8545 39.6514 34.5474 44.0639C34.7233 45.1835 35.1531 46.0431 35.6352 47.059C35.0101 47.6634 33.8889 48.3595 33.1538 48.811C32.3503 48.0833 31.7971 47.1148 31.3628 46.1342C28.4691 48.9901 24.4787 50.3947 21.0874 47.3852C19.7301 45.9697 19.2494 44.0411 19.7251 42.1948C21.1185 36.7895 27.3091 37.5026 31.0796 38.2739C30.9431 36.492 31.4509 33.8051 29.3169 32.9526C26.5957 31.8659 23.6139 33.0048 21.0249 33.934C20.8998 33.0392 20.9065 32.3833 20.9038 31.4751C22.5758 30.4892 24.3214 30.0016 26.2456 29.8012ZM31.2251 40.5727C29.9851 40.382 27.6411 40.0318 26.4526 40.2387C25.3692 40.329 24.5638 40.5004 23.8022 41.3725C22.8041 42.516 22.8582 44.6773 24.0601 45.6596C25.1459 46.5467 26.5781 46.3938 27.8433 46.0786C30.8545 44.976 31.1375 43.549 31.2251 40.5727Z" fill="white"/>
<path d="M68.4894 30.2568C70.0899 30.1277 73.7198 30.2679 74.8271 31.8849C75.0201 32.1668 74.9297 33.289 74.8344 33.6564C74.5384 33.961 73.5392 33.5739 73.1018 33.4232C71.1986 32.7679 66.3241 32.1271 66.5129 35.3885C66.6977 37.6493 70.4354 38.1502 72.2808 38.8319C75.745 40.1117 77.2561 43.6655 74.8091 46.7817C73.3597 48.6275 71.415 49.0645 69.1262 49.2152C67.732 49.2716 64.0259 48.8674 63.1597 47.323C62.9365 46.925 62.9929 45.9443 63.1454 45.4846C63.316 45.324 63.3501 45.2416 63.6051 45.3243C65.8905 46.058 67.8505 46.8831 70.308 46.3539C71.659 46.2748 73.1669 44.8679 72.6658 43.3086C71.9352 41.0355 67.3482 41.0037 65.5162 39.6423C62.3524 37.2914 62.4541 33.1908 65.7851 31.187C66.6438 30.6704 67.5384 30.4439 68.4894 30.2568Z" fill="white"/>
<path d="M73.4805 53.2654L73.5307 53.2605C74.6444 53.1537 77.6017 53.222 78.5601 53.9301C78.8608 54.1522 79.0342 54.897 79.0088 55.2992C78.7865 58.2598 77.5488 61.4492 75.3278 63.6131C75.0252 63.9079 74.2883 64.4825 73.8972 64.0843C73.9075 63.4742 74.5815 61.9417 74.8251 61.3278C75.2715 60.3777 76.5218 57.2007 75.9789 56.2921C74.9206 54.5209 67.5584 56.3958 67.0112 55.4493C67.7171 53.9877 71.989 53.3985 73.4805 53.2654Z" fill="white"/>
</svg>
