<svg width="96" height="96" viewBox="0 0 96 96" fill="none" xmlns="http://www.w3.org/2000/svg">
<path d="M49.1967 31.0561C50.4368 30.8689 52.755 31.1844 53.9564 31.4988C58.9037 32.7932 62.966 37.1835 64 42.1331C63.7136 43.2982 62.5788 45.9696 61.9391 46.9778C59.3234 51.1 54.9874 50.3865 50.7388 50.4115L40.2478 50.5131C38.4453 50.5443 36.6033 50.5722 34.802 50.6681C34.5186 50.6833 34.4008 50.7482 34.2179 50.9654C34.1332 51.2728 34.1277 51.1474 34.23 51.4398C34.4288 51.62 34.5714 51.6497 34.8306 51.6529C36.5462 51.6742 38.262 51.6891 39.9776 51.7114L51.62 51.8594C53.3059 51.8763 55.4813 51.8098 57.1209 52.0706C57.5977 52.1464 58.5255 52.9155 58.7961 53.417C59.5933 54.8949 58.9963 56.461 58.5807 57.9447L56.8001 57.948L31.5356 57.9471C27.4059 57.9478 22.2598 58.0842 18.1949 57.9161C18.0993 57.4571 18.0344 57.0895 18.011 56.62C17.8938 54.2717 18.714 51.9727 20.292 50.2263C22.0602 48.2762 24.0773 47.3687 26.683 47.2326C26.5172 45.3354 26.4469 43.8764 27.5515 42.2553C29.8107 38.9399 33.6095 38.4569 36.8358 40.6012C37.797 37.1594 40.2486 34.4789 43.334 32.7312C45.3321 31.5994 46.9357 31.2927 49.1967 31.0561Z" fill="white"/>
<path d="M64.7696 43.0045C65.8069 42.9828 66.9258 43.0357 67.9427 43.238C70.885 43.854 73.4656 45.6195 75.1204 48.1485C77.2585 51.3825 77.3039 54.3059 76.5764 57.9751C72.5688 58.0276 68.4539 57.9805 64.4375 57.9821C62.9583 57.9962 61.4789 57.9868 60 57.9538C60.5149 55.6365 61.6791 54.1212 63.711 52.932C65.8048 51.7064 68.0492 52.0916 70.3629 51.86C70.8271 51.8135 71.2973 51.819 71.6276 51.4463C71.6442 51.3803 71.6908 51.2793 71.6576 51.2196C71.265 50.5159 66.7304 50.5948 65.6601 50.3067C64.9448 50.1142 64.451 49.7335 64.0857 49.0745C63.1084 47.3118 64.2612 44.7788 64.7696 43.0045Z" fill="white"/>
</svg>
