<svg width="96" height="96" viewBox="0 0 96 96" fill="none" xmlns="http://www.w3.org/2000/svg">
<path d="M65.5806 19.5244C66.2555 19.7118 66.64 19.7505 66.9923 20.3996C67.3629 21.0826 67.5184 22.176 67.6757 22.9621C69.2584 28.8083 70.3563 37.3404 70.6347 43.3883C70.6814 44.409 70.6943 45.4311 70.6735 46.4526C70.5867 50.7629 70.1782 53.0987 66.889 56.0736C56.3998 65.5606 42.3295 71.6126 28.2002 72.6417C24.8311 72.8871 21.5416 72.7317 18.1831 72.6535C19.6759 72.254 21.1665 71.8527 22.6478 71.4122C27.7481 69.8952 31.867 67.005 36.1582 64.0124C33.6809 64.3876 32.0424 64.585 29.5127 64.482C42.0084 60.0453 52.1368 43.8458 56.8914 32.1473C57.1201 31.5847 57.348 31.003 57.5726 30.4373C57.7135 31.4665 58.1621 32.9751 58.381 34.1261C59.1917 33.1514 63.5472 23.7066 64.3165 21.9312C64.6547 20.8705 64.8904 20.3929 65.5806 19.5244Z" fill="white"/>
<path d="M65.7337 19.5244C66.3946 19.7129 66.7711 19.7518 67.1161 20.4048C67.4791 21.0918 67.6314 22.1918 67.7854 22.9824C69.3353 28.8633 70.4105 37.446 70.6831 43.5297C70.6591 44.3423 70.6165 44.9662 70.5302 45.7744C70.5651 44.7353 70.3992 40.4739 70.1025 39.6667C69.9673 39.7486 69.5733 39.9933 69.4291 39.9513C66.7145 39.1617 64.1331 37.9992 61.5643 36.8151C60.9586 36.5359 59.8304 35.5786 59.234 35.6527C59.2107 36.8126 60.2201 40.7533 59.8978 41.5826C59.5604 38.7359 59.1897 36.9977 58.6831 34.2126C59.4771 33.2322 63.7424 23.7314 64.4958 21.9454C64.8269 20.8784 65.0578 20.3981 65.7337 19.5244Z" fill="white"/>
<path d="M65.812 19.5244C66.4147 19.7288 66.7581 19.771 67.0727 20.4792C67.4038 21.2241 67.5426 22.417 67.6831 23.2744C67.3863 22.978 67.3461 22.3486 67.2107 22.2731C66.439 21.8426 66.0117 22.0338 65.2539 21.3989L65.2186 21.3689C65.0119 21.6013 64.8526 21.877 64.6831 22.1499C64.9851 20.9928 65.1956 20.4719 65.812 19.5244Z" fill="white"/>
</svg>
