<svg width="96" height="96" viewBox="0 0 96 96" fill="none" xmlns="http://www.w3.org/2000/svg">
<path d="M71.9477 21.8142C72.0079 21.8626 72.1153 21.9437 72.168 21.9928C72.0722 22.6278 72.1225 23.2469 72.0792 23.8686C71.9836 23.9371 71.9226 23.9716 71.8424 24.0579C71.3037 24.086 70.7599 24.1234 70.2212 24.1018L70.2158 25.9746C69.8023 25.969 68.9642 25.94 68.576 25.9737C68.5976 26.4466 68.6179 27.171 68.5578 27.6408C69.0773 27.7013 69.8966 27.6643 70.4513 27.6759C70.4482 28.3231 70.4564 29.0047 70.4404 29.6486C68.0451 29.5116 68.6653 29.5112 68.5798 31.5528C67.7835 31.4932 67.1813 31.5226 66.3864 31.5546C66.3979 32.7003 66.3452 34.1854 66.4036 35.2831C65.9105 35.268 65.4395 35.2564 64.948 35.2111C64.9345 35.5441 64.9254 35.8549 64.9406 36.1884C64.9682 36.7986 64.6317 36.8035 64.1629 36.8832C65.6402 38.1316 67.3646 42.0435 68.127 43.9404C68.7403 45.4663 69.0694 48.3531 69.1412 50.004C69.404 55.2418 67.84 60.4089 64.7143 64.6294C63.7186 65.9684 62.6366 67.1099 61.3271 68.1305C60.6174 68.6835 59.9482 69.3982 59.1748 69.9286C56.5657 71.7182 53.2228 73.0259 50.1062 73.5067C43.808 74.4784 37.4129 73.1635 32.2647 69.3304C28.9472 66.7523 25.9934 63.0326 24.5613 59.076C22.4665 53.2883 22.7372 46.7063 25.3502 41.1364C26.4607 38.7693 27.7251 37.0999 29.5267 35.1959C30.0689 34.623 30.52 33.9322 31.1486 33.4264C32.2523 32.5372 33.5408 31.8105 34.7345 31.0402C37.0286 29.7896 40.0138 28.6535 42.608 28.2801C45.4714 27.9597 48.9553 27.8752 51.7392 28.6857C54.3926 29.4583 57.4243 30.7774 59.6374 32.4238L59.6657 32.4399C59.8151 32.3155 59.6602 31.8483 59.7825 31.5204C60.1751 31.3238 62.1154 31.4091 62.7145 31.3909C62.7738 30.7661 62.7806 30.2626 62.7848 29.6399C62.0355 29.6481 61.5338 29.6033 60.7497 29.6693C60.7174 29.0928 60.7381 28.2688 60.7335 27.6664C61.5004 27.6772 62.2675 27.6791 63.0346 27.672C62.9986 28.2542 63.0207 28.8363 63.0343 29.4193C63.6041 29.4201 64.1739 29.4046 64.743 29.373C64.6958 28.1775 64.7017 26.9974 64.6775 25.8024C65.226 25.7998 65.791 25.7781 66.3406 25.7636C66.3403 25.1551 66.3473 24.5364 66.3159 23.9296C67.4433 23.9035 68.9542 23.9431 70.0198 23.8352C69.9922 23.1243 69.9866 22.5844 70.0069 21.8708C70.4461 21.8527 71.6021 21.9099 71.9477 21.8142ZM61.951 40.4808C61.9253 40.183 61.6885 39.4289 61.6154 39.0666C62.0539 38.9896 62.799 38.9548 63.2649 38.9201C63.3039 38.295 63.3054 37.5016 63.3225 36.8657L64.1629 36.8832C64.6317 36.8035 64.9682 36.7986 64.9406 36.1884C64.9254 35.8549 64.9345 35.5441 64.948 35.2111C65.4395 35.2564 65.9105 35.268 66.4036 35.2831C66.3452 34.1854 66.3979 32.7003 66.3864 31.5546C67.1813 31.5226 67.7835 31.4932 68.5798 31.5528C68.6653 29.5112 68.0451 29.5116 70.4404 29.6486C70.4564 29.0047 70.4482 28.3231 70.4513 27.6759C69.8966 27.6643 69.0773 27.7013 68.5578 27.6408C68.6179 27.171 68.5976 26.4466 68.576 25.9737C68.9642 25.94 69.8023 25.969 70.2158 25.9746L70.2212 24.1018C70.7599 24.1234 71.3037 24.086 71.8424 24.0579C71.9226 23.9716 71.9836 23.9371 72.0792 23.8686C72.1225 23.2469 72.0722 22.6278 72.168 21.9928C72.1153 21.9437 72.0079 21.8626 71.9477 21.8142C71.6021 21.9099 70.4461 21.8527 70.0069 21.8708C69.9866 22.5844 69.9922 23.1243 70.0198 23.8352C68.9542 23.9431 67.4433 23.9035 66.3159 23.9296C66.3473 24.5364 66.3403 25.1551 66.3406 25.7636C65.791 25.7781 65.226 25.7998 64.6775 25.8024C64.7017 26.9974 64.6958 28.1775 64.743 29.373C64.1739 29.4046 63.6041 29.4201 63.0343 29.4193C63.0207 28.8363 62.9986 28.2542 63.0346 27.672C62.2675 27.6791 61.5004 27.6772 60.7335 27.6664C60.7381 28.2688 60.7174 29.0928 60.7497 29.6693C61.5338 29.6033 62.0355 29.6481 62.7848 29.6399C62.7806 30.2626 62.7738 30.7661 62.7145 31.3909C62.1154 31.4091 60.1751 31.3238 59.7825 31.5204C59.6602 31.8483 59.8151 32.3155 59.6657 32.4399L59.6374 32.4238C59.0916 32.673 58.894 32.6483 58.3109 32.6054C58.2643 33.0868 58.1869 33.7117 58.1817 34.1833L58.0792 34.2318C57.2695 34.2105 56.6621 34.1997 55.9045 34.5069C54.7216 33.9906 53.3231 33.3429 52.117 32.9532C47.7764 31.5402 43.0755 31.689 38.8338 33.3737C37.5821 33.8612 36.9736 34.3044 35.876 35.0319C32.4733 37.2874 30.464 39.5171 28.8256 43.2621C26.7272 48.0238 26.6525 53.4284 28.6184 58.2457C31.9749 66.6598 41.5666 71.6094 50.4675 69.5218C51.2549 69.3371 52.1389 68.9248 52.9073 68.643C64.2305 64.4908 68.8254 50.6767 61.951 40.4808Z" fill="white"/>
<path d="M71.951 21.8142C72.0103 21.862 72.1161 21.9422 72.168 21.9908C72.0737 22.6186 72.1232 23.2307 72.0806 23.8454C71.9864 23.9131 71.9263 23.9472 71.8474 24.0326C71.3169 24.0604 70.7813 24.0973 70.2508 24.0759L70.2455 25.9276C69.8383 25.922 69.0129 25.8933 68.6306 25.9266C68.6519 26.3942 68.6719 27.1104 68.6127 27.5749C69.1243 27.6347 69.9311 27.5981 70.4774 27.6096C70.4743 28.2495 70.4825 28.9234 70.4666 29.56C68.1078 29.4246 68.7186 29.4242 68.6343 31.4427C67.8502 31.3838 67.2572 31.4128 66.4744 31.4444C66.4857 32.5772 66.4338 34.0455 66.4913 35.1308C66.0057 35.1159 65.5419 35.1044 65.0578 35.0596C65.0445 35.3888 65.0356 35.6961 65.0505 36.0258C65.0777 36.6291 64.7464 36.6339 64.2846 36.7128L63.4571 36.6955C63.4402 37.3242 63.4387 38.1086 63.4003 38.7267C62.9415 38.761 62.2078 38.7954 61.7759 38.8715C61.8479 39.2297 62.0811 39.9753 62.1064 40.2697C61.719 41.0268 61.0045 40.4978 60.2812 40.7455C60.0456 40.9825 60.1295 42.197 60.0368 42.7572C59.4355 42.7067 58.9733 42.7664 58.3658 42.6353C58.2899 43.1818 58.2888 44.2672 58.2715 44.8632C57.8776 44.8632 57.2933 44.8073 56.8863 44.7801C56.8665 45.4054 56.8608 46.031 56.8691 46.6565C56.3601 46.6299 55.8364 46.622 55.3258 46.6084C55.28 47.1591 55.371 48.1813 55.1861 48.6457C54.8076 49.5751 54.1504 50.35 53.6635 51.2308C52.4046 53.4905 51.3592 55.789 50.1346 58.0664C48.9458 60.28 48.9094 63.6075 45.4096 62.6431C44.5224 62.3955 43.783 61.972 43.3923 61.0895C42.6071 59.3162 41.9511 57.4748 41.0917 55.7316C39.9771 53.5141 38.6482 51.4109 37.1239 49.4522C36.2748 48.3785 35.2142 47.3801 34.4674 46.2386C34.0672 45.6269 34.1127 44.9318 34.344 44.2614C34.3518 44.2545 34.3596 44.2476 34.3673 44.2407C34.441 44.1876 34.6622 43.9742 34.7308 43.9535C38.151 42.9208 44.4304 50.6182 45.7014 52.6305C46.2661 51.4177 46.6853 50.2851 47.3266 49.0724C48.785 46.3149 50.0505 43.4282 51.9158 40.9098C52.1304 40.62 53.0111 40.695 53.3414 40.6994C53.3723 40.056 53.4025 39.4539 53.3943 38.808L54.5307 38.7715C54.4941 38.1819 54.4979 37.6327 54.5003 37.0437L56.4501 37.0209C56.4279 36.2728 56.4924 35.295 56.3514 34.5578C56.3246 34.418 56.2713 34.4216 56.1519 34.3633C56.8979 34.0596 57.4962 34.0703 58.2935 34.0913C58.2034 34.7538 58.22 35.4825 58.2174 36.1555L60.3812 36.1795C60.3692 35.5023 60.3785 34.789 60.3778 34.1091C59.9787 34.1039 58.6687 34.1628 58.3945 34.0435C58.3995 33.5771 58.4758 32.9593 58.5217 32.4834C59.0959 32.5258 59.2905 32.5502 59.828 32.3038L59.8559 32.3197C60.003 32.1968 59.8505 31.7348 59.9709 31.4107C60.3575 31.2163 62.2683 31.3006 62.8583 31.2826C62.9167 30.6649 62.9233 30.1671 62.9276 29.5514C62.1896 29.5595 61.6956 29.5152 60.9234 29.5804C60.8916 29.0105 60.912 28.1958 60.9074 27.6002C61.6627 27.6109 62.4181 27.6128 63.1735 27.6058C63.1381 28.1814 63.1598 28.7569 63.1732 29.3333C63.7344 29.3341 64.2955 29.3188 64.8559 29.2875C64.8095 28.1055 64.8153 26.9388 64.7915 25.7573C65.3316 25.7547 65.888 25.7333 66.4292 25.719C66.429 25.1174 66.4359 24.5056 66.405 23.9057C67.5152 23.8799 69.0031 23.919 70.0525 23.8124C70.0253 23.1095 70.0198 22.5757 70.0397 21.8702C70.4723 21.8523 71.6107 21.9088 71.951 21.8142ZM65.1434 29.592C64.9138 29.9076 65.0634 30.8623 65.1278 31.2677L65.1375 31.3274L66.2737 31.3008C66.4631 30.8588 66.4207 30.0986 66.3642 29.6147C65.9537 29.5921 65.5533 29.5591 65.1434 29.592ZM68.3918 27.7503C67.7885 27.824 67.2801 27.8594 66.6784 27.7701C66.6753 28.1578 66.6957 28.9109 66.6526 29.2575C67.2728 29.23 67.7693 29.2298 68.3906 29.2475C68.3985 28.9154 68.438 28.0349 68.3918 27.7503ZM63.0157 31.4503C62.9546 31.9594 63.0498 32.4652 62.9855 32.9823C63.5888 32.983 64.1636 32.9817 64.7673 33.0171C64.8324 32.549 64.8059 31.9693 64.767 31.4969C64.1 31.4256 63.6886 31.4064 63.0157 31.4503ZM58.3386 38.7415C58.2446 39.1223 58.3078 40.2886 58.3241 40.7289C58.876 40.708 59.4283 40.6969 59.9806 40.6955C60.1938 40.426 60.1426 39.1798 60.1134 38.7882C59.5222 38.7591 58.9305 38.7435 58.3386 38.7415Z" fill="white"/>
<path d="M66.2488 27.7591C66.0304 25.5876 66.1308 25.7953 68.1473 25.8408C68.168 26.3274 68.1875 27.0727 68.1299 27.556L67.9151 27.7385C67.3283 27.8152 66.834 27.852 66.2488 27.7591Z" fill="white"/>
<path d="M72.1822 19.8587C72.6569 19.837 73.6108 19.7503 74.0144 19.9011C74.1849 20.2066 74.2328 21.4648 74.0583 21.7525C73.7647 21.8533 72.7233 21.8208 72.4363 21.7259C72.3909 21.686 72.2984 21.6201 72.2465 21.5808C72.1828 21.0172 72.1461 20.4252 72.1822 19.8587Z" fill="white"/>
<path d="M72.3706 23.8252C72.8166 23.8892 73.5893 23.7835 74.168 23.8236C74.1496 24.4861 74.1482 25.149 74.1636 25.8116C73.5172 25.8116 72.8468 25.8025 72.2022 25.8142C72.1895 25.3213 72.2079 24.4375 72.168 24.0011C72.2366 23.9209 72.2888 23.8888 72.3706 23.8252Z" fill="white"/>
<path d="M75.3867 20.8159C75.8688 20.7962 75.956 20.9532 76.4887 20.9556C76.6145 21.0218 76.5933 21.0736 76.6403 21.1957C76.8116 21.3078 76.9357 21.3301 77.168 21.3805L77.1391 21.4942C76.9248 21.6341 76.6546 21.8621 76.3212 21.7776C76.344 21.6274 76.3626 21.4769 76.3766 21.3262L76.2565 21.2518C75.7874 21.3827 75.775 21.742 75.356 21.8142C75.0003 21.4832 75.2303 21.1665 75.3867 20.8159Z" fill="white"/>
<path d="M75.6617 20.342C75.3879 20.319 75.4855 20.2963 75.283 20.4094C75.2084 20.5603 75.1903 20.5819 75.1753 20.7414C75.0132 19.2636 77.6104 19.753 77.1018 20.8142C77.0284 20.7603 76.8938 20.1475 76.2719 20.1229L76.1763 20.2107C76.2539 20.3968 76.2494 20.35 76.4788 20.4857C76.0839 20.4831 76.0192 20.3217 75.6617 20.342Z" fill="white"/>
</svg>
