<svg width="96" height="96" viewBox="0 0 96 96" fill="none" xmlns="http://www.w3.org/2000/svg">
<path d="M34.7323 28.4764C35.3777 28.4177 36.4977 28.4455 37.1738 28.4454H41.4618C47.7297 28.443 56.333 27.532 59.8518 34.2033C61.1317 36.6299 61.6142 38.7804 61.3249 41.5304C61.0603 44.0467 59.8494 47.2694 57.8461 48.937C53.5814 52.7517 47.6333 52.0718 42.323 52.1471C41.5068 52.1587 34.91 52.2279 34.6242 52.0323C34.4513 51.444 34.7434 28.4527 34.7323 28.4764ZM40.2013 33.5862C40.2793 34.412 40.2397 35.5209 40.2353 36.3725L40.2298 40.62L40.2307 44.8887C40.2308 45.4681 40.2628 46.6301 40.2085 47.1621L45.011 47.168C48.1285 47.1696 50.3473 47.33 53.0994 45.6226C54.3067 44.8092 55.2828 43.1259 55.4972 41.6967C55.7415 40.0688 55.6111 37.7877 54.6465 36.3873C52.5724 33.3758 48.3705 33.487 45.1157 33.5129C43.7861 33.5235 42.4398 33.5015 41.1047 33.5482L40.2013 33.5862Z" fill="white"/>
<path d="M34.7846 57.1538C36.5372 57.0874 38.4227 57.1275 40.1827 57.1484C40.3539 60.4146 40.2949 63.8926 40.2015 67.1779C40.1959 67.3746 40.1808 67.4169 40.0421 67.5358C39.2068 67.5337 35.2734 67.6186 34.7353 67.4274C34.6204 67.2721 34.6042 66.7155 34.6067 66.5129C34.6434 63.5148 34.6032 60.5151 34.6426 57.5173C34.6444 57.3774 34.7029 57.2634 34.7846 57.1538Z" fill="white"/>
</svg>
