<svg width="96" height="96" viewBox="0 0 96 96" fill="none" xmlns="http://www.w3.org/2000/svg">
<path d="M47.6664 21.8369C50.3021 21.6861 51.8771 22.9056 54.0688 24.1328C55.5408 24.9569 56.9717 25.8478 58.433 26.6865C60.744 27.9957 63.0458 29.321 65.3383 30.6621C68.328 32.3807 71.7673 33.7846 71.9457 37.7559C71.995 38.8519 71.9803 39.9381 71.978 41.0342L71.976 47.3652L71.978 54.8857C71.9781 56.2902 72.077 58.12 71.853 59.4853C71.3383 62.6206 68.6134 63.8666 66.2084 65.2607L60.1489 68.7529L53.1313 72.7754C51.1427 73.9046 51.0507 74.2508 48.7319 74.583C46.3461 74.8831 43.9961 73.2267 42.0278 72.085L35.9428 68.5566L30.3715 65.3437C27.9857 63.9744 25.4173 62.8412 24.7094 59.9346C24.3815 58.5881 24.494 56.6541 24.4975 55.2441L24.5024 48.75L24.4946 41.3086C24.4927 37.0771 24.1261 34.5757 28.353 32.1758C31.5659 30.3516 34.8146 28.4551 38.0287 26.6211L42.3969 24.0928C44.2566 23.0059 45.4778 22.1067 47.6664 21.8369ZM47.9047 35.4473C47.4184 35.654 45.8329 36.4723 45.4487 36.7529C43.949 37.8487 37.7439 40.7646 36.9936 41.9355C36.8876 42.6299 36.9243 45.552 36.9389 46.4287C36.9827 49.072 36.8706 51.8997 36.9565 54.5195C37.1604 54.7424 37.4094 54.9678 37.6694 55.1269C39.9297 56.5111 42.2654 57.777 44.5483 59.125C45.4653 59.6665 46.391 60.2125 47.3334 60.707C47.6803 60.889 48.0717 61.0715 48.4672 60.9873C49.1744 60.7223 52.4217 58.828 53.1977 58.3486C54.9379 57.2735 57.66 55.919 59.269 54.7852C59.3452 54.5118 59.4488 54.1389 59.4565 53.8574C59.5362 50.9504 59.478 48.0338 59.4907 45.125C59.4955 44.0317 59.5619 42.7167 59.2856 41.666C58.3829 41.0126 57.3428 40.4154 56.3569 39.8691C53.8012 38.4528 51.3153 36.8497 48.7075 35.5381C48.4611 35.4142 48.1733 35.4065 47.9047 35.4473ZM48.8862 38.0957C49.7509 38.5097 50.6967 39.1076 51.5405 39.584C53.4778 40.6777 55.4056 41.8887 57.3705 42.9248L57.3686 52.7217C56.2943 52.2667 54.5543 51.0304 53.3393 50.4268C53.3741 48.9575 53.3256 47.4836 53.3735 45.998C51.9591 46.697 50.1979 47.8006 48.768 48.5967C48.7114 50.2048 48.8658 52.4073 48.7299 53.9434C49.824 53.4754 51.7824 52.2063 52.9565 51.5771C53.1517 51.7059 53.4123 51.8496 53.6186 51.9707C54.6299 52.5839 55.7045 53.2139 56.6909 53.8574C54.0547 55.3647 50.6442 57.1837 48.1791 58.8076C47.3979 58.1909 45.7952 57.3361 44.8637 56.8066C43.1533 55.8133 41.4314 54.8396 39.6987 53.8857C40.478 53.3609 42.7289 51.967 43.5356 51.6143C44.8975 52.412 46.2188 53.2576 47.6362 53.956C47.5683 52.3345 47.6261 50.2706 47.6254 48.6152C46.7292 48.0316 44.0571 46.5214 43.0727 45.998C43.0703 47.4325 43.0363 49.0111 43.101 50.4326C41.7702 51.1593 40.3224 52.1369 39.0385 52.7881C39.0885 51.6949 39.0473 50.2687 39.0473 49.1553C39.0571 47.0832 39.0504 45.0104 39.0268 42.9385C40.8903 41.8917 42.7445 40.8281 44.5883 39.7471C45.4951 39.2247 46.4967 38.5974 47.4321 38.1562L47.5053 38.1826C47.6117 38.4366 47.5682 42.1773 47.5688 42.7734C46.2948 43.5597 44.913 44.2573 43.6078 45.0635C44.3405 45.5671 47.4591 47.3775 48.1762 47.7051C48.8076 47.4601 52.3168 45.4561 52.767 45.0381C51.5533 44.309 50.1102 43.4814 48.8666 42.8066C48.8496 41.2365 48.8561 39.6656 48.8862 38.0957Z" fill="white"/>
</svg>
