<svg width="96" height="96" viewBox="0 0 96 96" fill="none" xmlns="http://www.w3.org/2000/svg">
<path d="M40.3634 23.2207C44.4952 22.7052 49.267 25.1802 51.6134 28.4531C52.2656 29.363 52.7796 30.278 53.3116 31.2588C54.3697 30.5569 55.3129 30.0717 56.6163 29.9795C58.1062 29.8816 59.5739 30.3772 60.6896 31.3545C62.0943 32.5691 62.7846 34.3713 62.9083 36.1748L62.9864 36.1953C69.0714 37.8262 72.1208 43.0589 69.7374 49.0059C69.3262 50.0319 68.3536 51.3947 67.3702 51.9424C67.2922 52.9583 67.2999 53.9846 67.2941 55.0039C68.3908 55.0055 69.4594 54.9661 70.5362 55.1621C70.722 56.2619 70.6852 62.372 70.5509 63.4326C69.6101 63.6348 63.4896 63.5412 62.1515 63.5342C62.1462 65.1357 62.1641 66.7363 62.1876 68.3379C62.1958 68.8977 62.2362 69.5606 61.839 70.0146C61.6804 70.1802 61.2834 70.3511 61.0441 70.3555C59.2177 70.3882 57.1202 70.3591 55.3126 70.3555C54.038 70.3621 49.3606 70.5848 48.5275 69.999C48.2019 69.4906 48.3375 67.6797 48.3536 66.9941C43.8532 69.321 39.033 69.1555 34.7999 66.2305C31.0749 63.6565 29.0281 58.367 31.2921 54.208C29.9435 54.2319 28.9373 54.2868 27.6818 53.6992C25.6234 52.7361 23.8355 50.4568 23.1417 48.3574C22.4376 46.2267 22.4647 42.9346 23.5411 40.9023C24.7671 38.5878 26.4344 37.3194 28.8898 36.501C28.5717 29.6304 33.4259 24.0501 40.3634 23.2207ZM50.4181 68.9014C53.6529 68.8533 56.9115 68.8964 60.1495 68.875L60.1642 63.6758C57.1975 63.6731 53.3136 63.7972 50.4142 63.6523L50.4181 68.9014ZM38.6749 39.6523C38.8178 40.1263 39.0759 40.5773 39.2589 41.0449C40.007 42.9576 40.3892 44.9006 39.8546 46.9199C39.6242 47.7899 39.5527 49.2108 38.6495 49.6641C37.7512 49.7971 36.9667 48.2668 36.4484 47.625C35.6363 46.6196 35.0448 46.1033 33.9718 45.3926C34.7797 47.1757 34.8626 50.5711 34.1368 52.4492C33.7926 53.3399 33.2782 54.2268 32.9444 55.1104C31.1548 59.8473 34.1014 64.356 38.6573 65.9844C41.3685 66.9535 43.9491 66.8589 46.5519 65.7549C47.1385 65.4346 47.7785 65.068 48.3712 64.7725C48.3867 64.2927 48.412 63.7819 48.4122 63.3047C47.5277 63.3085 45.0184 63.4435 44.4181 63.0332C44.0445 62.2977 43.8971 55.0866 44.6554 54.9814C47.075 54.6459 50.1219 54.8615 52.6222 54.8242C52.6241 53.6658 52.5362 50.5408 52.6642 49.5127C51.9228 50.9152 51.0418 52.1763 49.4757 52.75C47.7566 53.3797 48.0227 50.5042 47.8585 49.5127C47.0081 44.3793 43.3787 41.3504 38.6749 39.6523ZM58.67 62.1523L69.1485 62.1396L69.1642 56.9063L58.6642 56.9023L58.67 62.1523ZM45.9142 56.9053L45.9171 62.1514C49.5671 62.1508 53.5297 62.0666 57.1515 62.1514C57.1551 60.4101 57.1422 58.6408 57.1642 56.9023L45.9142 56.9053ZM54.1681 54.6416L61.6466 54.6426C62.749 54.6428 64.3369 54.6001 65.4083 54.6523L65.4142 50.1621C61.7709 50.1615 57.7769 50.2357 54.1642 50.1523L54.1681 54.6416ZM51.2325 30.7656C49.4396 27.2256 44.8305 24.1425 40.7589 24.7227C37.8665 25.095 35.2524 26.2922 33.504 28.6826C31.2428 31.7744 31.0336 33.8812 31.1017 37.4746C28.6308 38.4283 26.6718 39.0346 25.5499 41.6982C24.0227 45.3243 25.271 50.3423 29.0245 52.0449C30.045 52.5078 31.5104 52.3933 32.6202 52.3809C33.1113 50.188 33.2038 48.5364 32.6378 46.3301C32.4815 45.7211 31.6502 43.9336 32.3517 43.6445C34.6072 42.7177 37.0603 45.526 38.3155 47.0234C38.6697 44.0277 38.493 42.0001 36.5724 39.458C36.2345 39.0108 35.6255 38.4703 35.4278 38.0059C35.566 37.5988 35.8289 37.466 36.2032 37.2285C39.1257 37.6415 42.3085 38.958 44.6095 40.8252C47.6743 43.6167 49.5103 46.5068 49.8585 50.8105C50.1489 50.4981 50.5417 50.0641 50.6993 49.6807C51.4234 47.9181 51.6929 45.0942 53.9112 48.0918C56.8425 48.2949 59.9671 48.0173 62.923 48.1309C64.0146 48.1728 66.0113 47.8011 66.8634 48.5645C67.1154 48.7903 66.9755 49.3924 67.2394 49.4766C67.9304 48.8036 68.375 46.1495 68.4093 45.1221C68.5579 40.6487 65.1902 38.1154 61.1046 37.4414C60.8687 35.3694 61.0858 33.7922 59.2091 32.2998C58.0206 31.3548 56.3226 31.2598 54.964 31.9961C54.3926 32.3469 53.2307 34.0225 52.4659 33.292C51.9602 32.8083 51.5867 31.465 51.2325 30.7656Z" fill="white"/>
</svg>
