<svg width="96" height="96" viewBox="0 0 96 96" fill="none" xmlns="http://www.w3.org/2000/svg">
<path d="M21.5641 38.9963C23.0381 34.1625 24.7627 29.3016 26.2971 24.4674C26.97 22.3472 27.728 19.9272 28.5197 17.8548C28.6788 17.438 29.066 17.1367 29.5045 17C30.4418 17.0674 30.8655 17.9532 31.1221 18.7643C32.7767 23.9964 34.6001 29.1724 36.1659 34.4332C36.5804 35.826 37.3049 37.4506 37.565 38.8364L37.7033 38.9324C45.058 38.9237 52.9848 38.7872 60.3129 38.9418L60.3884 38.9106C60.5568 38.6935 61.3997 35.8134 61.5345 35.3826L65.5191 23.0183C66.0958 21.2662 66.6266 19.3351 67.3875 17.654C67.8364 16.6622 68.61 16.986 69.3107 17.4769C69.9313 18.6376 71.3752 23.4686 71.8919 25.0291L74.8161 33.9443C75.2903 35.3852 76.0527 37.5034 76.4314 38.9025L76.4406 39.031C76.7602 39.6906 76.9624 40.5033 77.1858 41.2193C77.9848 43.7811 78.8333 46.3117 79.656 48.8668C79.7932 49.2929 80.0687 50.3579 79.9842 50.8425C79.3743 52.28 77.0307 53.6706 75.7843 54.5637C74.0857 55.7782 72.3944 57.0028 70.7105 58.2373L51.2585 72.2034C50.7507 72.5934 50.148 73.0804 49.6137 73.4108L48.9837 74L48.2937 73.3194C47.5336 72.899 44.705 70.7656 43.8658 70.1631C40.6451 67.8946 37.448 65.5932 34.275 63.2592L24.6016 56.2671C22.7469 54.9374 20.8529 53.6471 19.0585 52.2383C18.3418 51.6756 17.8332 50.9415 18.0508 49.9956C18.58 47.8992 19.3045 45.8007 19.9968 43.7473C20.4974 42.2625 20.952 40.4059 21.5641 38.9963Z" fill="#ECE8E6"/>
<path d="M21.5181 38.8716C22.973 34.0652 24.6754 29.2318 26.1899 24.4251C26.8542 22.3169 27.6024 19.9106 28.3838 17.8499C28.5409 17.4355 28.9231 17.1359 29.3559 17C30.2811 17.067 30.6993 17.9478 30.9526 18.7542C32.5858 23.9568 34.3857 29.1034 35.9312 34.3344C36.3404 35.7193 37.0555 37.3346 37.3123 38.7126L37.4488 38.808C37.9245 40.8558 39.2408 44.5349 39.9163 46.598L45.0922 62.6238C45.7258 64.5784 46.3683 66.5376 47.0081 68.4893C47.3435 69.5123 48.3072 72.0176 47.9024 73C47.1522 72.582 44.3601 70.4607 43.5317 69.8616C40.3526 67.606 37.1968 65.3176 34.0648 62.9969L24.5163 56.0445C22.6856 54.7222 20.8161 53.4393 19.0448 52.0384C18.3374 51.4789 17.8353 50.749 18.0502 49.8085C18.5725 47.724 19.2876 45.6374 19.971 43.5956C20.4652 42.1193 20.9138 40.2732 21.5181 38.8716Z" fill="#CFCFCF"/>
<path d="M22 38.8349C23.4739 34.0366 25.1985 29.2113 26.7328 24.4126C27.4056 22.308 28.1636 19.9057 28.9552 17.8485C29.1143 17.4348 29.5015 17.1357 29.94 17C30.8772 17.0669 31.3009 17.9462 31.5574 18.7513C33.2119 23.9451 35.0352 29.0831 36.601 34.3053C37.0155 35.6879 37.7399 37.3005 38 38.6761C37.3509 38.8027 35.0272 38.76 34.2169 38.7628L27.6004 38.7903C26.1543 38.7984 23.7921 38.8006 22.3703 39L22 38.8349Z" fill="white"/>
<path d="M38 39.0637C45.1564 39.055 52.8695 38.9191 60 39.073C59.2024 41.9646 58.1972 44.9307 57.2834 47.8003L52.3533 63.1965C51.8549 64.7552 49.1256 72.3666 49.5893 73.413L48.9763 74L48.3048 73.3219C48.7039 72.3376 47.7539 69.8275 47.4233 68.8024C46.7926 66.847 46.1592 64.8839 45.5347 62.9255L40.4323 46.8687C39.7665 44.8017 38.4689 41.1155 38 39.0637Z" fill="white"/>
<path d="M76.4499 39C76.7687 39.6561 76.9704 40.4647 77.1932 41.1769C77.9901 43.7255 78.8364 46.2428 79.6569 48.7846C79.7937 49.2086 80.0685 50.268 79.9842 50.7501C79.3759 52.1802 77.0385 53.5636 75.7954 54.452C74.1012 55.6602 72.4144 56.8784 70.735 58.1065L51.3341 72C51.1023 71.9346 51.1861 71.9791 51.0181 71.7889C50.7964 71.0221 52.6701 69.0068 53.1915 68.3555L56.9145 63.6745L72.3456 44.035C72.9402 43.2805 75.9759 39.1499 76.4499 39Z" fill="white"/>
<path d="M21.5501 39C21.2313 39.6561 21.0296 40.4647 20.8068 41.1769C20.0099 43.7255 19.1636 46.2428 18.3431 48.7846C18.2063 49.2086 17.9315 50.268 18.0158 50.7501C18.6241 52.1802 20.9615 53.5636 22.2046 54.452C23.8988 55.6602 25.5856 56.8784 27.265 58.1065L46.6659 72C46.8977 71.9346 46.8139 71.9791 46.9819 71.7889C47.2036 71.0221 45.3299 69.0068 44.8085 68.3555L41.0855 63.6745L25.6544 44.035C25.0598 43.2805 22.0241 39.1499 21.5501 39Z" fill="#F2F2F2"/>
<path d="M60 38.8743C60.1679 38.6574 61.0086 35.781 61.143 35.3507L65.117 23.0024C65.6921 21.2526 66.2215 19.324 66.9803 17.645C67.428 16.6546 68.1995 16.978 68.8984 17.4681C69.5173 18.6274 70.9573 23.4522 71.4727 25.0106L74.389 33.9143C74.8619 35.3534 75.6223 37.4689 76 38.8661C75.6714 39.0958 74.3249 38.9628 73.8586 38.9515C72.8365 38.9304 71.8143 38.9266 70.7923 38.9401C67.7563 38.9524 62.8738 39.0857 60 38.8743Z" fill="white"/>
</svg>
