<svg width="96" height="96" viewBox="0 0 96 96" fill="none" xmlns="http://www.w3.org/2000/svg">
<path d="M40.0402 28.3916C39.9778 26.5576 39.9757 24.6698 40.0394 22.8277C40.1481 22.065 39.7798 19.8792 40.5109 19.4677C41.31 19.018 42.5118 18.459 43.3197 18.0657C44.366 17.5563 47.2357 15.7144 48.3407 15.8811C48.9811 16.0676 49.6143 16.3205 50.2182 16.6026C51.2566 17.0876 52.2178 17.7334 53.2421 18.247C53.9652 18.6097 54.7683 18.8505 55.4712 19.2432C55.6894 19.365 55.9113 19.4965 56.0342 19.7223C56.4781 20.5376 56.2996 25.5593 56.2601 26.7801C56.2436 27.2899 56.118 27.898 56.1756 28.3939C57.4823 28.0588 66.9603 25.1938 67.5318 25.4602C68.0929 25.6702 68.6654 25.8713 69.2124 26.1162C69.8287 26.3921 70.3907 26.7726 70.9974 27.0679C72.1367 27.6225 73.4076 28.1049 74.4821 28.7743C74.6239 28.8626 74.7391 28.9606 74.8141 29.113C75.4509 30.4078 74.9698 41.9752 74.9961 44.3589C74.8714 44.378 74.3677 44.465 74.2715 44.4671C73.3884 44.5193 72.5334 44.4935 71.65 44.4945C68.4493 44.4981 65.2615 44.8677 62.0586 44.8299C60.8741 44.8051 59.6905 44.7508 58.5088 44.6671C58.1756 44.645 56.5449 44.5132 56.3005 44.5511C56.3441 46.9823 56.2746 49.4183 56.3339 51.8621C56.7976 51.982 59.6862 51.6812 60.5236 51.712C63.6744 51.8282 66.8885 51.6621 70.0461 51.8169C70.9359 51.8524 71.7669 52.1335 72.6907 52.1587C73.2851 52.1582 74.328 51.9762 74.7496 52.1658C75.3033 52.9351 75.0592 59.4136 75.062 60.82L75.0604 64.6746C75.0617 65.1719 75.2026 67.3807 74.7528 67.6117C73.3673 68.3235 72.0088 69.1149 70.6016 69.7837C69.6983 70.2263 68.628 70.5837 67.7613 71.0553C67.6359 71.1044 67.3008 71.1877 67.1555 71.2282C66.3075 70.9836 65.4801 70.6966 64.6336 70.4545C63.3267 70.0092 61.6878 69.8635 60.4104 69.4052C59.0959 68.9336 57.443 68.6739 56.2176 68.1448C56.267 69.5352 56.5301 75.859 56.0727 76.8535C53.9381 77.6389 52.1117 78.8681 50.0042 79.7107C49.388 79.957 48.85 80.3746 48.1862 80.5387C47.7533 80.6117 45.4669 79.2911 44.8871 79.0054C43.4636 78.3039 41.4692 77.5429 40.1777 76.6405C39.9427 76.2127 40.0562 74.3906 39.9952 73.6706L39.9875 72.3672C40.0365 71.7808 40.1809 68.5609 39.9276 68.2149C39.5241 68.4614 38.6478 68.6523 38.1673 68.7963C36.1323 69.4058 34.1073 69.9199 32.0236 70.3309C31.0538 70.5222 30.0997 71.008 29.0858 71.1681C28.8988 71.1605 28.5576 71.1487 28.3926 71.0687C26.6948 70.246 24.9733 69.426 23.323 68.5131C22.6924 68.1642 21.7949 67.87 21.2339 67.489C21.1731 67.1865 21.2083 64.2016 21.2075 63.6393C21.1665 59.8474 21.1916 56.055 21.2828 52.2639C21.6659 52.2217 22.0678 52.1674 22.4516 52.1653C23.2874 52.0305 24.1639 51.892 25.0077 51.8217C25.8337 51.753 26.793 51.8822 27.6078 51.8444C31.1923 51.678 34.9072 51.6356 38.4807 51.9629C38.66 51.9793 39.7989 52.1082 39.9368 52.1527L40.0114 52.0657C40.0937 51.7005 40.1362 44.6458 40.0547 44.5042L39.7841 44.4851C36.9277 44.873 33.0599 44.7693 30.1803 44.685C29.6833 44.6704 28.104 44.6363 27.6689 44.5631C26.2914 44.6204 24.8376 44.4952 23.4532 44.5061C22.725 44.5119 21.9476 44.493 21.2204 44.4508C21.1679 43.8355 21.2125 42.7098 21.2114 42.0479L21.2057 37.1337L21.1987 32.4394C21.1981 31.3401 21.0381 29.6999 21.5908 28.7826C22.2849 28.3139 28.0768 25.5111 28.8138 25.3983C29.821 25.5395 31.2057 25.8491 32.1934 26.1625C33.6996 26.6406 35.1609 27.047 36.7118 27.3752C37.3061 27.5009 37.944 27.811 38.5375 27.9633C38.9704 28.1044 39.6587 28.2113 40.0402 28.3916Z" fill="white"/>
<path d="M40.0402 28.3916C39.9778 26.5576 39.9757 24.6698 40.0394 22.8277C40.1481 22.065 39.7798 19.8792 40.5109 19.4677C41.31 19.018 42.5118 18.459 43.3197 18.0657C44.366 17.5563 47.2357 15.7144 48.3407 15.8811C48.2329 15.9437 48.156 15.957 48.1524 16.0754C48.1103 17.4529 48.0953 19.2506 48.0887 20.5994L48.0832 36.6654L48.0834 66.1934L48.0842 75.1302C48.0847 76.5937 48.0335 79.1594 48.1862 80.5387C47.7533 80.6117 45.4669 79.2911 44.8871 79.0054C43.4636 78.3039 41.4692 77.5429 40.1777 76.6405C39.9427 76.2127 40.0562 74.3906 39.9952 73.6706L39.9875 72.3672C40.0365 71.7808 40.1809 68.5609 39.9276 68.2149C39.5241 68.4614 38.6478 68.6523 38.1673 68.7963C36.1323 69.4058 34.1073 69.9199 32.0236 70.3309C31.0538 70.5222 30.0997 71.008 29.0858 71.1681C28.8988 71.1605 28.5576 71.1487 28.3926 71.0687C26.6948 70.246 24.9733 69.426 23.323 68.5131C22.6924 68.1642 21.7949 67.87 21.2339 67.489C21.1731 67.1865 21.2083 64.2016 21.2075 63.6393C21.1665 59.8474 21.1916 56.055 21.2828 52.2639C21.6659 52.2217 22.0678 52.1674 22.4516 52.1653C23.2874 52.0305 24.1639 51.892 25.0077 51.8217C25.8337 51.753 26.793 51.8822 27.6078 51.8444C31.1923 51.678 34.9072 51.6356 38.4807 51.9629C38.66 51.9793 39.7989 52.1082 39.9368 52.1527L40.0114 52.0657C40.0937 51.7005 40.1362 44.6458 40.0547 44.5042L39.7841 44.4851C36.9277 44.873 33.0599 44.7693 30.1803 44.685C29.6833 44.6704 28.104 44.6363 27.6689 44.5631C26.2914 44.6204 24.8376 44.4952 23.4532 44.5061C22.725 44.5119 21.9476 44.493 21.2204 44.4508C21.1679 43.8355 21.2125 42.7098 21.2114 42.0479L21.2057 37.1337L21.1987 32.4394C21.1981 31.3401 21.0381 29.6999 21.5908 28.7826C22.2849 28.3139 28.0768 25.5111 28.8138 25.3983C29.821 25.5395 31.2057 25.8491 32.1934 26.1625C33.6996 26.6406 35.1609 27.047 36.7118 27.3752C37.3061 27.5009 37.944 27.811 38.5375 27.9633C38.9704 28.1044 39.6587 28.2113 40.0402 28.3916Z" fill="#E0DFDC"/>
<path d="M22.4517 52.1653C23.2875 52.0305 24.164 51.892 25.0077 51.8217C25.8338 51.753 26.793 51.8822 27.6079 51.8444C31.1923 51.678 34.9072 51.6356 38.4808 51.9629C38.66 51.9793 39.7989 52.1083 39.9369 52.1527L40.0114 52.0657C40.0894 52.5413 40.082 55.7665 40.0677 56.4361C39.2859 56.4823 34.4645 56.9515 34.1173 57.2093L34.0503 57.4033C33.6216 57.3759 33.4253 57.3352 33.0132 57.2449L33.011 61.9588C33.0112 62.729 32.9798 63.938 33.048 64.6752C34.0589 65.0658 35.3518 65.4392 36.4149 65.7898C37.3858 66.11 39.1033 66.7616 40.0541 66.95C40.06 67.2304 40.1042 67.9855 40.0119 68.1974L39.9277 68.2149C39.5242 68.4614 38.6479 68.6524 38.1673 68.7963C36.1324 69.4058 34.1074 69.92 32.0236 70.3309C31.0538 70.5223 30.0998 71.008 29.0858 71.1681C28.8988 71.1606 28.5577 71.1487 28.3926 71.0687C26.6949 70.2461 24.9733 69.426 23.323 68.5131C22.6925 68.1642 21.795 67.87 21.2339 67.489C21.1732 67.1865 21.2084 64.2017 21.2075 63.6394C21.1666 59.8474 21.1917 56.055 21.2828 52.2639C21.666 52.2217 22.0679 52.1674 22.4517 52.1653Z" fill="white"/>
<path d="M21.2828 52.2639C21.666 52.2217 22.0679 52.1674 22.4517 52.1653C23.2865 52.4695 27.5869 52.9195 28.7266 52.9877C28.812 54.219 28.7363 56.1514 28.7353 57.4429L28.734 66.2112C28.733 67.5928 28.6977 69.0095 28.7673 70.3908C28.7852 70.7473 28.8346 70.9165 29.0858 71.1682C28.8988 71.1606 28.5577 71.1487 28.3926 71.0687C26.6949 70.2461 24.9733 69.426 23.323 68.5131C22.6925 68.1642 21.795 67.87 21.2339 67.489C21.1732 67.1865 21.2084 64.2017 21.2075 63.6394C21.1666 59.8474 21.1917 56.055 21.2828 52.2639Z" fill="#E0DFDC"/>
<path d="M22.4517 52.1653C23.2875 52.0305 24.164 51.892 25.0077 51.8217C25.8338 51.753 26.793 51.8822 27.6079 51.8444C31.1923 51.678 34.9072 51.6356 38.4808 51.9629C38.66 51.9793 39.7989 52.1083 39.9369 52.1527C38.98 52.5844 37.7228 52.5582 36.668 52.6232C34.7344 52.7464 32.7986 52.8324 30.8617 52.8811C30.4856 52.8929 28.9637 52.917 28.7266 52.9877C27.5869 52.9195 23.2866 52.4694 22.4517 52.1653Z" fill="white"/>
<path d="M21.5908 28.7826C22.2849 28.314 28.0768 25.5111 28.8138 25.3984C29.821 25.5396 31.2057 25.8491 32.1934 26.1626C33.6996 26.6406 35.1609 27.0471 36.7118 27.3753C37.3061 27.501 37.944 27.8111 38.5375 27.9634C38.9704 28.1045 39.6587 28.2114 40.0402 28.3916C40.0526 28.7495 40.0711 29.1093 40.0545 29.4667C38.02 30.3848 35.1543 31.1582 33.0079 31.8848C32.9764 34.1905 32.9139 37.0735 33.0345 39.3518C33.34 39.4542 33.6146 39.5699 33.9371 39.5533C35.6817 39.5675 37.6162 39.9945 39.4458 40.0002C39.6748 40.0812 39.8122 40.0717 40.0536 40.0766C40.0585 40.6366 40.1621 43.9008 39.9562 44.1455L39.4961 44.1969L39.7499 44.3169L39.7841 44.4852C36.9277 44.8731 33.0599 44.7694 30.1803 44.6851C29.6833 44.6705 28.104 44.6364 27.6689 44.5632C26.2914 44.6205 24.8376 44.4952 23.4532 44.5062C22.725 44.512 21.9476 44.4931 21.2204 44.4509C21.1679 43.8356 21.2125 42.7099 21.2114 42.048L21.2057 37.1338L21.1987 32.4395C21.1981 31.3402 21.0381 29.6999 21.5908 28.7826Z" fill="white"/>
<path d="M21.5908 28.7826C22.2849 28.314 28.0768 25.5111 28.8138 25.3984C28.6733 26.0007 28.7022 43.31 28.7967 43.5609C28.3242 43.9749 28.4265 43.1539 27.9055 44.2843C28.0343 44.4686 28.1849 44.5005 28.4111 44.5159C28.1907 44.526 27.8785 44.5313 27.6689 44.5632C26.2914 44.6205 24.8376 44.4952 23.4532 44.5062C22.725 44.512 21.9476 44.4931 21.2204 44.4509C21.1679 43.8356 21.2125 42.7099 21.2114 42.048L21.2057 37.1338L21.1987 32.4395C21.1981 31.3402 21.0381 29.6999 21.5908 28.7826Z" fill="#E0DFDC"/>
<path d="M28.7967 43.5609C30.5029 43.8199 32.4842 43.9257 34.2242 44.0332C35.6231 44.1197 38.103 44.3085 39.4961 44.1969L39.75 44.3168L39.7841 44.4852C36.9277 44.8731 33.0599 44.7694 30.1804 44.6851C29.6833 44.6705 28.104 44.6364 27.6689 44.5631C27.8785 44.5313 28.1907 44.526 28.4112 44.5159C28.185 44.5005 28.0344 44.4686 27.9055 44.2843C28.4265 43.1539 28.3242 43.9748 28.7967 43.5609Z" fill="white"/>
<path d="M34.0503 57.4033L34.1173 57.2093C34.4644 56.9514 39.2859 56.4822 40.0677 56.436C40.0661 57.0726 40.0806 57.7929 40.0479 58.4223C38.0523 58.1193 36.0214 57.635 34.0503 57.4033Z" fill="white"/>
<path d="M33.937 39.5533C34.3339 38.8487 38.7453 38.9301 39.7977 37.934L39.876 37.9823C40.031 38.6891 40.2577 39.2317 39.9932 39.8698C39.7744 40.0478 39.7933 39.9898 39.4458 40.0002C37.6162 39.9945 35.6816 39.5675 33.937 39.5533Z" fill="#CACACC"/>
<path d="M56.3343 51.8621C56.7979 51.9821 59.6866 51.6812 60.524 51.7121C63.6748 51.8282 66.8889 51.6622 70.0465 51.8169C70.9363 51.8525 71.7673 52.1335 72.6911 52.1588C73.2854 52.1582 74.3284 51.9762 74.75 52.1659C75.3037 52.9352 75.0596 59.4136 75.0624 60.82L75.0608 64.6746C75.062 65.1719 75.2029 67.3807 74.7532 67.6118C73.3676 68.3235 72.0092 69.1149 70.602 69.7837C69.6987 70.2263 68.6284 70.5837 67.7617 71.0553C67.6363 71.1045 67.3012 71.1877 67.1559 71.2282C66.3078 70.9837 65.4805 70.6967 64.634 70.4546C63.3271 70.0092 61.6882 69.8635 60.4108 69.4052C59.0963 68.9336 57.4433 68.6739 56.2179 68.1449C56.2364 67.7727 56.2197 67.2573 56.2189 66.8741C57.2917 66.8159 61.9457 65.1567 63.1759 64.725C63.322 63.9394 63.2565 61.5191 63.2643 60.6323C63.2708 59.8978 63.3074 57.9166 63.2251 57.2677C63.065 57.1048 63.0832 57.1574 62.7827 57.146C62.3964 57.0593 61.5258 57.0084 61.0948 56.9495C59.7109 56.7602 58.245 56.6508 56.8709 56.4197C56.7205 56.3891 56.4507 56.3623 56.2893 56.3414C56.1545 56.1314 56.1531 52.6132 56.3456 52.4006L56.266 52.3237C56.2129 52.0923 56.1952 52.0437 56.2554 51.8027L56.3343 51.8621Z" fill="#E0DFDC"/>
<path d="M72.691 52.1588C73.2854 52.1582 74.3283 51.9762 74.7499 52.1659C75.3036 52.9352 75.0595 59.4136 75.0623 60.82L75.0607 64.6746C75.062 65.1719 75.2029 67.3807 74.7531 67.6118C73.3676 68.3236 72.0091 69.1149 70.6019 69.7837C69.6986 70.2264 68.6283 70.5838 67.7616 71.0553C67.7216 71.0378 67.6941 71.0284 67.6583 70.9999C67.4016 70.7948 67.5198 58.3053 67.5212 56.6717C67.5224 55.4843 67.6559 54.1573 67.4658 52.9923C67.8416 52.8719 70.4319 52.791 71.1129 52.661C71.8973 52.5113 72.1409 52.2749 72.691 52.1588Z" fill="white"/>
<path d="M56.334 51.8621C56.7976 51.9821 59.6863 51.6812 60.5237 51.7121C63.6745 51.8282 66.8886 51.6622 70.0462 51.8169C70.936 51.8525 71.767 52.1335 72.6908 52.1588C72.1407 52.2749 71.8971 52.5113 71.1127 52.661C70.4317 52.791 67.8413 52.8719 67.4656 52.9923C63.7939 52.7984 59.9851 52.6564 56.3453 52.4006L56.2657 52.3237C56.2126 52.0923 56.1949 52.0437 56.2551 51.8027L56.334 51.8621Z" fill="white"/>
<path d="M56.1758 28.394C57.4825 28.0589 66.9605 25.1939 67.532 25.4602C68.0931 25.6702 68.6656 25.8713 69.2126 26.1162C69.8289 26.3921 70.3909 26.7727 70.9976 27.068C72.1369 27.6225 73.4078 28.1049 74.4823 28.7744C74.6241 28.8627 74.7393 28.9606 74.8143 29.113C75.4511 30.4079 74.97 41.9752 74.9963 44.3589C74.8716 44.3781 74.3679 44.465 74.2717 44.4671C73.3886 44.5194 72.5336 44.4936 71.6502 44.4946C68.4495 44.4982 65.2617 44.8677 62.0588 44.83C60.8743 44.8051 59.6907 44.7509 58.509 44.6671C58.1758 44.645 56.5451 44.5132 56.3007 44.5512C56.1712 43.3142 56.2245 41.3453 56.2236 40.0548C57.085 39.8875 62.4107 39.6249 62.7148 39.3819L62.7023 39.211C62.9075 39.2457 63.0275 39.2857 63.2262 39.2262C63.2968 38.5366 63.2624 37.3408 63.2623 36.5929L63.2541 31.8813C61.4051 31.1618 58.3055 30.3924 56.4119 29.5295C56.1517 29.411 56.2269 28.7784 56.1826 28.4441L56.1758 28.394Z" fill="#E0DFDC"/>
<path d="M67.5318 25.4602C68.093 25.6702 68.6654 25.8713 69.2124 26.1162C69.8288 26.3921 70.3907 26.7727 70.9974 27.068C72.1368 27.6225 73.4077 28.1049 74.4821 28.7744C74.6239 28.8627 74.7392 28.9606 74.8141 29.113C75.451 30.4079 74.9699 41.9752 74.9961 44.3589C74.8714 44.3781 74.3677 44.465 74.2715 44.4671C73.6256 44.2088 71.0776 44.0297 70.2326 43.9402C69.3298 43.8374 68.4303 43.7067 67.5355 43.5482C67.4557 39.7716 67.5277 35.7649 67.5258 31.9717L67.5045 27.8524C67.5006 27.1154 67.4691 26.1812 67.5318 25.4602Z" fill="white"/>
<path d="M56.2371 58.4334C56.2318 57.7776 56.0662 57.0618 56.2886 56.5254C56.5022 56.3569 56.5269 56.4179 56.8705 56.4197C58.2447 56.6507 59.7105 56.7601 61.0944 56.9495C61.5254 57.0084 62.396 57.0593 62.7823 57.1459C62.512 57.4808 61.015 57.582 60.5082 57.6668C59.0829 57.9133 57.6592 58.1689 56.2371 58.4334Z" fill="white"/>
<path d="M56.21 38.1976C57.9953 38.5674 60.8554 38.948 62.7022 39.211L62.7148 39.3819C62.4107 39.6248 57.0849 39.8875 56.2235 40.0548L56.21 38.1976Z" fill="#CACACC"/>
<path d="M39.9952 73.6706C39.717 73.3435 39.5305 73.1274 39.6962 72.6993C39.8552 72.5968 39.8854 72.5244 39.9875 72.3673L39.9952 73.6706Z" fill="white" fill-opacity="0.0117647"/>
</svg>
