<svg width="96" height="96" viewBox="0 0 96 96" fill="none" xmlns="http://www.w3.org/2000/svg">
<path d="M54.027 29.0112C54.7254 28.9625 55.0804 29.024 55.5944 29.4874C57.449 31.1986 59.1362 32.9023 60.9148 34.7157C61.7325 35.5494 66.9822 40.3947 66.9402 41.3565C66.8892 42.5238 63.1378 46.027 62.0322 46.9973C60.6853 45.7925 59.22 45.0372 57.5067 44.5244C57.4058 44.4918 57.3034 44.4647 57.1997 44.443C54.3343 43.8398 52.1243 44.5679 49.7345 46.1394C47.9916 44.0668 45.8186 42.3095 44.1302 40.2322C43.7576 39.7739 43.9741 38.6146 44.4291 38.1705C47.2634 35.4034 50.0091 32.5214 52.876 29.7883C53.218 29.4624 53.6076 29.2225 54.027 29.0112Z" fill="white"/>
<path d="M60.444 17.9973C61.3076 18.0146 61.7054 18.1335 62.3231 18.7529C65.9223 22.362 69.5747 25.9215 73.154 29.5504C74.7009 31.0613 76.2653 32.4457 77.5963 34.1581C78.6052 35.456 77.1675 36.7211 76.2127 37.6388C75.1031 38.7053 73.8469 40.1266 72.5757 40.9761C71.3907 41.0991 71.036 40.681 70.2083 39.8749C67.5453 37.2821 64.9445 34.6199 62.3036 32.0055L57.9164 27.6465C57.2178 26.9566 56.2201 26.0493 55.5978 25.3572C55.3852 25.124 55.2113 24.8587 55.0823 24.5711C54.65 23.6137 55.2781 22.573 55.9909 21.9387C57.284 20.788 58.8935 18.6532 60.444 17.9973Z" fill="white"/>
<path d="M42.4619 44.9973C43.9804 45.2296 45.6008 47.4698 46.9404 48.5852C45.0127 51.836 44.3857 54.8695 46.1876 58.3715C44.3192 59.7571 42.4754 62.2278 40.7087 63.8429C39.1242 65.2916 38.311 67.143 36.1898 65.0732C35.0782 63.8765 30.3162 59.4331 29.9897 58.3006C29.8727 57.8944 29.974 57.2434 30.1884 56.8856C30.8678 55.7516 32.8817 54.0576 33.9021 53.016L38.3956 48.4263C39.3979 47.4012 41.1402 45.3299 42.4619 44.9973Z" fill="white"/>
<path d="M54.0375 48.0723C57.3181 47.5312 60.381 49.9781 60.8732 53.5333C61.3655 57.0885 59.1 60.4012 55.8172 60.9267C52.5447 61.4504 49.4984 59.0055 49.0076 55.4614C48.5169 51.9173 50.7671 48.6117 54.0375 48.0723Z" fill="white"/>
<path d="M54.5853 51.0187C56.2335 50.8222 57.7279 52.0015 57.92 53.6502C58.112 55.299 56.9287 56.7902 55.2795 56.9778C53.6365 57.1647 52.1522 55.9868 51.9609 54.3445C51.7696 52.702 52.9434 51.2145 54.5853 51.0187Z" fill="white"/>
<path d="M28.7523 63.0078C30.8784 62.8701 30.7853 64.1195 32.1711 65.1146C34.7928 66.9973 30.0144 70.6667 28.2696 72.1982C29.2521 72.7846 29.5877 73.2324 30.1393 74.173C30.0824 74.4883 30.0353 74.7715 29.8737 75.0547C28.6987 77.1139 27.0851 75.3122 25.9983 74.2498C24.6614 72.9545 23.3817 71.6087 22.0257 70.3279C21.2615 69.6062 19.7947 68.3964 19.9522 67.2553C19.9997 66.9083 20.1867 66.5956 20.4704 66.3888C21.7782 65.4179 23.019 66.5271 23.7393 67.5983C24.7099 66.7437 28.0058 63.3034 28.7523 63.0078Z" fill="white"/>
</svg>
