<svg width="96" height="96" viewBox="0 0 96 96" fill="none" xmlns="http://www.w3.org/2000/svg">
<path d="M45.0417 30.662C46.4173 30.4948 48.2431 30.7846 49.5466 31.253C52.6536 32.3733 55.1849 34.6877 56.5785 37.6822C57.6495 37.2224 58.1225 36.8122 59.3406 36.6971C60.7628 36.5569 62.1814 36.997 63.2747 37.9173C64.5787 39.0047 65.2344 40.7056 65.3851 42.3618C69.0515 43.26 71.9832 46.0441 71.9968 50.0038C72.0055 52.5511 71.7831 54.3878 69.9285 56.3254C68.7344 57.5539 67.2062 58.4053 65.5331 58.7739C63.5113 59.2373 60.0108 59.0391 57.8262 59.0678C53.3008 59.1272 48.6569 58.9767 44.14 59.0834L44.1351 57.0194L57.5718 57.007L61.7314 57.0146C64.8344 57.0209 66.8673 56.9786 68.9789 54.3277C70.1691 52.6217 70.4207 50.2048 69.7272 48.2579C68.6452 45.4814 66.5909 44.7727 63.9014 43.9969C63.0183 43.7422 63.7206 39.6654 61.2993 39.0236C59.9076 38.3579 58.364 38.7186 57.2516 39.8597C55.9639 41.1807 55.5961 40.4379 54.9191 38.9042C50.8222 29.6219 38.1704 30.8413 36.3622 41.0066C36.275 41.4967 36.4845 43.3964 36.1912 43.9523C34.1523 44.8161 32.3886 45.3416 31.3664 47.5106C30.6415 47.5078 29.9167 47.4935 29.1924 47.4676C29.9872 45.118 32.035 43.3149 34.3626 42.5364C34.2467 36.3018 38.7505 31.0894 45.0417 30.662Z" fill="white"/>
<path d="M40.3293 53.2419C44.0136 53.1694 48.2634 53.189 51.9442 53.2468L51.9357 55.1865C48.1199 55.1268 44.156 55.1799 40.328 55.1769C40.3225 54.5319 40.323 53.8869 40.3293 53.2419Z" fill="white"/>
<path d="M24.9373 53.2288L33.6439 53.2315C33.5932 53.7458 33.609 54.6277 33.6024 55.1691C33.0244 55.2272 31.3962 55.1853 30.7604 55.1847L24.9336 55.177L24.9373 53.2288Z" fill="white"/>
<path d="M26.8281 49.3287L34.5797 49.3267L34.5595 51.3208C32.3009 51.2133 29.1736 51.306 26.8385 51.3046L26.8281 49.3287Z" fill="white"/>
<path d="M27.7603 57.016L34.5773 57.0114C34.5762 57.697 34.5843 58.396 34.5411 59.0792C32.3624 59.0612 29.9364 59.0184 27.7742 59.0862L27.7603 57.016Z" fill="white"/>
<path d="M36.3998 57.0209C38.3171 57.0087 40.3365 57.0591 42.2426 57.0081C42.2446 57.4017 42.2952 58.8768 42.1418 59.0799C40.5376 58.9894 38.0573 59.0581 36.4076 59.0814C36.4009 58.3945 36.3983 57.7077 36.3998 57.0209Z" fill="white"/>
<path d="M36.394 49.3288L42.2449 49.3279L42.2339 51.3338C40.8329 51.2189 37.8916 51.3034 36.406 51.3036L36.394 49.3288Z" fill="white"/>
<path d="M35.4602 53.2394L38.4746 53.231C38.4417 53.8299 38.4566 54.5746 38.4519 55.1845L35.4302 55.1774C35.4843 54.6185 35.4177 53.8591 35.4602 53.2394Z" fill="white"/>
<path d="M23.9956 57.0244C24.6393 57.0273 25.2831 57.0219 25.9267 57.0081C25.9244 57.6873 25.9359 58.4213 25.895 59.0951C25.4238 59.0457 24.5074 59.0752 24.0183 59.0875L23.9956 57.0244Z" fill="white"/>
</svg>
