<svg width="96" height="96" viewBox="0 0 96 96" fill="none" xmlns="http://www.w3.org/2000/svg">
<path d="M47.9273 20.8291C48.8443 20.9496 57.2498 25.9107 58.5631 26.6562L66.7945 31.3271C68.3362 32.2023 70.5194 33.2977 71.8375 34.3828C72.1619 34.6499 72.0671 39.5316 72.067 40.1904L72.066 48.459C72.0655 50.1206 72.2529 60.237 71.8892 61.2207C71.7787 61.5195 70.7643 62.0737 70.4791 62.2471C68.8804 63.2193 67.2255 64.113 65.6002 65.041L55.7906 70.6074L51.109 73.2607C50.2898 73.7225 48.9794 74.4954 48.1363 74.8213C47.4719 74.8464 42.9561 72.1288 42.0514 71.6172L31.8687 65.8428L27.274 63.2344C26.4559 62.7688 24.9071 61.9373 24.2506 61.3418C24.1437 61.0655 24.118 60.6978 24.1178 60.4004C24.1115 52.0746 24.1144 43.7478 24.1148 35.4219C24.1148 35.1982 24.1361 34.4688 24.2994 34.3232C25.6885 33.0904 27.7091 32.1759 29.3453 31.2383L39.8551 25.2773L45.1432 22.2588C45.7989 21.8889 47.2008 21.0552 47.859 20.8213L47.9273 20.8291ZM58.0006 34.6074C56.4675 34.9447 55.3236 35.7307 55.2027 37.4512C55.0871 39.0975 55.1485 40.808 55.15 42.4658L55.1568 52.3711C54.585 51.5112 53.3346 50.136 52.6031 49.2676L47.8971 43.665L43.9693 38.9717C43.0771 37.9027 41.9557 36.3976 40.8941 35.5713C39.6206 34.5801 37.0313 34.3135 35.6861 35.2402C35.0632 35.6694 34.6354 36.3277 34.4967 37.0713C34.3611 37.813 34.4138 39.3736 34.4166 40.1982L34.4264 45.4053L34.4176 53.8047C34.4164 55.2596 34.3941 56.7254 34.4459 58.1768C34.4626 58.6416 34.5954 59.2234 34.8902 59.5781C35.683 60.5316 36.4437 60.9089 37.6285 60.9023C40.6629 60.4673 40.3962 58.1125 40.3941 55.7803L40.3892 51.9346C40.3848 49.2573 40.4891 45.8356 40.3678 43.2158C41.4752 44.3572 42.9927 46.2703 44.0572 47.54L51.1588 56.0146C51.9754 56.9777 53.5889 59.1041 54.4742 59.7852C55.3899 60.4815 56.5057 60.865 57.6558 60.8789C59.3057 60.9018 60.8308 60.1569 61.066 58.3633C61.1774 57.5131 61.1315 56.6122 61.1275 55.7529L61.1158 51.7715C61.1204 47.1717 61.1107 42.5702 61.1275 37.9707C61.1343 36.0996 59.9933 34.4746 58.0006 34.6074Z" fill="white"/>
</svg>
