<svg width="96" height="96" viewBox="0 0 96 96" fill="none" xmlns="http://www.w3.org/2000/svg">
<path d="M46.703 33.7578C47.0056 33.7437 47.3083 33.7342 47.6111 33.7291C50.8598 33.6801 56.3967 33.9634 58.9872 36.2875C59.8071 37.0231 59.7052 37.8264 59.7141 38.8715L59.7084 51.0733L59.7243 55.5782C59.7234 56.0737 59.753 57.7133 59.6399 58.0737C58.6979 61.075 51.8083 61.9301 49.6081 61.9395L49.4702 61.9483C46.1078 62.1544 39.9151 61.6299 37.207 59.3625C36.5122 58.7808 36.3232 58.0814 36.302 57.2118C36.2667 55.7615 36.2803 54.2879 36.2816 52.8337L36.2841 44.9888L36.2721 40.2787C36.2628 37.1685 36.0021 36.1922 39.2618 34.9606C41.813 33.9966 44.0101 33.8513 46.703 33.7578ZM57.8602 40.1087C54.7627 42.2548 46.085 42.1216 42.3451 41.4878C40.8481 41.2341 39.574 40.7732 38.1912 40.2166C38.1784 40.9654 37.9649 44.8623 38.4388 45.1156C43.4217 47.7795 50.6575 47.6746 55.9447 45.912C56.5402 45.7135 57.0142 45.3994 57.5361 45.1951C58.1493 44.4994 57.6901 41.4457 57.8602 40.1087ZM38.1689 51.7164C39.8092 53.2411 43.8192 53.8247 46.0079 53.9239C49.3876 54.0771 54.8566 53.9589 57.6692 51.8944C57.7282 51.7992 57.8182 51.625 57.8187 51.5209C57.8217 50.91 57.8633 47.6497 57.7806 47.2832C57.77 47.2355 57.7565 47.1886 57.7403 47.1425C57.4979 47.1301 56.4627 47.6511 56.1101 47.7765C55.4739 48.0012 54.8262 48.1916 54.1696 48.3467C49.9644 49.349 42.0616 49.1092 38.1942 47.0328C38.1288 48.4588 38.138 50.2842 38.1689 51.7164ZM57.6313 58.1398C58.1026 57.3659 57.6771 55.0984 57.8694 53.859C55.1403 55.7158 48.5669 55.957 45.321 55.7059C44.2772 55.6252 43.2266 55.4197 42.1991 55.2239C41.0932 55.0132 40.0101 54.6744 38.9574 54.2772C38.6854 54.1746 38.4335 54.0301 38.1596 53.9346C38.1823 54.7438 37.9245 57.8642 38.5108 58.2043C43.078 60.8527 53.2063 60.9114 57.6313 58.1398ZM49.3182 40.1428C50.8116 40.1099 57.6217 39.4437 57.802 37.7349C57.4588 36.2083 50.3739 35.4685 48.9075 35.4966C48.1878 35.5104 47.2756 35.5211 46.5376 35.5057C45.4721 35.7019 44.3447 35.6761 43.3025 35.8393C42.3089 35.995 38.1433 36.7015 38.1842 37.9732C38.8696 39.3481 45.0574 40.1747 46.6831 40.1649C47.4431 40.1603 48.5303 40.1408 49.3182 40.1428Z" fill="white"/>
<path d="M63.5234 22.8399L69.1197 22.8234C69.9035 22.8212 72.4851 22.7053 73.0068 23.0784C73.3839 23.9408 73.1728 27.4364 73.2054 28.6476C73.2356 29.7692 73.2734 31.6298 73.1781 32.7067C72.5339 32.724 72.0805 32.7078 71.4359 32.6645C71.3313 32.0937 71.3393 30.7071 71.3336 30.0888C71.3111 28.6873 71.313 27.2855 71.3393 25.8841C70.2001 27.1611 68.6913 28.5399 67.4644 29.8097C66.5179 30.6749 65.6195 31.7181 64.6681 32.5899C63.4081 33.7444 63.1178 34.94 61.8687 32.9474C62.4075 32.0987 69.2169 25.3233 70.1577 24.6646C67.9522 24.6652 65.575 24.7386 63.3959 24.6784C63.3693 24.2416 63.2745 23.1934 63.5234 22.8399Z" fill="white"/>
<path d="M32.8435 61.8925C33.2186 61.9337 34.0623 62.7153 34.034 63.1677C33.7778 63.5254 32.8137 64.4392 32.439 64.8156C31.2263 66.0376 30.0058 67.252 28.7777 68.4585C27.9205 69.3045 26.7353 70.6339 25.8992 71.3466C28.1575 71.3212 30.4165 71.374 32.6855 71.3388C32.7624 71.9386 32.7457 72.557 32.6926 73.1576C31.641 73.223 30.309 73.1811 29.2362 73.1778L24.0058 73.1914C23.6466 73.1785 23.2821 73.1931 22.9973 72.9697C22.6481 72.1783 22.7465 64.4667 22.9605 63.3337C23.1698 63.3227 23.3792 63.317 23.5888 63.3166C23.9064 63.316 24.3195 63.2966 24.5565 63.5324C24.7558 64.1022 24.6539 69.1815 24.6522 70.107C27.0991 67.4797 30.2202 64.3304 32.8435 61.8925Z" fill="white"/>
<path d="M32.3973 22.79C32.4877 22.7699 32.543 22.7995 32.6318 22.829C32.8977 23.1546 32.8177 24.2235 32.5325 24.5794C32.1216 24.7768 26.785 24.6574 25.9394 24.6514C27.1933 25.9913 28.5052 27.246 29.8019 28.5372L34.1544 32.9028C33.785 33.5594 33.5296 33.7363 32.9374 34.187C32.3214 33.658 31.8115 33.0758 31.2335 32.5166C30.3945 31.705 29.5782 30.8963 28.7586 30.0649C27.5904 28.8205 25.7034 27.1378 24.6728 25.9016C24.6606 27.0595 24.808 31.7709 24.5982 32.5453C24.2299 32.7975 23.3762 32.6938 22.8993 32.6729C22.6397 30.2039 22.8809 27.6042 22.777 25.1178C22.753 24.5424 22.7232 23.5667 23.0169 23.0828C23.5527 22.686 25.6564 22.8423 26.3787 22.8244C28.3541 22.7756 30.4291 22.9292 32.3973 22.79Z" fill="white"/>
<path d="M63.0087 61.8972C63.4736 62.1631 64.3399 63.104 64.7611 63.5168C66.1547 64.8745 67.53 66.2508 68.8867 67.6455C69.6579 68.428 70.6592 69.3371 71.3596 70.1205C71.3549 69.1654 71.2321 63.8398 71.5696 63.3833C71.8799 63.296 72.8306 63.3004 73.2226 63.2817C73.098 64.9141 73.4216 71.9669 73.0151 72.9391C72.8664 73.0855 72.6238 73.1205 72.4159 73.1725C69.664 73.2647 66.1789 73.1971 63.3974 73.1669C63.3809 72.7525 63.2744 71.7574 63.5178 71.4792C64.116 71.2417 69.0635 71.3557 70.1411 71.3507C69.3052 70.6688 68.0877 69.3782 67.2848 68.5718C65.4991 66.7781 63.5588 64.9239 61.8276 63.0856C62.2754 62.4685 62.3729 62.3099 63.0087 61.8972Z" fill="white"/>
<path d="M62.3212 37.7677C62.993 37.8192 65.4255 38.9276 66.1668 39.3071C68.5842 40.5476 71.5409 42.6296 72.4198 45.3586C74.295 51.1814 67.4408 55.2215 62.8855 56.6482C62.06 57.2817 61.9444 55.7936 61.8229 55.2126C62.5326 54.8677 63.4675 54.5642 64.2275 54.204C66.5249 53.1391 69.3701 51.4174 70.5074 49.0616C72.4497 45.0386 67.2797 41.6809 64.1884 40.3629C63.4026 40.0278 62.5462 39.7208 61.811 39.3573C61.9218 38.8841 62.1076 38.1933 62.3212 37.7677Z" fill="white"/>
<path d="M32.9623 37.9366C33.1939 38.0596 33.562 39.0942 33.7711 39.4906C33.4101 39.7167 32.0432 40.3193 31.6615 40.481C26.6279 42.613 22.0151 47.2433 27.7686 51.7919C29.8226 53.4158 31.3662 54.0518 33.7408 55.0527C33.5296 55.4586 33.2935 56.5283 32.921 56.5671C29.8214 55.5259 25.9111 53.3404 24.2239 50.4628C23.3654 49.0313 23.1153 47.316 23.5291 45.699C24.3703 42.5273 27.5587 40.4031 30.3568 39.069C30.9986 38.7631 32.4622 38.2331 32.9045 37.9714L32.9623 37.9366Z" fill="white"/>
</svg>
