<svg width="96" height="96" viewBox="0 0 96 96" fill="none" xmlns="http://www.w3.org/2000/svg">
<path d="M41.01 26.0931L48.1975 26.095L54.8791 26.0911C60.9935 26.085 60.7796 25.9804 63.8176 31.1077L67.5588 37.5189L70.5842 42.6712C71.988 45.0532 73.9962 47.4691 72.427 50.305C71.7712 51.4902 71.0584 52.6323 70.3781 53.8011L64.9367 63.0648C64.496 63.8077 64.0318 64.6136 63.6047 65.3636C62.2611 67.7228 61.5646 69.6887 58.4787 70.0208C57.1506 70.0951 55.3919 70.0503 54.0315 70.0501L46.1467 70.054L40.7053 70.0589C39.4903 70.0594 38.0964 70.1314 36.9113 69.9359C34.413 69.5236 33.494 67.2182 32.3869 65.3304L29.1555 59.807C27.8724 57.6622 26.6053 55.5074 25.3547 53.3441C24.728 52.2683 24.0143 51.1554 23.4641 50.0462C22.1828 47.4625 23.8225 45.279 25.0862 43.1751L27.8781 38.4573L32.4651 30.6068C33.8667 28.2537 34.3033 26.4888 37.4738 26.1116C38.2581 26.0369 40.1333 26.0928 41.01 26.0931ZM54.6418 38.8988C52.8277 38.7653 50.0447 38.8409 48.1789 38.8441C46.145 38.8475 43.389 38.7653 41.3957 38.8851C41.2339 39.4916 41.2892 43.203 41.3947 43.8821C43.2891 43.9422 45.3209 43.9098 47.2268 43.9075L47.1975 46.845C44.7093 46.8459 42.0895 46.8092 39.6135 46.8909C39.5974 48.4108 39.5944 49.9316 39.6037 51.4515C38.9685 51.4649 38.1814 51.4592 37.5588 51.5032C37.4938 52.5199 37.4752 54.6114 37.5539 55.6448C39.3245 55.6879 41.0958 55.689 42.8664 55.6488C42.915 54.1727 42.9476 52.959 42.8449 51.4905C42.3341 51.4765 41.8358 51.4541 41.3254 51.4857L41.3313 48.431L47.2141 48.4339L47.2033 51.4613C46.7549 51.4605 45.5144 51.3835 45.2258 51.6214C45.0079 52.2718 45.0849 54.8714 45.1428 55.6351C46.8097 55.7234 49.1674 55.7043 50.8449 55.6419C50.948 54.6555 50.9066 53.1658 50.8967 52.14C50.8488 51.7781 50.9074 51.8189 50.7072 51.5706C50.1576 51.3337 49.4255 51.459 48.803 51.4847L48.8059 48.428L54.6799 48.431L54.6789 51.4495L53.1399 51.4945C53.0858 52.8792 53.0856 54.266 53.1379 55.6507C54.9062 55.6876 56.6753 55.6859 58.4436 55.6468C58.4934 54.7574 58.5362 52.3712 58.4358 51.5052C57.7054 51.4616 57.1221 51.4628 56.3957 51.4739C56.3991 49.9905 56.4346 48.3673 56.3772 46.8948C54.2246 46.7791 50.9942 46.8248 48.799 46.8665L48.801 43.9036C50.6805 43.9047 52.7238 43.9452 54.5901 43.8958C54.7377 42.985 54.7097 39.884 54.6418 38.8988Z" fill="white"/>
</svg>
