<svg width="96" height="96" viewBox="0 0 96 96" fill="none" xmlns="http://www.w3.org/2000/svg">
<path d="M45.5283 21.2403C60.3766 19.8073 73.5732 30.6876 74.9969 45.5367C76.4207 60.3858 65.5321 73.5756 50.682 74.99C35.8452 76.4032 22.6697 65.5264 21.2472 50.6904C19.8247 35.8544 30.6933 22.6721 45.5283 21.2403ZM43.872 23.7687C44.7873 24.3447 45.8227 24.9094 46.5628 25.6801L45.2875 27.4271C44.0252 26.5628 42.1328 25.3126 40.7673 24.582C39.6675 24.8026 39.0566 25.1306 38.0316 25.5986C33.7177 27.6064 30.0382 30.7603 27.3943 34.7163C25.8981 37.0008 24.8086 39.5269 24.1743 42.183C23.9671 43.0603 23.8013 44.3565 23.5429 45.1549C25.1439 44.7493 27.8007 44.6388 29.4526 44.4273C29.433 45.2102 29.4727 45.8806 29.4664 46.6256C28.5101 46.7067 24.1701 47.0106 23.4967 47.5042C23.2363 47.9867 23.5405 50.6778 23.6233 51.3273C24.4262 57.6263 27.6896 63.4659 32.656 67.4275C33.0807 67.7662 33.4751 68.0917 33.8303 68.5324C32.7594 65.8879 32.1172 61.0061 32.1102 58.1266C32.1068 56.721 32.6576 53.3313 33.0551 51.9438C33.8359 52.1909 34.4323 52.3084 35.2395 52.4518C35.1392 53.7926 34.7713 54.977 34.614 56.1856C34.2322 59.1206 34.7551 64.7917 35.8859 67.4998C36.1762 68.5889 36.3406 69.1606 36.8943 70.1369C37.5742 70.4585 38.1454 70.7784 38.8517 71.0638C43.3016 72.9137 48.21 73.3618 52.9214 72.3483C54.4006 72.0197 55.3378 72.2509 56.1454 70.7558C56.4687 70.1573 57.7384 66.157 58.0078 66.0004C58.5069 66.0135 59.5846 66.4015 60.0865 66.5622C59.8302 67.9993 59.1975 69.0769 58.7679 70.4055C59.6571 70.0545 61.7659 68.761 62.6291 68.177C62.2565 67.3658 61.8635 66.6975 61.4857 65.92C63.5058 64.7415 63.5809 64.5804 64.5211 66.8543C65.1712 65.7822 65.9747 65.2557 66.7549 64.3593C71.1521 59.3075 73.3567 52.4307 72.7449 45.7462C72.0601 38.2632 67.2479 30.3052 60.5023 26.7509C59.4063 27.0327 58.2521 27.3199 57.1632 27.6379C56.9064 27.7128 56.3395 27.9481 56.1858 27.688C55.8811 27.1723 55.5616 26.3861 55.3857 25.8224C56.153 25.6548 56.8141 25.491 57.5466 25.1963C54.9034 24.1838 49.8866 23.0315 47.0632 23.3963C45.9724 23.4907 44.89 23.6833 43.872 23.7687Z" fill="white"/>
<path d="M59.0357 55.1524C61.4898 54.8298 63.7436 56.55 64.0798 59.0023C64.4161 61.4546 62.7085 63.7179 60.2581 64.0678C57.7883 64.4204 55.5032 62.6963 55.1643 60.2247C54.8254 57.7531 56.5622 55.4775 59.0357 55.1524ZM58.6274 57.4156C58.0633 57.6671 57.6168 58.1249 57.3795 58.6952C57.0449 59.4995 57.1688 60.4216 57.704 61.109C58.2391 61.7964 59.1026 62.1428 59.9645 62.0156C61.0999 61.8482 61.9611 60.9057 62.0256 59.7598C62.0656 59.0482 61.7897 58.3552 61.2715 57.8659C60.7532 57.3766 60.0455 57.1409 59.3374 57.2218C59.0922 57.2498 58.8528 57.3152 58.6274 57.4156Z" fill="white"/>
<path d="M35.7733 41.1259C38.5234 40.9336 40.9102 43.0037 41.1089 45.7533C41.3075 48.5029 39.2429 50.8944 36.4938 51.0995C33.7357 51.3051 31.3346 49.2324 31.1353 46.4738C30.936 43.7152 33.0142 41.3189 35.7733 41.1259ZM36.6494 48.7182C38.0946 48.4259 39.0298 47.0183 38.7392 45.5728C38.4486 44.1274 37.0421 43.1905 35.5963 43.4794C34.148 43.7688 33.2093 45.1781 33.5004 46.626C33.7915 48.0739 35.2019 49.011 36.6494 48.7182Z" fill="white"/>
<path d="M50.4765 26.0279C53.2289 25.7381 55.693 27.7395 55.9738 30.4928C56.2546 33.2461 54.2451 35.7038 51.4909 35.9755C48.7494 36.246 46.3057 34.2479 46.0262 31.5073C45.7467 28.7667 47.7368 26.3164 50.4765 26.0279ZM48.8136 32.5123C49.4085 33.3757 50.4542 33.8102 51.4858 33.6224C52.905 33.3642 53.8614 32.0237 53.6436 30.5977C53.4259 29.1716 52.1132 28.1775 50.6815 28.3546C49.7569 28.469 48.959 29.0577 48.5772 29.9076C48.1954 30.7575 48.285 31.745 48.8136 32.5123Z" fill="white"/>
<path d="M55.7428 35.1135L55.9577 35.1649C56.9205 36.0613 57.3061 37.2529 57.9258 38.3535C60.4243 42.7907 61.9879 47.9638 62.1221 53.0555C61.6544 53.0324 61.0937 53.0603 60.6163 53.0729C60.3476 53.1136 60.2842 53.1277 60.0093 53.0967C59.5185 52.6857 59.7239 51.8684 59.6157 51.2623C59.4738 50.4668 59.4516 49.5246 59.2813 48.7369C58.683 45.9686 57.6421 42.5518 56.2687 40.0647C55.8708 39.3438 55.4604 38.6294 55.0376 37.9218C54.77 37.4815 54.2931 36.7855 54.1221 36.3365C54.1932 36.0276 55.4043 35.3289 55.7428 35.1135Z" fill="white"/>
<path d="M42.5974 46.1135C43.5572 46.3321 46.2221 47.6446 47.1242 48.1645C49.5464 49.5604 51.9281 51.1849 53.9396 53.1964C54.2865 53.5432 54.988 54.0328 55.1221 54.5066C55.1138 55.0165 54.6075 55.4756 54.2752 55.8507C54.0752 56.0613 54.0246 56.1311 53.7578 56.1099C53.0436 55.5697 51.6963 54.253 50.941 53.6022C49.0088 51.96 46.8848 50.591 44.6219 49.5293C42.1141 48.3584 41.605 48.945 42.5974 46.1135Z" fill="white"/>
<path d="M44.3944 33.1135C44.6788 33.1374 45.8643 34.395 46.1221 34.648C44.4928 36.4091 42.4296 37.8028 41.1408 39.8471C40.9239 40.1911 40.3857 40.9642 40.0432 41.1135C39.1867 40.6588 38.8189 40.4302 38.1221 39.8011C40.2004 36.7411 41.6135 35.5414 44.3944 33.1135Z" fill="white"/>
</svg>
