<svg width="96" height="96" viewBox="0 0 96 96" fill="none" xmlns="http://www.w3.org/2000/svg">
<path d="M46.0055 22.0199C60.3374 21.4714 72.407 32.6323 72.9791 46.9632C73.551 61.294 62.4095 73.3811 48.0797 73.9769C33.7163 74.574 21.5947 63.4018 21.0211 49.0374C20.4476 34.673 31.6401 22.5696 46.0055 22.0199ZM50.9566 39.0521C50.4254 39.8246 47.7771 42.3135 46.9391 42.8392C46.1235 42.1128 43.6875 39.8407 43.0445 39.0746C40.8633 41.1471 38.6689 43.2081 36.4615 45.2562C35.2833 46.3642 34.058 47.4335 32.984 48.6273C34.2513 49.8438 35.7946 51.1509 36.9293 52.4115C40.1347 49.2037 43.8689 46.0772 46.982 42.8753C47.7595 43.5218 48.2791 44.1431 48.982 44.7708C46.8597 46.8566 44.5599 48.9135 42.401 50.9818C41.6913 51.6616 39.6298 53.6563 38.9107 54.1849C39.7483 54.8864 42.3384 57.6337 42.9771 57.9974C44.3088 56.7441 45.6262 55.4769 46.9283 54.1966C47.7521 54.8477 50.3583 57.2943 50.9391 58.0521L57.4059 51.9652C58.5728 50.8776 59.8745 49.7227 60.984 48.598C60.076 47.4672 58.1277 45.7559 56.9811 44.6956C55.5673 46.4009 52.7935 48.6585 51.1432 50.3324C50.6306 50.8522 47.3896 53.8904 46.9068 54.1966C46.3403 53.6318 45.6015 52.8537 45.024 52.3246C47.2871 50.1707 49.5637 48.0291 51.8531 45.8997C52.6892 45.1154 54.3895 43.6318 55.027 42.8568C53.8472 41.7709 52.1165 40.006 50.9566 39.0521Z" fill="white"/>
</svg>
