<svg width="96" height="96" viewBox="0 0 96 96" fill="none" xmlns="http://www.w3.org/2000/svg">
<path d="M21.1002 18.2305C28.6492 18.0899 36.6585 18.2225 44.2575 18.2227L76.8834 18.2383L76.8864 76.1426H74.8473L38.7174 76.1456C32.1485 76.1457 25.4739 76.2023 18.9137 76.1251L18.9079 39.9971L18.9069 26.1661C18.9063 23.6434 18.8429 20.8135 18.9411 18.3096C19.6156 18.2591 20.4151 18.2531 21.1002 18.2305ZM41.9547 23.1348L43.36 23.1172C43.3414 24.0682 43.2874 26.1252 43.3961 27.0176C42.1097 27.311 40.8937 27.6559 39.6481 28.0909C28.4305 32.0081 21.7803 44.1216 24.4899 55.7129C25.9838 62.0074 29.9507 67.4472 35.5065 70.8213C40.4982 73.8839 47.3751 74.9257 53.0875 73.6026C54.1238 73.352 55.0326 73.0979 56.0465 72.7501C67.1542 68.9383 74.0722 56.6133 71.2575 45.1485C69.7563 38.8319 65.7815 33.37 60.2125 29.9727C57.7513 28.4894 54.9695 27.6483 52.193 26.9727C52.2029 25.693 52.2039 24.4125 52.195 23.1329L53.6442 23.1299L53.6627 20.1739C50.0532 20.1819 45.5118 20.3031 41.9557 20.1661L41.9547 23.1348Z" fill="white"/>
<path d="M48.5947 39.165C51.0497 39.4152 53.8959 40.4131 55.7588 42.0771C58.2089 44.2327 59.6949 47.2812 59.8848 50.542L58.5332 50.5488L58.5371 51.8623L59.8867 51.8525C59.7575 55.2882 57.9436 58.3998 55.3643 60.5898C53.5875 62.0983 51.2659 62.7876 48.9971 63.084C48.9642 63.0935 48.7632 63.1008 48.7148 63.1035C48.5344 62.8914 48.5902 62.1303 48.5918 61.8027L47.2129 61.79L47.1943 63.165C44.9315 62.7918 42.9433 62.3789 41.0322 61.0117C38.9312 59.5086 37.1582 57.0263 36.4277 54.5449C36.1826 53.7124 36.0359 52.6692 35.8857 51.7988L37.3018 51.7979L37.3125 50.5283L35.8916 50.5156C35.9984 50.0303 36.0521 49.4905 36.1553 48.998C37.3375 43.3519 41.2788 40.1186 46.7422 39.2236C46.9133 39.1897 46.9267 39.2 47.0996 39.2441C47.2813 39.5452 47.2102 40.2348 47.1992 40.6191L48.5889 40.6152L48.5947 39.165ZM53.0225 45.166C51.5625 46.3784 50.1934 47.6514 48.7559 48.8799C48.6609 48.9584 47.4653 48.5849 46.6914 49.3105C45.4777 50.4485 45.6864 51.9156 46.9795 52.9043C48.8916 53.751 50.3896 52.4397 50.0586 50.4229C51.2437 48.8979 52.5964 47.418 53.8857 45.9766C53.7468 45.8411 53.1441 45.2345 53.0225 45.166Z" fill="white"/>
</svg>
