<svg width="96" height="96" viewBox="0 0 96 96" fill="none" xmlns="http://www.w3.org/2000/svg">
<path d="M41.3724 25.3334L51.331 25.3198C53.0031 25.32 54.6903 25.2798 56.3603 25.3711C57.6098 25.4394 58.1529 26.0879 58.5613 27.2065C58.9459 28.26 59.2454 29.3438 59.6105 30.4025L63.1057 40.6983L69.1472 58.4485L70.7488 63.112C71.297 64.6854 72.1001 66.4302 72.2297 68.1044C72.3072 69.1056 71.2899 70.072 70.3379 70.2233C69.8074 70.3077 69.0765 70.2722 68.5178 70.2718L65.489 70.2706C62.1868 70.2785 58.0501 70.3693 54.7903 70.2503C53.6607 70.3093 52.8229 70.2679 51.9188 69.4936C48.6637 66.7056 45.6318 63.481 42.3979 60.6877C42.3431 60.991 42.268 61.2627 42.1654 61.5545C41.3629 63.8425 40.6902 66.1986 39.8396 68.4666C39.4619 69.4738 38.6993 70.2494 37.5647 70.2639C35.4523 70.2909 33.3273 70.2626 31.2141 70.26C29.6353 70.1974 27.9288 70.4056 26.3696 70.2284C24.4047 70.0051 23.8871 68.3911 24.4446 66.7398C25.098 64.8049 25.7853 62.9209 26.4328 61.0121L31.3069 46.7037L36.1743 32.4309C36.762 30.7043 37.2661 28.9366 37.8933 27.2182C38.6107 25.2526 39.5801 25.3712 41.3724 25.3334ZM51.8827 54.3401C51.8105 54.1214 51.7073 53.8952 51.6255 53.677C50.7713 51.4006 50.0249 49.0844 49.2791 46.7714C48.9563 45.77 48.5368 44.7664 48.2582 43.7578C47.9276 44.432 47.5809 45.7602 47.2926 46.5461C46.345 49.1293 45.555 51.7835 44.6424 54.3791C45.5718 54.2631 51.6168 54.4531 51.8827 54.3401Z" fill="white"/>
<path d="M42.3795 60.6904C42.3248 60.9939 42.2498 61.2658 42.1472 61.5579C41.3456 63.8475 40.6736 66.2052 39.8238 68.4748C39.4465 69.4827 38.6846 70.2589 37.5512 70.2733C35.4409 70.3004 33.3181 70.2721 31.207 70.2695C29.6299 70.2068 27.925 70.4152 26.3675 70.2379C24.4045 70.0144 23.8875 68.3993 24.4444 66.7468C25.0971 64.8105 25.7837 62.9252 26.4306 61.015L31.2997 46.6966L36.1623 32.4137C36.7493 30.6859 37.2529 28.9169 37.8794 27.1973C38.5961 25.2303 39.5646 25.349 41.3551 25.3112L41.1168 25.4053C41.4269 25.5961 42.0965 25.9624 42.24 26.2774C42.9112 27.7497 43.5147 29.6523 44.0172 31.1867L46.0839 37.3154L47.5469 41.5757C47.7152 42.0726 48.0754 43.0506 48.1879 43.5329C48.2046 43.6045 48.2199 43.6764 48.2339 43.7486C47.9036 44.4233 47.5572 45.7524 47.2692 46.5388C46.3226 49.1238 45.5334 51.7799 44.6218 54.3773C44.1212 54.3185 42.7582 54.3752 42.1471 54.3771C40.882 54.3812 39.4798 54.3321 38.2213 54.4293C37.9613 54.4494 37.5763 54.6996 37.3664 54.8484C37.3294 55.2803 37.3174 55.425 37.3696 55.8613C37.6327 56.1713 42.4363 60.71 42.3795 60.6904Z" fill="url(#paint0_linear_24306_8423)"/>
<path d="M51.7248 54.3113L54.7832 63.3078C55.2719 64.7712 55.9116 66.3189 56.2108 67.8363C56.292 68.2485 56.1428 68.5557 56.0159 68.9316C55.8079 69.5479 54.8592 69.9936 54.6235 70.2926C53.4974 70.3519 52.6621 70.3103 51.7608 69.5325C48.5156 66.7321 45.4928 63.4931 42.2687 60.6872C42.3254 60.707 37.5315 56.1512 37.2689 55.84C37.2168 55.4021 37.2289 55.2569 37.2657 54.8232C37.4752 54.674 37.8595 54.4228 38.1189 54.4027C39.3749 54.3051 40.7743 54.3543 42.0367 54.3503C42.6467 54.3483 44.0069 54.2914 44.5064 54.3505C45.4329 54.234 51.4596 54.4248 51.7248 54.3113Z" fill="url(#paint1_linear_24306_8423)"/>
<defs>
<linearGradient id="paint0_linear_24306_8423" x1="48.2339" y1="47.8112" x2="24.2339" y2="47.8112" gradientUnits="userSpaceOnUse">
<stop stop-color="#CDCDCD"/>
<stop offset="1" stop-color="white"/>
</linearGradient>
<linearGradient id="paint1_linear_24306_8423" x1="56.2339" y1="62.3112" x2="37.2339" y2="62.3112" gradientUnits="userSpaceOnUse">
<stop stop-color="#DCDDDE"/>
<stop offset="1" stop-color="white"/>
</linearGradient>
</defs>
</svg>
