<svg width="96" height="96" viewBox="0 0 96 96" fill="none" xmlns="http://www.w3.org/2000/svg">
<path d="M49.6044 31.506C51.9346 31.3706 56.023 32.0779 58.0852 33.101C58.9411 33.5256 59.6001 33.9864 60.3747 34.5375C59.427 34.5111 58.935 34.3607 57.8655 34.4263C53.9954 34.6634 50.5806 36.0014 47.2458 37.9095C46.3686 38.4114 45.4963 38.8783 44.6657 39.4618C44.6704 39.6515 44.6475 39.5779 44.7814 39.7388C44.9134 39.7854 45.1215 39.8214 45.26 39.7661C48.0724 38.6429 51.2272 37.9089 54.2599 38.3944C54.6583 38.4582 55.3704 38.5268 55.6613 38.7613C55.653 38.7935 55.6446 38.8257 55.6362 38.8579C54.4835 39.2641 52.5618 40.1004 51.5243 40.573C45.9657 43.1048 40.3168 47.6504 37.3212 53.0609C36.4893 54.5328 35.7931 55.9966 35.2737 57.6094C34.9793 58.5239 34.7572 59.4423 34.4571 60.3538C33.9287 60.3175 33.3158 60.3691 32.7759 60.3827C28.5822 60.4881 24.2389 57.4152 22.4956 53.6622C19.7648 47.6785 23.0494 40.2282 28.868 37.4957C30.9371 36.524 34.6125 35.8128 36.814 36.619C40.9307 32.8492 44.1357 31.9769 49.6044 31.506Z" fill="white"/>
<path d="M62.5707 40.5046L62.6258 40.5009C65.3998 40.3286 69.9343 41.4008 71.8945 43.3938C77.5695 49.1638 73.864 56.557 66.1226 56.9426L66.1107 56.9693C64.7663 59.9506 61.4102 62.2448 58.4429 63.3227C53.4246 65.1456 48.5416 64.8468 43.7371 62.6802C43.0843 62.8227 42.3425 62.8325 41.6781 62.8267C39.287 62.8056 37.7902 62.1351 36.1411 60.4436C37.2835 58.893 39.1311 57.1645 40.7244 56.0793C46.0974 52.4424 51.5784 50.665 58.1295 51.6061C61.364 52.0707 66.5824 54.8484 68.5211 50.5367C69.6391 48.05 66.2095 45.929 64.2405 45.2836C58.9591 43.5523 52.4904 45.3338 47.6416 47.6682C50.0235 43.7922 55.2688 41.5698 59.6107 40.8594C60.5786 40.7011 61.5936 40.6003 62.5707 40.5046Z" fill="white"/>
</svg>
