<svg width="96" height="96" viewBox="0 0 96 96" fill="none" xmlns="http://www.w3.org/2000/svg">
<path d="M46.9995 23.9861C58.7559 23.4483 69.9764 31.7965 72.1586 43.4942C73.4398 50.1893 71.9979 57.1189 68.1523 62.7473C65.6867 66.3237 62.3061 69.1725 58.3637 70.9966C57.2617 71.5059 54.3115 72.9964 54.2471 70.7551C54.159 67.6828 54.3996 64.5649 54.2069 61.4949C54.13 60.269 53.5911 58.7102 52.6136 57.9137C55.8515 57.1776 58.9622 57.3957 61.5797 54.6198C63.6163 52.46 63.9652 49.4729 63.9363 46.627C63.9149 44.5072 62.9829 42.5159 61.4343 41.0619C61.9592 39.4511 62.1759 35.9416 61.2064 34.5167C60.1831 33.0126 54.6026 37.0185 54.0407 36.88C51.441 36.2395 48.9747 36.1147 46.2698 36.2207C45.6395 36.1272 42.072 37.0347 41.8075 36.8804C39.5865 35.5841 37.9325 34.4879 35.2379 34.2138C35.0989 34.3021 35.0446 34.3056 34.9797 34.445C34.0537 36.4333 34.0938 38.9299 34.6908 40.9565C34.5246 41.2633 33.9303 41.9799 33.6873 42.3089C32.0451 44.5317 32.2488 47.5635 32.6725 50.1379C33.4349 54.7717 36.4252 56.8438 40.8826 57.4904C41.4179 57.568 42.9192 57.6656 43.2917 57.9382C43.2839 57.9881 42.7127 58.8903 42.6279 59.0346C42.2849 59.6183 42.1478 61.1022 41.5245 61.3696C39.3801 62.2895 36.9315 62.0169 35.4168 60.1164C34.2917 58.6157 33.6321 57.2373 31.6721 56.7256C31.2794 56.6231 30.2384 56.5791 29.8836 56.7728C29.6544 57.5745 31.0355 58.2247 31.5956 58.7064C33.2229 60.1059 33.3662 62.6617 35.1115 63.8497C36.874 65.0495 39.8043 65.0526 41.8239 64.6857C41.8183 66.0892 41.8667 67.4981 41.8611 68.9022C41.8583 69.5952 42.0152 71.0947 41.5608 71.6169C40.8204 72.4677 39.3346 71.6708 38.502 71.3319C36.0374 70.3287 33.7902 68.8832 31.799 67.1218C26.7651 62.6533 23.7379 56.3493 23.3981 49.6267C23.0344 43.4556 25.0306 36.8904 29.1563 32.2118C33.9957 26.724 39.7872 24.3983 46.9995 23.9861Z" fill="white"/>
<path d="M35.119 60.9319L35.1522 60.9348C35.5455 60.9697 35.6951 60.9608 35.9396 61.2534C36.0005 61.5073 35.9649 61.572 35.886 61.8192C35.4299 61.709 34.9831 61.453 35.119 60.9319Z" fill="white"/>
<path d="M33.9482 59.4985C34.2684 59.4938 34.4075 59.5253 34.6073 59.7806C34.685 60.0381 34.6855 60.0714 34.646 60.3346C34.0766 60.4241 33.9871 59.9337 33.9482 59.4985Z" fill="white"/>
</svg>
