<svg width="96" height="96" viewBox="0 0 96 96" fill="none" xmlns="http://www.w3.org/2000/svg">
<path d="M46.6266 24.8322C53.9627 24.6877 60.6946 28.7664 64.44 34.9767C65.5456 36.81 65.7754 38.5709 66.9518 40.1994C67.1885 40.5272 68.557 41.7259 68.9684 42.1183C71.5137 44.5463 72.9963 48.6866 72.9996 52.1662C73.0125 56.1238 71.4418 59.9236 68.6363 62.7248C64.4512 66.8934 60.7339 67.0239 55.2896 67.0246L48.2242 67.0187L40.1051 67.0305C34.313 67.0359 30.2238 67.5685 25.441 63.5998C19.1411 58.3722 18.437 48.5123 23.8639 42.4279C24.7555 41.4284 25.9547 40.6842 26.6734 39.5334C29.4988 31.1331 36.2156 25.5605 45.1832 24.8752C45.6249 24.8218 46.1743 24.8411 46.6266 24.8322ZM55.1627 37.7824C52.6368 35.1826 49.2559 34.2209 45.691 34.5773C43.5049 34.8754 41.842 35.3707 40.0807 36.7375C39.6999 37.0328 38.9693 37.477 38.8072 37.923C38.9615 38.1319 39.1883 38.1981 39.4478 38.2619C41.0493 38.6554 42.3692 39.3032 43.7672 40.1828C45.1679 41.0802 46.3923 42.2224 47.3814 43.5529C46.6704 44.5238 44.6659 46.3452 43.7408 47.2756C43.0854 47.9348 41.5417 49.5346 40.8756 50.0793C39.7512 48.5043 38.3747 47.111 36.4029 46.842C31.5571 46.181 27.9352 51.9372 31.0533 55.8742C32.4877 57.6853 34.4245 58.2427 36.5992 58.2297L52.0631 58.2355C54.495 58.2363 57.0631 58.3466 59.4566 58.093C60.2951 58.004 61.9539 57.0308 62.4791 56.424C66.2477 52.0703 63.3615 47.4396 58.3551 46.6799C58.4181 43.1236 57.7003 40.3946 55.1627 37.7824Z" fill="white"/>
</svg>
