<svg width="96" height="96" viewBox="0 0 96 96" fill="none" xmlns="http://www.w3.org/2000/svg">
<path d="M47.2486 21.5342C49.3654 22.3692 51.7765 23.5835 53.8564 24.5733C57.1703 26.166 60.4934 27.7394 63.8255 29.2934C65.3348 30.0052 68.4621 31.6117 69.9029 32.0342L69.9152 52.9146L69.9112 58.6357C69.9105 59.5047 69.8712 61.2484 70.0002 62.044C65.3104 64.0986 60.7473 66.6159 56.067 68.6985C55.597 68.9076 55.118 69.1585 54.6553 69.3873C52.8597 70.2804 51.0507 71.1465 49.2291 71.9852C48.7762 72.1979 47.6152 72.8054 47.2383 72.9287C46.6042 72.7097 45.5273 72.1009 44.8363 71.8013C42.4151 70.7513 40.0193 69.4332 37.6362 68.3506C37.7162 67.4851 37.8706 61.9943 37.5463 61.5655L37.6431 61.4761C37.8708 60.9475 37.7324 51.8003 37.7065 50.5288C37.6441 48.7509 37.8743 45.1494 37.6151 43.5953C35.5985 43.6182 33.3486 43.5083 31.3591 43.6028L31.2621 43.8002C31.0345 44.0846 31.0575 44.1542 30.648 44.1779C29.1829 44.2632 27.5989 44.1763 26.1347 44.1255C25.7827 44.0843 24.9994 44.0935 24.6138 44.0864C24.6085 42.0674 24.6138 40.0484 24.6301 38.0295C25.0576 37.9623 25.5424 37.9332 25.9783 37.897C27.0318 37.9151 28.0847 37.9585 29.1361 38.0272C29.1428 36.514 29.1335 35.0007 29.108 33.4877C30.3795 32.9548 31.6985 32.5431 33.0474 32.258C34.5501 32.397 36.0505 32.5598 37.5479 32.7462C37.8257 32.2955 37.685 26.8856 37.7522 25.8722C38.1511 25.6394 38.7258 25.4015 39.157 25.2144C41.8643 24.0394 44.5088 22.6242 47.2486 21.5342Z" fill="white"/>
<path d="M37.7522 25.8722C38.1511 25.6394 38.7258 25.4015 39.157 25.2144C41.8643 24.0394 44.5088 22.6242 47.2486 21.5342L47.2382 72.9287C46.6042 72.7097 45.5273 72.1009 44.8362 71.8013C42.4151 70.7513 40.0193 69.4332 37.6362 68.3506C37.7162 67.4851 37.8706 61.9943 37.5463 61.5655L37.6431 61.4761C37.8708 60.9475 37.7324 51.8003 37.7065 50.5288C37.6441 48.7509 37.8743 45.1494 37.6151 43.5953C35.5985 43.6182 33.3486 43.5083 31.3591 43.6028L31.2621 43.8002C31.0345 44.0846 31.0575 44.1542 30.648 44.1779C29.1829 44.2632 27.5989 44.1763 26.1347 44.1254C25.7827 44.0843 24.9994 44.0935 24.6138 44.0864C24.6085 42.0674 24.6138 40.0484 24.6301 38.0295C25.0576 37.9623 25.5424 37.9332 25.9783 37.897C27.0318 37.9151 28.0847 37.9585 29.1361 38.0272C29.1428 36.514 29.1335 35.0007 29.108 33.4877C30.3795 32.9548 31.6985 32.5431 33.0474 32.258C34.5501 32.397 36.0505 32.5598 37.5479 32.7462C37.8257 32.2955 37.685 26.8856 37.7522 25.8722Z" fill="#E4E2DA"/>
<path d="M33.0481 32.2579C34.5508 32.397 36.0512 32.5597 37.5486 32.7461C37.5904 32.8058 37.6412 32.8787 37.701 32.9643C37.7779 36.0719 37.74 40.4872 37.7424 43.4412L33.0073 43.4474C33.0874 42.6626 33.0388 40.6123 33.0401 39.7304L33.0481 32.2579Z" fill="white"/>
<path d="M25.9783 37.8972C27.0318 37.9153 28.0847 37.9587 29.1361 38.0274C29.1548 39.8275 29.1579 41.6278 29.1457 43.4279C29.6507 43.5131 30.8171 43.678 31.2621 43.8003C31.0345 44.0847 31.0575 44.1544 30.648 44.1781C29.1829 44.2634 27.5989 44.1765 26.1347 44.1256C25.7827 44.0845 24.9994 44.0937 24.6138 44.0866C24.6085 42.0676 24.6138 40.0485 24.6301 38.0297C25.0576 37.9625 25.5424 37.9333 25.9783 37.8972Z" fill="white"/>
<path d="M24.6301 38.0297C25.0576 37.9625 25.5424 37.9333 25.9783 37.8972C26.0182 38.9683 25.773 43.5103 26.1347 44.1256C25.7827 44.0845 24.9994 44.0937 24.6138 44.0866C24.6085 42.0676 24.6138 40.0485 24.6301 38.0297Z" fill="#E4E2DA"/>
<path d="M26.0303 50.5284C28.5468 50.4675 30.2831 50.4917 32.8007 50.6273C34.1984 50.7026 36.2189 50.504 37.7061 50.5286C37.732 51.8001 37.8705 60.9473 37.6428 61.476L37.546 61.5653C36.0006 61.8904 34.5691 62.0542 33.0021 62.1717C31.8951 62.0131 30.4028 61.2153 29.1115 60.902C29.1433 59.3711 29.1515 57.8397 29.1363 56.3085C28.0264 56.4422 27.091 56.5525 25.9676 56.5977L24.648 56.3716C24.6055 54.4245 24.5949 52.477 24.616 50.5295L26.0303 50.5284Z" fill="white"/>
<path d="M29.1224 50.6533C30.3437 51.0779 31.7258 51.16 33.0181 51.3164C33.0421 53.679 33.0537 56.0416 33.0528 58.4043C33.052 59.4984 33.0919 61.1183 33.0029 62.1722C31.8959 62.0135 30.4036 61.2157 29.1123 60.9025C29.1441 59.3715 29.1523 57.8401 29.1371 56.3089C29.2705 54.9776 29.1499 52.0686 29.1224 50.6533Z" fill="#E4E2DA"/>
<path d="M24.616 50.5296L26.0303 50.5284C26.025 52.5517 26.0041 54.5749 25.9676 56.5977L24.648 56.3717C24.6055 54.4246 24.5949 52.477 24.616 50.5296Z" fill="#E4E2DA"/>
</svg>
