<svg width="96" height="96" viewBox="0 0 96 96" fill="none" xmlns="http://www.w3.org/2000/svg">
<path d="M47.8937 23.9802C48.8693 23.762 55.059 26.9895 56.3116 27.5808C58.4641 28.5929 60.6106 29.6176 62.7511 30.655C64.3321 31.407 66.2317 32.1426 67.6124 33.1931C68.3814 33.7786 68.7155 35.8536 68.9386 36.8122L70.1222 42.0397L71.8038 49.322C73.1461 55.03 73.5833 54.1207 69.8849 58.7243L65.6036 64.0417L61.9904 68.5544C61.5045 69.1634 60.4909 70.4998 59.9708 71.0192C59.5603 71.4328 59.0411 71.7232 58.4738 71.8561C57.3838 72.1145 55.2563 72.0403 54.0753 72.0407L48.2462 72.0388L41.672 72.0505C36.5226 72.0602 37.065 72.3292 33.8712 68.3278L30.5939 64.2341L26.545 59.2136C25.7189 58.1963 24.8913 57.194 24.088 56.153C23.1995 55.0016 23.1345 54.316 23.3888 52.9108C23.5969 51.7613 23.9028 50.6412 24.1622 49.5046C24.668 47.2081 25.1952 44.9163 25.7433 42.6296C26.1477 40.8035 26.5618 38.9794 26.9865 37.1579C27.2133 36.1783 27.5962 34.0164 28.2159 33.3854C29.2223 32.3611 31.7931 31.3276 33.1056 30.7058C34.9331 29.8182 36.7659 28.941 38.6036 28.0749C40.548 27.1522 46.1815 24.1775 47.8937 23.9802ZM47.7452 30.2809C47.3973 30.5233 47.2962 30.6052 47.0079 30.9147C46.9616 32.7472 47.6002 34.0438 46.7501 35.5017C43.2843 36.0774 40.8499 36.9947 38.3204 39.5954C37.862 39.4476 37.5724 39.4713 37.0031 39.1218C35.9633 38.483 34.5933 35.6541 33.2648 37.5446C33.1422 37.719 33.2815 38.1949 33.3868 38.3571C34.3029 39.7202 36.094 39.6768 36.799 41.3972C36.6343 41.8866 36.0812 42.702 35.8312 43.2673C34.9332 45.297 34.5866 47.1664 34.6281 49.3767C34.5932 50.5324 35.0519 50.5236 34.0441 51.1745C33.192 51.7248 29.9689 51.3655 29.8741 52.5143C29.6783 54.8887 32.7221 53.1193 33.7511 52.947C34.43 52.8334 34.8351 53.0647 35.2394 52.9118C35.347 53.0577 35.6192 53.9781 35.7628 54.2927C36.9506 56.9066 38.7769 58.7835 41.1232 60.3786C41.1159 60.3737 41.1114 61.0534 41.1036 61.1843C41.0348 62.3362 37.9231 65.1793 40.2609 65.7097C40.4946 65.7626 40.7527 65.6605 40.9435 65.5095C41.1174 65.3691 41.2643 65.1972 41.3761 65.0036C41.7647 64.3355 41.9428 63.2488 42.3214 62.4919C42.6515 61.832 43.0513 61.7653 43.2902 61.3561C45.0898 62.0674 46.4228 62.2246 48.3126 62.2116C49.8028 62.2171 51.3176 61.9641 52.6935 61.3776C53.2474 61.9276 53.327 61.9414 53.7394 62.6276C54.3393 63.6261 54.2659 65.6603 55.7179 65.694C56.4047 65.7099 56.6636 65.1403 56.5763 64.5241C56.3834 63.1648 54.8416 62.3103 54.9054 60.8806C54.9118 60.7596 54.8516 60.4863 54.9327 60.4128C55.3738 60.0135 56.0705 59.5712 56.507 59.1921C57.464 58.3606 58.3786 57.4656 59.0685 56.405C59.6289 55.5433 60.0176 54.79 60.4347 53.8571C60.5716 53.5508 60.6514 53.3316 60.755 53.0075C60.828 52.8794 61.1107 52.907 61.2277 52.8786C62.7036 52.5206 64.767 54.5083 65.964 53.3386C66.3202 52.9903 66.2305 52.2994 65.7433 52.0095C64.3922 51.206 62.4852 51.8992 61.3185 50.6686C61.2968 50.5633 61.3718 49.2376 61.3741 49.0222C61.402 46.3324 60.6283 43.7964 59.1993 41.53C59.1103 41.3875 59.3464 41.0837 59.4464 40.9255C60.3721 39.4608 62.1484 39.5395 62.8409 37.8513C62.5359 37.2376 61.9866 36.5246 61.2062 37.0476C60.2159 37.7113 59.5762 38.6967 58.5499 39.4108C57.7541 39.4637 57.7216 39.6944 57.1925 39.1892C54.9054 37.0052 52.3745 35.9509 49.2325 35.5309C48.4336 33.9144 49.0226 32.6702 48.9835 30.8893C48.5624 30.4649 48.3928 30.2331 47.7452 30.2809Z" fill="white"/>
<path d="M52.5073 51.5256C53.0641 51.6746 54.018 51.803 54.608 51.9C55.7596 52.1 56.9146 52.2809 58.0723 52.4427C57.3676 54.1224 56.9363 54.8947 55.6898 56.2835C55.0353 56.936 54.4897 57.3482 53.7512 57.8801C53.2532 56.4145 52.5492 55.0077 51.9842 53.5695C51.5841 52.5511 51.3519 51.9401 52.5073 51.5256Z" fill="white"/>
<path d="M46.2684 38.3141C46.3787 38.2998 46.7476 38.2464 46.7339 38.4571C46.651 39.722 46.5051 41.0843 46.4837 42.3504C46.421 46.0676 44.5275 44.103 42.8397 42.8794C42.0451 42.3298 41.2609 41.7651 40.4878 41.1856C40.8741 40.9445 41.5077 40.3796 41.9468 40.0828C43.4555 39.0624 44.5578 38.7059 46.2684 38.3141Z" fill="white"/>
<path d="M38.8951 43.2531C39.302 43.4968 43.0388 46.9876 43.151 47.2959C43.2383 47.5354 43.2182 47.8009 43.0957 48.0245C42.8175 48.5343 41.2823 48.8433 40.7036 49.0077C39.5582 49.271 38.486 49.7149 37.3142 49.949C37.2964 47.2572 37.6185 45.622 38.8951 43.2531Z" fill="white"/>
<path d="M57.047 43.2681C57.2563 43.4666 57.6798 44.3863 57.8035 44.6861C58.5173 46.4167 58.6776 48.1282 58.6948 49.9726C57.5818 49.6358 56.4658 49.3091 55.3468 48.9926C54.5076 48.7746 51.7724 48.2664 53.1572 46.8168C54.3399 45.5788 55.8029 44.485 57.047 43.2681Z" fill="white"/>
<path d="M49.2671 38.2644C51.4587 38.4638 53.8686 39.6771 55.3948 41.2672L53.3768 42.7063C52.5762 43.2553 49.9922 45.7433 49.6414 43.6271C49.5239 42.9178 49.5094 42.0604 49.4701 41.3276C49.4092 40.3061 49.3416 39.285 49.2671 38.2644Z" fill="white"/>
<path d="M47.6371 53.7693C47.8321 53.7534 48.0903 53.7352 48.2792 53.7915C48.8503 53.962 50.9984 58.1925 51.4321 58.9704C50.2869 59.3327 49.4721 59.417 48.2985 59.5017C47.1444 59.5979 45.6834 59.2828 44.5854 58.9585C45.0779 58.0943 47.1204 54.2112 47.6371 53.7693Z" fill="white"/>
<path d="M42.9154 51.681C45.3666 51.3561 43.9226 53.804 43.4347 54.966L42.2526 57.8396C41.6356 57.4168 41.2255 57.058 40.6658 56.5714C39.3871 55.4303 38.6621 54.0019 37.9297 52.4901C39.5878 52.1976 41.2498 51.9279 42.9154 51.681Z" fill="white"/>
<path d="M47.2371 47.1768C47.8088 47.1462 48.204 47.1497 48.777 47.1739C48.9978 47.3655 49.6902 48.2268 49.9058 48.4848C49.4111 49.8075 49.885 49.8492 48.4958 50.5074C48.325 50.5825 48.1435 50.6552 47.9706 50.7274C47.4288 50.4754 47.0097 50.26 46.4879 49.9686C46.3664 49.4076 46.2831 49.0044 46.0903 48.4669C46.4848 48.0582 46.8022 47.529 47.2371 47.1768Z" fill="white"/>
</svg>
