<svg width="96" height="96" viewBox="0 0 96 96" fill="none" xmlns="http://www.w3.org/2000/svg">
<path d="M48.5431 22.305C49.1693 22.2246 51.4442 22.1341 51.8369 22.6344C51.7062 23.063 50.2145 23.5841 49.7757 23.7517C28.874 31.7332 26.5173 60.1507 46.2633 71.1233C47.273 71.6843 51.3182 73.2049 51.7141 73.6443C51.7951 73.9657 51.8154 73.8561 51.6895 74.088C51.1606 74.3792 48.5305 74.1835 47.7997 74.0976C36.0656 72.8857 26.1543 62.9501 24.9669 51.0798C24.3081 44.4931 26.1554 37.0051 30.4528 31.9169C31.1544 31.0861 31.8953 30.1673 32.6546 29.3816C37.3863 25.2395 42.3792 22.9995 48.5431 22.305Z" fill="white"/>
<path d="M54.1973 26.2968C55.4744 26.0417 60.0723 26.7368 61.4432 27.1474C65.7023 28.4229 69.2115 30.9233 71.4738 34.8488C71.6721 35.193 71.9172 35.6323 71.8114 36.0035C71.7623 36.0187 71.7132 36.0339 71.6642 36.0491C70.7579 35.5092 69.485 34.5873 68.5816 34.1443C67.9177 33.8185 66.8448 33.2325 66.3122 33.0793C63.2766 32.2067 59.8367 31.5321 56.6833 31.7239C55.606 31.7894 54.4699 32.0545 53.4247 32.269C52.4453 32.4699 51.2549 32.7014 50.3373 33.0345C46.7226 34.3466 43.9693 36.7016 41.4623 39.5492C41.1424 39.8454 40.6997 40.6428 40.4499 41.0532C38.9346 43.542 37.7966 45.8775 37.3317 48.7898C37.23 49.427 37.0369 50.0467 36.9685 50.8049C36.845 52.1749 36.9909 53.7335 36.8745 55.0994C36.8661 55.1985 36.72 55.221 36.6467 55.2419C35.869 54.8645 35.2031 51.4405 35.0815 50.5677C33.2866 37.6886 41.544 27.6791 54.1973 26.2968Z" fill="white"/>
<path d="M56.4551 35.2722C62.2482 34.9463 68.1298 37.249 71.4341 42.4159C71.582 42.6472 71.7223 42.9853 71.8369 43.2419C68.3297 41.2022 67.3079 40.463 63.3712 39.1628C59.0657 37.5544 53.4412 37.6588 48.9724 38.6003C48.4043 38.7201 46.1324 39.7983 45.8369 39.5807C46.5363 38.1772 51.0148 36.2742 52.6037 35.8159C53.5511 35.5427 55.4201 35.3354 56.4551 35.2722Z" fill="white"/>
</svg>
