<svg width="96" height="96" viewBox="0 0 96 96" fill="none" xmlns="http://www.w3.org/2000/svg">
<path d="M42.3808 20.0371C45.7052 19.9436 49.0663 20.0494 52.3925 20.0117C54.4966 19.9878 54.437 20.3813 54.3388 22.3154C54.2971 23.137 54.2455 23.9969 54.1845 24.8223C55.8139 25.0211 58.6944 26.2723 60.0507 27.2207C60.8682 26.2768 62.2486 24.5264 63.331 24.0352C64.3731 24.53 67.0072 27.3793 67.9453 28.3232C69.0311 29.4158 71.3145 31.4396 71.9619 32.6807C71.4768 33.748 69.7131 35.1307 68.7666 35.9316C69.9106 37.4426 70.7603 39.9929 71.2207 41.8272C71.3218 41.8117 71.4234 41.7997 71.5253 41.791C72.0786 41.7394 75.2352 41.3761 75.7441 41.9424C75.9194 42.1377 76.0153 43.2745 75.9794 43.5957C75.8309 44.9237 76.3306 53.5808 75.6142 54.1846C74.8398 54.5429 72.152 54.2858 71.2216 54.1777C70.774 55.9299 69.9202 58.6767 68.7587 60.0625C69.7218 60.8531 71.4474 62.2447 71.957 63.3213C71.5321 64.2407 68.907 66.7749 68.0459 67.582C66.755 68.7921 64.7138 71.2503 63.2851 71.9766C62.2916 71.4829 60.8678 69.7004 60.0722 68.7969C58.5399 69.9611 56.0149 70.7609 54.1669 71.2481C54.275 72.2004 54.5593 74.6532 54.1962 75.5596C54.094 75.8148 53.8458 75.8839 53.5996 75.9619C50.6264 76.0483 47.6052 75.9428 44.6269 75.9854C43.8385 75.9966 42.514 76.0571 41.8388 75.6699C41.4345 75.0046 41.7378 72.1758 41.7949 71.2373C39.7896 70.7395 37.6349 69.9732 35.9238 68.7969C35.1159 69.7537 33.7529 71.4528 32.6757 71.9746C32.1402 71.7006 31.5998 71.2361 31.1777 70.8047C28.9968 68.5765 26.7271 66.4258 24.5878 64.1592C24.3649 63.923 24.1895 63.6261 24.0429 63.3389C24.4548 62.3103 26.2912 60.886 27.205 60.0625C26.0518 58.4444 25.2245 56.115 24.789 54.1787C23.782 54.2734 21.052 54.5993 20.2968 54.1094C20.1493 53.8968 20.0468 53.3257 20.0429 53.0576C19.9947 49.6778 20.0122 46.2887 20.04 42.9082C20.0591 42.6711 20.1129 41.9626 20.3466 41.8643C21.3953 41.423 23.6923 41.7006 24.7773 41.8272C25.2948 39.7362 26.0141 37.7345 27.2226 35.9385C26.6072 35.417 24.1331 33.393 24.1074 32.6875C24.6959 31.1203 28.94 27.7518 30.1044 26.2686C30.5555 25.6942 32.0697 24.3385 32.7207 24.0322C33.7376 24.5261 35.1214 26.3078 35.9414 27.2168C37.5296 26.0439 39.9372 25.2726 41.8339 24.7695C41.7065 23.8168 41.4786 21.4949 41.746 20.5469C41.8326 20.2404 42.1047 20.1492 42.3808 20.0371ZM43.705 21.9971C43.747 22.7712 44.0208 25.6981 43.6328 26.0889C43.283 26.4399 38.7933 27.5626 38.08 28.251C37.8618 28.4618 35.7237 29.4267 35.4707 29.4951C34.8219 28.9874 33.1073 27.1384 32.6337 26.416C32.0394 27.2161 30.1647 28.9706 29.4072 29.7539C28.8677 30.3117 26.9954 32.2148 26.4472 32.6025C27.1945 33.1601 29.0165 34.7394 29.5117 35.4785C29.2891 36.3342 27.997 38.5207 27.5449 39.5957C27.2138 40.3832 26.4115 43.2868 26.0781 43.6211C25.3631 43.9823 22.9563 43.7396 22.0127 43.6934L22.0195 52.3057C22.8165 52.2605 25.8188 51.97 26.1279 52.4141C26.4625 52.8948 27.3066 56.2392 27.8369 57.1025C28.2213 57.7284 29.4041 60.0575 29.3818 60.5557C29.1044 61.2305 27.093 62.9409 26.455 63.3457C27.6421 64.3913 29.0156 65.9058 30.1865 67.0264C30.6665 67.4858 32.3127 69.1143 32.6513 69.5615C32.926 69.1528 33.3684 68.6316 33.7002 68.2783C34.1999 67.7463 34.8011 66.8914 35.4726 66.6084C35.872 66.4401 37.0124 67.2393 37.3857 67.4258C38.0496 67.771 38.8051 68.1261 39.5 68.4277C40.7461 69.0219 42.351 69.3016 43.5488 69.8272C44.0636 70.4044 43.7577 73.0734 43.7119 73.9971L52.3212 73.9922C52.2789 73.2711 52.0112 70.2682 52.3877 69.9092C52.6277 69.6802 56.1057 68.6578 56.8027 68.3496C58.0231 67.8096 59.2119 66.8889 60.4765 66.6221C60.9825 66.5899 62.6497 68.6332 63.0312 69.1045C63.1502 69.2489 63.2641 69.3977 63.373 69.5498C64.4042 68.3597 65.921 66.9834 67.0341 65.8262C67.486 65.3565 69.1178 63.7115 69.5683 63.377C68.7247 62.7443 67.1784 61.3619 66.5293 60.5752C66.6691 59.9234 66.9973 59.3409 67.3222 58.7627C68.2347 57.1389 68.9767 55.424 69.4228 53.6113C69.5335 53.1616 69.6098 52.6701 69.9648 52.3457C70.8637 51.9709 72.9345 52.2853 74.0127 52.3008L74.0117 43.6856C73.1049 43.7343 70.5225 44.0138 69.9072 43.5713C69.5239 43.0157 68.7688 40.1728 68.3427 39.2109C67.877 38.1598 66.7813 36.3833 66.5107 35.4844C66.9562 34.8108 68.8634 33.1026 69.5654 32.6387C68.2657 31.467 66.9236 30.017 65.6621 28.7861C65.1563 28.2928 63.7679 26.9357 63.3789 26.4248C62.8936 27.0929 61.2782 29.078 60.58 29.3682C60.1186 29.56 57.6668 28.099 57.0595 27.7842C55.9273 27.1973 53.4487 26.6784 52.5009 26.1572C51.9593 25.8593 52.2558 22.7723 52.33 22.0039L43.705 21.9971Z" fill="white"/>
<path d="M47.9478 29.9989C48.5855 30.0034 58.7252 34.421 60.0484 35.0663C60.3339 35.2056 60.6 35.359 60.8374 35.5731C60.9446 35.8585 60.9808 36.219 60.978 36.5224C61.0058 39.2029 60.9309 41.8983 60.9702 44.577C61.0583 50.5738 61.3897 56.6976 56.9536 61.4335C54.6987 63.8408 51.5705 64.9239 48.2886 64.996C40.4182 65.0974 36.0687 59.7489 35.1245 52.2851C34.9724 51.082 35.0179 49.8202 35.023 48.6063C35.0398 44.5886 35.0121 40.5698 35.0249 36.5526C35.0929 35.9276 34.9892 35.4707 35.6616 35.1962C39.7056 33.5459 43.7545 31.5484 47.8286 29.9999C47.8436 29.9992 47.8586 29.9971 47.8735 29.997C47.8983 29.9967 47.9231 29.9988 47.9478 29.9989ZM47.9282 31.997C47.0258 32.3031 45.9948 32.7953 45.1138 33.202C42.4772 34.4196 39.6801 35.4381 37.0435 36.6317L37.0357 45.5106C37.0373 50.8106 36.5015 55.8781 40.5191 60.1229C42.4629 62.1766 45.3026 63.0036 48.0757 62.997C48.1289 62.9969 48.1826 62.9962 48.2359 62.995C53.1125 62.7866 56.2874 60.6211 58.0464 55.9403C59.3441 52.4862 58.9357 48.406 58.9693 44.7401C58.9921 42.2422 59.0616 39.5434 58.9556 37.0761C58.9482 36.914 58.9389 36.7516 58.9273 36.5897C56.4576 35.6962 53.8224 34.4028 51.3765 33.4091C50.7234 33.1437 48.4605 32.0501 47.9282 31.997Z" fill="white"/>
<path d="M47.9521 33.9971C48.1102 34.0194 48.3845 34.1204 48.541 34.1924C51.1991 35.4151 54.0686 36.4019 56.6005 37.8594C56.8555 38.0071 56.9826 39.0612 56.9687 39.3652C56.6163 47.0692 59.2778 60.6775 48.1396 60.9971C46.773 60.9875 45.786 60.892 44.5146 60.3711C41.1674 59.0525 39.4064 55.1855 39.1581 51.6611C38.8707 47.5823 39.1126 43.2014 39.0302 39.083C39.0214 38.635 39.1945 37.957 39.5986 37.7061C40.3949 37.2114 41.2929 36.8845 42.1494 36.5029C44.0733 35.6432 46.0081 34.8075 47.9521 33.9971ZM49.0009 59C50.6074 58.7994 52.0592 58.2357 53.0869 56.876C55.2247 54.1628 54.9852 51.1018 54.996 47.8574C55.0053 45.0837 54.9465 42.2726 54.9999 39.5049C53.3206 39.0503 50.8069 37.5352 48.9999 37L49.0009 59ZM46.7802 36.9971C45.0214 37.5836 42.6798 38.956 41.0331 39.4619C41.05 41.8548 41.0529 44.2478 41.041 46.6406C41.0373 50.4044 40.62 54.0401 43.1259 57.1123C44.3919 58.3597 45.2681 58.7984 46.9902 58.9971L46.9785 42.5322C46.9782 41.7858 47.0804 37.5522 46.9326 37.04L46.7802 36.9971Z" fill="white"/>
</svg>
