<svg width="96" height="96" viewBox="0 0 96 96" fill="none" xmlns="http://www.w3.org/2000/svg">
<path d="M34.2962 25.8025C36.4831 25.671 39.6256 25.7848 41.8891 25.7696C43.7377 25.7572 47.1435 25.6693 48.86 25.818C49.7412 26.6945 53.2826 34.748 54.0569 36.3797L61.8791 52.8084C62.6075 54.3626 63.4542 55.8943 64.1397 57.4781C64.3874 58.0503 64.7837 58.6684 64.8864 59.2752C65.9506 59.1979 68.7978 59.1257 69.6888 59.4488C70.0045 60.5973 69.8851 63.7037 69.8736 65.0531C69.8618 66.431 70.0389 69.4623 69.6943 70.6096C69.3696 70.7766 69.1899 70.8397 68.8467 70.9579C67.3288 71.0482 65.1067 70.962 63.5095 70.9707C61.6616 70.9809 59.0405 71.0639 57.253 70.8961C56.6119 70.0724 55.8512 68.3234 55.3512 67.3124C53.5929 63.7563 51.9425 60.1146 50.2287 56.5376C48.2007 52.3827 46.2008 48.214 44.2293 44.0319C43.5715 42.6662 42.9215 41.2966 42.2794 39.9234C41.9402 39.2059 41.4104 38.1625 41.1529 37.4392C40.3536 37.5383 34.5035 37.5686 33.9201 37.4282C33.8584 37.3647 33.8118 37.2973 33.7794 37.2148C33.6517 36.889 33.6029 36.5265 33.5802 36.1789C33.5008 34.9594 33.4189 26.717 33.6943 26.1788C33.81 25.9527 34.0745 25.8857 34.2962 25.8025ZM35.4674 35.7576C36.2942 35.7254 41.9383 35.6574 42.351 35.871C43.39 37.5114 44.5109 40.2998 45.3989 42.0836C46.716 44.7295 47.9674 47.4579 49.2517 50.1201L55.1849 62.5505L57.4575 67.3029C57.7271 67.8778 58.104 68.5299 58.3146 69.1039C60.2743 69.0776 62.2342 69.0701 64.194 69.0812C65.2536 69.0815 66.9354 69.036 67.9522 69.1185C67.7946 67.6374 67.9635 65.4131 67.8968 63.8546C67.8773 63.3992 67.8424 61.2941 67.8959 60.9615C66.555 60.9619 65.1507 60.9978 63.8209 60.9791C62.9787 59.8029 61.4862 56.4 60.7896 54.9107L56.0522 44.8873C54.0007 40.5802 51.849 36.2824 49.8704 31.9358C49.3835 30.8664 48.1573 28.5849 47.9137 27.5898C46.3911 27.7613 43.014 27.6415 41.3735 27.6594C40.105 27.6734 36.6041 27.7381 35.4713 27.6056C35.5931 28.3236 35.613 35.1009 35.4674 35.7576Z" fill="white"/>
<path d="M39.4242 43.3373C40.5455 43.5853 41.2167 45.4727 41.6922 46.4658L43.7553 50.8403C44.561 52.5334 45.4794 54.1804 46.2292 55.8916C46.3285 56.1182 46.3659 56.3071 46.3054 56.5482C46.0623 57.5157 45.5131 58.5558 45.0821 59.4722L43.0452 63.7613C42.1666 65.6197 40.6751 69.0942 39.6897 70.7099C38.8231 71.1199 37.6039 70.9924 36.6484 70.9831L33.3397 70.969L29.6222 70.9858C25.0732 71.0026 26.0648 70.3741 27.7249 66.897C28.728 64.7489 29.7444 62.6071 30.7742 60.4717L35.5938 50.3904C36.5343 48.392 37.4637 46.3454 38.4548 44.3716C38.6845 43.9141 38.9839 43.5986 39.4242 43.3373ZM28.767 69.0953L33.6912 69.0816C35.1853 69.0806 36.9222 69.039 38.3958 69.1294C38.9398 67.8316 39.6502 66.3396 40.2949 65.0745C41.7273 62.264 42.9369 59.1426 44.4297 56.3835C43.365 54.9308 40.1908 47.0948 39.5073 46.5059C39.2683 47.2301 38.4396 48.9181 38.0837 49.6705L35.2193 55.6602C33.7695 58.7622 32.288 61.8492 30.775 64.9209C30.1343 66.2464 29.4658 67.8231 28.767 69.0953Z" fill="white"/>
</svg>
