<svg width="96" height="96" viewBox="0 0 96 96" fill="none" xmlns="http://www.w3.org/2000/svg">
<path d="M58.0581 26.1547C59.2602 25.9478 60.7469 26.3167 61.7583 26.9955C62.8885 27.7425 63.6706 28.9133 63.9272 30.2436C64.8954 35.2744 59.601 38.4555 55.4624 35.6127C52.8676 37.5263 50.2743 40.1544 47.6909 42.058C48.3656 43.8144 48.6896 44.8384 48.8452 46.7162C51.0072 46.7531 53.2266 46.7305 55.393 46.7319C55.5073 45.8528 55.8552 45.0203 56.4008 44.3217C57.3125 43.1583 58.4405 42.5346 59.8794 42.3237C64.6244 41.6281 67.7513 47.2197 64.7446 50.8881C63.83 51.9962 62.5088 52.6912 61.0776 52.8168C59.6653 52.9497 58.2578 52.5165 57.1645 51.6127C56.1932 50.8069 55.5075 49.6196 55.3921 48.3549L48.8335 48.353C48.6896 50.3897 48.4075 51.2189 47.6606 53.0795C50.1836 55.036 53.006 57.4602 55.4145 59.5629C56.4776 58.8662 57.8229 58.2561 59.1069 58.3901C62.0668 58.6992 64.3364 61.2162 64.0112 64.2367C63.823 65.9829 63.2295 66.8946 61.9292 67.9877C57.1623 71.3835 51.1483 66.0305 54.3569 60.7719C53.9959 60.4461 53.5279 60.1122 53.1421 59.8031C50.9716 58.0652 48.9 56.1206 46.7407 54.3822C46.0076 55.6593 44.9878 56.7233 43.7964 57.5873C41.1029 59.5638 37.7302 60.3795 34.4311 59.853C31.1609 59.3281 28.2338 57.5233 26.2973 54.8364C24.3863 52.1732 23.5462 48.605 24.1723 45.4125C26.3649 34.2334 40.238 31.4375 46.7465 40.6537C47.1916 40.4191 48.7632 39.0249 49.2553 38.6088L54.352 34.3158C53.885 33.6852 53.6222 33.0333 53.4985 32.2592C53.2793 30.8378 53.6338 29.3874 54.4848 28.228C55.3667 27.02 56.6037 26.3855 58.0581 26.1547ZM58.6801 60.0815C57.361 60.1307 56.1711 60.8872 55.5669 62.061C54.9625 63.2348 55.0385 64.6432 55.7651 65.7455C56.4917 66.8477 57.7559 67.4728 59.0727 67.3803C61.063 67.2403 62.5734 65.5299 62.4663 63.5375C62.3591 61.5453 60.674 60.0072 58.6801 60.0815ZM47.1626 46.2572C46.4401 40.3479 41.0632 36.1429 35.1538 36.8656C29.2456 37.5886 25.0414 42.9641 25.7631 48.8725C26.4852 54.781 31.8604 58.9862 37.769 58.2651C43.6787 57.5435 47.8847 52.1669 47.1626 46.2572ZM64.2387 47.1528C64.0078 45.1533 62.2016 43.7179 60.2016 43.9438C58.1944 44.1705 56.7531 45.984 56.9848 47.9906C57.2167 49.9973 59.0335 51.4345 61.0395 51.1977C63.0383 50.9616 64.4697 49.1521 64.2387 47.1528ZM62.4165 30.811C62.0927 28.8304 60.2312 27.4823 58.2485 27.7924C56.2464 28.1056 54.8826 29.9889 55.2094 31.9887C55.5364 33.9884 57.4288 35.3398 59.4262 34.9994C61.4044 34.6621 62.7401 32.7914 62.4165 30.811Z" fill="white"/>
</svg>
