<svg width="96" height="96" viewBox="0 0 96 96" fill="none" xmlns="http://www.w3.org/2000/svg">
<path d="M27.2723 50.7938C32.2596 50.5513 37.2491 50.3582 42.2402 50.2145C43.3128 50.1814 44.395 50.1383 45.4671 50.0888C48.0513 49.9694 50.6507 50.1511 53.2362 50.2359C58.13 50.3867 63.0224 50.5772 67.9131 50.8074L67.9332 55.2468C67.2564 55.3429 61.1292 56.8844 60.7685 57.0887L60.6857 57.2691C62.1033 57.3252 65.8918 57.7756 67.3757 58.072C67.7201 58.1068 67.7416 58.0466 67.9341 58.2552C68.0591 59.3032 67.9606 61.2781 68.0001 62.4587C61.9496 65.5851 55.808 68.5631 49.7346 71.6478C49.0019 72.02 48.1396 72.446 47.3158 72.5304C45.4874 72.3916 29.8048 63.7993 26.7149 62.5224C26.7236 61.0934 26.741 59.6644 26.7668 58.2356C27.0558 57.9951 33.2385 57.3241 34.0365 57.1881C33.5095 56.6875 29.8799 56.1437 28.9073 55.7512C28.5134 55.5923 27.132 55.3057 26.7092 55.2563C26.7411 54.3598 26.5315 51.2388 26.9473 50.7916L27.2723 50.7938Z" fill="white"/>
<path d="M27.2723 50.7938C32.2596 50.5513 37.2491 50.3582 42.2402 50.2145C43.3128 50.1814 44.395 50.1383 45.4671 50.0888C48.0513 49.9694 50.6507 50.1511 53.2362 50.2359C58.13 50.3867 63.0224 50.5772 67.9131 50.8074L67.9332 55.2468C67.2564 55.3429 61.1292 56.8844 60.7685 57.0887L60.6857 57.2691C59.4504 57.067 52.1083 59.3294 50.4055 59.6455C49.6946 59.7776 48.1704 60.3295 47.3046 60.3308C45.6176 60.072 34.695 56.9113 34.0365 57.1881C33.5095 56.6875 29.8799 56.1437 28.9073 55.7512C28.5134 55.5923 27.132 55.3057 26.7092 55.2563C26.7411 54.3598 26.5315 51.2388 26.9473 50.7916L27.2723 50.7938Z" fill="#EDEDED"/>
<path d="M26.7092 55.2563C26.7411 54.3598 26.5315 51.2388 26.9473 50.7916L27.2723 50.7938C28.3116 51.3101 35.5439 51.7503 37.1851 51.9063C40.3388 52.2063 44.166 52.7593 47.3089 52.9488L47.3046 60.3308C45.6176 60.072 34.695 56.9113 34.0365 57.1881C33.5095 56.6875 29.8799 56.1437 28.9073 55.7512C28.5134 55.5923 27.132 55.3057 26.7092 55.2563Z" fill="white"/>
<path d="M67.3755 58.072C67.7199 58.1068 67.7414 58.0465 67.9339 58.2552C68.0589 59.3032 67.9603 61.2781 67.9999 62.4587C61.9494 65.5851 55.8078 68.5631 49.7344 71.6478C49.0017 72.02 48.1394 72.446 47.3155 72.5304C47.3902 70.9012 47.3546 66.9843 47.2671 65.3832C48.4633 65.0954 66.4059 58.9232 66.9195 58.4701L67.3755 58.072Z" fill="#EDEDED"/>
<path d="M26.7667 58.2356C27.318 58.5292 28.7822 58.9518 29.4391 59.1797L35.5416 61.3038L43.0248 63.9307C44.009 64.2818 46.2897 65.1578 47.2672 65.3832C47.3548 66.9843 47.3903 70.9012 47.3157 72.5305C45.4873 72.3916 29.8047 63.7994 26.7148 62.5224C26.7235 61.0934 26.7409 59.6644 26.7667 58.2356Z" fill="white"/>
<path d="M47.4119 23.0286C48.708 23.5946 50.2173 24.6267 51.5838 25.1527L51.5744 32.1435C52.7788 31.8463 53.8743 31.5044 55.1098 31.2268C56.2998 31.5595 57.3766 32.1378 58.2783 32.3891C58.3639 34.059 58.3345 35.8437 58.3337 37.5248C58.2873 41.0011 58.3725 44.533 58.3041 47.9895L55.1761 47.9852L51.5764 47.9882L47.3878 47.9965C40.6008 47.9698 33.4926 47.8912 26.7183 48.0054C26.8616 43.2936 26.6931 38.0756 26.7496 33.3037C27.9601 32.8765 29.5961 31.9991 30.7903 31.3989L36.5827 28.4946C39.8247 26.8617 44.417 24.7803 47.4119 23.0286Z" fill="white"/>
<path d="M55.1101 31.2266C56.3001 31.5593 57.377 32.1375 58.2786 32.3888C58.3643 34.0587 58.3349 35.8434 58.3341 37.5246C58.2876 41.0008 58.3728 44.5327 58.3044 47.9892L55.1764 47.9849L51.5767 47.9879L51.5747 32.1432C52.7791 31.846 53.8746 31.5041 55.1101 31.2266Z" fill="white"/>
<path d="M55.1099 31.2266C56.2999 31.5593 57.3767 32.1375 58.2784 32.3888C58.364 34.0587 58.3346 35.8434 58.3338 37.5246C58.2874 41.0008 58.3726 44.5327 58.3042 47.9892L55.1762 47.9849C55.1247 43.5156 55.207 39.0329 55.1742 34.5625C55.1667 33.5301 55.2471 32.2327 55.1099 31.2266Z" fill="#EDEDED"/>
<path d="M47.4121 23.0286C48.7081 23.5946 50.2174 24.6267 51.584 25.1527L51.5745 32.1435L51.5765 47.9882L47.388 47.9965C47.3291 44.0238 47.378 39.9295 47.3771 35.9491C47.3542 31.6422 47.3659 27.3353 47.4121 23.0286Z" fill="#EDEDED"/>
<path d="M61.0914 37.2653C61.0865 36.8927 61.0774 36.8091 61.1874 36.4466C61.5252 36.0776 65.3095 35.6061 65.997 35.5425L67.9512 36.2151C67.9808 40.1427 67.9828 44.0706 67.9572 47.9982L66.0487 47.9899L63.5329 47.9874L61.1386 47.9866L58.3042 47.9895C58.3726 44.533 58.2874 41.0011 58.3339 37.5249C59.2814 37.4157 60.1356 37.3263 61.0914 37.2653Z" fill="white"/>
<path d="M58.3339 37.5245C59.2814 37.4153 60.1356 37.3258 61.0914 37.2649C61.2085 38.3627 61.1715 40.8376 61.1516 42.0438C61.1205 43.9342 61.2128 46.1306 61.1386 47.9862L58.3042 47.9891C58.3726 44.5326 58.2874 41.0007 58.3339 37.5245Z" fill="white"/>
<path d="M61.0918 37.2649C62.0712 37.3914 62.5413 37.4669 63.4721 37.8529C63.5757 41.1228 63.3681 44.8355 63.5333 47.987L61.1391 47.9862C61.2132 46.1306 61.121 43.9342 61.152 42.0438C61.1719 40.8376 61.2089 38.3627 61.0918 37.2649Z" fill="#EDEDED"/>
<path d="M65.9966 35.5425L67.9507 36.2151C67.9804 40.1427 67.9824 44.0706 67.9567 47.9982L66.0482 47.9899C65.9461 44.1548 66.05 40.2977 66.0322 36.4604C66.0308 36.1519 66.0178 35.8504 65.9966 35.5425Z" fill="#EDEDED"/>
</svg>
