<svg width="96" height="96" viewBox="0 0 96 96" fill="none" xmlns="http://www.w3.org/2000/svg">
<path d="M30.3271 37.4738C31.057 37.3907 33.9319 37.4503 34.7653 37.4498L39.5414 37.449C41.317 37.4493 43.5114 37.2252 44.9841 38.3755C47.1831 40.0932 47.5602 42.9795 45.8712 45.2121C45.1058 46.2239 43.8212 46.6921 42.6035 46.8709C39.0725 46.9997 35.4728 46.8504 31.936 46.923C30.4818 46.9529 29.1866 46.8728 27.9418 46.0405C26.9258 45.3502 26.22 44.2901 25.9751 43.0864C25.379 40.0286 27.4536 37.9806 30.3271 37.4738Z" fill="white"/>
<path d="M40.8294 48.9947C43.584 48.7728 46.2098 50.3647 46.7893 53.267C47.0158 54.4012 46.9681 55.7787 46.9772 56.9418C46.9891 58.955 46.9878 60.9682 46.9735 62.9814C46.9722 64.9483 47.0449 67.1131 46.9153 69.069C46.8713 69.7345 46.4368 70.8245 46.0695 71.3783C45.1202 72.8101 44.0015 73.5686 42.3808 73.9337C38.9444 74.3374 36.0016 71.6816 36.0057 68.1031C36.0111 63.4029 35.9318 58.6661 36.1097 53.9771C36.1165 53.7979 36.1927 53.5514 36.2245 53.3714C36.8082 50.7672 38.432 49.6299 40.8294 48.9947Z" fill="white"/>
<path d="M53.8829 22.0056C56.5067 21.7016 59.2423 23.6427 59.7535 26.3726C60.029 27.8436 59.9491 29.4118 59.9465 30.9099L59.9397 36.1817C59.9359 40.6418 60.8488 45.8705 55.2462 46.9345C52.4713 47.2684 49.6372 45.4687 49.2474 42.5821C48.8088 39.3337 49.1056 35.4214 49.0371 32.123C48.941 27.4914 48.5633 23.2711 53.8829 22.0056Z" fill="white"/>
<path d="M54.4913 48.9964C55.0475 48.9602 55.6394 48.9782 56.1989 48.9828C60.2278 49.0166 64.262 48.935 68.2895 49.0168C69.573 49.0428 70.7615 49.3864 71.7807 50.1722C74.0325 51.9086 74.8072 55.1686 72.9588 57.4675C71.6054 59.151 70.6059 59.6704 68.4401 59.9356C65.6322 60.035 62.58 59.9076 59.7384 59.9393C57.7972 59.8841 55.8421 60.0319 53.9133 59.8097C49.4523 59.2958 47.5342 54.3255 50.2347 50.9596C51.2797 49.6572 52.9021 49.194 54.4913 48.9964Z" fill="white"/>
<path d="M41.1741 21.9742C44.2831 22.0566 46.5725 23.9951 46.8887 27.0823C46.9685 27.8616 47.0982 32.334 46.839 32.8973C46.6002 33.0614 42.7411 32.9129 42.09 32.9074C40.6986 32.8633 39.0658 32.6442 37.9978 31.6854C34.1235 28.2071 36.232 22.6422 41.1741 21.9742Z" fill="white"/>
<path d="M31.4039 48.9838C31.8722 48.9614 32.5117 48.9875 32.9927 48.9939C32.9652 50.0679 32.9508 51.1421 32.9495 52.2165C32.9585 54.1946 33.1511 55.5238 32.1533 57.3005C31.4511 58.5389 30.288 59.4398 28.9248 59.8014C27.5205 60.175 25.8941 59.9308 24.6473 59.1867C21.9137 57.1918 20.9859 53.766 23.327 50.9445C25.347 48.5101 28.5575 49.0474 31.4039 48.9838Z" fill="white"/>
<path d="M49.2818 63.0219C50.7284 62.9636 52.2803 63.0497 53.7296 62.9826C57.1937 62.8222 60.0036 64.9716 59.9926 68.6594C59.988 70.2042 59.2604 71.375 58.166 72.4456C57.1699 73.3253 55.9753 74.0313 54.7061 73.9706C49.5096 73.722 48.7501 69.2582 49.0486 64.9148C49.0899 64.3132 48.883 63.4505 49.2818 63.0219Z" fill="white"/>
<path d="M68.3776 35.9767C68.9909 35.9455 70.2191 36.22 70.7636 36.5045C76.0157 39.2483 74.5133 46.4217 68.765 46.9242C66.9622 46.9226 64.7644 46.8641 62.993 46.9742L62.9944 43.3778C62.9957 41.178 62.882 39.8114 64.2973 37.9241C65.3154 36.5663 66.7736 36.1824 68.3776 35.9767Z" fill="white"/>
</svg>
