<svg width="35" height="23" viewBox="0 0 35 23" fill="none" xmlns="http://www.w3.org/2000/svg">
<g clip-path="url(#clip0_23987_7189)">
<path d="M3.0249 20.8322V20.2611C3.0249 19.0686 3.85293 18.3376 5.07749 18.3376C6.18845 18.3376 6.92799 18.9156 7.02412 19.8716H6.03114C5.93501 19.3816 5.6073 19.1337 5.07749 19.1337C4.43408 19.1337 4.03427 19.5232 4.03427 20.084V21.0149C4.03427 21.5928 4.44609 21.9583 5.07749 21.9583C5.60184 21.9583 5.92955 21.7116 6.03114 21.2216H7.02412C6.92799 22.1708 6.18299 22.7556 5.04909 22.7556C3.84747 22.7556 3.0249 22.0234 3.0249 20.8322Z" fill="white"/>
<path d="M9.68601 18.397H11.0122L12.4672 22.6927H11.4742L11.1924 21.8258H9.48938L9.20646 22.6927H8.23096L9.68601 18.397ZM9.73736 21.0799H10.939L10.4703 19.6534L10.3611 19.1394H10.3098L10.2005 19.6534L9.73736 21.0799Z" fill="white"/>
<path d="M13.9858 18.397H15.7391C17.0085 18.397 17.7589 19.1051 17.7589 20.3387V20.751C17.7589 22.0245 16.9691 22.6927 15.7391 22.6927H13.9858V18.397ZM14.9613 19.2045V21.8932H15.726C16.4087 21.8932 16.7474 21.5151 16.7474 20.92V20.1799C16.7474 19.5551 16.3858 19.2068 15.726 19.2068L14.9613 19.2045Z" fill="white"/>
<path d="M19.394 18.3959H22.5762V19.1988H20.3695V20.1308H21.9098V20.8847H20.3695V21.8875H22.5871V22.6962H19.394V18.3959Z" fill="white"/>
<mask id="mask0_23987_7189" style="mask-type:luminance" maskUnits="userSpaceOnUse" x="0" y="-1" width="30" height="19">
<path d="M10.9927 15.7643C10.5306 16.4838 9.71021 16.3868 9.71021 16.3868H2.37375C2.94666 16.7895 3.5894 17.0712 4.26576 17.216H8.99032C9.25359 17.1874 9.57475 17.1018 9.73642 16.8916C9.8817 16.7055 10.069 16.5601 10.2815 16.4685C10.4939 16.377 10.7248 16.3422 10.9533 16.3673H27.586C28.0487 16.0427 28.4582 15.642 28.7985 15.1806H12.0741C12.0556 15.1806 11.3586 15.1806 10.9883 15.7597M13.3042 13.3611C13.3042 13.3611 12.593 13.3611 12.2183 13.9414C11.7552 14.6598 10.9348 14.5627 10.9348 14.5627H0.713327C0.886024 14.8641 1.08495 15.1482 1.30758 15.4113H9.81398C9.81398 15.4113 10.6682 15.4719 10.9664 15.0687C11.1122 14.8834 11.2997 14.739 11.5122 14.6485C11.7246 14.558 11.9553 14.5242 12.1834 14.5501H29.1994C29.4042 14.1761 29.5652 13.7777 29.679 13.3634L13.3042 13.3611ZM13.3511 12.083C12.889 12.8015 12.0687 12.7032 12.0687 12.7032H0.0644507C0.111753 12.9931 0.182652 13.2781 0.276373 13.5553H10.9533C10.9533 13.5553 11.8076 13.617 12.1047 13.2126C12.25 13.0265 12.4373 12.8811 12.6498 12.7896C12.8622 12.6981 13.0931 12.6633 13.3216 12.6884H29.8166C29.858 12.4179 29.8796 12.1445 29.8811 11.8706C29.8811 11.7461 29.8723 11.6239 29.8647 11.5017H14.4413C14.4228 11.5017 13.7258 11.5017 13.3555 12.0819M15.5971 9.71759C15.5971 9.71759 14.887 9.71759 14.5112 10.2978C14.0492 11.0162 13.2288 10.9192 13.2288 10.9192H0.0786514C0.0312802 11.1991 0.0049826 11.4824 0 11.7667H12.1025C12.1025 11.7667 12.9579 11.8272 13.255 11.424C13.4001 11.2376 13.5873 11.0919 13.7998 11.0002C14.0123 10.9084 14.2433 10.8735 14.4719 10.8986H29.7926C29.722 10.4905 29.6065 10.0923 29.4485 9.71188L15.5971 9.71759ZM16.7987 7.89011C16.7987 7.89011 16.0875 7.89011 15.7129 8.47033C15.2508 9.18876 14.4304 9.09168 14.4304 9.09168H0.731897C0.576425 9.36182 0.444095 9.64581 0.336454 9.94032H13.3085C13.3085 9.94032 14.1639 9.99971 14.461 9.59766C14.6061 9.41124 14.7933 9.26557 15.0058 9.17383C15.2183 9.0821 15.4493 9.04719 15.6779 9.07226H29.1405C28.8894 8.63327 28.5801 8.23372 28.2218 7.88554L16.7987 7.89011ZM17.9796 6.06948C17.9796 6.06948 17.2695 6.06948 16.8937 6.64856C16.4327 7.36699 15.6113 7.26991 15.6113 7.26991H2.44039C2.07478 7.50827 1.73902 7.79335 1.44086 8.11854H14.4905C14.4905 8.11854 15.3447 8.17908 15.6419 7.77589C15.7871 7.5897 15.9744 7.44421 16.1868 7.3525C16.3993 7.26078 16.6302 7.22573 16.8588 7.25049H27.4167C26.7764 6.83878 26.0574 6.5791 25.3106 6.4898C25.2931 6.34703 25.2658 6.20654 25.2417 6.06491L17.9796 6.06948ZM19.1506 4.24771C19.1506 4.24771 18.4395 4.24771 18.0648 4.82793C17.6027 5.54636 16.7823 5.44814 16.7823 5.44814H5.05009C4.94802 5.7236 4.868 6.00746 4.81086 6.29677H15.6615C15.6615 6.29677 16.5158 6.35731 16.8129 5.95983C16.958 5.77341 17.1452 5.62774 17.3577 5.536C17.5702 5.44427 17.8012 5.40936 18.0298 5.43443H25.1063C25.0034 5.02838 24.8697 4.63155 24.7065 4.24771H19.1506ZM20.3522 2.42708C20.3522 2.42708 19.6422 2.42708 19.2675 3.00616C18.8054 3.72459 17.9839 3.62751 17.9839 3.62751H6.17525C5.93422 3.88751 5.71833 4.17177 5.53074 4.47614H16.8664C16.8664 4.47614 17.7218 4.53668 18.0178 4.13349C18.1631 3.94697 18.3505 3.80126 18.5632 3.70952C18.7758 3.61779 19.007 3.58293 19.2358 3.60809H24.405C24.1848 3.18962 23.9288 2.79281 23.6403 2.42251L20.3522 2.42708ZM21.5189 0.599598C21.5189 0.599598 20.8088 0.599598 20.4331 1.17982C19.971 1.89825 19.1506 1.80117 19.1506 1.80117H12.3112C12.1323 1.98479 11.9627 2.17808 11.8032 2.38025C11.1835 2.11381 10.5201 1.97647 9.85003 1.97592C8.99047 1.97853 8.14571 2.21006 7.39544 2.64866H18.0331C18.0331 2.64866 18.8873 2.7092 19.1845 2.30601C19.33 2.11986 19.5175 1.97448 19.7301 1.88296C19.9427 1.79144 20.1738 1.75666 20.4025 1.78175H23.0963C23.0865 1.77147 23.0788 1.76005 23.069 1.75091C22.6337 1.30739 22.1497 0.919384 21.627 0.595029L21.5189 0.599598ZM15.0006 -0.0148926C14.4482 0.204668 13.9216 0.489386 13.4309 0.833744H19.1987C19.1987 0.833744 20.054 0.89428 20.35 0.491091C20.4615 0.341403 20.6023 0.218347 20.763 0.130163C20.6718 0.0371903 20.5495 -0.0148615 20.4221 -0.0148926C20.3642 -0.0148926 20.3238 -0.0148926 20.3238 -0.0148926H15.0006Z" fill="white"/>
</mask>
<g mask="url(#mask0_23987_7189)">
<path d="M6.88615 2.43164L5.52832 3.85137V2.43164H6.88615Z" fill="white"/>
<path d="M7.56999 2.43164L5.54798 4.54581H5.52832V3.85137L6.88615 2.43164H7.56999Z" fill="white"/>
<path d="M8.25308 2.43164L6.23217 4.54581H5.54834L7.57034 2.43164H8.25308Z" fill="white"/>
<path d="M8.93668 2.43164L6.91467 4.54581H6.23193L8.25285 2.43164H8.93668Z" fill="white"/>
<path d="M9.61929 2.43164L7.59838 4.54581H6.91455L8.93655 2.43164H9.61929Z" fill="white"/>
<path d="M10.3034 2.43164L8.28137 4.54581H7.59863L9.61954 2.43164H10.3034Z" fill="white"/>
<path d="M10.986 2.43164L8.96508 4.54581H8.28125L10.3033 2.43164H10.986Z" fill="white"/>
<path d="M11.6701 2.43164L9.64807 4.54581H8.96533L10.9862 2.43164H11.6701Z" fill="white"/>
<path d="M12.3527 2.43164L10.3318 4.54581H9.64795L11.67 2.43164H12.3527Z" fill="white"/>
<path d="M13.0363 2.43164L11.0143 4.54581H10.3315L12.3525 2.43164H13.0363Z" fill="white"/>
<path d="M13.7194 2.43164L11.6985 4.54581H11.0146L13.0367 2.43164H13.7194Z" fill="white"/>
<path d="M14.403 2.43164L12.3821 4.54581H11.6982L13.7192 2.43164H14.403Z" fill="white"/>
<path d="M15.0871 2.43164L13.0651 4.54581H12.3823L14.4032 2.43164H15.0871Z" fill="white"/>
<path d="M15.7697 2.43164L13.7488 4.54581H13.0649L15.0869 2.43164H15.7697Z" fill="white"/>
<path d="M16.4533 2.43164L14.4313 4.54581H13.7485L15.7694 2.43164H16.4533Z" fill="white"/>
<path d="M17.1364 2.43164L15.1155 4.54581H14.4316L16.4536 2.43164H17.1364Z" fill="white"/>
<path d="M17.82 2.43164L15.798 4.54581H15.1152L17.1361 2.43164H17.82Z" fill="white"/>
<path d="M18.5026 2.43164L16.4817 4.54581H15.7979L17.8199 2.43164H18.5026Z" fill="white"/>
<path d="M19.1867 2.43164L17.1647 4.54581H16.4819L18.5028 2.43164H19.1867Z" fill="white"/>
<path d="M19.8693 2.43164L17.8484 4.54581H17.1646L19.1866 2.43164H19.8693Z" fill="white"/>
<path d="M20.5534 2.43164L18.5314 4.54581H17.8486L19.8695 2.43164H20.5534Z" fill="white"/>
<path d="M21.236 2.43164L19.2151 4.54581H18.5312L20.5533 2.43164H21.236Z" fill="white"/>
<path d="M21.9196 2.43164L19.8987 4.54581H19.2148L21.2358 2.43164H21.9196Z" fill="white"/>
<path d="M22.6026 2.43164L20.5817 4.54581H19.8989L21.9198 2.43164H22.6026Z" fill="white"/>
<path d="M23.2863 2.43164L21.2654 4.54581H20.5815L22.6025 2.43164H23.2863Z" fill="white"/>
<path d="M23.9704 2.43164L21.9484 4.54581H21.2656L23.2865 2.43164H23.9704Z" fill="white"/>
<path d="M24.405 2.69091L22.6321 4.54467H21.9482L23.9702 2.43164H24.405V2.69091Z" fill="white"/>
<path d="M24.4048 3.40592L23.3146 4.54467H22.6318L24.4048 2.69092V3.40592Z" fill="white"/>
<path d="M24.4051 4.11987L23.9988 4.5459H23.3149L24.4051 3.40601V4.11987Z" fill="white"/>
<path d="M23.9985 4.5459L24.4049 4.11987V4.5459H23.9985Z" fill="white"/>
<path d="M3.40284 6.0741L1.44092 8.12544V6.0741H3.40284Z" fill="white"/>
<path d="M4.08558 6.0741L2.06467 8.18826H1.44092V8.12544L3.40284 6.0741H4.08558Z" fill="white"/>
<path d="M4.7692 6.0741L2.74719 8.18826H2.06445L4.08536 6.0741H4.7692Z" fill="white"/>
<path d="M5.4523 6.0741L3.43139 8.18826H2.74756L4.76956 6.0741H5.4523Z" fill="white"/>
<path d="M6.1359 6.0741L4.11389 8.18826H3.43115L5.45206 6.0741H6.1359Z" fill="white"/>
<path d="M6.81851 6.0741L4.7976 8.18826H4.11377L6.13577 6.0741H6.81851Z" fill="white"/>
<path d="M7.5026 6.0741L5.48059 8.18826H4.79785L6.81876 6.0741H7.5026Z" fill="white"/>
<path d="M8.18631 6.0741L6.1643 8.18826H5.48047L7.50247 6.0741H8.18631Z" fill="white"/>
<path d="M8.8693 6.0741L6.84838 8.18826H6.16455L8.18655 6.0741H8.8693Z" fill="white"/>
<path d="M9.55289 6.0741L7.53089 8.18826H6.84814L8.86906 6.0741H9.55289Z" fill="white"/>
<path d="M10.2355 6.0741L8.21459 8.18826H7.53076L9.55277 6.0741H10.2355Z" fill="white"/>
<path d="M10.9196 6.0741L8.89758 8.18826H8.21484L10.2358 6.0741H10.9196Z" fill="white"/>
<path d="M11.6022 6.0741L9.58129 8.18826H8.89746L10.9195 6.0741H11.6022Z" fill="white"/>
<path d="M12.2863 6.0741L10.2643 8.18826H9.58154L11.6025 6.0741H12.2863Z" fill="white"/>
<path d="M12.9689 6.0741L10.948 8.18826H10.2642L12.2862 6.0741H12.9689Z" fill="white"/>
<path d="M13.6525 6.0741L11.6305 8.18826H10.9478L12.9687 6.0741H13.6525Z" fill="white"/>
<path d="M14.3356 6.0741L12.3147 8.18826H11.6309L13.6529 6.0741H14.3356Z" fill="white"/>
<path d="M15.0192 6.0741L12.9972 8.18826H12.3145L14.3354 6.0741H15.0192Z" fill="white"/>
<path d="M15.7018 6.0741L13.6809 8.18826H12.9971L15.0191 6.0741H15.7018Z" fill="white"/>
<path d="M16.3859 6.0741L14.365 8.18826H13.6812L15.7032 6.0741H16.3859Z" fill="white"/>
<path d="M17.0684 6.0741L15.0475 8.18826H14.3647L16.3857 6.0741H17.0684Z" fill="white"/>
<path d="M17.7521 6.0741L15.7312 8.18826H15.0474L17.0683 6.0741H17.7521Z" fill="white"/>
<path d="M18.4362 6.0741L16.4142 8.18826H15.7314L17.7524 6.0741H18.4362Z" fill="white"/>
<path d="M19.1188 6.0741L17.0979 8.18826H16.4141L18.4361 6.0741H19.1188Z" fill="white"/>
<path d="M19.8029 6.0741L17.7809 8.18826H17.0981L19.1191 6.0741H19.8029Z" fill="white"/>
<path d="M20.4855 6.0741L18.4646 8.18826H17.7808L19.8028 6.0741H20.4855Z" fill="white"/>
<path d="M21.1691 6.0741L19.1471 8.18826H18.4644L20.4853 6.0741H21.1691Z" fill="white"/>
<path d="M21.8522 6.0741L19.8313 8.18826H19.1475L21.1695 6.0741H21.8522Z" fill="white"/>
<path d="M22.5358 6.0741L20.5138 8.18826H19.8311L21.852 6.0741H22.5358Z" fill="white"/>
<path d="M23.2184 6.0741L21.1975 8.18826H20.5137L22.5357 6.0741H23.2184Z" fill="white"/>
<path d="M23.9025 6.0741L21.8805 8.18826H21.1978L23.2187 6.0741H23.9025Z" fill="white"/>
<path d="M24.585 6.0741L22.5641 8.18826H21.8813L23.9023 6.0741H24.585Z" fill="white"/>
<path d="M25.2692 6.0741L23.2472 8.18826H22.5645L24.5854 6.0741H25.2692Z" fill="white"/>
<path d="M25.9518 6.0741L23.9309 8.18826H23.2471L25.2691 6.0741H25.9518Z" fill="white"/>
<path d="M26.6354 6.0741L24.6145 8.18826H23.9307L25.9516 6.0741H26.6354Z" fill="white"/>
<path d="M27.2168 6.0741L27.2681 6.12778L25.2975 8.18826H24.6147L26.6357 6.0741H27.2168Z" fill="white"/>
<path d="M27.268 6.12781L27.4155 6.28314V6.68747L25.9812 8.18829H25.2974L27.268 6.12781Z" fill="white"/>
<path d="M27.4157 7.4025L26.6642 8.18832H25.9814L27.4157 6.6875V7.4025Z" fill="white"/>
<path d="M27.4156 8.11633L27.3479 8.18828H26.6641L27.4156 7.40247V8.11633Z" fill="white"/>
<path d="M27.3477 8.18829L27.4154 8.11633V8.18829H27.3477Z" fill="white"/>
<path d="M1.6604 7.89587L0.336426 9.28019V7.89587H1.6604Z" fill="white"/>
<path d="M2.34423 7.89587L0.336426 9.99405V9.28019L1.6604 7.89587H2.34423Z" fill="white"/>
<path d="M3.02697 7.89587L1.00606 10.0089H0.336426V9.99405L2.34423 7.89587H3.02697Z" fill="white"/>
<path d="M3.7106 7.89587L1.68969 10.0089H1.00586L3.02677 7.89587H3.7106Z" fill="white"/>
<path d="M4.39359 7.89587L2.37268 10.0089H1.68994L3.71085 7.89587H4.39359Z" fill="white"/>
<path d="M5.0773 7.89587L3.05639 10.0089H2.37256L4.39347 7.89587H5.0773Z" fill="white"/>
<path d="M5.76029 7.89587L3.73938 10.0089H3.05664L5.07755 7.89587H5.76029Z" fill="white"/>
<path d="M6.444 7.89587L4.42309 10.0089H3.73926L5.76017 7.89587H6.444Z" fill="white"/>
<path d="M7.1265 7.89587L5.10559 10.0089H4.42285L6.44376 7.89587H7.1265Z" fill="white"/>
<path d="M7.8107 7.89587L5.78979 10.0089H5.10596L7.12687 7.89587H7.8107Z" fill="white"/>
<path d="M8.4932 7.89587L6.47229 10.0089H5.78955L7.81046 7.89587H8.4932Z" fill="white"/>
<path d="M9.17691 7.89587L7.156 10.0089H6.47217L8.49308 7.89587H9.17691Z" fill="white"/>
<path d="M9.86099 7.89587L7.84008 10.0089H7.15625L9.17716 7.89587H9.86099Z" fill="white"/>
<path d="M10.5435 7.89587L8.52258 10.0089H7.83984L9.86076 7.89587H10.5435Z" fill="white"/>
<path d="M11.2277 7.89587L9.20678 10.0089H8.52295L10.5439 7.89587H11.2277Z" fill="white"/>
<path d="M11.9102 7.89587L9.88928 10.0089H9.20654L11.2275 7.89587H11.9102Z" fill="white"/>
<path d="M12.5939 7.89587L10.573 10.0089H9.88916L11.9101 7.89587H12.5939Z" fill="white"/>
<path d="M13.2769 7.89587L11.256 10.0089H10.5732L12.5942 7.89587H13.2769Z" fill="white"/>
<path d="M13.9606 7.89587L11.9397 10.0089H11.2559L13.2768 7.89587H13.9606Z" fill="white"/>
<path d="M14.6436 7.89587L12.6227 10.0089H11.9399L13.9609 7.89587H14.6436Z" fill="white"/>
<path d="M15.3273 7.89587L13.3064 10.0089H12.6226L14.6435 7.89587H15.3273Z" fill="white"/>
<path d="M16.0098 7.89587L13.9889 10.0089H13.3062L15.3271 7.89587H16.0098Z" fill="white"/>
<path d="M16.694 7.89587L14.6731 10.0089H13.9893L16.0102 7.89587H16.694Z" fill="white"/>
<path d="M17.3765 7.89587L15.3556 10.0089H14.6729L16.6938 7.89587H17.3765Z" fill="white"/>
<path d="M18.0602 7.89587L16.0393 10.0089H15.3555L17.3764 7.89587H18.0602Z" fill="white"/>
<path d="M18.7443 7.89587L16.7234 10.0089H16.0396L18.0605 7.89587H18.7443Z" fill="white"/>
<path d="M19.4268 7.89587L17.4059 10.0089H16.7231L18.7441 7.89587H19.4268Z" fill="white"/>
<path d="M20.111 7.89587L18.0901 10.0089H17.4062L19.4272 7.89587H20.111Z" fill="white"/>
<path d="M20.7935 7.89587L18.7726 10.0089H18.0898L20.1108 7.89587H20.7935Z" fill="white"/>
<path d="M21.4772 7.89587L19.4563 10.0089H18.7725L20.7934 7.89587H21.4772Z" fill="white"/>
<path d="M22.1602 7.89587L20.1393 10.0089H19.4565L21.4775 7.89587H22.1602Z" fill="white"/>
<path d="M22.8439 7.89587L20.823 10.0089H20.1392L22.1601 7.89587H22.8439Z" fill="white"/>
<path d="M23.5269 7.89587L21.506 10.0089H20.8232L22.8442 7.89587H23.5269Z" fill="white"/>
<path d="M24.2106 7.89587L22.1897 10.0089H21.5059L23.5268 7.89587H24.2106Z" fill="white"/>
<path d="M24.8931 7.89587L22.8722 10.0089H22.1895L24.2104 7.89587H24.8931Z" fill="white"/>
<path d="M25.5773 7.89587L23.5564 10.0089H22.8726L24.8935 7.89587H25.5773Z" fill="white"/>
<path d="M26.2598 7.89587L24.2389 10.0089H23.5562L25.5771 7.89587H26.2598Z" fill="white"/>
<path d="M26.9439 7.89587L24.923 10.0089H24.2402L26.2611 7.89587H26.9439Z" fill="white"/>
<path d="M27.6276 7.89587L25.6067 10.0089H24.9229L26.9438 7.89587H27.6276Z" fill="white"/>
<path d="M28.3101 7.89587L26.2892 10.0089H25.6064L27.6274 7.89587H28.3101Z" fill="white"/>
<path d="M28.9943 7.89587L26.9734 10.0089H26.2896L28.3105 7.89587H28.9943Z" fill="white"/>
<path d="M29.1404 8.45668L27.6559 10.0089H26.9731L28.9941 7.89587H29.1404V8.45668Z" fill="white"/>
<path d="M29.1403 9.17167L28.3396 10.0089H27.6558L29.1403 8.45667V9.17167Z" fill="white"/>
<path d="M29.1406 9.88549L29.0226 10.0088H28.3398L29.1406 9.17163V9.88549Z" fill="white"/>
<path d="M29.0225 10.0089L29.1404 9.8855V10.0089H29.0225Z" fill="white"/>
<path d="M5.14384 4.25342L4.80957 4.60292V4.25342H5.14384Z" fill="white"/>
<path d="M5.82767 4.25342L4.80957 5.31678V4.60292L5.14384 4.25342H5.82767Z" fill="white"/>
<path d="M6.51041 4.25342L4.80957 6.03179V5.31678L5.82767 4.25342H6.51041Z" fill="white"/>
<path d="M7.19425 4.25342L5.17333 6.36644H4.80957V6.03179L6.51041 4.25342H7.19425Z" fill="white"/>
<path d="M7.87808 4.25342L5.85608 6.36644H5.17334L7.19425 4.25342H7.87808Z" fill="white"/>
<path d="M8.56119 4.25342L6.54028 6.36644H5.85645L7.87845 4.25342H8.56119Z" fill="white"/>
<path d="M9.24478 4.25342L7.22278 6.36644H6.54004L8.56095 4.25342H9.24478Z" fill="white"/>
<path d="M9.9274 4.25342L7.90649 6.36644H7.22266L9.24466 4.25342H9.9274Z" fill="white"/>
<path d="M10.6115 4.25342L8.58948 6.36644H7.90674L9.92765 4.25342H10.6115Z" fill="white"/>
<path d="M11.2941 4.25342L9.27319 6.36644H8.58936L10.6114 4.25342H11.2941Z" fill="white"/>
<path d="M11.9782 4.25342L9.95618 6.36644H9.27344L11.2943 4.25342H11.9782Z" fill="white"/>
<path d="M12.6608 4.25342L10.6399 6.36644H9.95605L11.9781 4.25342H12.6608Z" fill="white"/>
<path d="M13.3444 4.25342L11.3224 6.36644H10.6396L12.6606 4.25342H13.3444Z" fill="white"/>
<path d="M14.0275 4.25342L12.0066 6.36644H11.3228L13.3448 4.25342H14.0275Z" fill="white"/>
<path d="M14.7111 4.25342L12.6902 6.36644H12.0063L14.0273 4.25342H14.7111Z" fill="white"/>
<path d="M15.3952 4.25342L13.3732 6.36644H12.6904L14.7113 4.25342H15.3952Z" fill="white"/>
<path d="M16.0778 4.25342L14.0569 6.36644H13.373L15.3951 4.25342H16.0778Z" fill="white"/>
<path d="M16.7614 4.25342L14.7394 6.36644H14.0566L16.0776 4.25342H16.7614Z" fill="white"/>
<path d="M17.4445 4.25342L15.4236 6.36644H14.7397L16.7618 4.25342H17.4445Z" fill="white"/>
<path d="M18.1281 4.25342L16.1061 6.36644H15.4233L17.4443 4.25342H18.1281Z" fill="white"/>
<path d="M18.8107 4.25342L16.7898 6.36644H16.106L18.128 4.25342H18.8107Z" fill="white"/>
<path d="M19.4948 4.25342L17.4728 6.36644H16.79L18.811 4.25342H19.4948Z" fill="white"/>
<path d="M20.1774 4.25342L18.1565 6.36644H17.4727L19.4947 4.25342H20.1774Z" fill="white"/>
<path d="M20.8615 4.25342L18.8395 6.36644H18.1567L20.1776 4.25342H20.8615Z" fill="white"/>
<path d="M21.5441 4.25342L19.5232 6.36644H18.8394L20.8614 4.25342H21.5441Z" fill="white"/>
<path d="M22.2277 4.25342L20.2057 6.36644H19.5229L21.5439 4.25342H22.2277Z" fill="white"/>
<path d="M22.9108 4.25342L20.8899 6.36644H20.2061L22.2281 4.25342H22.9108Z" fill="white"/>
<path d="M23.5944 4.25342L21.5735 6.36644H20.8896L22.9117 4.25342H23.5944Z" fill="white"/>
<path d="M24.2785 4.25342L22.2565 6.36644H21.5737L23.5946 4.25342H24.2785Z" fill="white"/>
<path d="M24.9611 4.25342L22.9402 6.36644H22.2563L24.2784 4.25342H24.9611Z" fill="white"/>
<path d="M25.1061 4.81651L23.6227 6.36644H22.9399L24.9609 4.25342H25.1061V4.81651Z" fill="white"/>
<path d="M25.1065 5.53039L24.3069 6.36646H23.623L25.1065 4.81653V5.53039Z" fill="white"/>
<path d="M25.1063 6.2454L24.9894 6.36647H24.3066L25.1063 5.5304V6.2454Z" fill="white"/>
<path d="M24.9893 6.36643L25.1061 6.24536V6.36643H24.9893Z" fill="white"/>
<path d="M8.62893 0.609863L7.39453 1.90052V0.609863H8.62893Z" fill="white"/>
<path d="M9.31167 0.609863L7.39453 2.61438V1.90052L8.62893 0.609863H9.31167Z" fill="white"/>
<path d="M9.9955 0.609863L7.97349 2.72403H7.39453V2.61438L9.31167 0.609863H9.9955Z" fill="white"/>
<path d="M10.6779 0.609863L8.65698 2.72403H7.97314L9.99515 0.609863H10.6779Z" fill="white"/>
<path d="M11.362 0.609863L9.33997 2.72403H8.65723L10.6781 0.609863H11.362Z" fill="white"/>
<path d="M12.0457 0.609863L10.0237 2.72403H9.33984L11.3618 0.609863H12.0457Z" fill="white"/>
<path d="M12.7287 0.609863L10.7078 2.72403H10.0239L12.0459 0.609863H12.7287Z" fill="white"/>
<path d="M13.4123 0.609863L11.3903 2.72403H10.7075L12.7284 0.609863H13.4123Z" fill="white"/>
<path d="M14.0949 0.609863L12.074 2.72403H11.3901L13.4121 0.609863H14.0949Z" fill="white"/>
<path d="M14.779 0.609863L12.757 2.72403H12.0742L14.0951 0.609863H14.779Z" fill="white"/>
<path d="M15.4616 0.609863L13.4407 2.72403H12.7568L14.7788 0.609863H15.4616Z" fill="white"/>
<path d="M16.1457 0.609863L14.1237 2.72403H13.4409L15.4618 0.609863H16.1457Z" fill="white"/>
<path d="M16.8283 0.609863L14.8074 2.72403H14.1235L16.1455 0.609863H16.8283Z" fill="white"/>
<path d="M17.5119 0.609863L15.4899 2.72403H14.8071L16.828 0.609863H17.5119Z" fill="white"/>
<path d="M18.195 0.609863L16.1741 2.72403H15.4902L17.5122 0.609863H18.195Z" fill="white"/>
<path d="M18.8786 0.609863L16.8566 2.72403H16.1738L18.1947 0.609863H18.8786Z" fill="white"/>
<path d="M19.5612 0.609863L17.5403 2.72403H16.8564L18.8785 0.609863H19.5612Z" fill="white"/>
<path d="M20.2453 0.609863L18.2233 2.72403H17.5405L19.5614 0.609863H20.2453Z" fill="white"/>
<path d="M20.929 0.609863L18.907 2.72403H18.2231L20.2451 0.609863H20.929Z" fill="white"/>
<path d="M21.612 0.609863L19.5911 2.72403H18.9072L20.9292 0.609863H21.612Z" fill="white"/>
<path d="M22.2956 0.609863L20.2736 2.72403H19.5908L21.6117 0.609863H22.2956Z" fill="white"/>
<path d="M22.8984 0.609863L22.9378 0.652124L20.9573 2.72403H20.2734L22.2943 0.609863H22.8984Z" fill="white"/>
<path d="M22.938 0.652222L23.0964 0.816695V1.20275L21.6403 2.72413H20.9575L22.938 0.652222Z" fill="white"/>
<path d="M23.0963 1.91662L22.324 2.72414H21.6401L23.0963 1.20276V1.91662Z" fill="white"/>
<path d="M23.096 2.63163L23.0065 2.72414H22.3237L23.096 1.91663V2.63163Z" fill="white"/>
<path d="M23.0068 2.72411L23.0964 2.63159V2.72411H23.0068Z" fill="white"/>
<path d="M1.21806 13.36L0.713379 13.8877V13.36H1.21806Z" fill="white"/>
<path d="M1.90189 13.36L0.713379 14.6027V13.8877L1.21806 13.36H1.90189Z" fill="white"/>
<path d="M2.58463 13.36L0.713379 15.3165V14.6027L1.90189 13.36H2.58463Z" fill="white"/>
<path d="M3.26847 13.36L1.24646 15.473H0.713379V15.3165L2.58463 13.36H3.26847Z" fill="white"/>
<path d="M3.95133 13.36L1.93041 15.473H1.24658L3.26859 13.36H3.95133Z" fill="white"/>
<path d="M4.63492 13.36L2.61401 15.473H1.93018L3.95109 13.36H4.63492Z" fill="white"/>
<path d="M5.31863 13.36L3.29663 15.473H2.61279L4.6348 13.36H5.31863Z" fill="white"/>
<path d="M6.00162 13.36L3.98071 15.473H3.29688L5.31888 13.36H6.00162Z" fill="white"/>
<path d="M6.68521 13.36L4.66321 15.473H3.98047L6.00138 13.36H6.68521Z" fill="white"/>
<path d="M7.36832 13.36L5.34741 15.473H4.66357L6.68558 13.36H7.36832Z" fill="white"/>
<path d="M8.05191 13.36L6.02991 15.473H5.34717L7.36808 13.36H8.05191Z" fill="white"/>
<path d="M8.73453 13.36L6.71362 15.473H6.02979L8.05179 13.36H8.73453Z" fill="white"/>
<path d="M9.41861 13.36L7.39661 15.473H6.71387L8.73478 13.36H9.41861Z" fill="white"/>
<path d="M10.1012 13.36L8.08032 15.473H7.39648L9.41849 13.36H10.1012Z" fill="white"/>
<path d="M10.7853 13.36L8.76331 15.473H8.08057L10.1015 13.36H10.7853Z" fill="white"/>
<path d="M11.4679 13.36L9.44702 15.473H8.76318L10.7852 13.36H11.4679Z" fill="white"/>
<path d="M12.1515 13.36L10.1295 15.473H9.44678L11.4677 13.36H12.1515Z" fill="white"/>
<path d="M12.8346 13.36L10.8137 15.473H10.1299L12.1519 13.36H12.8346Z" fill="white"/>
<path d="M13.5182 13.36L11.4973 15.473H10.8135L12.8355 13.36H13.5182Z" fill="white"/>
<path d="M14.2008 13.36L12.1799 15.473H11.4961L13.5181 13.36H14.2008Z" fill="white"/>
<path d="M14.8849 13.36L12.864 15.473H12.1802L14.2022 13.36H14.8849Z" fill="white"/>
<path d="M15.5686 13.36L13.5466 15.473H12.8628L14.8848 13.36H15.5686Z" fill="white"/>
<path d="M16.2516 13.36L14.2307 15.473H13.5469L15.5689 13.36H16.2516Z" fill="white"/>
<path d="M16.9352 13.36L14.9132 15.473H14.2305L16.2514 13.36H16.9352Z" fill="white"/>
<path d="M17.6178 13.36L15.5969 15.473H14.9131L16.9351 13.36H17.6178Z" fill="white"/>
<path d="M18.3019 13.36L16.2799 15.473H15.5972L17.6181 13.36H18.3019Z" fill="white"/>
<path d="M18.9845 13.36L16.9636 15.473H16.2798L18.3018 13.36H18.9845Z" fill="white"/>
<path d="M19.6686 13.36L17.6466 15.473H16.9639L18.9848 13.36H19.6686Z" fill="white"/>
<path d="M20.3512 13.36L18.3303 15.473H17.6465L19.6685 13.36H20.3512Z" fill="white"/>
<path d="M21.0348 13.36L19.0139 15.473H18.3301L20.351 13.36H21.0348Z" fill="white"/>
<path d="M21.7179 13.36L19.697 15.473H19.0132L21.0352 13.36H21.7179Z" fill="white"/>
<path d="M22.4015 13.36L20.3795 15.473H19.6968L21.7177 13.36H22.4015Z" fill="white"/>
<path d="M23.0841 13.36L21.0632 15.473H20.3794L22.4014 13.36H23.0841Z" fill="white"/>
<path d="M23.7682 13.36L21.7473 15.473H21.0635L23.0855 13.36H23.7682Z" fill="white"/>
<path d="M24.4519 13.36L22.4299 15.473H21.7461L23.7681 13.36H24.4519Z" fill="white"/>
<path d="M25.1344 13.36L23.1135 15.473H22.4297L24.4517 13.36H25.1344Z" fill="white"/>
<path d="M25.8185 13.36L23.7965 15.473H23.1138L25.1347 13.36H25.8185Z" fill="white"/>
<path d="M26.5011 13.36L24.4802 15.473H23.7964L25.8184 13.36H26.5011Z" fill="white"/>
<path d="M27.1852 13.36L25.1632 15.473H24.4805L26.5014 13.36H27.1852Z" fill="white"/>
<path d="M27.8678 13.36L25.8469 15.473H25.1631L27.1851 13.36H27.8678Z" fill="white"/>
<path d="M28.5514 13.36L26.5294 15.473H25.8467L27.8676 13.36H28.5514Z" fill="white"/>
<path d="M29.2345 13.36L27.2136 15.473H26.5298L28.5518 13.36H29.2345Z" fill="white"/>
<path d="M29.6778 13.6101L27.8972 15.473H27.2134L29.2343 13.36H29.6778V13.6101Z" fill="white"/>
<path d="M29.678 14.3252L28.5802 15.4731H27.8975L29.678 13.6102V14.3252Z" fill="white"/>
<path d="M28.5801 15.4731L29.6779 14.3252V15.4731H28.5801Z" fill="white"/>
<path d="M13.9956 0L13.4385 0.58251V0H13.9956Z" fill="white"/>
<path d="M14.6783 0L13.8099 0.909172H13.4385V0.58251L13.9956 0H14.6783Z" fill="white"/>
<path d="M15.3623 0L14.4939 0.909172H13.8101L14.6785 0H15.3623Z" fill="white"/>
<path d="M16.045 0L15.1765 0.909172H14.4927L15.3622 0H16.045Z" fill="white"/>
<path d="M16.7285 0L15.8601 0.909172H15.1763L16.0447 0H16.7285Z" fill="white"/>
<path d="M17.4126 0L16.5431 0.909172H15.8604L16.7288 0H17.4126Z" fill="white"/>
<path d="M18.0952 0L17.2268 0.909172H16.543L17.4125 0H18.0952Z" fill="white"/>
<path d="M18.779 0L17.9094 0.909172H17.2256L18.0951 0H18.779Z" fill="white"/>
<path d="M19.4619 0L18.5935 0.909172H17.9097L18.7792 0H19.4619Z" fill="white"/>
<path d="M20.1455 0L19.276 0.909172H18.5933L19.4617 0H20.1455Z" fill="white"/>
<path d="M20.7697 0.0616775L19.9602 0.909172H19.2764L20.1459 0H20.7697V0.0616775Z" fill="white"/>
<path d="M20.7694 0.776648L20.6427 0.90914H19.96L20.7694 0.0616455V0.776648Z" fill="white"/>
<path d="M20.6426 0.909226L20.7693 0.776733V0.909226H20.6426Z" fill="white"/>
<path d="M2.89242 15.1807L2.37354 15.7243V15.1807H2.89242Z" fill="white"/>
<path d="M3.57625 15.1807L2.37354 16.4382V15.7243L2.89242 15.1807H3.57625Z" fill="white"/>
<path d="M4.25899 15.1807L2.37354 17.1532V16.4382L3.57625 15.1807H4.25899Z" fill="white"/>
<path d="M4.94282 15.1807L2.99292 17.2206H2.37354V17.1532L4.25899 15.1807H4.94282Z" fill="white"/>
<path d="M5.62702 15.1807L3.67602 17.2206H2.99219L4.94319 15.1807H5.62702Z" fill="white"/>
<path d="M6.30952 15.1807L4.35961 17.2206H3.67578L5.62678 15.1807H6.30952Z" fill="white"/>
<path d="M6.9936 15.1807L5.0426 17.2206H4.35986L6.30977 15.1807H6.9936Z" fill="white"/>
<path d="M7.67622 15.1807L5.72631 17.2206H5.04248L6.99348 15.1807H7.67622Z" fill="white"/>
<path d="M8.35981 15.1807L6.40881 17.2206H5.72607L7.67598 15.1807H8.35981Z" fill="white"/>
<path d="M9.04292 15.1807L7.09301 17.2206H6.40918L8.36018 15.1807H9.04292Z" fill="white"/>
<path d="M9.72651 15.1807L7.77551 17.2206H7.09277L9.04268 15.1807H9.72651Z" fill="white"/>
<path d="M10.4091 15.1807L8.45922 17.2206H7.77539L9.72639 15.1807H10.4091Z" fill="white"/>
<path d="M11.0932 15.1807L9.14221 17.2206H8.45947L10.4094 15.1807H11.0932Z" fill="white"/>
<path d="M11.7758 15.1807L9.82592 17.2206H9.14209L11.0931 15.1807H11.7758Z" fill="white"/>
<path d="M12.4599 15.1807L10.5089 17.2206H9.82617L11.7761 15.1807H12.4599Z" fill="white"/>
<path d="M13.1425 15.1807L11.1926 17.2206H10.5088L12.4598 15.1807H13.1425Z" fill="white"/>
<path d="M13.8261 15.1807L11.8762 17.2206H11.1924L13.1423 15.1807H13.8261Z" fill="white"/>
<path d="M14.5091 15.1807L12.5592 17.2206H11.8765L13.8264 15.1807H14.5091Z" fill="white"/>
<path d="M15.1928 15.1807L13.2429 17.2206H12.5591L14.509 15.1807H15.1928Z" fill="white"/>
<path d="M15.8769 15.1807L13.9259 17.2206H13.2432L15.1931 15.1807H15.8769Z" fill="white"/>
<path d="M16.5595 15.1807L14.6096 17.2206H13.9258L15.8768 15.1807H16.5595Z" fill="white"/>
<path d="M17.2431 15.1807L15.2921 17.2206H14.6094L16.5593 15.1807H17.2431Z" fill="white"/>
<path d="M17.9262 15.1807L15.9763 17.2206H15.2925L17.2435 15.1807H17.9262Z" fill="white"/>
<path d="M18.6098 15.1807L16.6588 17.2206H15.9761L17.926 15.1807H18.6098Z" fill="white"/>
<path d="M19.2924 15.1807L17.3425 17.2206H16.6587L18.6097 15.1807H19.2924Z" fill="white"/>
<path d="M19.9765 15.1807L18.0255 17.2206H17.3428L19.2927 15.1807H19.9765Z" fill="white"/>
<path d="M20.6591 15.1807L18.7092 17.2206H18.0254L19.9764 15.1807H20.6591Z" fill="white"/>
<path d="M21.3432 15.1807L19.3933 17.2206H18.7095L20.6594 15.1807H21.3432Z" fill="white"/>
<path d="M22.0258 15.1807L20.0759 17.2206H19.3921L21.3431 15.1807H22.0258Z" fill="white"/>
<path d="M22.7094 15.1807L20.7595 17.2206H20.0757L22.0256 15.1807H22.7094Z" fill="white"/>
<path d="M23.3936 15.1807L21.4426 17.2206H20.7588L22.7098 15.1807H23.3936Z" fill="white"/>
<path d="M24.0761 15.1807L22.1262 17.2206H21.4424L23.3934 15.1807H24.0761Z" fill="white"/>
<path d="M24.7602 15.1807L22.8092 17.2206H22.1265L24.0764 15.1807H24.7602Z" fill="white"/>
<path d="M25.4428 15.1807L23.4929 17.2206H22.8091L24.7601 15.1807H25.4428Z" fill="white"/>
<path d="M26.1264 15.1807L24.1754 17.2206H23.4927L25.4426 15.1807H26.1264Z" fill="white"/>
<path d="M26.8095 15.1807L24.8596 17.2206H24.1758L26.1268 15.1807H26.8095Z" fill="white"/>
<path d="M27.4931 15.1807L25.5421 17.2206H24.8594L26.8093 15.1807H27.4931Z" fill="white"/>
<path d="M28.1757 15.1807L26.2258 17.2206H25.542L27.493 15.1807H28.1757Z" fill="white"/>
<path d="M28.7965 15.2481L26.9088 17.2206H26.2261L28.176 15.1807H28.7965V15.2481Z" fill="white"/>
<path d="M26.9087 17.2206L28.7963 15.248V17.2206H26.9087Z" fill="white"/>
<path d="M0.601904 9.71765L0 10.347V9.71765H0.601904Z" fill="white"/>
<path d="M1.28464 9.71765L0 11.0608V10.347L0.601904 9.71765H1.28464Z" fill="white"/>
<path d="M1.96848 9.71765L0 11.7759V11.0608L1.28574 9.71765H1.96848Z" fill="white"/>
<path d="M2.65122 9.71765L0.631398 11.8307H0V11.7759L1.96848 9.71765H2.65122Z" fill="white"/>
<path d="M3.335 9.71765L1.31409 11.8307H0.631348L2.65117 9.71765H3.335Z" fill="white"/>
<path d="M4.01871 9.71765L1.9978 11.8307H1.31396L3.33488 9.71765H4.01871Z" fill="white"/>
<path d="M4.7017 9.71765L2.68079 11.8307H1.99805L4.01896 9.71765H4.7017Z" fill="white"/>
<path d="M5.38541 9.71765L3.3645 11.8307H2.68066L4.70158 9.71765H5.38541Z" fill="white"/>
<path d="M6.0684 9.71765L4.04749 11.8307H3.36475L5.38566 9.71765H6.0684Z" fill="white"/>
<path d="M6.75211 9.71765L4.7312 11.8307H4.04736L6.06827 9.71765H6.75211Z" fill="white"/>
<path d="M7.43461 9.71765L5.4137 11.8307H4.73096L6.75187 9.71765H7.43461Z" fill="white"/>
<path d="M8.11881 9.71765L6.0979 11.8307H5.41406L7.43497 9.71765H8.11881Z" fill="white"/>
<path d="M8.80131 9.71765L6.7804 11.8307H6.09766L8.11857 9.71765H8.80131Z" fill="white"/>
<path d="M9.48502 9.71765L7.46411 11.8307H6.78027L8.80118 9.71765H9.48502Z" fill="white"/>
<path d="M10.168 9.71765L8.1471 11.8307H7.46436L9.48527 9.71765H10.168Z" fill="white"/>
<path d="M10.8517 9.71765L8.8308 11.8307H8.14697L10.1679 9.71765H10.8517Z" fill="white"/>
<path d="M11.5347 9.71765L9.5138 11.8307H8.83105L10.852 9.71765H11.5347Z" fill="white"/>
<path d="M12.2184 9.71765L10.1975 11.8307H9.51367L11.5346 9.71765H12.2184Z" fill="white"/>
<path d="M12.902 9.71765L10.8811 11.8307H10.1973L12.2182 9.71765H12.902Z" fill="white"/>
<path d="M13.585 9.71765L11.5641 11.8307H10.8813L12.9023 9.71765H13.585Z" fill="white"/>
<path d="M14.2687 9.71765L12.2478 11.8307H11.564L13.5849 9.71765H14.2687Z" fill="white"/>
<path d="M14.9517 9.71765L12.9308 11.8307H12.248L14.269 9.71765H14.9517Z" fill="white"/>
<path d="M15.6354 9.71765L13.6145 11.8307H12.9307L14.9516 9.71765H15.6354Z" fill="white"/>
<path d="M16.3179 9.71765L14.297 11.8307H13.6143L15.6352 9.71765H16.3179Z" fill="white"/>
<path d="M17.0021 9.71765L14.9812 11.8307H14.2974L16.3183 9.71765H17.0021Z" fill="white"/>
<path d="M17.6846 9.71765L15.6637 11.8307H14.981L17.0019 9.71765H17.6846Z" fill="white"/>
<path d="M18.3683 9.71765L16.3474 11.8307H15.6636L17.6845 9.71765H18.3683Z" fill="white"/>
<path d="M19.0513 9.71765L17.0304 11.8307H16.3477L18.3686 9.71765H19.0513Z" fill="white"/>
<path d="M19.7349 9.71765L17.714 11.8307H17.0312L19.0522 9.71765H19.7349Z" fill="white"/>
<path d="M20.4175 9.71765L18.3966 11.8307H17.7139L19.7348 9.71765H20.4175Z" fill="white"/>
<path d="M21.1017 9.71765L19.0808 11.8307H18.397L20.4179 9.71765H21.1017Z" fill="white"/>
<path d="M21.7853 9.71765L19.7644 11.8307H19.0806L21.1015 9.71765H21.7853Z" fill="white"/>
<path d="M22.4683 9.71765L20.4474 11.8307H19.7646L21.7856 9.71765H22.4683Z" fill="white"/>
<path d="M23.152 9.71765L21.1311 11.8307H20.4473L22.4682 9.71765H23.152Z" fill="white"/>
<path d="M23.8345 9.71765L21.8136 11.8307H21.1309L23.1518 9.71765H23.8345Z" fill="white"/>
<path d="M24.5187 9.71765L22.4978 11.8307H21.814L23.8349 9.71765H24.5187Z" fill="white"/>
<path d="M25.2012 9.71765L23.1803 11.8307H22.4976L24.5185 9.71765H25.2012Z" fill="white"/>
<path d="M25.8849 9.71765L23.864 11.8307H23.1802L25.2011 9.71765H25.8849Z" fill="white"/>
<path d="M26.5679 9.71765L24.547 11.8307H23.8643L25.8852 9.71765H26.5679Z" fill="white"/>
<path d="M27.2516 9.71765L25.2307 11.8307H24.5469L26.5678 9.71765H27.2516Z" fill="white"/>
<path d="M27.9346 9.71765L25.9137 11.8307H25.231L27.2519 9.71765H27.9346Z" fill="white"/>
<path d="M28.6183 9.71765L26.5974 11.8307H25.9136L27.9345 9.71765H28.6183Z" fill="white"/>
<path d="M29.3019 9.71765L27.281 11.8307H26.5972L28.6181 9.71765H29.3019Z" fill="white"/>
<path d="M29.7926 9.91867L27.964 11.8307H27.2812L29.3022 9.71765H29.7926V9.91867Z" fill="white"/>
<path d="M29.7925 10.6326L28.6477 11.8307H27.9639L29.7925 9.9187V10.6326Z" fill="white"/>
<path d="M29.7928 11.3476L29.3307 11.8307H28.6479L29.7928 10.6326V11.3476Z" fill="white"/>
<path d="M29.3306 11.8307L29.7926 11.3475V11.8307H29.3306Z" fill="white"/>
<path d="M0.262175 11.5017L0.0644531 11.7084V11.5017H0.262175Z" fill="white"/>
<path d="M0.946007 11.5017L0.0644531 12.4223V11.7084L0.262175 11.5017H0.946007Z" fill="white"/>
<path d="M1.62875 11.5017L0.0644531 13.1373V12.4223L0.946007 11.5017H1.62875Z" fill="white"/>
<path d="M2.31258 11.5017L0.290577 13.6147H0.0644531V13.1373L1.62875 11.5017H2.31258Z" fill="white"/>
<path d="M2.99527 11.5017L0.97436 13.6147H0.290527L2.31253 11.5017H2.99527Z" fill="white"/>
<path d="M3.67935 11.5017L1.65735 13.6147H0.974609L2.99552 11.5017H3.67935Z" fill="white"/>
<path d="M4.36197 11.5017L2.34106 13.6147H1.65723L3.67923 11.5017H4.36197Z" fill="white"/>
<path d="M5.04556 11.5017L3.02356 13.6147H2.34082L4.36173 11.5017H5.04556Z" fill="white"/>
<path d="M5.72867 11.5017L3.70776 13.6147H3.02393L5.04593 11.5017H5.72867Z" fill="white"/>
<path d="M6.41226 11.5017L4.39135 13.6147H3.70752L5.72952 11.5017H6.41226Z" fill="white"/>
<path d="M7.09488 11.5017L5.07397 13.6147H4.39014L6.41214 11.5017H7.09488Z" fill="white"/>
<path d="M7.77896 11.5017L5.75805 13.6147H5.07422L7.09622 11.5017H7.77896Z" fill="white"/>
<path d="M8.46267 11.5017L6.44067 13.6147H5.75684L7.77884 11.5017H8.46267Z" fill="white"/>
<path d="M9.14566 11.5017L7.12475 13.6147H6.44092L8.46292 11.5017H9.14566Z" fill="white"/>
<path d="M9.82926 11.5017L7.80725 13.6147H7.12451L9.14542 11.5017H9.82926Z" fill="white"/>
<path d="M10.5119 11.5017L8.49096 13.6147H7.80713L9.82913 11.5017H10.5119Z" fill="white"/>
<path d="M11.196 11.5017L9.17395 13.6147H8.49121L10.5121 11.5017H11.196Z" fill="white"/>
<path d="M11.8786 11.5017L9.85766 13.6147H9.17383L11.1958 11.5017H11.8786Z" fill="white"/>
<path d="M12.5627 11.5017L10.5407 13.6147H9.85791L11.8788 11.5017H12.5627Z" fill="white"/>
<path d="M13.2453 11.5017L11.2244 13.6147H10.5405L12.5625 11.5017H13.2453Z" fill="white"/>
<path d="M13.9289 11.5017L11.9069 13.6147H11.2241L13.245 11.5017H13.9289Z" fill="white"/>
<path d="M14.612 11.5017L12.5911 13.6147H11.9072L13.9292 11.5017H14.612Z" fill="white"/>
<path d="M15.2956 11.5017L13.2747 13.6147H12.5908L14.6117 11.5017H15.2956Z" fill="white"/>
<path d="M15.9793 11.5017L13.9573 13.6147H13.2734L15.2954 11.5017H15.9793Z" fill="white"/>
<path d="M16.6623 11.5017L14.6414 13.6147H13.9575L15.9795 11.5017H16.6623Z" fill="white"/>
<path d="M17.3459 11.5017L15.3239 13.6147H14.6411L16.662 11.5017H17.3459Z" fill="white"/>
<path d="M18.0285 11.5017L16.0076 13.6147H15.3237L17.3457 11.5017H18.0285Z" fill="white"/>
<path d="M18.7126 11.5017L16.6906 13.6147H16.0078L18.0287 11.5017H18.7126Z" fill="white"/>
<path d="M19.3952 11.5017L17.3743 13.6147H16.6904L18.7124 11.5017H19.3952Z" fill="white"/>
<path d="M20.0793 11.5017L18.0573 13.6147H17.3745L19.3954 11.5017H20.0793Z" fill="white"/>
<path d="M20.7619 11.5017L18.741 13.6147H18.0571L20.0791 11.5017H20.7619Z" fill="white"/>
<path d="M21.4455 11.5017L19.4235 13.6147H18.7407L20.7616 11.5017H21.4455Z" fill="white"/>
<path d="M22.1286 11.5017L20.1077 13.6147H19.4238L21.4458 11.5017H22.1286Z" fill="white"/>
<path d="M22.8122 11.5017L20.7902 13.6147H20.1074L22.1283 11.5017H22.8122Z" fill="white"/>
<path d="M23.4959 11.5017L21.4739 13.6147H20.79L22.812 11.5017H23.4959Z" fill="white"/>
<path d="M24.1789 11.5017L22.158 13.6147H21.4741L23.4961 11.5017H24.1789Z" fill="white"/>
<path d="M24.8615 11.5017L22.8406 13.6147H22.1567L24.1787 11.5017H24.8615Z" fill="white"/>
<path d="M25.5456 11.5017L23.5247 13.6147H22.8408L24.8628 11.5017H25.5456Z" fill="white"/>
<path d="M26.2293 11.5017L24.2073 13.6147H23.5234L25.5454 11.5017H26.2293Z" fill="white"/>
<path d="M26.9118 11.5017L24.8909 13.6147H24.207L26.229 11.5017H26.9118Z" fill="white"/>
<path d="M27.5959 11.5017L25.5739 13.6147H24.8911L26.912 11.5017H27.5959Z" fill="white"/>
<path d="M28.2785 11.5017L26.2576 13.6147H25.5737L27.5957 11.5017H28.2785Z" fill="white"/>
<path d="M28.9626 11.5017L26.9406 13.6147H26.2578L28.2787 11.5017H28.9626Z" fill="white"/>
<path d="M29.6452 11.5017L27.6243 13.6147H26.9404L28.9624 11.5017H29.6452Z" fill="white"/>
<path d="M29.8754 11.9746L28.3068 13.6147H27.624L29.6449 11.5017H29.8754V11.9746Z" fill="white"/>
<path d="M29.8758 12.6896L28.991 13.6148H28.3071L29.8758 11.9746V12.6896Z" fill="white"/>
<path d="M29.8756 13.4034L29.6735 13.6147H28.9907L29.8756 12.6896V13.4034Z" fill="white"/>
<path d="M29.6733 13.6147L29.8754 13.4034V13.6147H29.6733Z" fill="white"/>
</g>
<path d="M34.8547 17.2206C34.8547 18.3337 34.539 19.4217 33.9476 20.3471C33.3562 21.2726 32.5156 21.9938 31.5322 22.4198C30.5487 22.8457 29.4665 22.9572 28.4225 22.74C27.3785 22.5229 26.4194 21.9869 25.6667 21.1999C24.914 20.4129 24.4014 19.4101 24.1938 18.3185C23.9861 17.2269 24.0927 16.0954 24.5 15.0671C24.9074 14.0388 25.5972 13.1599 26.4823 12.5415C27.3674 11.9232 28.408 11.5931 29.4725 11.5931C30.1793 11.593 30.8793 11.7384 31.5324 12.0212C32.1854 12.304 32.7788 12.7185 33.2786 13.2411C33.7784 13.7637 34.1749 14.3841 34.4453 15.0669C34.7157 15.7497 34.8548 16.4816 34.8547 17.2206Z" fill="#223E65"/>
<path d="M29.4723 23C28.3791 23 27.3104 22.661 26.4014 22.026C25.4924 21.3909 24.7839 20.4883 24.3656 19.4323C23.9472 18.3762 23.8378 17.2142 24.051 16.0931C24.2643 14.972 24.7908 13.9422 25.5638 13.1339C26.3368 12.3256 27.3217 11.7752 28.3939 11.5522C29.4662 11.3292 30.5775 11.4437 31.5876 11.8811C32.5976 12.3185 33.4608 13.0593 34.0682 14.0097C34.6756 14.9601 34.9998 16.0775 34.9998 17.2206C34.998 18.7528 34.4151 20.2218 33.3789 21.3052C32.3427 22.3887 30.9377 22.9982 29.4723 23ZM29.4723 11.745C28.4368 11.7463 27.425 12.0686 26.5646 12.6711C25.7043 13.2736 25.0341 14.1292 24.6387 15.1299C24.2433 16.1306 24.1406 17.2313 24.3434 18.293C24.5462 19.3547 25.0455 20.3297 25.7781 21.0948C26.5108 21.8599 27.4439 22.3807 28.4596 22.5915C29.4753 22.8022 30.5279 22.6933 31.4844 22.2787C32.441 21.8641 33.2585 21.1622 33.8336 20.2619C34.4088 19.3616 34.7157 18.3033 34.7157 17.2206C34.714 15.7677 34.1608 14.375 33.1777 13.3483C32.1945 12.3217 30.8618 11.745 29.4723 11.745Z" fill="white"/>
<g filter="url(#filter0_f_23987_7189)">
<path fill-rule="evenodd" clip-rule="evenodd" d="M29.4712 20.7511C30.6117 20.2942 31.3414 19.4867 31.7347 18.5387C32.2994 17.1738 32.1956 14.8038 32.1956 14.8038C30.5024 14.8038 29.4712 14.0785 29.4712 14.0785C29.4712 14.0785 28.4433 14.8038 26.7501 14.8038C26.7501 14.8038 26.6409 17.1738 27.21 18.5387C27.6033 19.4867 28.3341 20.2896 29.4712 20.7511Z" fill="#4BFF8A"/>
</g>
<path fill-rule="evenodd" clip-rule="evenodd" d="M29.4712 20.7511C30.6117 20.2942 31.3414 19.4867 31.7347 18.5387C32.2994 17.1738 32.1956 14.8038 32.1956 14.8038C30.5024 14.8038 29.4712 14.0785 29.4712 14.0785C29.4712 14.0785 28.4433 14.8038 26.7501 14.8038C26.7501 14.8038 26.6409 17.1738 27.21 18.5387C27.6033 19.4867 28.3341 20.2896 29.4712 20.7511Z" fill="white"/>
<path d="M30.7594 16.9133C30.6327 16.8767 30.506 16.8368 30.3804 16.7991V16.4107C30.3804 16.164 30.3804 15.9938 30.2602 15.7711C30.2211 15.6976 30.1726 15.6299 30.116 15.5701C29.9477 15.3906 29.7184 15.288 29.4781 15.2845C29.454 15.2845 29.4278 15.2845 29.4038 15.2845C29.2818 15.2952 29.163 15.331 29.0543 15.3898C28.9456 15.4486 28.849 15.5293 28.7702 15.6272C28.567 15.8853 28.5517 16.0841 28.5583 16.4027V16.7877C28.4348 16.8185 28.3081 16.847 28.188 16.8882V17.5027C28.188 17.65 28.1792 17.803 28.188 17.9481C28.2313 18.346 28.4036 18.7165 28.6763 18.9978C28.7134 19.0366 28.7516 19.0743 28.7921 19.112C28.8325 19.1497 28.8729 19.1828 28.9144 19.2148C28.9559 19.2468 28.9996 19.2799 29.0444 19.3096C29.0892 19.3393 29.1329 19.3667 29.1798 19.393C29.2749 19.4466 29.3743 19.4935 29.4715 19.5437L29.5283 19.5106C30.0461 19.2388 30.4929 18.8961 30.6819 18.2965C30.746 18.041 30.7697 17.7763 30.7518 17.5129C30.7518 17.3119 30.7518 17.1109 30.7518 16.9099M29.7468 17.7357C29.7473 17.7406 29.7473 17.7456 29.7468 17.7505C29.7468 17.7505 29.7468 17.7596 29.7468 17.7654V17.7802C29.7349 17.8273 29.7136 17.8713 29.6842 17.9091C29.6548 17.9469 29.6181 17.9777 29.5764 17.9995C29.5924 18.196 29.6055 18.3924 29.6157 18.5889H29.3339C29.3339 18.3947 29.359 18.1982 29.3699 18.0041C29.2907 17.9563 29.2309 17.8799 29.2017 17.7893C29.192 17.7509 29.19 17.7107 29.1958 17.6714C29.2017 17.6321 29.2152 17.5945 29.2356 17.5609C29.2576 17.5252 29.2863 17.4945 29.3199 17.4706C29.3534 17.4466 29.3913 17.43 29.4311 17.4216C29.4608 17.4164 29.491 17.4164 29.5207 17.4216C29.5961 17.4366 29.6629 17.4822 29.7064 17.5483L29.7129 17.5609C29.7159 17.5652 29.7184 17.5698 29.7206 17.5746C29.723 17.5785 29.7249 17.5827 29.726 17.5872L29.7326 17.6009C29.7326 17.6009 29.7326 17.61 29.7326 17.6146C29.7326 17.6192 29.7326 17.6237 29.7326 17.6294V17.6431V17.658C29.7331 17.6625 29.7331 17.6671 29.7326 17.6717C29.7326 17.6717 29.7326 17.682 29.7326 17.6865C29.732 17.6915 29.732 17.6965 29.7326 17.7014V17.7162C29.7331 17.7212 29.7331 17.7262 29.7326 17.7311M30.0767 16.7031C29.8888 16.6506 29.7009 16.6015 29.5152 16.5398L29.4551 16.5204C29.2443 16.5878 29.0302 16.6472 28.8161 16.7008V16.4107C28.8161 16.1937 28.8106 16.0167 28.9461 15.8396L28.9657 15.8145L28.9876 15.7894L29.0094 15.7665L29.0335 15.7437L29.0586 15.7231L29.0837 15.7026L29.1099 15.6843L29.1372 15.6672L29.1656 15.6512L29.1941 15.6375L29.2235 15.6249L29.2541 15.6135L29.2836 15.6044L29.3153 15.5964L29.3459 15.5895H29.3776C29.403 15.5872 29.4286 15.5872 29.454 15.5895C29.619 15.5932 29.776 15.6646 29.891 15.7882C30.0658 15.9733 30.0734 16.1526 30.0734 16.3947L30.0767 16.7031Z" fill="#14522A"/>
<path d="M29.4332 17.4273C29.4629 17.4221 29.4932 17.4221 29.5228 17.4273C29.5604 17.4344 29.5963 17.4494 29.6282 17.4714C29.6601 17.4934 29.6874 17.5219 29.7085 17.5552C29.7117 17.559 29.7143 17.5632 29.7162 17.5678C29.7188 17.5717 29.721 17.5759 29.7227 17.5804C29.7253 17.5847 29.7275 17.5893 29.7293 17.5941C29.7316 17.5984 29.7334 17.603 29.7347 17.6078L29.7402 17.6215C29.7402 17.6215 29.7402 17.6306 29.7402 17.6352V17.65V17.6637C29.7407 17.6687 29.7407 17.6736 29.7402 17.6786C29.7402 17.6786 29.7402 17.6889 29.7402 17.6934C29.7397 17.6984 29.7397 17.7033 29.7402 17.7083V17.7231C29.7403 17.7379 29.7403 17.7379 29.7403 17.7527C29.7403 17.7527 29.7402 17.7631 29.7402 17.7677V17.7825C29.7282 17.8297 29.7067 17.8737 29.6771 17.9116C29.6476 17.9494 29.6106 17.9802 29.5687 18.0018C29.5851 18.1994 29.5993 18.397 29.6091 18.5946H29.3338C29.3393 18.3993 29.3601 18.2028 29.3699 18.0075C29.2908 17.9591 29.2311 17.8824 29.2017 17.7917C29.1922 17.7532 29.1904 17.7131 29.1962 17.6738C29.202 17.6345 29.2154 17.5969 29.2355 17.5632C29.2578 17.5274 29.2866 17.4965 29.3204 17.4724C29.3541 17.4483 29.3921 17.4314 29.4322 17.4227" fill="white"/>
</g>
<defs>
<filter id="filter0_f_23987_7189" x="22.7417" y="10.0785" width="13.4614" height="14.6726" filterUnits="userSpaceOnUse" color-interpolation-filters="sRGB">
<feFlood flood-opacity="0" result="BackgroundImageFix"/>
<feBlend mode="normal" in="SourceGraphic" in2="BackgroundImageFix" result="shape"/>
<feGaussianBlur stdDeviation="2" result="effect1_foregroundBlur_23987_7189"/>
</filter>
<clipPath id="clip0_23987_7189">
<rect width="35" height="23" fill="white"/>
</clipPath>
</defs>
</svg>
