<svg width="82" height="333" viewBox="0 0 82 333" fill="none" xmlns="http://www.w3.org/2000/svg">
<path d="M0.815711 167.347C0.272886 167.245 -0.0846519 166.723 0.0171278 166.18C0.118908 165.637 0.641463 165.279 1.18429 165.381L1 166.364L0.815711 167.347ZM30.5 213.864L29.5081 213.991L30.5 213.864ZM81.2071 324.157C81.5976 324.547 81.5976 325.181 81.2071 325.571L74.8431 331.935C74.4526 332.326 73.8195 332.326 73.4289 331.935C73.0384 331.545 73.0384 330.911 73.4289 330.521L79.0858 324.864L73.4289 319.207C73.0384 318.817 73.0384 318.183 73.4289 317.793C73.8195 317.402 74.4526 317.402 74.8431 317.793L81.2071 324.157ZM1 166.364L1.18429 165.381C9.74542 166.986 27.0565 179.06 31.4919 213.737L30.5 213.864L29.5081 213.991C25.1435 179.868 8.25458 168.742 0.815711 167.347L1 166.364ZM30.5 213.864L31.4919 213.737C32.8678 224.494 33.7813 236.874 35.0882 249.243C36.3994 261.653 38.1119 274.121 41.0909 285.23C44.0724 296.349 48.2998 306.016 54.5821 312.893C60.8302 319.732 69.1561 323.864 80.5 323.864V324.864V325.864C68.5939 325.864 59.7323 321.496 53.1054 314.242C46.5127 307.025 42.1776 297.004 39.1591 285.748C36.1381 274.482 34.4131 261.887 33.0993 249.453C31.7812 236.979 30.8822 224.734 29.5081 213.991L30.5 213.864Z" fill="#C0A9FF"/>
<path d="M1.97269 166.614C1.42061 166.599 0.98529 166.139 1.00037 165.587C1.01546 165.035 1.47523 164.599 2.02731 164.614L2 165.614L1.97269 166.614ZM43.239 188.229L44.0562 187.653L43.239 188.229ZM81.731 218.932C82.1079 219.335 82.0861 219.968 81.6824 220.345L75.1034 226.486C74.6996 226.863 74.0668 226.841 73.69 226.438C73.3131 226.034 73.3349 225.401 73.7386 225.024L79.5866 219.565L74.1276 213.717C73.7508 213.314 73.7725 212.681 74.1762 212.304C74.58 211.927 75.2128 211.949 75.5896 212.353L81.731 218.932ZM2 165.614L2.02731 164.614C7.85669 164.774 15.9555 167.144 23.7574 171.127C31.5667 175.114 39.2114 180.784 44.0562 187.653L43.239 188.229L42.4218 188.806C37.8263 182.29 30.4826 176.806 22.848 172.909C15.2059 169.007 7.40537 166.762 1.97269 166.614L2 165.614ZM43.239 188.229L44.0562 187.653C49.8362 195.848 55.8724 203.507 62.1053 209.168C68.351 214.84 74.675 218.396 81.0344 218.615L81 219.614L80.9656 220.613C73.9099 220.371 67.1456 216.447 60.7607 210.648C54.3628 204.838 48.2261 197.035 42.4218 188.806L43.239 188.229Z" fill="#C0A9FF"/>
<path d="M1.97269 165.614C1.42061 165.629 0.98529 166.089 1.00037 166.641C1.01546 167.193 1.47523 167.629 2.02731 167.614L2 166.614L1.97269 165.614ZM43.239 143.999L44.0562 144.575L43.239 143.999ZM81.731 113.296C82.1079 112.893 82.0861 112.26 81.6824 111.883L75.1034 105.742C74.6996 105.365 74.0668 105.387 73.69 105.79C73.3131 106.194 73.3349 106.827 73.7386 107.204L79.5866 112.663L74.1276 118.511C73.7508 118.914 73.7725 119.547 74.1762 119.924C74.58 120.301 75.2128 120.279 75.5896 119.875L81.731 113.296ZM2 166.614L2.02731 167.614C7.85669 167.454 15.9555 165.084 23.7574 161.101C31.5667 157.114 39.2114 151.444 44.0562 144.575L43.239 143.999L42.4218 143.422C37.8263 149.938 30.4826 155.422 22.848 159.32C15.2059 163.221 7.40537 165.466 1.97269 165.614L2 166.614ZM43.239 143.999L44.0562 144.575C49.8362 136.38 55.8724 128.721 62.1053 123.06C68.351 117.388 74.675 113.832 81.0344 113.613L81 112.614L80.9656 111.615C73.9099 111.857 67.1456 115.781 60.7607 121.58C54.3628 127.39 48.2261 135.193 42.4218 143.422L43.239 143.999Z" fill="#C0A9FF"/>
<path d="M0.815711 164.881C0.272886 164.983 -0.0846519 165.505 0.0171278 166.048C0.118908 166.591 0.641463 166.949 1.18429 166.847L1 165.864L0.815711 164.881ZM30.5 118.364L29.5081 118.237L30.5 118.364ZM81.2071 8.07112C81.5976 7.6806 81.5976 7.04743 81.2071 6.65691L74.8431 0.292946C74.4526 -0.0975785 73.8195 -0.0975785 73.4289 0.292946C73.0384 0.68347 73.0384 1.31664 73.4289 1.70716L79.0858 7.36401L73.4289 13.0209C73.0384 13.4114 73.0384 14.0446 73.4289 14.4351C73.8195 14.8256 74.4526 14.8256 74.8431 14.4351L81.2071 8.07112ZM1 165.864L1.18429 166.847C9.74542 165.242 27.0565 153.168 31.4919 118.491L30.5 118.364L29.5081 118.237C25.1435 152.36 8.25458 163.486 0.815711 164.881L1 165.864ZM30.5 118.364L31.4919 118.491C32.8678 107.734 33.7813 95.354 35.0882 82.9847C36.3994 70.575 38.1119 58.1073 41.0909 46.998C44.0724 35.8793 48.2998 26.2123 54.5821 19.3354C60.8302 12.4958 69.1561 8.36401 80.5 8.36401V7.36401V6.36401C68.5939 6.36401 59.7323 10.7323 53.1054 17.9864C46.5127 25.2033 42.1776 35.2237 39.1591 46.48C36.1381 57.7458 34.4131 70.3405 33.0993 82.7746C31.7812 95.2491 30.8822 107.494 29.5081 118.237L30.5 118.364Z" fill="#C0A9FF"/>
</svg>
